<svg xmlns="http://www.w3.org/2000/svg" width="143" height="104" viewBox="-22 0 143 104">
  <g id="X3Fhzk.tif" transform="translate(-163.556 -567.979)">
    <g id="Group_288" data-name="Group 288">
      <path id="Path_410" data-name="Path 410" d="M239.164,628.358c1.814,1.475,3.56,2.819,5.219,4.265a21.238,21.238,0,0,1,4.927,5.447c2.465,4.416,2.275,8.958.263,13.407a20.085,20.085,0,0,1-15.422,12.065c-4.8.875-9.27-.059-12.957-3.5a21.179,21.179,0,0,1-4.1-6.093c-.942-1.845-1.779-3.743-2.713-5.723-.16.331-.287.612-.429.885-1.494,2.883-2.832,5.861-4.523,8.623-2.575,4.205-6.651,6-11.437,6.056a20.315,20.315,0,0,1-19.76-15.156,13.391,13.391,0,0,1,4.005-13.982c2.321-2.154,4.772-4.168,7.167-6.247-.474,0-1.022.024-1.567,0-3.08-.159-6.178-.17-9.232-.54a12.026,12.026,0,0,1-8.276-5.131,18.115,18.115,0,0,1-3.393-13.1,19.839,19.839,0,0,1,6.129-12.891c3.6-3.4,7.823-5.147,12.815-3.984a35.414,35.414,0,0,1,6,2.165c1.975.859,3.859,1.929,5.783,2.908.235.12.469.243.762.394-.512-2.234-1.076-4.366-1.475-6.529-.481-2.6-.966-5.232-.371-7.89a14.525,14.525,0,0,1,7.862-9.976,20.352,20.352,0,0,1,19.6-.068c5.015,2.562,9.012,7.79,8.115,14.393-.381,2.807-1.047,5.576-1.6,8.358-.144.719-.364,1.423-.59,2.288.428-.225.747-.383,1.056-.558a68.122,68.122,0,0,1,10.114-4.851c5.724-2.079,10.746-.771,15.065,3.266a20.461,20.461,0,0,1,4.47,23.321,13.377,13.377,0,0,1-11.93,8.194c-2.888.177-5.789.132-8.685.186C239.791,628.362,239.531,628.358,239.164,628.358Z" fill="none" stroke="#000" stroke-miterlimit="10" stroke-width="6.519"/>
    </g>
  </g>
</svg>
