<?xml version="1.0" encoding="utf-8"?>
<!-- Generator: Adobe Illustrator 25.0.1, SVG Export Plug-In . SVG Version: 6.00 Build 0)  -->
<svg version="1.1" id="Capa_1" xmlns="http://www.w3.org/2000/svg" xmlns:xlink="http://www.w3.org/1999/xlink" x="0px" y="0px"
	 viewBox="0 0 1024 1024" style="enable-background:new 0 0 1024 1024;" xml:space="preserve">
<g>
	<g>
		<g>
			<g transform="translate(-2610.000000, -1236.000000)">
				<g transform="translate(2610.000000, 1236.000000)">
					<g id="Shape_40_">
						<path d="M589.53,833.48L507.34,649.7l0.32-170.42l161.68,51.74l149.81,135.73l-64.58,152.54L589.53,833.48z M518.77,647.28
							l77.87,174.13l150.09-12.91l58.74-138.72L663.51,541.15l-144.45-46.23L518.77,647.28z"/>
					</g>
				</g>
			</g>
		</g>
		<g>
			
				<rect x="626.36" y="582.68" transform="matrix(0.5835 -0.8121 0.8121 0.5835 -328.5255 816.7887)" width="11.42" height="292.03"/>
		</g>
		<g>
			
				<rect x="700.66" y="528.79" transform="matrix(0.9528 -0.3035 0.3035 0.9528 -171.4711 246.1827)" width="11.42" height="292.03"/>
		</g>
	</g>
	<g>
		<g>
			<g transform="translate(-2610.000000, -1236.000000)">
				<g transform="translate(2610.000000, 1236.000000)">
					<g id="Shape_39_">
						<path d="M350.63,541.9l-1.22-0.15l-209.66-25.9l-35.99-167.38l-25.9-133.88l161.41,19.72L420.14,342l102.1,146.91
							L350.63,541.9z M149.22,505.51l200.38,24.76l154.34-47.67l-91.77-132.04L235.5,245.36L92.06,227.84l22.9,118.35L149.22,505.51
							z"/>
					</g>
				</g>
			</g>
		</g>
		<g>
			<rect x="226.47" y="286.36" transform="matrix(0.6053 -0.796 0.796 0.6053 -259.1369 358.7619)" width="11.43" height="308.64"/>
		</g>
		<g>
			<g>
				<polygon points="417.86,356.28 109.35,352.97 109.04,344.87 109.35,339.65 228.03,236.84 235.51,245.47 124.43,341.7 
					417.98,344.85 				"/>
			</g>
		</g>
	</g>
	<g>
		<g>
			<g transform="translate(-2610.000000, -1236.000000)">
				<g transform="translate(2610.000000, 1236.000000)">
					<g id="Shape_38_">
						<polygon points="435.82,833.48 270.78,819.29 206.2,666.76 356.01,531.02 510.25,481.66 513.73,492.54 361.85,541.15 
							219.89,669.77 278.62,808.5 428.71,821.41 507.08,646.16 517.51,650.82 						"/>
					</g>
				</g>
			</g>
		</g>
		<g>
			
				<rect x="247.26" y="722.98" transform="matrix(0.8121 -0.5835 0.5835 0.8121 -351.3215 366.4318)" width="292.03" height="11.42"/>
		</g>
		<g>
			
				<rect x="172.97" y="669.1" transform="matrix(0.3033 -0.9529 0.9529 0.3033 -420.7859 774.0928)" width="292.03" height="11.42"/>
		</g>
	</g>
	<g>
		<g>
			<g transform="translate(-2610.000000, -1236.000000)">
				<g transform="translate(2610.000000, 1236.000000)">
					<g id="Shape_37_">
						<path d="M676.23,541.9l-171.61-52.99L606.72,342l180.87-107.69L949,214.59l-25.87,133.76l-36.02,167.49L676.23,541.9z
							 M522.92,482.6l154.34,47.67l200.38-24.76l34.29-159.44l22.87-118.23l-143.44,17.53L614.69,350.55L522.92,482.6z"/>
					</g>
				</g>
			</g>
		</g>
		<g>
			
				<rect x="640.36" y="434.97" transform="matrix(0.7959 -0.6055 0.6055 0.7959 -104.6017 571.0925)" width="308.64" height="11.43"/>
		</g>
		<g>
			<g>
				<polygon points="609.01,356.28 608.88,344.85 902.43,341.7 791.35,245.47 798.83,236.84 918.78,340.75 916.29,352.98 
					916.29,352.98 				"/>
			</g>
		</g>
	</g>
</g>
</svg>
