<svg xmlns="http://www.w3.org/2000/svg" width="316.224" height="83.034" viewBox="0 0 316.224 83.034">
  <g id="Group_259" data-name="Group 259" transform="translate(-81.902 -658.149)">
    <path id="Path_326" data-name="Path 326" d="M186.719,676.162H208.98v1.047H187.872v16.342h19.536V694.6H187.872v17.18H208.98v1.047H186.719Z" transform="translate(-9.297 -1.598)" fill="#231f20"/>
    <path id="Path_327" data-name="Path 327" d="M217.59,704.431v-19.9c0-6.547,3.4-8.537,9.009-8.537h9.584c5.605,0,9.009,1.99,9.009,8.537v19.9c0,6.548-3.4,8.538-9.009,8.538H226.6C220.995,712.969,217.59,710.978,217.59,704.431Zm1.153-19.641v19.38c0,5.709,2.461,7.752,7.856,7.752h9.584c5.4,0,7.857-2.042,7.857-7.752v-19.38c0-5.709-2.461-7.752-7.857-7.752H226.6C221.2,677.037,218.743,679.08,218.743,684.789Z" transform="translate(-12.036 -1.583)" fill="#231f20"/>
    <path id="Path_328" data-name="Path 328" d="M278.943,677.037H264.382c-6.809,0-8.38,1.519-8.38,7.228v1.99c0,2.724.629,3.352,3.929,4.033,0,0,11.1,2.148,16.027,3.09,2.985.576,5.081,1.676,5.081,5.447v5.552c0,6.547-2.514,8.642-9.532,8.537-11.1,0-17.18-.1-17.18-.1v-.942h17.18c6.809,0,8.38-2.043,8.38-7.752v-5.029c0-2.619-.786-4.033-3.824-4.609-5.081-1-12.78-2.41-16.237-3.037-3.09-.577-4.976-1.206-4.976-4.924V684c0-6.547,2.514-8.119,9.532-8.014,11.1,0,14.561.1,14.561.1Z" transform="translate(-15.294 -1.582)" fill="#231f20"/>
    <g id="Group_256" data-name="Group 256" transform="translate(279.492 674.564)">
      <path id="Path_329" data-name="Path 329" d="M302.654,712.826h-3.929V676.162h17.861c6.076,0,9.584,2.933,9.584,9.114v4.033c0,5.185-2.3,7.856-6.547,8.642l7.8,14.875h-4.19l-7.595-14.351h-12.99Zm19.694-24.355V686.01c0-4.608-1.362-6.391-6.495-6.391h-13.2v15.4h13.2C320.985,695.019,322.348,693.08,322.348,688.471Z" transform="translate(-298.725 -676.162)" fill="#231f20"/>
      <path id="Path_330" data-name="Path 330" d="M357.19,701.461H340.167l-3.875,11.366H331.84s12.151-35.2,12.361-35.931c.157-.471.262-.734,1.1-.734h6.756c.838,0,.943.262,1.1.734.209.734,12.36,35.931,12.36,35.931h-4.452Zm-16.028-3.4h14.98l-6.232-18.594h-2.461Z" transform="translate(-301.662 -676.162)" fill="#231f20"/>
      <path id="Path_331" data-name="Path 331" d="M394.162,679.567H382.01v33.26h-3.928v-33.26H365.93v-3.4h28.232Z" transform="translate(-304.686 -676.162)" fill="#231f20"/>
      <path id="Path_332" data-name="Path 332" d="M402.089,676.162h24.094v3.457H406.018v12.729h18.228v3.561H406.018v13.3h20.165v3.613H402.089Z" transform="translate(-307.894 -676.162)" fill="#231f20"/>
    </g>
    <g id="Group_257" data-name="Group 257" transform="translate(81.902 658.149)">
      <path id="Path_333" data-name="Path 333" d="M122.986,684.939c1.279-3.115,2.544-6.231,3.823-9.346a.219.219,0,0,0-.074-.31c-1.7-1.515-3.414-3.028-5.114-4.543l-4.729-4.207a.675.675,0,0,0-.1-.062.041.041,0,0,1-.025.013c2.036,6.205,4.084,12.4,6.131,18.642C122.937,685.039,122.961,684.989,122.986,684.939Z" transform="translate(-84.995 -658.887)" fill="none"/>
      <path id="Path_334" data-name="Path 334" d="M109.4,688.558c1.936-.186,3.885-.385,5.82-.571,1.415-.136,2.818-.285,4.22-.422.062,0,.124-.012.236-.025q-8.1-5.622-16.123-11.2c-.013,0-.025.013-.037.025.459.956.906,1.912,1.353,2.88q1.3,2.793,2.606,5.6c.559,1.2,1.129,2.408,1.675,3.611C109.213,688.571,109.287,688.571,109.4,688.558Z" transform="translate(-83.819 -659.763)" fill="none"/>
      <path id="Path_335" data-name="Path 335" d="M119.5,683.964c0-.012.012-.012.025-.025-.248-.745-.5-1.5-.745-2.259q-2.868-8.694-5.735-17.388a.367.367,0,0,0-.261-.261q-5.193-1.582-10.388-3.19c-.037-.013-.087-.025-.149-.049v.186c.026,3.624.062,7.26.1,10.885a.277.277,0,0,0,.124.249q8.453,5.883,16.88,11.754C119.39,683.89,119.452,683.927,119.5,683.964Z" transform="translate(-83.707 -658.383)" fill="none"/>
      <path id="Path_336" data-name="Path 336" d="M115.021,701.075a1.4,1.4,0,0,0-.173-.149c-1.043-.956-2.085-1.911-3.128-2.854q-2.16-1.974-4.332-3.947c-.074-.075-.137-.125-.248-.05-1.166.633-2.334,1.254-3.5,1.886q-2.737,1.471-5.449,2.929c-.93.509-1.862,1.006-2.792,1.515a.047.047,0,0,0,.012.037Z" transform="translate(-83.099 -661.332)" fill="none"/>
      <path id="Path_337" data-name="Path 337" d="M112.753,703.627c0-.013,0-.013-.013-.026a.852.852,0,0,0-.173-.012q-10.278-.335-20.542-.646a.243.243,0,0,0-.261.125q-3.3,4.337-6.578,8.663a1.223,1.223,0,0,1-.112.149c.075.025.112.049.149.062q5.121,1.806,10.24,3.636a.371.371,0,0,0,.36-.049q7.5-5.27,14.993-10.537C111.462,704.545,112.108,704.086,112.753,703.627Z" transform="translate(-82.183 -662.122)" fill="none"/>
      <path id="Path_338" data-name="Path 338" d="M139.23,689.805l-6.74-.67a.256.256,0,0,1-.261-.187q-2.327-5.7-4.654-11.419-2.346,5.715-4.667,11.419a.265.265,0,0,1-.261.187l-6.74.67q-3.575.335-7.136.7h-.012l.036.037c1.762,1.6,3.538,3.214,5.3,4.828,1.676,1.514,3.351,3.04,5.014,4.555a.253.253,0,0,1,.1.3q-1.75,6.739-3.475,13.491c3.909-2.358,7.844-4.716,11.754-7.086a.26.26,0,0,1,.31,0q2.886,1.75,5.784,3.488c1.937,1.166,3.872,2.346,5.809,3.512-1.142-4.481-2.3-8.936-3.45-13.4a.27.27,0,0,1,.1-.3c1.675-1.515,3.338-3.041,5.014-4.555q2.644-2.421,5.312-4.828a.38.38,0,0,1,.046-.034s-.033,0-.046,0C143.983,690.264,141.613,690.028,139.23,689.805Z" transform="translate(-84.284 -659.868)" fill="none"/>
      <path id="Path_339" data-name="Path 339" d="M134.833,684.939c.025.05.049.1.087.186,2.049-6.242,4.084-12.436,6.131-18.642-.012,0-.025-.013-.036-.013-.026.025-.063.037-.087.062L136.2,670.74c-1.712,1.515-3.413,3.028-5.126,4.543a.242.242,0,0,0-.075.31Z" transform="translate(-86.255 -658.887)" fill="none"/>
      <path id="Path_340" data-name="Path 340" d="M150.068,691.771c.049,0,.1,0,.124-.037C150.143,691.709,150.105,691.734,150.068,691.771Z" transform="translate(-87.948 -661.127)" fill="none"/>
      <path id="Path_341" data-name="Path 341" d="M116.173,704.456l-16.048,11.307a.042.042,0,0,1,.012.025h.112c2.11-.186,4.207-.373,6.305-.546,2.271-.2,4.542-.4,6.826-.583a.231.231,0,0,0,.236-.211c.832-3.264,1.676-6.529,2.507-9.78A1.629,1.629,0,0,0,116.173,704.456Z" transform="translate(-83.518 -662.257)" fill="none"/>
      <path id="Path_342" data-name="Path 342" d="M137.592,683.939l.026.025a1.073,1.073,0,0,1,.149-.1q8.434-5.883,16.867-11.754a.262.262,0,0,0,.137-.249c.037-3.624.062-7.26.1-10.885v-.186c-.075.025-.112.036-.161.049q-5.175,1.6-10.376,3.19a.367.367,0,0,0-.261.261q-2.868,8.7-5.734,17.388C138.089,682.437,137.841,683.194,137.592,683.939Z" transform="translate(-86.842 -658.383)" fill="none"/>
      <path id="Path_343" data-name="Path 343" d="M153.674,676.345l-16.122,11.2c.111.013.173.025.235.025,1.4.137,2.8.286,4.207.422,1.949.187,3.885.385,5.834.571.1.013.186.013.235-.1l1.676-3.611q1.322-2.812,2.619-5.6c.447-.968.893-1.924,1.341-2.88C153.687,676.358,153.687,676.345,153.674,676.345Z" transform="translate(-86.838 -659.763)" fill="none"/>
      <path id="Path_344" data-name="Path 344" d="M128.91,714.545c-.013-.049-.037-.112-.05-.161a.046.046,0,0,1-.037-.013c-.248.757-.509,1.5-.756,2.259q-2.886,8.657-5.772,17.3a.341.341,0,0,0,.05.36q3.2,4.376,6.392,8.737c.025.037.062.075.1.137a1.5,1.5,0,0,1,.112-.149l6.4-8.75a.271.271,0,0,0,.05-.286Q132.143,724.264,128.91,714.545Z" transform="translate(-85.482 -663.136)" fill="none"/>
      <path id="Path_345" data-name="Path 345" d="M142.683,717.322c-.1-.062-.211-.124-.31-.186.013.025.013.062.025.087.037.125.087.187.223.187.05,0,.1.012.149.012C142.77,717.372,142.733,717.347,142.683,717.322Z" transform="translate(-87.266 -663.381)" fill="none"/>
      <path id="Path_346" data-name="Path 346" d="M139.7,717.71q-2.512-1.49-5-3c-1.2-.733-2.42-1.453-3.624-2.172-.05-.037-.1-.062-.2-.124,2.085,6.219,4.145,12.387,6.206,18.556.012,0,.025-.013.037-.013.223-1.031.434-2.06.645-3.1.422-2,.831-4.009,1.253-6.02.261-1.3.534-2.594.807-3.885C139.852,717.809,139.79,717.772,139.7,717.71Z" transform="translate(-86.246 -662.962)" fill="none"/>
      <path id="Path_347" data-name="Path 347" d="M161.518,700.4c-.943-.508-1.875-1.005-2.8-1.515q-2.719-1.452-5.437-2.929c-1.166-.632-2.333-1.253-3.5-1.886-.125-.075-.187-.025-.261.05q-2.16,1.973-4.332,3.947c-1.043.943-2.085,1.9-3.128,2.854-.049.037-.087.075-.173.149l19.622-.633A.045.045,0,0,1,161.518,700.4Z" transform="translate(-87.222 -661.332)" fill="none"/>
      <path id="Path_348" data-name="Path 348" d="M164.368,703.069a.261.261,0,0,0-.261-.125q-10.277.317-20.542.646a.981.981,0,0,0-.186.012c0,.013-.013.013-.013.026.645.458,1.3.918,1.948,1.365q7.485,5.268,14.981,10.537a.375.375,0,0,0,.36.049q5.121-1.824,10.24-3.636a1.4,1.4,0,0,0,.149-.062,1.007,1.007,0,0,1-.1-.149Q167.65,707.394,164.368,703.069Z" transform="translate(-87.354 -662.122)" fill="none"/>
      <path id="Path_349" data-name="Path 349" d="M141.13,704.667c.831,3.252,1.675,6.516,2.507,9.78a.234.234,0,0,0,.248.211c2.271.186,4.543.385,6.814.583,2.1.173,4.207.36,6.305.546h.112a.04.04,0,0,0,.012-.025q-8-5.641-16.035-11.307A2.036,2.036,0,0,0,141.13,704.667Z" transform="translate(-87.152 -662.257)" fill="none"/>
      <path id="Path_350" data-name="Path 350" d="M127.028,712.511q-4.32,2.607-8.639,5.2a.23.23,0,0,0-.124.285c.472,2.222.931,4.455,1.39,6.677.435,2.06.857,4.121,1.279,6.181.013.037.026.062.037.1,0,.013.013.013.025.013q3.11-9.253,6.206-18.543C127.115,712.461,127.077,712.486,127.028,712.511Z" transform="translate(-85.127 -662.963)" fill="none"/>
      <path id="Path_351" data-name="Path 351" d="M116.39,717.231a.862.862,0,0,1-.137.088.3.3,0,0,0-.112.1h.026C116.3,717.418,116.352,717.356,116.39,717.231Z" transform="translate(-84.939 -663.39)" fill="none"/>
      <path id="Path_352" data-name="Path 352" d="M167.4,707.349q-3.76-5.008-7.546-9.991a1.9,1.9,0,0,0-.671-.459c-2.656-1.453-5.325-2.892-7.98-4.331l-7-3.8-.039-.019.027-.056c1.116-2.419,2.234-4.815,3.351-7.223,1.279-2.756,2.544-5.511,3.823-8.254a1.842,1.842,0,0,0,.261-.77c.025-4.17.062-8.34.087-12.51.013-.6.013-1.179.013-1.788a1.535,1.535,0,0,0-.149.037q-6.627,2.048-13.243,4.1a1.77,1.77,0,0,0-.906.5l-.112.112q-3.313,2.9-6.628,5.833c-1.824,1.614-3.673,3.227-5.5,4.854-1.849-1.614-3.673-3.24-5.511-4.854q-3.313-2.923-6.628-5.833l-.112-.112a1.854,1.854,0,0,0-.919-.5q-6.608-2.048-13.23-4.1c-.05-.012-.087-.025-.149-.037v1.788q.056,6.255.1,12.51a1.842,1.842,0,0,0,.261.77q1.9,4.114,3.823,8.254c1.117,2.408,2.235,4.8,3.339,7.223l.032.071-7.007,3.8q-4,2.16-7.993,4.331a1.9,1.9,0,0,0-.671.459q-3.76,4.989-7.546,9.991c-.347.459-.707.93-1.079,1.427l.149.049q6.534,2.309,13.069,4.63a1.956,1.956,0,0,0,1.031.136.629.629,0,0,1,.149-.012c2.942-.249,5.871-.484,8.8-.733,2.668-.223,5.3-.437,7.958-.66l.035.151q.838,3.929,1.65,7.856c.609,2.867,1.217,5.747,1.824,8.614a.612.612,0,0,1,.026.149,1.829,1.829,0,0,0,.434.943q4.078,5.566,8.142,11.158a.674.674,0,0,1,.087.124c.36-.5.707-.968,1.055-1.44q3.7-5.026,7.4-10.053a1.908,1.908,0,0,0,.236-.769l1.862-8.862c.546-2.594,1.08-5.188,1.626-7.77l.017-.095.01,0c2.631.223,5.211.428,7.829.652,2.942.249,5.871.484,8.8.733a.629.629,0,0,1,.149.012,2.016,2.016,0,0,0,1.043-.136q6.516-2.328,13.057-4.63c.037-.012.087-.025.149-.049C168.113,708.279,167.764,707.808,167.4,707.349ZM144.2,690.941c.074-.075.136-.125.261-.05,1.166.633,2.333,1.254,3.5,1.886q2.719,1.471,5.437,2.929c.93.509,1.862,1.006,2.8,1.515a.045.045,0,0,0-.013.037l-19.622.633c.087-.075.124-.112.173-.149,1.043-.956,2.085-1.911,3.128-2.854Q142.042,692.914,144.2,690.941Zm3.227-13.306q-1.3,2.793-2.619,5.6l-1.676,3.611c-.049.112-.136.112-.235.1-1.949-.186-3.885-.385-5.834-.571-1.4-.136-2.8-.285-4.207-.422-.062,0-.124-.012-.235-.025l16.122-11.2c.013,0,.013.013.026.025C148.316,675.712,147.869,676.667,147.423,677.635Zm-8.291-13.578a.367.367,0,0,1,.261-.261q5.194-1.582,10.376-3.19c.049-.013.087-.025.161-.049v.186c-.037,3.624-.062,7.26-.1,10.885a.262.262,0,0,1-.137.249q-8.434,5.883-16.867,11.754a1.073,1.073,0,0,0-.149.1l-.026-.025c.249-.745.5-1.5.745-2.259Q136.264,672.752,139.132,664.057ZM126.72,674.545c1.713-1.515,3.414-3.028,5.126-4.543l4.729-4.207c.025-.025.062-.037.087-.062.012,0,.025.013.036.013-2.048,6.205-4.083,12.4-6.131,18.642-.037-.087-.062-.136-.087-.186l-3.836-9.346A.242.242,0,0,1,126.72,674.545Zm-13.02-8.812a.675.675,0,0,1,.1.062L118.528,670c1.7,1.515,3.414,3.028,5.114,4.543a.219.219,0,0,1,.074.31c-1.279,3.116-2.544,6.231-3.823,9.346-.025.05-.049.1-.087.186-2.048-6.242-4.1-12.436-6.131-18.642A.041.041,0,0,0,113.7,665.733Zm-13.156,5.9c-.037-3.624-.074-7.26-.1-10.885v-.186c.062.025.112.036.149.049q5.194,1.6,10.388,3.19a.367.367,0,0,1,.261.261q2.868,8.7,5.735,17.388c.248.757.5,1.515.745,2.259-.013.013-.025.013-.025.025-.05-.036-.112-.074-.149-.1q-8.433-5.883-16.88-11.754A.277.277,0,0,1,100.544,671.628Zm5.015,11.605q-1.3-2.812-2.606-5.6c-.447-.968-.894-1.924-1.353-2.88.013-.012.025-.025.037-.025q8.043,5.585,16.123,11.2c-.112.013-.174.025-.236.025-1.4.137-2.8.286-4.22.422-1.936.187-3.885.385-5.82.571-.112.013-.187.013-.249-.1C106.687,685.641,106.117,684.437,105.558,683.233Zm-8.564,12.473q2.719-1.452,5.449-2.929c1.166-.632,2.334-1.253,3.5-1.886.111-.075.174-.025.248.05q2.179,1.973,4.332,3.947c1.043.943,2.085,1.9,3.128,2.854a1.4,1.4,0,0,1,.173.149l-19.61-.633a.047.047,0,0,1-.012-.037C95.132,696.712,96.064,696.216,96.994,695.706Zm-1.452,15.85a.371.371,0,0,1-.36.049q-5.121-1.824-10.24-3.636c-.036-.013-.074-.037-.149-.062a1.223,1.223,0,0,0,.112-.149q3.277-4.337,6.578-8.663a.243.243,0,0,1,.261-.125q10.258.317,20.542.646a.852.852,0,0,1,.173.012c.013.013.013.013.013.026-.645.458-1.291.918-1.937,1.365Q103.032,706.287,95.542,711.557ZM112,710.34a.231.231,0,0,1-.236.211c-2.284.186-4.555.385-6.826.583-2.1.173-4.2.36-6.305.546H98.52a.042.042,0,0,0-.012-.025l16.048-11.307a1.629,1.629,0,0,1-.05.211C113.675,703.811,112.831,707.076,112,710.34Zm5.747,15.8c-.012-.037-.025-.062-.037-.1-.422-2.06-.844-4.121-1.279-6.181-.458-2.222-.918-4.455-1.39-6.677a.23.23,0,0,1,.124-.285q4.32-2.588,8.639-5.2c.049-.025.087-.049.173-.087q-3.108,9.309-6.206,18.543C117.759,726.153,117.746,726.153,117.746,726.14Zm14.025,3.14-6.4,8.75a1.494,1.494,0,0,0-.112.149c-.037-.062-.075-.1-.1-.137q-3.184-4.356-6.392-8.737a.341.341,0,0,1-.05-.36q2.887-8.657,5.772-17.3c.248-.757.508-1.5.756-2.259a.046.046,0,0,0,.037.013c.013.049.037.112.05.161q3.24,9.718,6.491,19.436A.271.271,0,0,1,131.771,729.28Zm3.712-16.148c-.273,1.291-.547,2.582-.807,3.885-.422,2.011-.831,4.022-1.253,6.02-.211,1.042-.422,2.072-.645,3.1-.013,0-.026.013-.037.013-2.06-6.169-4.121-12.337-6.206-18.556.1.062.149.087.2.124,1.2.72,2.42,1.44,3.624,2.172q2.495,1.508,5,3C135.445,712.959,135.507,713,135.483,713.132Zm-4.282-4.741q-2.9-1.732-5.784-3.488a.26.26,0,0,0-.31,0c-3.91,2.37-7.844,4.729-11.754,7.086q1.731-6.757,3.475-13.491a.253.253,0,0,0-.1-.3c-1.663-1.515-3.338-3.041-5.014-4.555-1.762-1.614-3.538-3.228-5.3-4.828l-.036-.037h.012q3.557-.354,7.136-.7l6.74-.67a.265.265,0,0,0,.261-.187q2.327-5.7,4.667-11.419,2.327,5.715,4.654,11.419a.256.256,0,0,0,.261.187l6.74.67c2.383.223,4.753.459,7.136.7.013,0,.046,0,.046,0l-.046.034q-2.661,2.4-5.312,4.828c-1.676,1.514-3.339,3.04-5.014,4.555a.27.27,0,0,0-.1.3c1.154,4.468,2.308,8.923,3.45,13.4C135.073,710.737,133.137,709.558,131.2,708.392Zm6.057,3.786c.037,0,.075.006.112.01C137.332,712.183,137.294,712.177,137.257,712.177Zm14.609-.5h-.112c-2.1-.186-4.207-.373-6.305-.546-2.271-.2-4.543-.4-6.814-.583a.234.234,0,0,1-.248-.211c-.832-3.264-1.676-6.529-2.507-9.78a2.036,2.036,0,0,1-.037-.211q8.042,5.678,16.035,11.307A.04.04,0,0,1,151.866,711.68Zm13.578-3.711q-5.121,1.806-10.24,3.636a.375.375,0,0,1-.36-.049q-7.484-5.27-14.981-10.537c-.645-.448-1.3-.907-1.948-1.365,0-.013.013-.013.013-.026a.981.981,0,0,1,.186-.012q10.258-.335,20.542-.646a.261.261,0,0,1,.261.125q3.277,4.337,6.578,8.663a1.007,1.007,0,0,0,.1.149A1.4,1.4,0,0,1,165.444,707.97Z" transform="translate(-81.902 -658.149)" fill="#231f20"/>
    </g>
    <g id="Group_258" data-name="Group 258" transform="translate(279.492 717.207)">
      <path id="Path_353" data-name="Path 353" d="M298.725,735.926v-12.58h3.618a7.175,7.175,0,0,1,1.863.213,3.521,3.521,0,0,1,1.3.627,2.556,2.556,0,0,1,.769,1.009,3.429,3.429,0,0,1,.253,1.351,2.706,2.706,0,0,1-.173.96,2.91,2.91,0,0,1-.5.854,3.232,3.232,0,0,1-.8.68,3.865,3.865,0,0,1-1.089.44,4.1,4.1,0,0,1,2.285.987,2.663,2.663,0,0,1,.8,2.018,3.514,3.514,0,0,1-.284,1.441,2.923,2.923,0,0,1-.827,1.084,3.765,3.765,0,0,1-1.333.68,6.3,6.3,0,0,1-1.8.236Zm.907-6.694h2.729a4.431,4.431,0,0,0,1.489-.222,2.953,2.953,0,0,0,1.013-.588,2.29,2.29,0,0,0,.582-.828,2.537,2.537,0,0,0,.187-.953,2.34,2.34,0,0,0-.8-1.927,3.9,3.9,0,0,0-2.485-.655h-2.711Zm0,.667v5.3h3.156a3.791,3.791,0,0,0,2.507-.716,2.493,2.493,0,0,0,.845-2.013,2.458,2.458,0,0,0-.227-1.072,2.23,2.23,0,0,0-.653-.808,3.037,3.037,0,0,0-1.049-.511,5.15,5.15,0,0,0-1.413-.178Z" transform="translate(-298.725 -722.991)" fill="#231f20"/>
      <path id="Path_354" data-name="Path 354" d="M311.91,727.443V733.1a3.028,3.028,0,0,0,.57,1.952,2.1,2.1,0,0,0,1.74.706,3.134,3.134,0,0,0,1.615-.44,4.71,4.71,0,0,0,1.347-1.222v-6.65h.845v8.846h-.466a.221.221,0,0,1-.255-.232l-.08-1.316a5.005,5.005,0,0,1-1.42,1.227,3.532,3.532,0,0,1-1.793.463,3.328,3.328,0,0,1-1.291-.231,2.363,2.363,0,0,1-.917-.667,2.946,2.946,0,0,1-.552-1.049,4.743,4.743,0,0,1-.187-1.387v-5.654Z" transform="translate(-299.82 -723.354)" fill="#231f20"/>
      <path id="Path_355" data-name="Path 355" d="M323.867,724.02a.686.686,0,0,1-.067.3.9.9,0,0,1-.174.244.8.8,0,0,1-.249.169.757.757,0,0,1-.6,0,.8.8,0,0,1-.249-.169.827.827,0,0,1-.169-.244.724.724,0,0,1-.062-.3.79.79,0,0,1,.062-.307.79.79,0,0,1,.418-.422.767.767,0,0,1,.6,0,.809.809,0,0,1,.249.169.874.874,0,0,1,.174.253A.748.748,0,0,1,323.867,724.02Zm-.374,3.049v8.846h-.845v-8.846Z" transform="translate(-300.816 -722.98)" fill="#231f20"/>
      <path id="Path_356" data-name="Path 356" d="M328.708,722.956v12.935h-.845V722.956Z" transform="translate(-301.31 -722.956)" fill="#231f20"/>
      <path id="Path_357" data-name="Path 357" d="M338.978,735.891a.238.238,0,0,1-.254-.232l-.089-1.4a4.68,4.68,0,0,1-1.375,1.271,3.373,3.373,0,0,1-1.767.471,3.086,3.086,0,0,1-2.542-1.129,5.31,5.31,0,0,1-.912-3.386,6.244,6.244,0,0,1,.253-1.809,4.306,4.306,0,0,1,.748-1.458,3.555,3.555,0,0,1,1.211-.974,3.669,3.669,0,0,1,1.651-.355,3.409,3.409,0,0,1,1.557.334,3.257,3.257,0,0,1,1.139.973v-5.245h.845v12.935Zm-3.246-.57a2.91,2.91,0,0,0,1.594-.453,4.516,4.516,0,0,0,1.273-1.263v-4.667a3.143,3.143,0,0,0-3.909-1.094,2.685,2.685,0,0,0-.983.8,3.626,3.626,0,0,0-.6,1.245,5.957,5.957,0,0,0-.2,1.6,4.688,4.688,0,0,0,.73,2.9A2.506,2.506,0,0,0,335.732,735.321Z" transform="translate(-301.68 -722.956)" fill="#231f20"/>
      <path id="Path_358" data-name="Path 358" d="M350.088,739.133a.609.609,0,0,1-.138.205.344.344,0,0,1-.244.079H349.1l1.556-3.457-3.743-8.517h.7a.3.3,0,0,1,.209.067.428.428,0,0,1,.111.147l2.978,6.881c.036.088.067.18.094.271s.052.186.076.281c.029-.095.06-.189.093-.281s.067-.182.1-.271l2.943-6.881a.383.383,0,0,1,.125-.155.291.291,0,0,1,.178-.058h.649Z" transform="translate(-302.999 -723.354)" fill="#231f20"/>
      <path id="Path_359" data-name="Path 359" d="M361.457,727.287a4.26,4.26,0,0,1,1.7.324,3.468,3.468,0,0,1,1.267.92,4.093,4.093,0,0,1,.787,1.435,6.651,6.651,0,0,1,0,3.756,4.089,4.089,0,0,1-.787,1.431,3.417,3.417,0,0,1-1.267.916,4.689,4.689,0,0,1-3.4,0,3.456,3.456,0,0,1-1.271-.916,4.025,4.025,0,0,1-.791-1.431,6.63,6.63,0,0,1,0-3.756,4.029,4.029,0,0,1,.791-1.435,3.508,3.508,0,0,1,1.271-.92A4.257,4.257,0,0,1,361.457,727.287Zm0,8.437a3.281,3.281,0,0,0,1.382-.271,2.627,2.627,0,0,0,.987-.777,3.436,3.436,0,0,0,.59-1.223,6.647,6.647,0,0,0,0-3.2,3.481,3.481,0,0,0-.59-1.232,2.651,2.651,0,0,0-.987-.786,3.61,3.61,0,0,0-2.765,0,2.644,2.644,0,0,0-.987.786,3.535,3.535,0,0,0-.6,1.232,6.5,6.5,0,0,0,0,3.2,3.489,3.489,0,0,0,.6,1.223,2.62,2.62,0,0,0,.987.777A3.278,3.278,0,0,0,361.457,735.724Z" transform="translate(-303.931 -723.34)" fill="#231f20"/>
      <path id="Path_360" data-name="Path 360" d="M369.855,727.443V733.1a3.028,3.028,0,0,0,.57,1.952,2.1,2.1,0,0,0,1.74.706,3.136,3.136,0,0,0,1.615-.44,4.71,4.71,0,0,0,1.347-1.222v-6.65h.844v8.846h-.465a.221.221,0,0,1-.255-.232l-.08-1.316a5,5,0,0,1-1.42,1.227,3.535,3.535,0,0,1-1.794.463,3.326,3.326,0,0,1-1.29-.231,2.363,2.363,0,0,1-.917-.667,2.945,2.945,0,0,1-.552-1.049,4.743,4.743,0,0,1-.187-1.387v-5.654Z" transform="translate(-304.959 -723.354)" fill="#231f20"/>
      <path id="Path_361" data-name="Path 361" d="M380.355,736.274v-8.846h.445a.317.317,0,0,1,.218.062.313.313,0,0,1,.076.214l.071,1.866a4.2,4.2,0,0,1,1.137-1.684,2.6,2.6,0,0,1,1.752-.61,3.033,3.033,0,0,1,.738.085,2.841,2.841,0,0,1,.64.244l-.116.587a.16.16,0,0,1-.178.142.477.477,0,0,1-.15-.036c-.066-.024-.147-.05-.245-.08a3.025,3.025,0,0,0-.848-.116,2.277,2.277,0,0,0-1.649.622,4.439,4.439,0,0,0-1.044,1.8v5.752Z" transform="translate(-305.966 -723.339)" fill="#231f20"/>
      <path id="Path_362" data-name="Path 362" d="M396.1,736.289h-.747l-3.734-8.846h.667a.29.29,0,0,1,.2.067.439.439,0,0,1,.111.147l2.916,6.979a2.417,2.417,0,0,1,.133.391c.029.125.059.249.089.374.029-.125.06-.251.093-.378a3.1,3.1,0,0,1,.129-.386l2.934-6.979a.4.4,0,0,1,.119-.155.289.289,0,0,1,.182-.058h.641Z" transform="translate(-306.965 -723.354)" fill="#231f20"/>
      <path id="Path_363" data-name="Path 363" d="M406.135,727.287a4.257,4.257,0,0,1,1.7.324,3.469,3.469,0,0,1,1.267.92,4.079,4.079,0,0,1,.787,1.435,6.651,6.651,0,0,1,0,3.756,4.075,4.075,0,0,1-.787,1.431,3.417,3.417,0,0,1-1.267.916,4.689,4.689,0,0,1-3.4,0,3.463,3.463,0,0,1-1.271-.916,4.04,4.04,0,0,1-.791-1.431,6.631,6.631,0,0,1,0-3.756,4.044,4.044,0,0,1,.791-1.435,3.516,3.516,0,0,1,1.271-.92A4.257,4.257,0,0,1,406.135,727.287Zm0,8.437a3.278,3.278,0,0,0,1.382-.271,2.62,2.62,0,0,0,.987-.777,3.453,3.453,0,0,0,.591-1.223,6.678,6.678,0,0,0,0-3.2,3.5,3.5,0,0,0-.591-1.232,2.644,2.644,0,0,0-.987-.786,3.61,3.61,0,0,0-2.765,0,2.651,2.651,0,0,0-.987.786,3.534,3.534,0,0,0-.6,1.232,6.5,6.5,0,0,0,0,3.2,3.489,3.489,0,0,0,.6,1.223,2.627,2.627,0,0,0,.987.777A3.281,3.281,0,0,0,406.135,735.724Z" transform="translate(-307.895 -723.34)" fill="#231f20"/>
      <path id="Path_364" data-name="Path 364" d="M416.246,736.129a1.884,1.884,0,0,1-1.4-.5,2.094,2.094,0,0,1-.5-1.537v-6.046h-1.271a.238.238,0,0,1-.16-.053.191.191,0,0,1-.062-.151v-.329l1.511-.107.211-3.165a.245.245,0,0,1,.066-.142.2.2,0,0,1,.154-.062h.4v3.378h2.782v.631H415.2v6a1.883,1.883,0,0,0,.093.627,1.173,1.173,0,0,0,.258.431,1.022,1.022,0,0,0,.386.249,1.418,1.418,0,0,0,.48.08,1.458,1.458,0,0,0,.551-.094,2.3,2.3,0,0,0,.4-.2,2.607,2.607,0,0,0,.275-.2.3.3,0,0,1,.169-.094.194.194,0,0,1,.142.089l.231.373a2.459,2.459,0,0,1-.858.6A2.673,2.673,0,0,1,416.246,736.129Z" transform="translate(-308.849 -723.052)" fill="#231f20"/>
      <path id="Path_365" data-name="Path 365" d="M424.7,727.287a3.637,3.637,0,0,1,1.382.258,3.1,3.1,0,0,1,1.1.751,3.46,3.46,0,0,1,.729,1.214,4.812,4.812,0,0,1,.262,1.653.446.446,0,0,1-.057.267.222.222,0,0,1-.182.071h-6.383v.169a6,6,0,0,0,.231,1.752,3.589,3.589,0,0,0,.658,1.267,2.7,2.7,0,0,0,1.032.769,3.4,3.4,0,0,0,1.351.258,4.061,4.061,0,0,0,1.156-.147,4.328,4.328,0,0,0,.822-.329,4.477,4.477,0,0,0,.529-.329.6.6,0,0,1,.285-.147.205.205,0,0,1,.178.089l.231.284a2.406,2.406,0,0,1-.564.5,4.008,4.008,0,0,1-.783.4,5.568,5.568,0,0,1-.924.263,5.058,5.058,0,0,1-.991.1,4.2,4.2,0,0,1-1.653-.315,3.507,3.507,0,0,1-1.282-.92,4.216,4.216,0,0,1-.827-1.48,6.318,6.318,0,0,1-.292-2,5.473,5.473,0,0,1,.271-1.755,4.027,4.027,0,0,1,.783-1.387,3.568,3.568,0,0,1,1.253-.911A4.112,4.112,0,0,1,424.7,727.287Zm.013.632a3.32,3.32,0,0,0-1.225.213,2.676,2.676,0,0,0-.937.613,3.144,3.144,0,0,0-.639.96,4.389,4.389,0,0,0-.324,1.254h5.823a3.887,3.887,0,0,0-.2-1.276,2.735,2.735,0,0,0-.55-.956,2.384,2.384,0,0,0-.852-.6A2.812,2.812,0,0,0,424.716,727.919Z" transform="translate(-309.546 -723.34)" fill="#231f20"/>
    </g>
  </g>
</svg>
