<svg xmlns="http://www.w3.org/2000/svg" width="165.978" height="227.136" viewBox="0 0 165.978 227.136">
  <g id="Group_50" data-name="Group 50" transform="translate(-1168.902 -384.22)">
    <path id="Path_22" data-name="Path 22" d="M1205.58,587.671,1168.9,600.828v43.784l36.677,13.159,36.676-13.159V600.827Zm0,2.871,31.326,11.237h0l-31.327,11.237-31.327-11.237Zm-1.352,63.875L1171.6,642.712V603.7l32.624,11.7Zm35.327-50.718v39.013l-32.624,11.7V615.4l32.624-11.7Z" transform="translate(0 -46.415)"/>
    <g id="Group_46" data-name="Group 46" transform="translate(1215.215 474.538)">
      <path id="Path_23" data-name="Path 23" d="M1298.49,516.189h0l-31.326-11.237-31.327,11.237,31.327,11.236Z" transform="translate(-1230.486 -502.082)" fill="none"/>
      <path id="Path_24" data-name="Path 24" d="M1278.173,580.006l32.62-11.7v-.661h0V553.955L1278.173,565.7Z" transform="translate(-1240.144 -513.261)" fill="none"/>
      <path id="Path_25" data-name="Path 25" d="M1323.939,567.5l9.634,3.456,31.327-11.236h0l-33.237-10.629-7.724,2.78Z" transform="translate(-1250.586 -512.152)" fill="none"/>
      <path id="Path_26" data-name="Path 26" d="M1310.8,522h0l-32.624,11.7v21.83l32.624-11.741Z" transform="translate(-1240.144 -505.97)" fill="none"/>
      <path id="Path_27" data-name="Path 27" d="M1269.187,570.427l-18.558,6.679,18.558,6.658Z" transform="translate(-1233.86 -517.019)" fill="none"/>
      <path id="Path_28" data-name="Path 28" d="M1338.171,577.055v39.014l32.624-11.7V565.352h0l-32.624,11.7Z" transform="translate(-1253.832 -515.861)" fill="none"/>
      <path id="Path_29" data-name="Path 29" d="M1243.261,580.943l-7.424,2.672,31.327,11.236,31.327-11.236h0l-7.437-2.668-23.89,8.571Z" transform="translate(-1230.486 -519.418)" fill="none"/>
      <path id="Path_30" data-name="Path 30" d="M1278.173,598.6V637.61l32.624-11.7V586.893h0l-32.624,11.7Z" transform="translate(-1240.144 -520.775)" fill="none"/>
      <path id="Path_31" data-name="Path 31" d="M1312.387,578.347l8.786,3.152v33.991l8.283,2.971V579.445l-10.066-3.611-7.577,2.718Z" transform="translate(-1247.819 -518.253)" fill="none"/>
      <path id="Path_32" data-name="Path 32" d="M1265.029,533.7,1232.4,522v39.014l10.065,3.611,22.56-8.119Z" transform="translate(-1229.703 -505.97)" fill="none"/>
      <path id="Path_33" data-name="Path 33" d="M1320.439,553.667v13.688l2.7.969V552.7Z" transform="translate(-1249.787 -512.974)"/>
      <path id="Path_34" data-name="Path 34" d="M1231.606,556.274V517.26l32.625,11.7v22.8l2.7-.973v-21.83l32.623-11.7h0v21.791l2.7-.973v-23.69l-36.676-13.156L1228.9,514.39v43.784l8.773,3.148,3.994-1.437Zm33.976-52.171,31.326,11.237h0l-31.327,11.237-31.327-11.237Z" transform="translate(-1228.904 -501.233)"/>
      <path id="Path_35" data-name="Path 35" d="M1303.329,571.774h0l-32.62,11.7V569.167l-2.7.973v13.337l-18.558-6.658-3.994,1.437,23.9,8.575,23.89-8.571h0l3.427-1.229,7.577-2.718-4-1.435Z" transform="translate(-1232.68 -516.732)"/>
      <path id="Path_36" data-name="Path 36" d="M1302.255,616.229h0V582.239l-8.786-3.151-.574.206-3.426,1.229,7.436,2.668h0l-31.327,11.236-31.327-11.236,7.424-2.672-4-1.436-8.773,3.157v9.8l2.7.969v-7.9l32.625,11.7v39.016l-10.987-3.942v2.87l12.339,4.427,36.676-13.158V619.1l0,0Zm-2.7-31.118v39.013l-32.623,11.7V596.813l32.623-11.7Z" transform="translate(-1228.904 -518.994)"/>
      <path id="Path_37" data-name="Path 37" d="M1331.663,548.322l-3.671-1.174,3.466-1.244-.534-.192-6.985,2.514V551.1Z" transform="translate(-1250.586 -511.381)"/>
      <path id="Path_38" data-name="Path 38" d="M1248.266,578.656l-4-1.436-3.994,1.437,4,1.436Z" transform="translate(-1231.497 -518.569)"/>
      <path id="Path_39" data-name="Path 39" d="M1320.439,552.818l2.7-.972V548.97l-2.7.972Z" transform="translate(-1249.787 -512.124)"/>
      <path id="Path_40" data-name="Path 40" d="M1307.374,580.585l3.426-1.229-3.427,1.229Z" transform="translate(-1246.806 -519.056)"/>
      <path id="Path_41" data-name="Path 41" d="M1277.374,568.317v-2.876l-2.7.973v2.876Z" transform="translate(-1239.346 -515.882)"/>
      <path id="Path_42" data-name="Path 42" d="M1320.435,572.349h0v-.659h0Z" transform="translate(-1249.786 -517.307)"/>
      <path id="Path_43" data-name="Path 43" d="M1331.466,545.713l-.534.192,3.466,1.243-3.261,1.174,33.237,10.628h0l-31.327,11.236-9.634-3.456v1.591l-1.783.64,10.066,3.611v39.016l-8.283-2.972v2.871l9.634,3.456,36.677-13.158V558Zm35.556,15.159v39.013l-32.624,11.7V572.573l32.624-11.7Z" transform="translate(-1250.058 -511.381)"/>
      <path id="Path_44" data-name="Path 44" d="M1319.529,572.348h0l-3.078,1.1,4,1.435,1.783-.64v-1.591l-2.7-.969Z" transform="translate(-1248.876 -517.307)"/>
      <path id="Path_45" data-name="Path 45" d="M1323.935,627.209v2.87h0v-2.87Z" transform="translate(-1250.584 -529.973)"/>
      <path id="Path_46" data-name="Path 46" d="M1332.861,548.379l3.261-1.174-3.466-1.244-3.466,1.244Z" transform="translate(-1251.784 -511.437)"/>
    </g>
    <g id="Group_49" data-name="Group 49" transform="translate(1216.571 384.22)">
      <g id="Group_48" data-name="Group 48">
        <g id="Group_47" data-name="Group 47">
          <path id="Path_47" data-name="Path 47" d="M1304.01,397.38v43.788l-36.679,13.152-36.671-13.152V397.38l36.671-13.16Zm-2.7,41.881v-39.01l-32.626,11.7V450.97Zm-33.977-29.693,31.33-11.238-31.33-11.238-31.322,11.238Zm-1.351,41.4V411.953l-32.619-11.7v39.01Z" transform="translate(-1230.66 -384.22)"/>
          <path id="Path_48" data-name="Path 48" d="M1312.547,404.99V444l-32.626,11.709V416.691Z" transform="translate(-1241.898 -388.958)" fill="#5383b3"/>
          <path id="Path_49" data-name="Path 49" d="M1300.242,399.178l-31.33,11.238-31.322-11.238,31.322-11.238Z" transform="translate(-1232.241 -385.069)" fill="#5383b3"/>
          <path id="Path_50" data-name="Path 50" d="M1266.779,416.691v39.018L1234.16,444V404.99Z" transform="translate(-1231.458 -388.958)" fill="#5383b3"/>
        </g>
      </g>
    </g>
  </g>
</svg>
