<?xml version="1.0" encoding="UTF-8"?>
<svg width="102px" height="88px" viewBox="0 0 102 88" version="1.1" xmlns="http://www.w3.org/2000/svg" xmlns:xlink="http://www.w3.org/1999/xlink">
    <title>Group 55</title>
    <defs>
        <polygon id="path-1" points="0 0 18 0 18 22 0 22"></polygon>
        <polygon id="path-3" points="0 88 102 88 102 0 0 0"></polygon>
    </defs>
    <g id="Page-1" stroke="none" stroke-width="1" fill="none" fill-rule="evenodd">
        <g id="Home" transform="translate(-843.000000, -6058.000000)">
            <g id="Group-55" transform="translate(843.000000, 6058.000000)">
                <polygon id="Fill-1" fill="#000000" points="0 11 0 14.7261556 5.93705912 14.7261556 5.93705912 33 10.1948317 33 10.1948317 14.7261556 17 14.7261556 17 11"></polygon>
                <polygon id="Fill-2" fill="#000000" points="19 33 23 33 23 11 19 11"></polygon>
                <g id="Group-54">
                    <g id="Group-5" transform="translate(0.000000, 35.000000)">
                        <mask id="mask-2" fill="white">
                            <use xlink:href="#path-1"></use>
                        </mask>
                        <g id="Clip-4"></g>
                        <path d="M10.538333,19 C10.8740571,19 11.1908409,18.9085686 11.4892417,18.7259198 C11.7876425,18.5432711 12.0490913,18.2957425 12.2726597,17.9839763 C12.4964139,17.6730666 12.673189,17.3281111 12.8040991,16.951465 C12.9342664,16.5754613 13,16.1938903 13,15.8071803 C13,15.0114914 12.7431934,14.3444916 12.2305086,13.8072517 C11.717638,13.2697977 11.0138802,13 10.1188636,13 L5,13 L5,19 L10.538333,19 Z M5,9 L9.70315336,9 C10.0859914,9 10.4183652,8.92313268 10.7011825,8.76844434 C10.9836367,8.61451896 11.2207095,8.41233692 11.4122193,8.16170748 C11.6037291,7.91107805 11.7493128,7.62687877 11.8498781,7.30872816 C11.9498989,6.99134051 12,6.67853056 12,6.36991684 C12,6.06206607 11.9455422,5.76317998 11.8362637,5.47440299 C11.7266221,5.18505379 11.5806753,4.93442435 11.3986048,4.72251469 C11.2161714,4.51079576 11.0021524,4.3377966 10.7560033,4.20294499 C10.5096727,4.06809339 10.2502723,4 9.9765313,4 L5,4 L5,9 Z M17.045776,6.11854861 C17.045776,6.56087497 16.9503536,7.03233062 16.759931,7.53511023 C16.568664,8.0372913 16.3087858,8.50016777 15.9807185,8.92174449 C15.6515957,9.34352073 15.2540727,9.70065387 14.7881496,9.99114876 C14.321171,10.2832398 13.8128145,10.438862 13.2613912,10.4586141 C13.8337145,10.4993153 14.40076,10.6541395 14.9627388,10.9240843 C15.5245065,11.193231 16.0282186,11.5579457 16.4734527,12.0178295 C16.918898,12.4779127 17.2845431,13.0074274 17.5705992,13.6069722 C17.8568664,14.2063174 18,14.8455658 18,15.5249168 C18,16.7244053 17.8089441,17.7377457 17.4274656,18.567332 C17.045776,19.3967189 16.5262306,20.0666927 15.8692516,20.5764553 C15.2118504,21.086218 14.4434045,21.4503342 13.5637029,21.6702005 C12.683579,21.8902664 11.7456106,22 10.7491644,22 L0,22 L0,0 L10.2401745,0 C11.1730762,0 12.052989,0.0849936971 12.8799127,0.25597867 C13.7068365,0.426963643 14.4271489,0.738208167 15.0423279,1.19031079 C15.6570846,1.64261293 16.1447521,2.26590004 16.5051195,3.05937406 C16.8656979,3.85264857 17.045776,4.87297197 17.045776,6.11854861 L17.045776,6.11854861 Z" id="Fill-3" fill="#000000" mask="url(#mask-2)"></path>
                    </g>
                    <polygon id="Fill-6" fill="#000000" points="27 53.2730463 27 57 19 57 19 35 23.080089 35 23.080089 53.2730463"></polygon>
                    <polygon id="Fill-8" fill="#000000" points="46 59 46 82 41.8503847 82 41.8503847 72.8560675 31.1500088 72.8560675 31.1500088 82 27 82 27 59 31.1500088 59 31.1500088 68.9605412 41.8503847 68.9605412 41.8503847 59"></polygon>
                    <path d="M56,74 L62,74 L59.0143887,68 L56,74 Z M47,82 L58.2887123,59 L58.7112877,59 L70,82 L65.4117816,82 L63.6918259,78.3817667 L53.2783194,78.3817667 L51.588018,82 L47,82 Z" id="Fill-10" fill="#000000"></path>
                    <mask id="mask-4" fill="white">
                        <use xlink:href="#path-3"></use>
                    </mask>
                    <g id="Clip-13"></g>
                    <polygon id="Fill-12" fill="#000000" mask="url(#mask-4)" points="72 82 76 82 76 59 72 59"></polygon>
                    <path d="M43.2324895,23.6580332 C42.8760827,24.5010003 42.3866524,25.2554027 41.7780843,25.8998007 C41.1703212,26.5425956 40.4512691,27.0615604 39.6400463,27.4426689 C38.0379265,28.1970713 36.0417669,28.1970713 34.4402509,27.4426689 C33.6292293,27.0615604 32.9099759,26.5425956 32.3022129,25.8998007 C31.6936448,25.2554027 31.2042144,24.5010003 30.8474052,23.6580332 C30.4940171,22.8228807 30.3149081,21.927416 30.3149081,20.9974873 C30.3149081,20.0859928 30.4944196,19.1959382 30.8482102,18.350767 C31.2046169,17.4993843 31.6928398,16.7471859 32.2995967,16.1136081 C32.905951,15.4808318 33.6264119,14.965073 34.4402509,14.5823615 C35.2410089,14.2050601 36.1160267,14.0143055 37.0401486,14.0143055 C37.9642704,14.0143055 38.8392883,14.2050601 39.6400463,14.5823615 C40.4542878,14.965073 41.1741449,15.4808318 41.780298,16.1136081 C42.3874573,16.7471859 42.8756803,17.4993843 43.2316845,18.3499655 C43.4212583,18.8030077 43.5442196,19.2710778 43.6309567,19.7457603 L49,19.7457603 C48.8784474,18.5611581 48.5956967,17.4158289 48.1267934,16.334619 C47.4972958,14.8811169 46.6279128,13.5969296 45.5431966,12.5153188 C44.4592854,11.4367137 43.1745306,10.5715053 41.7251566,9.94413901 C38.8318422,8.69301316 35.285283,8.67758447 32.3551406,9.94413901 C30.9049616,10.5715053 29.6206093,11.4367137 28.5371005,12.5161203 C27.4535918,13.595527 26.5840076,14.8803154 25.9535038,16.334619 C25.3209874,17.7933307 25,19.3624477 25,20.9974873 C25,22.6533655 25.3209874,24.2276922 25.9539063,25.6773872 C26.5850139,27.1214718 27.4543968,28.4010505 28.5371005,29.4780527 C29.6198043,30.5574593 30.9045591,31.4226677 32.3551406,32.0508355 C33.8111557,32.6806062 35.3824849,33 37.0252564,33 C38.6879512,33 40.2695439,32.6806062 41.7251566,32.0508355 C43.1749331,31.4234692 44.4596879,30.5580604 45.5431966,29.4780527 C46.6267054,28.3994475 47.495887,27.1208707 48.1263909,25.6773872 C48.5630948,24.676727 48.8357832,23.6121479 48.9706181,22.5062921 L43.5814501,22.5062921 C43.4961218,22.8992226 43.3894614,23.2865426 43.2324895,23.6580332" id="Fill-14" fill="#000000" mask="url(#mask-4)"></path>
                    <path d="M70.2415871,48.6423504 C69.8871458,49.4863204 69.3996632,50.2419261 68.7928259,50.8877275 C68.1865925,51.5321263 67.4688539,52.0528951 66.6585299,52.4360078 C65.0578078,53.1944187 63.0613835,53.199428 61.4576424,52.449032 C60.6459095,52.0699268 59.9249505,51.552965 59.315698,50.9117722 C58.705439,50.2687761 58.213931,49.5155749 57.8548605,48.6736085 C57.4994128,47.8392564 57.3180661,46.9441913 57.3156508,46.0144617 C57.3134368,45.1027657 57.4905568,44.2125095 57.8423815,43.3663354 C58.1964203,42.5139496 58.6828965,41.7605481 59.2879223,41.1255668 C59.8931494,40.4911867 60.6120956,39.9736238 61.4248349,39.5889082 C62.2250953,39.2096025 63.0998266,39.0164432 64.024071,39.0142391 C64.9481142,39.0118346 65.8236506,39.2005858 66.6257224,39.5756836 C67.4410782,39.9563918 68.1622385,40.4703479 68.7700821,41.1015221 C69.3789321,41.7336981 69.8690312,42.4846952 70.227498,43.3342757 C70.4181033,43.7867174 70.5420873,44.2547882 70.630446,44.7290705 L76,44.7154451 C75.8754122,43.5312421 75.5898062,42.3865126 75.1180229,41.3065034 C74.4848189,39.8548028 73.611899,38.5728179 72.5242212,37.4938106 C71.4373484,36.4180093 70.1504105,35.5560057 68.6992341,34.9322453 C65.8023156,33.6885316 62.255085,33.6821197 59.3279756,34.9558893 C57.8792145,35.5870635 56.5971071,36.455479 55.5160713,37.5374919 C54.4350354,38.6195048 53.5685563,39.9066993 52.941793,41.3624074 C52.3128157,42.8229244 51.9960124,44.3926446 52,46.0278867 C52.0044659,47.6837671 52.3293201,49.257094 52.9659457,50.7051879 C53.6009612,52.1478718 54.4732772,53.4250477 55.5591436,54.4992461 C56.6448088,55.5760492 57.9319479,56.4380528 59.384332,57.0624143 C60.8419491,57.6885792 62.414493,58.0041663 64.057281,58 C65.7203976,57.995951 67.301395,57.672349 68.7553892,57.0389707 C70.2039491,56.4079969 71.4864589,55.539381 72.5674948,54.4565667 C73.6485306,53.3751549 74.5144059,52.0943722 75.1413705,50.6494843 C75.5757171,49.6478209 75.8454225,48.5824389 75.9774575,47.4763813 L70.5877762,47.4898063 C70.5032416,47.8829376 70.3975734,48.2706589 70.2415871,48.6423504" id="Fill-15" fill="#000000" mask="url(#mask-4)"></path>
                    <path d="M19.273719,72.5818159 C18.9276052,73.4291839 18.4473949,74.1893906 17.846377,74.8411967 C17.2465672,75.4913998 16.5336009,76.0189761 15.7268074,76.4098994 C14.1329523,77.1839317 12.1362037,77.2083769 10.5244288,76.4736173 C9.70857468,76.1025307 8.98252091,75.5923867 8.36660341,74.957011 C7.74988054,74.3204331 7.25094508,73.5718479 6.88348858,72.7332962 C6.51965631,71.9023587 6.32958567,71.0093062 6.31810894,70.0795858 C6.30683356,69.1680992 6.47536019,68.2760485 6.81885651,67.4264765 C7.16476898,66.5706929 7.64397253,65.8126903 8.24297695,65.1719046 C8.84198138,64.5315196 9.55615574,64.006949 10.3655668,63.6144226 C11.162293,63.2275067 12.0353294,63.0259337 12.9601117,63.0145126 C13.8842899,63.0032918 14.7619573,63.1836255 15.5679454,63.5509051 C16.3872224,63.9233944 17.1136788,64.4303324 17.7279856,65.0556896 C18.3430977,65.6818482 18.8408251,66.4280289 19.2074762,67.2741947 C19.4027818,67.7248286 19.5314419,68.1914921 19.6242624,68.6649682 L24.9955704,68.5992466 C24.8592591,67.4162576 24.5624751,66.2743446 24.0796473,65.1989547 C23.4321185,63.7532796 22.5465987,62.4801237 21.4478534,61.4117468 C20.3501149,60.3465758 19.0542518,59.4970038 17.5965066,58.8874759 C14.6864525,57.6720268 11.1381315,57.7000787 8.22243966,59.0022883 C6.77939269,59.6470815 5.50527503,60.5283121 4.43471821,61.6207335 C3.3637587,62.7131549 2.5098502,64.0085519 1.8969529,65.4704571 C1.28244482,66.9367703 0.980627129,68.5096808 1.00096308,70.1445059 C1.02150037,71.8003699 1.36177516,73.3706756 2.01272686,74.8123433 C2.66226914,76.2488013 3.54758762,77.517549 4.64411808,78.5811171 C5.74064854,79.6470895 7.03671291,80.4966616 8.49566622,81.1069909 C9.95985452,81.7189233 11.5359912,82.019279 13.1791761,81.9990416 C14.842697,81.9786038 16.4210485,81.6397768 17.8693305,80.9923789 C19.3119748,80.3473854 20.5866964,79.4661547 21.6574546,78.3729318 C22.7280114,77.2813119 23.5817186,75.9921264 24.1946159,74.5410413 C24.619456,73.5353804 24.8787897,72.4674042 25,71.359955 L19.6087588,71.425877 C19.5282204,71.8198059 19.4263393,72.2085252 19.273719,72.5818159" id="Fill-16" fill="#000000" mask="url(#mask-4)"></path>
                    <path d="M68.7393143,22.8551674 C68.4818691,23.7351614 68.076316,24.5437725 67.5335271,25.2589766 C66.9911486,25.973394 66.317073,26.5784759 65.530583,27.0577039 C64.7510677,27.5335889 63.8714462,27.8332784 62.9157194,27.9489067 C61.9601977,28.0645349 61.030318,27.9837131 60.1515171,27.7084078 C59.2657415,27.4317259 58.4562764,27.0059858 57.7452764,26.4433796 C57.0342763,25.8795935 56.4317931,25.1929033 55.9542374,24.4019903 C55.4803741,23.6157968 55.1784145,22.7487815 55.0567691,21.8253287 C54.9375853,20.920164 55.0063057,20.0130328 55.2606739,19.1293025 C55.5166831,18.2410494 55.9218259,17.4336181 56.4642045,16.729033 C57.0069933,16.0248412 57.6820946,15.4236923 58.470841,14.9423012 C59.2505615,14.4664162 60.1303881,14.16653 61.0861149,14.0510984 C62.0416366,13.9354701 62.9715163,14.0162919 63.8501121,14.2914006 C64.739375,14.570049 65.5488401,14.9914629 66.2563528,15.5442367 C66.9650964,16.0974038 67.566554,16.7833075 68.0443148,17.5824797 C68.5208448,18.3794887 68.8225993,19.2417844 68.941578,20.1455726 C69.0630182,21.0680423 68.9949132,21.9796963 68.7393143,22.8551674 M73.9012341,19.4988213 C73.6963372,17.877302 73.1828779,16.3617499 72.3748539,14.9945112 C71.5698729,13.6315273 70.549446,12.4656868 69.3415688,11.5288 C68.1345032,10.5939394 66.755811,9.89573179 65.2438345,9.45423605 C63.7267862,9.0111194 62.1241276,8.89137457 60.4800838,9.09864862 C58.856124,9.30328868 57.3435389,9.81569929 55.9837135,10.6212922 C54.6283511,11.4248591 53.4665251,12.442994 52.5304913,13.647939 C51.5942546,14.8534919 50.8959823,16.2359267 50.4545412,17.7575572 C50.0124914,19.2828348 49.8919877,20.8782169 50.0968846,22.4993308 C50.3044187,24.1411115 50.8184867,25.6619316 51.6254963,27.0200527 C52.430883,28.3745268 53.4504985,29.5346941 54.6559412,30.468339 C55.8619925,31.4036049 57.2406847,32.1020151 58.7538785,32.5439161 C59.7937808,32.8476343 60.8687793,33 61.9650789,33 C62.4685977,33 62.9769854,32.9677844 63.4880103,32.9033532 C65.1318512,32.6960791 66.6547827,32.1826554 68.0139995,31.3768599 C69.3691589,30.5734957 70.530985,29.5549555 71.4670188,28.3496052 C72.4034583,27.1440524 73.1025421,25.7672908 73.5449976,24.2572092 C73.9888731,22.7418597 74.1087682,21.1408045 73.9012341,19.4988213" id="Fill-17" fill="#A4A4A4" mask="url(#mask-4)"></path>
                    <path d="M38.0862541,39.0510516 C39.0417597,38.9354246 39.9714188,39.0164422 40.850205,39.2917446 C41.7392479,39.5701933 42.5489046,39.9916027 43.2564055,40.5443706 C43.964932,41.0975318 44.5665847,41.7834281 45.0443376,42.5825916 C45.5206545,43.3793955 45.8226091,44.2416819 45.9415857,45.1454604 C46.063024,46.0677235 45.9949201,46.9793677 45.7391203,47.8550261 C45.4818845,48.7350105 45.0761331,49.5438097 44.5335584,50.259006 C43.9907787,50.9734158 43.3171246,51.5784911 42.5306478,52.057714 C41.7509404,52.5335939 40.8711285,52.8334768 39.9160331,52.9489072 C38.9601171,53.0645342 38.030253,52.9837133 37.1514667,52.7084109 C36.2659111,52.431732 35.4564595,52.0059965 34.7454714,51.4433963 C34.0344833,50.8796163 33.4320101,50.1927368 32.9542572,49.4022256 C32.4804019,48.6156473 32.1782422,47.7486413 32.0568039,46.8251984 C31.9376221,45.92024 32.0061363,45.0131186 32.2609104,44.1293979 C32.5169154,43.2411543 32.9218463,42.433535 33.4644209,41.7291542 C34.0069955,41.0249699 34.6820856,40.4238274 35.471229,39.9424415 C36.2507313,39.4665616 37.1305432,39.1666786 38.0862541,39.0510516 M50.9012407,44.4988593 C50.6963441,42.877523 50.1828855,41.3619523 49.3748627,39.9944943 C48.5700858,38.6314938 47.5494575,37.4654365 46.3415821,36.5287409 C45.1345182,35.5938689 43.7558281,34.8956528 42.2436508,34.4541517 C40.7268077,34.0110296 39.1237456,33.891486 37.48011,34.0985599 C35.8561526,34.3032025 34.3435696,34.8156193 32.9839491,35.6212221 C31.6283859,36.4245961 30.4665615,37.4429461 29.5303262,38.6479058 C28.5944966,39.8532707 27.8960225,41.2359249 27.454582,42.7575741 C27.01233,44.2828703 26.8920293,45.8782717 27.0969259,47.4992029 C27.3042569,49.1410035 27.818527,50.6618421 28.6253325,52.0201824 C29.4307181,53.374673 30.4505349,54.5348545 31.6559759,55.4685108 C32.8618226,56.4035854 34.2405128,57.1022068 35.7539072,57.5441131 C36.793808,57.8476325 37.8688049,58 38.9649001,58 C39.4688239,58 39.9770079,57.9679866 40.4878293,57.9035546 C42.1318706,57.696278 43.6543941,57.1826455 45.0140147,56.3768401 C46.3691722,55.5736687 47.5309965,54.5549135 48.467029,53.3495486 C49.4032642,52.1443863 50.1025498,50.7676079 50.5448018,49.2573053 C50.9888796,47.7419373 51.1087746,46.1410652 50.9012407,44.4988593" id="Fill-18" fill="#A4A4A4" mask="url(#mask-4)"></path>
                    <path d="M98.8880813,28.4266372 C98.7771272,28.8688485 98.6023288,29.2749361 98.3684156,29.6333322 C98.1354118,29.9903077 97.8460214,30.2928947 97.5073383,30.5329755 C97.175749,30.7685915 96.8010513,30.9169423 96.393431,30.9745779 C95.985447,31.0320106 95.5894679,30.992031 95.2158615,30.8556537 C94.8346156,30.7170441 94.4868379,30.5041577 94.181623,30.2228796 C93.8753166,29.9403839 93.6155747,29.5955849 93.4093091,29.197818 C93.2061356,28.8059364 93.0766284,28.3730604 93.0244253,27.9111637 C92.9731318,27.4590083 93.0027802,27.0058381 93.1119155,26.5640327 C93.222324,26.1181684 93.3965766,25.7135014 93.6299442,25.3609906 C93.8634937,25.0082769 94.1539754,24.7075164 94.4932041,24.4670298 C94.8251572,24.2312108 95.2002188,24.082657 95.6074752,24.0254273 C96.0145498,23.9679946 96.4107108,24.0079743 96.7848629,24.1441485 C97.1670182,24.283164 97.5153416,24.494224 97.8201928,24.7710373 C98.124862,25.0478507 98.3836945,25.391432 98.5895964,25.7926489 C98.7940431,26.1908218 98.9237322,26.6216683 98.9748439,27.0732149 C99.0270469,27.5349087 98.9979442,27.9903112 98.8880813,28.4266372 M101.95062,26.6869682 C101.848176,25.8087139 101.591392,24.9870273 101.186803,24.2454088 C100.784712,23.5081577 100.274796,22.876971 99.6710839,22.3699418 C99.0675642,21.8635366 98.3788982,21.4856565 97.6239219,21.2466998 C96.8639483,21.0060793 96.0618821,20.9411929 95.2402112,21.0532883 C94.4277659,21.1643439 93.6708676,21.4421909 92.9904664,21.8793423 C92.3135248,22.3139981 91.7332617,22.8651167 91.2650534,23.5179323 C90.7970373,24.1709558 90.4478031,24.9190213 90.2277298,25.7419558 C90.0063111,26.5690496 89.9459592,27.4339938 90.0484038,28.3122481 C90.1520016,29.2017327 90.4095546,30.026123 90.813759,30.7627502 C91.2158493,31.4956339 91.7253814,32.1234932 92.3279401,32.6290665 C92.9303066,33.1352637 93.6189726,33.5133519 94.3751021,33.7525166 C94.8957821,33.9174362 95.4341447,34 95.9826942,34 C96.2346733,34 96.4885744,33.9827385 96.7440132,33.9477997 C97.5660686,33.8354963 98.327772,33.5570254 99.0085577,33.119874 C99.6856914,32.6852182 100.265955,32.1338916 100.733778,31.481284 C101.201602,30.8288844 101.550837,30.0837305 101.772063,29.2662032 C101.994443,28.4441006 102.05441,27.5764528 101.95062,26.6869682" id="Fill-19" fill="#A4A4A4" mask="url(#mask-4)"></path>
                    <path d="M88.8322924,9.69132526 L88.8322924,9.69132526 C88.6656769,10.2602316 88.4031769,10.7822603 88.0527468,11.2430189 C87.7031767,11.7019271 87.2689014,12.0911355 86.7611002,12.3997472 C86.2638335,12.7026019 85.7014255,12.8936081 85.0902153,12.9674199 C84.4785751,13.0410262 83.8843489,12.9898308 83.3236608,12.8146561 C82.7520083,12.6361918 82.2302329,12.3625329 81.772524,12.0008754 C81.3128801,11.6377787 80.9233223,11.194702 80.6139549,10.6831591 C80.3091022,10.1792236 80.1147533,9.62244791 80.0364977,9.02866346 C79.9597471,8.44742086 80.0042495,7.86473903 80.1680702,7.29665508 C80.3333958,6.72343103 80.594821,6.20325283 80.944821,5.75010154 C81.2952511,5.29653904 81.7310313,4.90959225 82.2396924,4.60036378 C82.7378191,4.29730343 83.3002271,4.10629729 83.9112223,4.03269104 C84.0913821,4.01089701 84.2700369,4 84.4471869,4 C84.8696378,4 85.2817694,4.06209242 85.6773469,4.18545484 C86.2505043,4.36433035 86.7731396,4.63552207 87.2302036,4.99142265 C87.6870526,5.34711763 88.0753205,5.7891663 88.3844729,6.30502682 C88.6912605,6.81698087 88.8856094,7.37067253 88.9621451,7.95150393 C89.0406156,8.54467157 88.9969731,9.13002625 88.8322924,9.69132526 M92.9343409,6.99917647 L92.9343409,6.99917647 C92.797633,5.9183193 92.4549545,4.90724689 91.9157962,3.99419586 C91.3796669,3.08679216 90.699762,2.31028532 89.8946594,1.6860545 C89.0901625,1.06283213 88.171776,0.597533103 87.1649433,0.303468956 C86.1522546,0.00758959782 85.082823,-0.0724813668 83.9869384,0.065676343 C82.9039774,0.202220532 81.8947215,0.54408523 80.9872393,1.08219438 C80.0848055,1.61707649 79.3108003,2.29556195 78.6868306,3.09889357 C78.062659,3.90242687 77.5974078,4.82334381 77.3033949,5.83602974 C77.0083723,6.8541613 76.9280034,7.91847989 77.0645094,8.99953876 C77.2030347,10.0943126 77.546319,11.1092171 78.0848715,12.0156123 C78.6210008,12.9175704 79.3002999,13.6904468 80.1037871,14.312459 C80.9072743,14.9356814 81.8256608,15.4009804 82.8335031,15.6952463 C83.5279471,15.8981465 84.2456132,16 84.9772126,16 C85.3128235,16 85.6514634,15.9786209 85.9923245,15.9356609 C87.0880073,15.7975032 88.1041288,15.45463 89.011611,14.9167225 C89.9140448,14.3816387 90.68805,13.7031533 91.3116158,12.9000234 C91.9353836,12.0968934 92.4012406,11.1798086 92.6960612,10.1737784 C92.9924973,9.16189928 93.0724624,8.09374858 92.9343409,6.99917647" id="Fill-20" fill="#A4A4A4" mask="url(#mask-4)"></path>
                    <polygon id="Fill-21" fill="#A4A4A4" mask="url(#mask-4)" points="91.2730335 25 85 14.1659057 88.7267684 12 95 22.8338958"></polygon>
                    <polygon id="Fill-22" fill="#A4A4A4" mask="url(#mask-4)" points="90.054456 29 71 24.3508384 71.945544 20 91 24.6493669"></polygon>
                    <polygon id="Fill-23" fill="#A4A4A4" mask="url(#mask-4)" points="47.0015931 41 44 37.7611248 54.9984069 26 58 29.2390854"></polygon>
                    <path d="M4,87.2322068 C3.93240686,87.3481983 3.84920166,87.453111 3.75073921,87.5467771 C3.65209935,87.640611 3.54299231,87.7208483 3.42324069,87.7883281 C3.30348906,87.8556401 3.17397989,87.907509 3.03453578,87.9446061 C2.89509166,87.9815354 2.75068007,88 2.60130101,88 C2.38166765,88 2.1746304,87.9605528 1.98036665,87.8811549 C1.7861029,87.8020927 1.61614429,87.694662 1.47120047,87.5586952 C1.32607924,87.4228962 1.21129509,87.2637645 1.12684802,87.0818039 C1.04222354,86.8998433 1,86.7057968 1,86.5 C1,86.2942032 1.04222354,86.1003245 1.12684802,85.9181961 C1.21129509,85.7360676 1.32607924,85.5772717 1.47120047,85.4413048 C1.61614429,85.305338 1.7861029,85.1979073 1.98036665,85.1186773 C2.1746304,85.0394472 2.38166765,85 2.60130101,85 C2.75068007,85 2.89509166,85.0184646 3.03453578,85.0553939 C3.17397989,85.0923232 3.30348906,85.1443599 3.42324069,85.2116719 C3.54299231,85.2789839 3.65209935,85.3595568 3.75073921,85.4530551 C3.84920166,85.5467211 3.93240686,85.6504588 4,85.7637645 L3.44648137,85.97359 C3.40141928,85.9103066 3.34855115,85.8508841 3.28805441,85.7953223 C3.22755766,85.7399284 3.16067416,85.6912489 3.08722649,85.6489481 C3.01395624,85.6068151 2.93660556,85.5739145 2.85499704,85.5500783 C2.77321112,85.52641 2.68858664,85.5144919 2.60130101,85.5144919 C2.46043761,85.5144919 2.32897694,85.5416853 2.20638675,85.5955685 C2.08379657,85.6496195 1.97752809,85.7216316 1.8874039,85.811269 C1.79710231,85.9009064 1.72542874,86.0058192 1.67185098,86.1258393 C1.61827321,86.2460273 1.59166174,86.3707475 1.59166174,86.5 C1.59166174,86.6319382 1.61827321,86.757162 1.67185098,86.8760072 C1.72542874,86.9946844 1.79710231,87.0989257 1.8874039,87.1885631 C1.97752809,87.2782005 2.08379657,87.3502126 2.20638675,87.4042637 C2.32897694,87.4584825 2.46043761,87.4855081 2.60130101,87.4855081 C2.68858664,87.4855081 2.77321112,87.47359 2.85499704,87.4499217 C2.93660556,87.4260855 3.01395624,87.3931849 3.08722649,87.3508841 C3.16067416,87.3087511 3.22755766,87.2592323 3.28805441,87.2024955 C3.34855115,87.1457587 3.40141928,87.0858326 3.44648137,87.0223814 L4,87.2322068 Z" id="Fill-24" fill="#231F20" mask="url(#mask-4)"></path>
                    <path d="M6,85 C5.86115007,85 5.73124123,85.0410505 5.61044881,85.1231515 C5.48965638,85.2055074 5.38394109,85.3146354 5.29382889,85.4510454 C5.20354137,85.5872004 5.13201262,85.7465579 5.07924264,85.9291178 C5.02629734,86.1111678 5,86.3006119 5,86.4969403 C5,86.6973483 5.02629734,86.8875574 5.07924264,87.0678225 C5.13201262,87.2483427 5.20354137,87.4077002 5.29382889,87.545895 C5.38394109,87.6840898 5.48965638,87.7944926 5.61044881,87.8765936 C5.73124123,87.9586945 5.86115007,88 6,88 C6.13884993,88 6.26875877,87.9586945 6.38972651,87.8765936 C6.51034362,87.7944926 6.61605891,87.6840898 6.70617111,87.545895 C6.79663394,87.4077002 6.86798738,87.2483427 6.92093268,87.0678225 C6.97370266,86.8875574 7,86.6973483 7,86.4969403 C7,86.3006119 6.97370266,86.1111678 6.92093268,85.9291178 C6.86798738,85.7465579 6.79663394,85.5872004 6.70617111,85.4510454 C6.61605891,85.3146354 6.51034362,85.2055074 6.38972651,85.1231515 C6.26875877,85.0410505 6.13884993,85 6,85 M5.99723405,88 C5.72329479,88 5.46506611,87.9606585 5.22254799,87.8814732 C4.98025115,87.8024554 4.76871162,87.6954799 4.58748686,87.5598772 C4.40670465,87.424442 4.26331803,87.2657366 4.15821209,87.084096 C4.05266361,86.9026228 4,86.7079241 4,86.5 C4,86.2947545 4.05266361,86.1007254 4.15821209,85.9179129 C4.26331803,85.734933 4.40670465,85.5758929 4.58748686,85.4401228 C4.76871162,85.3046875 4.98025115,85.1973772 5.22254799,85.1185268 C5.46506611,85.0395089 5.72329479,85 5.99723405,85 C6.27471372,85 6.53493389,85.0395089 6.77745201,85.1185268 C7.01952758,85.1973772 7.23128838,85.3046875 7.41229186,85.4401228 C7.59329535,85.5758929 7.7364607,85.734933 7.84178791,85.9179129 C7.94733639,86.1007254 8,86.2947545 8,86.5 C8,86.7079241 7.94733639,86.9026228 7.84178791,87.084096 C7.7364607,87.2657366 7.59329535,87.424442 7.41229186,87.5598772 C7.23128838,87.6954799 7.01952758,87.8024554 6.77745201,87.8814732 C6.53493389,87.9606585 6.27471372,88 5.99723405,88" id="Fill-25" fill="#231F20" mask="url(#mask-4)"></path>
                    <path d="M9,87.5640092 L9.25673759,87.1201188 C9.38056738,87.2206286 9.50836879,87.3071881 9.64014184,87.3796291 C9.77177305,87.4524063 9.90978723,87.4887109 10.0540426,87.4887109 C10.1304965,87.4887109 10.1980142,87.4774497 10.2565957,87.4550955 C10.3151773,87.4325733 10.3648227,87.403496 10.4052482,87.3678637 C10.4458156,87.3320634 10.4761702,87.2912208 10.4965957,87.2449997 C10.5167376,87.1987786 10.5269504,87.1532299 10.5269504,87.1081853 C10.5269504,87.0500308 10.511773,87.0006163 10.4812766,86.9596056 C10.450922,86.918763 10.4103546,86.8849796 10.3597163,86.8585915 C10.309078,86.8322035 10.2493617,86.8098493 10.1805674,86.7911928 C10.1119149,86.7728724 10.0404255,86.7553925 9.96624113,86.7397613 C9.91659574,86.7291725 9.85914894,86.7165668 9.79390071,86.7021122 C9.72851064,86.6874895 9.66099291,86.6678245 9.59120567,86.642613 C9.52141844,86.6175696 9.45262411,86.5846266 9.38510638,86.5436159 C9.31744681,86.5027733 9.25673759,86.4510057 9.20269504,86.3889854 C9.14865248,86.3269651 9.10524823,86.2530114 9.07262411,86.1669561 C9.03985816,86.081237 9.02368794,85.980223 9.02368794,85.8639139 C9.02368794,85.6948288 9.0529078,85.5541487 9.11148936,85.4418735 C9.16992908,85.3295983 9.24496454,85.24119 9.33602837,85.1763124 C9.42737589,85.1116029 9.52879433,85.0660541 9.64014184,85.039498 C9.75163121,85.0132781 9.85914894,85 9.96269504,85 C10.066383,85 10.1587234,85.0078996 10.2397163,85.0238669 C10.3209929,85.039498 10.3963121,85.0626926 10.4660993,85.0931145 C10.5358865,85.1233683 10.6041135,85.1618578 10.6704965,85.2079108 C10.7368794,85.2543 10.8083688,85.3090929 10.8849645,85.3724578 L10.6215603,85.8084487 C10.5042553,85.7133173 10.3919149,85.6407082 10.2836879,85.5904532 C10.1756028,85.5403664 10.061844,85.5151549 9.94255319,85.5151549 C9.90184397,85.5151549 9.85574468,85.5212057 9.80397163,85.532971 C9.75219858,85.5449045 9.70312057,85.5642333 9.65702128,85.5904532 C9.61092199,85.6168413 9.57262411,85.6506247 9.54212766,85.6914673 C9.51177305,85.7326461 9.49659574,85.7818925 9.49659574,85.8400471 C9.49659574,85.8982016 9.51460993,85.9471119 9.5506383,85.9866099 C9.58666667,86.0264441 9.63276596,86.0595552 9.68907801,86.0857751 C9.74539007,86.1121631 9.80723404,86.1346854 9.87489362,86.1531738 C9.94255319,86.1718304 10.0078014,86.1901507 10.070922,86.2088072 C10.118156,86.2220853 10.1739007,86.2351952 10.238156,86.2483052 C10.3022695,86.2615833 10.3686525,86.2799036 10.4374468,86.3037705 C10.5060993,86.3276374 10.5743262,86.3592358 10.6417021,86.3987338 C10.7093617,86.438568 10.7696454,86.4893271 10.8225532,86.5515155 C10.875461,86.6135358 10.918156,86.6901787 10.950922,86.7812763 C10.9834043,86.8725419 11,86.9828002 11,87.1122192 C11,87.2628158 10.977305,87.3935795 10.9323404,87.5045101 C10.887234,87.6156087 10.8231206,87.7073786 10.7398582,87.7799877 C10.6564539,87.8527649 10.557305,87.9073898 10.4424113,87.9445347 C10.3275177,87.9813435 10.2002837,88 10.0608511,88 C9.93234043,88 9.81914894,87.9885708 9.7212766,87.9662166 C9.62326241,87.9438624 9.53375887,87.9134405 9.45262411,87.8751191 C9.37148936,87.8367976 9.29503546,87.7912488 9.22283688,87.7383047 C9.15078014,87.6856967 9.0764539,87.6273741 9,87.5640092" id="Fill-26" fill="#231F20" mask="url(#mask-4)"></path>
                    <polygon id="Fill-27" fill="#231F20" mask="url(#mask-4)" points="14 85.5082271 13.2521595 85.5082271 13.2521595 88 12.7511455 88 12.7511455 85.5082271 12 85.5082271 12 85 14 85"></polygon>
                    <path d="M15,87 L16,87 L15.5022097,86 L15,87 Z M14,88 L15.9631915,85 L16.0368085,85 L18,88 L17.2021159,88 L16.9030196,87.5279647 L15.091911,87.5279647 L14.7978841,88 L14,88 Z" id="Fill-28" fill="#231F20" mask="url(#mask-4)"></path>
                    <path d="M20,86 L21.2612885,86 C21.344163,86 21.4300661,85.9900304 21.5195485,85.9700912 C21.6087555,85.9501521 21.688326,85.9197364 21.7579846,85.8785063 C21.8276432,85.8372761 21.8854626,85.7862454 21.9311674,85.725076 C21.9768722,85.6642447 22,85.5924299 22,85.5099696 C22,85.4675566 21.9909141,85.4170328 21.9738436,85.3585671 C21.9562225,85.3001014 21.9215308,85.2443393 21.8692181,85.1912808 C21.8169053,85.1380534 21.7428414,85.0931058 21.6467511,85.0557621 C21.5509361,85.0185874 21.4223568,85 21.2612885,85 L20,85 L20,86 Z M20.6830284,88 L20,88 L20,85 L21.6222693,85 C21.8047515,85 21.9714637,85.0253766 22.1230202,85.075956 C22.2745767,85.1265353 22.4038094,85.1974508 22.5115374,85.288876 C22.6188558,85.3806489 22.7028263,85.489803 22.7630393,85.6168598 C22.8232523,85.7439166 22.8535636,85.8826188 22.8535636,86.0327926 C22.8535636,86.2596176 22.7859776,86.4577636 22.6506008,86.6270568 C22.5154287,86.7965238 22.3354042,86.9180185 22.1109366,86.9917149 C22.4107728,87.3250869 22.7071273,87.6612399 23,88 L22.1852813,88 C22.0425314,87.8440904 21.9032632,87.6871379 21.7670672,87.5286211 C21.6310759,87.3702781 21.4948798,87.2089803 21.3586838,87.0450753 L20.6830284,87.0450753 L20.6830284,88 Z" id="Fill-29" fill="#231F20" mask="url(#mask-4)"></path>
                    <polygon id="Fill-30" fill="#231F20" mask="url(#mask-4)" points="23 88 24 88 24 85 23 85"></polygon>
                    <path d="M28,87.2322068 C27.9324029,87.3481983 27.8491927,87.453111 27.7507245,87.5467771 C27.6520788,87.640611 27.5429653,87.7208483 27.4232066,87.7883281 C27.3034479,87.8556401 27.173931,87.907509 27.0344787,87.9446061 C26.8950263,87.9815354 26.7506062,88 26.6013957,88 C26.3817494,88 26.1746999,87.9605528 25.9802472,87.8811549 C25.785972,87.8020927 25.6160033,87.694662 25.4710509,87.5586952 C25.3259211,87.4228962 25.2111302,87.2637645 25.1268555,87.0818039 C25.042226,86.8998433 25,86.7057968 25,86.5 C25,86.2942032 25.042226,86.1003245 25.1268555,85.9181961 C25.2111302,85.7360676 25.3259211,85.5772717 25.4710509,85.4413048 C25.6160033,85.305338 25.785972,85.1979073 25.9802472,85.1186773 C26.1746999,85.0394472 26.3817494,85 26.6013957,85 C26.7506062,85 26.8950263,85.0184646 27.0344787,85.0553939 C27.173931,85.0923232 27.3034479,85.1443599 27.4232066,85.2116719 C27.5429653,85.2789839 27.6520788,85.3595568 27.7507245,85.4530551 C27.8491927,85.5467211 27.9324029,85.6504588 28,85.7637645 L27.4464486,85.97359 C27.4013839,85.9103066 27.3485126,85.8508841 27.2880123,85.7953223 C27.227512,85.7399284 27.1606245,85.6912489 27.0871725,85.6489481 C27.0138979,85.6068151 26.9365427,85.5739145 26.8549293,85.5500783 C26.7731386,85.52641 26.6886865,85.5144919 26.6013957,85.5144919 C26.460524,85.5144919 26.3288781,85.5416853 26.2064581,85.5955685 C26.0836832,85.6496195 25.9774085,85.7216316 25.887279,85.811269 C25.7971494,85.9009064 25.7252942,86.0058192 25.6717133,86.1258393 C25.6183098,86.2460273 25.5915193,86.3707475 25.5915193,86.5 C25.5915193,86.6319382 25.6183098,86.757162 25.6717133,86.8760072 C25.7252942,86.9946844 25.7971494,87.0989257 25.887279,87.1885631 C25.9774085,87.2782005 26.0836832,87.3502126 26.2064581,87.4042637 C26.3288781,87.4584825 26.460524,87.4855081 26.6013957,87.4855081 C26.6886865,87.4855081 26.7731386,87.47359 26.8549293,87.4499217 C26.9365427,87.4260855 27.0138979,87.3931849 27.0871725,87.3508841 C27.1606245,87.3087511 27.227512,87.2592323 27.2880123,87.2024955 C27.3485126,87.1457587 27.4013839,87.0858326 27.4464486,87.0223814 L28,87.2322068 Z" id="Fill-31" fill="#231F20" mask="url(#mask-4)"></path>
                    <path d="M30,87 L31,87 L30.5024106,86 L30,87 Z M28,88 L29.9631915,85 L30.0368085,85 L32,88 L31.2021159,88 L30.9030196,87.5279647 L29.091911,87.5279647 L28.7978841,88 L28,88 Z" id="Fill-32" fill="#231F20" mask="url(#mask-4)"></path>
                    <polygon id="Fill-33" fill="#231F20" mask="url(#mask-4)" points="32.5021622 85 33 85.1656838 32.4248649 85.5 32 85.5"></polygon>
                    <path d="M34,87.5640092 L34.3853191,87.1201188 C34.5710638,87.2206286 34.762766,87.3071881 34.9604255,87.3796291 C35.1578723,87.4524063 35.3646809,87.4887109 35.5810638,87.4887109 C35.6959574,87.4887109 35.797234,87.4774497 35.8851064,87.4550955 C35.972766,87.4325733 36.047234,87.403496 36.1080851,87.3678637 C36.1687234,87.3320634 36.2144681,87.2912208 36.2448936,87.2449997 C36.2751064,87.1987786 36.2906383,87.1532299 36.2906383,87.1081853 C36.2906383,87.0500308 36.2676596,87.0006163 36.2219149,86.9596056 C36.176383,86.918763 36.1155319,86.8849796 36.0395745,86.8585915 C35.963617,86.8322035 35.8742553,86.8098493 35.7710638,86.7911928 C35.6680851,86.7728724 35.5608511,86.7553925 35.4493617,86.7397613 C35.3748936,86.7291725 35.2889362,86.7165668 35.1908511,86.7021122 C35.0929787,86.6874895 34.9914894,86.6678245 34.8868085,86.642613 C34.7821277,86.6175696 34.6789362,86.5846266 34.5776596,86.5436159 C34.476383,86.5027733 34.3853191,86.4510057 34.3042553,86.3889854 C34.2229787,86.3269651 34.1578723,86.2530114 34.1091489,86.1669561 C34.06,86.081237 34.0355319,85.980223 34.0355319,85.8639139 C34.0355319,85.6948288 34.0793617,85.5541487 34.167234,85.4418735 C34.2551064,85.3295983 34.3674468,85.24119 34.5042553,85.1763124 C34.6410638,85.1116029 34.7931915,85.0660541 34.9604255,85.039498 C35.1276596,85.0132781 35.2889362,85 35.4442553,85 C35.5995745,85 35.7380851,85.0078996 35.8597872,85.0238669 C35.9814894,85.039498 36.0944681,85.0626926 36.1993617,85.0931145 C36.3038298,85.1233683 36.4061702,85.1618578 36.5057447,85.2079108 C36.6053191,85.2543 36.712766,85.3090929 36.8276596,85.3724578 L36.4323404,85.8084487 C36.2565957,85.7133173 36.0878723,85.6407082 35.9257447,85.5904532 C35.7634043,85.5403664 35.592766,85.5151549 35.4140426,85.5151549 C35.3529787,85.5151549 35.283617,85.5212057 35.2061702,85.532971 C35.1282979,85.5449045 35.0548936,85.5642333 34.9857447,85.5904532 C34.916383,85.6168413 34.8589362,85.6506247 34.8134043,85.6914673 C34.7676596,85.7326461 34.7448936,85.7818925 34.7448936,85.8400471 C34.7448936,85.8982016 34.7719149,85.9471119 34.8261702,85.9866099 C34.88,86.0264441 34.9493617,86.0595552 35.033617,86.0857751 C35.1182979,86.1121631 35.2110638,86.1346854 35.3125532,86.1531738 C35.4140426,86.1718304 35.5117021,86.1901507 35.606383,86.2088072 C35.6774468,86.2220853 35.7608511,86.2351952 35.857234,86.2483052 C35.953617,86.2615833 36.0529787,86.2799036 36.1561702,86.3037705 C36.2591489,86.3276374 36.3614894,86.3592358 36.462766,86.3987338 C36.5642553,86.438568 36.6544681,86.4893271 36.7340426,86.5515155 C36.8131915,86.6135358 36.8774468,86.6901787 36.926383,86.7812763 C36.9753191,86.8725419 37,86.9828002 37,87.1122192 C37,87.2628158 36.9659574,87.3935795 36.8985106,87.5045101 C36.8310638,87.6156087 36.7346809,87.7073786 36.6097872,87.7799877 C36.4846809,87.8527649 36.3359574,87.9073898 36.1638298,87.9445347 C35.9914894,87.9813435 35.8006383,88 35.5912766,88 C35.3985106,88 35.2287234,87.9885708 35.0819149,87.9662166 C34.9351064,87.9438624 34.8006383,87.9134405 34.6789362,87.8751191 C34.5574468,87.8367976 34.4425532,87.7912488 34.3344681,87.7383047 C34.2261702,87.6856967 34.1148936,87.6273741 34,87.5640092" id="Fill-34" fill="#231F20" mask="url(#mask-4)"></path>
                    <path d="M43,87.2322068 C42.9096393,87.3481983 42.7989355,87.453111 42.6676523,87.5467771 C42.5361325,87.640611 42.3904199,87.7208483 42.2309876,87.7883281 C42.0710822,87.8556401 41.8986399,87.907509 41.7127144,87.9446061 C41.5265523,87.9815354 41.3342401,88 41.135068,88 C40.8422235,88 40.5661739,87.9605528 40.306919,87.8811549 C40.0479007,87.8020927 39.8215257,87.694662 39.6282673,87.5586952 C39.4347723,87.4228962 39.2817268,87.2637645 39.1691307,87.0818039 C39.056298,86.8998433 39,86.7057968 39,86.5 C39,86.2942032 39.056298,86.1003245 39.1691307,85.9181961 C39.2817268,85.7360676 39.4347723,85.5772717 39.6282673,85.4413048 C39.8215257,85.305338 40.0479007,85.1979073 40.306919,85.1186773 C40.5661739,85.0394472 40.8422235,85 41.135068,85 C41.3342401,85 41.5265523,85.0184646 41.7127144,85.0553939 C41.8986399,85.0923232 42.0710822,85.1443599 42.2309876,85.2116719 C42.3904199,85.2789839 42.5361325,85.3595568 42.6676523,85.4530551 C42.7989355,85.5467211 42.9096393,85.6504588 43,85.7637645 L42.2619752,85.97359 C42.2016558,85.9103066 42.1314015,85.8508841 42.0505027,85.7953223 C41.9700769,85.7399284 41.8808989,85.6912489 41.7829687,85.6489481 C41.685275,85.6068151 41.5821407,85.5739145 41.4733294,85.5500783 C41.3642815,85.52641 41.2514488,85.5144919 41.135068,85.5144919 C40.9472501,85.5144919 40.7717327,85.5416853 40.6085157,85.5955685 C40.4450621,85.6496195 40.3033708,85.7216316 40.1832052,85.811269 C40.0628031,85.9009064 39.9672383,86.0058192 39.8958013,86.1258393 C39.8243643,86.2460273 39.7886458,86.3707475 39.7886458,86.5 C39.7886458,86.6319382 39.8243643,86.757162 39.8958013,86.8760072 C39.9672383,86.9946844 40.0628031,87.0989257 40.1832052,87.1885631 C40.3033708,87.2782005 40.4450621,87.3502126 40.6085157,87.4042637 C40.7717327,87.4584825 40.9472501,87.4855081 41.135068,87.4855081 C41.2514488,87.4855081 41.3642815,87.47359 41.4733294,87.4499217 C41.5821407,87.4260855 41.685275,87.3931849 41.7829687,87.3508841 C41.8808989,87.3087511 41.9700769,87.2592323 42.0505027,87.2024955 C42.1314015,87.1457587 42.2016558,87.0858326 42.2619752,87.0223814 L43,87.2322068 Z" id="Fill-35" fill="#231F20" mask="url(#mask-4)"></path>
                    <path d="M44,86 L44.6306443,86 C44.6720815,86 44.715033,85.9900304 44.7597742,85.9700912 C44.8043778,85.9501521 44.844163,85.9197364 44.8789923,85.8785063 C44.9138216,85.8372761 44.9427313,85.7862454 44.9657214,85.725076 C44.9884361,85.6642447 45,85.5924299 45,85.5099696 C45,85.4675566 44.995457,85.4170328 44.9869218,85.3585671 C44.9781112,85.3001014 44.9607654,85.2443393 44.934609,85.1912808 C44.9084526,85.1380534 44.8714207,85.0931058 44.8233756,85.0557621 C44.7754681,85.0185874 44.7111784,85 44.6306443,85 L44,85 L44,86 Z M43.6830284,88 L43,88 L43,85 L44.6222693,85 C44.8047515,85 44.9714637,85.0253766 45.1230202,85.075956 C45.2745767,85.1265353 45.4040142,85.1974508 45.5115374,85.288876 C45.6188558,85.3806489 45.7028263,85.489803 45.7630393,85.6168598 C45.8232523,85.7439166 45.8535636,85.8826188 45.8535636,86.0327926 C45.8535636,86.2596176 45.7859776,86.4577636 45.6506008,86.6270568 C45.5154287,86.7965238 45.335609,86.9180185 45.1109366,86.9917149 C45.4107728,87.3250869 45.7071273,87.6612399 46,88 L45.1852813,88 C45.0427362,87.8440904 44.9032632,87.6871379 44.7670672,87.5286211 C44.6310759,87.3702781 44.4948798,87.2089803 44.3586838,87.0450753 L43.6830284,87.0450753 L43.6830284,88 Z" id="Fill-36" fill="#231F20" mask="url(#mask-4)"></path>
                    <path d="M49,85 C48.9194619,85.1260153 48.8267978,85.2696101 48.7220077,85.4311325 C48.6170367,85.5923068 48.5100748,85.7573103 48.4007601,85.9254467 C48.2916264,86.0937573 48.1837597,86.2592829 48.0775217,86.4221977 C47.9711028,86.5847644 47.8778958,86.7318403 47.7973576,86.8632513 L47.7973576,88 L47.1939551,88 L47.1939551,86.8632513 C47.0071791,86.551346 46.809001,86.2408331 46.5990589,85.9317127 C46.3892978,85.6224182 46.1896718,85.3119053 46,85 L46.702582,85 C46.831986,85.2053841 46.9641047,85.4172082 47.0991192,85.6361685 C47.2341337,85.8551288 47.3664334,86.0671269 47.4956564,86.272337 C47.55882,86.1766071 47.6248793,86.0739151 47.6938345,85.9644349 C47.7629706,85.8551288 47.8319257,85.7447784 47.9008808,85.6342539 C47.9698359,85.5233813 48.0380671,85.4139011 48.1057553,85.3058134 C48.1730816,85.1978997 48.2371501,85.0959039 48.297418,85 L49,85 Z" id="Fill-37" fill="#231F20" mask="url(#mask-4)"></path>
                    <path d="M51.6078485,87 C51.6753568,87 51.7342206,86.9736546 51.784303,86.9206426 C51.8343853,86.8676305 51.8752744,86.7953414 51.9069704,86.704739 C51.9383919,86.6138153 51.9618551,86.5103614 51.9770856,86.3940562 C51.9924533,86.2780723 52,86.1566265 52,86.0303614 C52,85.9044177 51.990258,85.7791165 51.9707739,85.6554217 C51.9510154,85.5317269 51.9227497,85.4218474 51.8855653,85.3257831 C51.8486553,85.2300402 51.8028266,85.1516466 51.7483535,85.091245 C51.6938804,85.0305221 51.6307629,85 51.5590011,85 L51,85 L51,87 L51.6078485,87 Z M51.6689596,85 C51.8531814,85 52.0264402,85.0281592 52.188736,85.0839562 C52.3508169,85.139927 52.4916165,85.2158874 52.611135,85.3114897 C52.7304385,85.407092 52.8252365,85.5199027 52.8950989,85.6495741 C52.9649613,85.7794194 53,85.9179558 53,86.065531 C53,86.2131062 52.9694755,86.3497306 52.9079966,86.4754041 C52.8465176,86.6010777 52.7562339,86.7109334 52.6367154,86.8051451 C52.5169819,86.8995307 52.3660791,86.9732314 52.183577,87.0267686 C52.0008598,87.0797845 51.7901978,87.1065531 51.5513758,87.1065531 L50.716681,87.1065531 L50.716681,88 L50,88 L50,85 L51.6689596,85 Z" id="Fill-38" fill="#231F20" mask="url(#mask-4)"></path>
                    <polygon id="Fill-39" fill="#231F20" mask="url(#mask-4)" points="56 85.5082271 54.8782393 85.5082271 54.8782393 88 54.1269436 88 54.1269436 85.5082271 53 85.5082271 53 85 56 85"></polygon>
                    <path d="M58,85 C57.8609748,85 57.7312412,85.0410505 57.6102735,85.1231515 C57.4894811,85.2055074 57.3839411,85.3146354 57.2938289,85.4510454 C57.2033661,85.5872004 57.1318373,85.7465579 57.0790673,85.9291178 C57.0262973,86.1111678 57,86.3006119 57,86.4969403 C57,86.6973483 57.0262973,86.8875574 57.0790673,87.0678225 C57.1318373,87.2483427 57.2033661,87.4077002 57.2938289,87.545895 C57.3839411,87.6840898 57.4894811,87.7944926 57.6102735,87.8765936 C57.7312412,87.9586945 57.8609748,88 58,88 C58.1388499,88 58.2685835,87.9586945 58.3895512,87.8765936 C58.5103436,87.7944926 58.6158836,87.6840898 58.7061711,87.545895 C58.7964586,87.4077002 58.8679874,87.2483427 58.9207574,87.0678225 C58.9737027,86.8875574 59,86.6973483 59,86.4969403 C59,86.3006119 58.9737027,86.1111678 58.9207574,85.9291178 C58.8679874,85.7465579 58.7964586,85.5872004 58.7061711,85.4510454 C58.6158836,85.3146354 58.5103436,85.2055074 58.3895512,85.1231515 C58.2685835,85.0410505 58.1388499,85 58,85 M57.9974553,88 C57.7232948,88 57.4650661,87.9606585 57.2227693,87.8814732 C56.9804724,87.8024554 56.7687116,87.6954799 56.5877081,87.5598772 C56.4067047,87.424442 56.2635393,87.2657366 56.1584334,87.084096 C56.0528849,86.9026228 56,86.7079241 56,86.5 C56,86.2947545 56.0528849,86.1007254 56.1584334,85.9179129 C56.2635393,85.734933 56.4067047,85.5758929 56.5877081,85.4401228 C56.7687116,85.3046875 56.9804724,85.1973772 57.2227693,85.1185268 C57.4650661,85.0395089 57.7232948,85 57.9974553,85 C58.274935,85 58.5349339,85.0395089 58.777452,85.1185268 C59.0197489,85.1973772 59.2312884,85.3046875 59.4125131,85.4401228 C59.5932953,85.5758929 59.736682,85.734933 59.8417879,85.9179129 C59.9473364,86.1007254 60,86.2947545 60,86.5 C60,86.7079241 59.9473364,86.9026228 59.8417879,87.084096 C59.736682,87.2657366 59.5932953,87.424442 59.4125131,87.5598772 C59.2312884,87.6954799 59.0197489,87.8024554 58.777452,87.8814732 C58.5349339,87.9606585 58.274935,88 57.9974553,88" id="Fill-40" fill="#231F20" mask="url(#mask-4)"></path>
                    <path d="M65,87.2322068 C64.9324029,87.3481983 64.8493702,87.453111 64.7509019,87.5467771 C64.6520788,87.640611 64.5429653,87.7208483 64.4232066,87.7883281 C64.3034479,87.8556401 64.173931,87.907509 64.0346561,87.9446061 C63.8950263,87.9815354 63.7507836,88 63.6013957,88 C63.3817494,88 63.1746999,87.9605528 62.9802472,87.8811549 C62.785972,87.8020927 62.6160033,87.694662 62.4710509,87.5586952 C62.3260985,87.4228962 62.2111302,87.2637645 62.1266781,87.0818039 C62.042226,86.8998433 62,86.7057968 62,86.5 C62,86.2942032 62.042226,86.1003245 62.1266781,85.9181961 C62.2111302,85.7360676 62.3260985,85.5772717 62.4710509,85.4413048 C62.6160033,85.305338 62.785972,85.1979073 62.9802472,85.1186773 C63.1746999,85.0394472 63.3817494,85 63.6013957,85 C63.7507836,85 63.8950263,85.0184646 64.0346561,85.0553939 C64.173931,85.0923232 64.3034479,85.1443599 64.4232066,85.2116719 C64.5429653,85.2789839 64.6520788,85.3595568 64.7509019,85.4530551 C64.8493702,85.5467211 64.9324029,85.6504588 65,85.7637645 L64.4464486,85.97359 C64.4013839,85.9103066 64.3485126,85.8508841 64.2880123,85.7953223 C64.227512,85.7399284 64.1606245,85.6912489 64.0873499,85.6489481 C64.0140753,85.6068151 63.9365427,85.5739145 63.8549293,85.5500783 C63.773316,85.52641 63.6886865,85.5144919 63.6013957,85.5144919 C63.460524,85.5144919 63.3288781,85.5416853 63.2062807,85.5955685 C63.0836832,85.6496195 62.9775859,85.7216316 62.887279,85.811269 C62.7971494,85.9009064 62.7252942,86.0058192 62.6718907,86.1258393 C62.6183098,86.2460273 62.5915193,86.3707475 62.5915193,86.5 C62.5915193,86.6319382 62.6183098,86.757162 62.6718907,86.8760072 C62.7252942,86.9946844 62.7971494,87.0989257 62.887279,87.1885631 C62.9775859,87.2782005 63.0836832,87.3502126 63.2062807,87.4042637 C63.3288781,87.4584825 63.460524,87.4855081 63.6013957,87.4855081 C63.6886865,87.4855081 63.773316,87.47359 63.8549293,87.4499217 C63.9365427,87.4260855 64.0140753,87.3931849 64.0873499,87.3508841 C64.1606245,87.3087511 64.227512,87.2592323 64.2880123,87.2024955 C64.3485126,87.1457587 64.4013839,87.0858326 64.4464486,87.0223814 L65,87.2322068 Z" id="Fill-41" fill="#231F20" mask="url(#mask-4)"></path>
                    <path d="M67.5,85 C67.2914621,85 67.0968619,85.0410505 66.9154102,85.1231515 C66.7342216,85.2055074 66.5759116,85.3146354 66.4407433,85.4510454 C66.3050491,85.5872004 66.197756,85.7465579 66.118601,85.9291178 C66.039446,86.1111678 66,86.3006119 66,86.4969403 C66,86.6973483 66.039446,86.8875574 66.118601,87.0678225 C66.197756,87.2483427 66.3050491,87.4077002 66.4407433,87.545895 C66.5759116,87.6840898 66.7342216,87.7944926 66.9154102,87.8765936 C67.0968619,87.9586945 67.2914621,88 67.5,88 C67.7082749,88 67.9028752,87.9586945 68.0843268,87.8765936 C68.2655154,87.7944926 68.4238254,87.6840898 68.5592567,87.545895 C68.6946879,87.4077002 68.8019811,87.2483427 68.881136,87.0678225 C68.960554,86.8875574 69,86.6973483 69,86.4969403 C69,86.3006119 68.960554,86.1111678 68.881136,85.9291178 C68.8019811,85.7465579 68.6946879,85.5872004 68.5592567,85.4510454 C68.4238254,85.3146354 68.2655154,85.2055074 68.0843268,85.1231515 C67.9028752,85.0410505 67.7082749,85 67.5,85 M67.4980915,88 C67.2924711,88 67.0987996,87.9606585 66.9170769,87.8814732 C66.7353543,87.8024554 66.5765337,87.6954799 66.4407811,87.5598772 C66.3050285,87.424442 66.1976545,87.2657366 66.1186591,87.084096 C66.0396637,86.9026228 66,86.7079241 66,86.5 C66,86.2947545 66.0396637,86.1007254 66.1186591,85.9179129 C66.1976545,85.734933 66.3050285,85.5758929 66.4407811,85.4401228 C66.5765337,85.3046875 66.7353543,85.1973772 66.9170769,85.1185268 C67.0987996,85.0395089 67.2924711,85 67.4980915,85 C67.7062013,85 67.9012004,85.0395089 68.083089,85.1185268 C68.2648116,85.1973772 68.4234663,85.3046875 68.5593849,85.4401228 C68.6949715,85.5758929 68.8025115,85.734933 68.8813409,85.9179129 C68.9605023,86.1007254 69,86.2947545 69,86.5 C69,86.7079241 68.9605023,86.9026228 68.8813409,87.084096 C68.8025115,87.2657366 68.6949715,87.424442 68.5593849,87.5598772 C68.4234663,87.6954799 68.2648116,87.8024554 68.083089,87.8814732 C67.9012004,87.9606585 67.7062013,88 67.4980915,88" id="Fill-42" fill="#231F20" mask="url(#mask-4)"></path>
                    <polygon id="Fill-43" fill="#231F20" mask="url(#mask-4)" points="72.929491 88 70.6605268 86.214725 70.6605268 88 70 88 70 85 70.0707071 85 72.3396712 86.813994 72.3396712 85 73 85 73 88"></polygon>
                    <polygon id="Fill-44" fill="#231F20" mask="url(#mask-4)" points="74.7806134 85.5082271 74.7806134 86.2500579 76.7490049 86.2500579 76.7490049 86.7787949 74.7806134 86.7787949 74.7806134 88 74 88 74 85 77 85 77 85.5082271"></polygon>
                    <polygon id="Fill-45" fill="#231F20" mask="url(#mask-4)" points="77.779154 85.5082271 77.779154 86.2582271 79.7497079 86.2582271 79.7497079 86.7787949 77.779154 86.7787949 77.779154 87.4834299 80 87.4834299 80 88 77 88 77 85 80 85 80 85.5082271"></polygon>
                    <path d="M81,86 L82.2615639,86 C82.344163,86 82.4300661,85.9900304 82.5195485,85.9700912 C82.6090308,85.9501521 82.688326,85.9197364 82.7582599,85.8785063 C82.8279185,85.8372761 82.8854626,85.7862454 82.9314427,85.725076 C82.9771476,85.6642447 83,85.5924299 83,85.5099696 C83,85.4675566 82.9911894,85.4170328 82.9738436,85.3585671 C82.9562225,85.3001014 82.9215308,85.2443393 82.8692181,85.1912808 C82.8171806,85.1380534 82.7428414,85.0931058 82.6467511,85.0557621 C82.5512115,85.0185874 82.4226322,85 82.2615639,85 L81,85 L81,86 Z M81.4553523,88 L81,88 L81,85 L82.0815128,85 C82.2031677,85 82.3144457,85.0253766 82.4153468,85.075956 C82.5163845,85.1265353 82.6026761,85.1974508 82.6743583,85.288876 C82.7460404,85.3806489 82.8018842,85.489803 82.8420262,85.6168598 C82.8823048,85.7439166 82.9023758,85.8826188 82.9023758,86.0327926 C82.9023758,86.2596176 82.8573184,86.4577636 82.7672037,86.6270568 C82.677089,86.7965238 82.5570726,86.9180185 82.4072911,86.9917149 C82.6073184,87.3250869 82.804888,87.6612399 83,88 L82.4568542,88 C82.3618241,87.8440904 82.2689787,87.6871379 82.1781813,87.5286211 C82.0875205,87.3702781 81.9965866,87.2089803 81.9059257,87.0450753 L81.4553523,87.0450753 L81.4553523,88 Z" id="Fill-46" fill="#231F20" mask="url(#mask-4)"></path>
                    <polygon id="Fill-47" fill="#231F20" mask="url(#mask-4)" points="84.779154 85.5082271 84.779154 86.2582271 86.7494742 86.2582271 86.7494742 86.7787949 84.779154 86.7787949 84.779154 87.4834299 87 87.4834299 87 88 84 88 84 85 87 85 87 85.5082271"></polygon>
                    <polygon id="Fill-48" fill="#231F20" mask="url(#mask-4)" points="89.929491 88 87.6605268 86.214725 87.6605268 88 87 88 87 85 87.0707071 85 89.3396712 86.813994 89.3396712 85 90 85 90 88"></polygon>
                    <path d="M95,87.2322068 C94.9098705,87.3481983 94.7989237,87.453111 94.6676326,87.5467771 C94.536105,87.640611 94.3906204,87.7208483 94.2309421,87.7883281 C94.0712638,87.8556401 93.8985747,87.907509 93.7128748,87.9446061 C93.5267018,87.9815354 93.3343781,88 93.1351943,88 C92.8423325,88 92.5662665,87.9605528 92.3069963,87.8811549 C92.0479626,87.8020927 91.8213377,87.694662 91.6280679,87.5586952 C91.434798,87.4228962 91.2815069,87.2637645 91.1689041,87.0818039 C91.0563014,86.8998433 91,86.7057968 91,86.5 C91,86.2942032 91.0563014,86.1003245 91.1689041,85.9181961 C91.2815069,85.7360676 91.434798,85.5772717 91.6280679,85.4413048 C91.8213377,85.305338 92.0479626,85.1979073 92.3069963,85.1186773 C92.5662665,85.0394472 92.8423325,85 93.1351943,85 C93.3343781,85 93.5267018,85.0184646 93.7128748,85.0553939 C93.8985747,85.0923232 94.0712638,85.1443599 94.2309421,85.2116719 C94.3906204,85.2789839 94.536105,85.3595568 94.6676326,85.4530551 C94.7989237,85.5467211 94.9098705,85.6504588 95,85.7637645 L94.2619315,85.97359 C94.2018452,85.9103066 94.1313502,85.8508841 94.0506831,85.7953223 C93.970016,85.7399284 93.8808327,85.6912489 93.7831332,85.6489481 C93.6854338,85.6068151 93.5820569,85.5739145 93.4732391,85.5500783 C93.3644213,85.52641 93.251582,85.5144919 93.1351943,85.5144919 C92.9473653,85.5144919 92.7718375,85.5416853 92.6083742,85.5955685 C92.444911,85.6496195 92.3034479,85.7216316 92.1830386,85.811269 C92.0628659,85.9009064 91.967059,86.0058192 91.8958543,86.1258393 C91.824413,86.2460273 91.7886924,86.3707475 91.7886924,86.5 C91.7886924,86.6319382 91.824413,86.757162 91.8958543,86.8760072 C91.967059,86.9946844 92.0628659,87.0989257 92.1830386,87.1885631 C92.3034479,87.2782005 92.444911,87.3502126 92.6083742,87.4042637 C92.7718375,87.4584825 92.9473653,87.4855081 93.1351943,87.4855081 C93.251582,87.4855081 93.3644213,87.47359 93.4732391,87.4499217 C93.5820569,87.4260855 93.6854338,87.3931849 93.7831332,87.3508841 C93.8808327,87.3087511 93.970016,87.2592323 94.0506831,87.2024955 C94.1313502,87.1457587 94.2018452,87.0858326 94.2619315,87.0223814 L95,87.2322068 Z" id="Fill-49" fill="#231F20" mask="url(#mask-4)"></path>
                    <polygon id="Fill-50" fill="#231F20" mask="url(#mask-4)" points="95.779154 85.5082271 95.779154 86.2582271 97.7497079 86.2582271 97.7497079 86.7787949 95.779154 86.7787949 95.779154 87.4834299 98 87.4834299 98 88 95 88 95 85 98 85 98 85.5082271"></polygon>
                    <polygon id="Fill-51" fill="#000000" mask="url(#mask-4)" points="97.529262 82 82.4028098 68.3128309 82.4028098 68.3090713 78 64.5935051 78 59 78.4719906 59 93.5976077 72.9071079 93.5976077 59 98 59 98 82"></polygon>
                    <polyline id="Fill-52" fill="#000000" mask="url(#mask-4)" points="83 68.0928921 83 82 78 82 78 59"></polyline>
                    <polygon id="Fill-53" fill="#000000" mask="url(#mask-4)" points="92.4383429 57 83.2091614 46.9918924 83.2091614 57 79 57 79 35 83.2091614 35 83.2091614 46.1802625 91.9575753 35.0299274 97.1282719 35.0299274 88.0793034 46.3909511 98 57"></polygon>
                </g>
            </g>
        </g>
    </g>
</svg>