<?xml version="1.0" encoding="UTF-8"?>
<svg width="142px" height="78px" viewBox="0 0 142 78" version="1.1" xmlns="http://www.w3.org/2000/svg" xmlns:xlink="http://www.w3.org/1999/xlink">
    <title>Group 11</title>
    <defs>
        <polygon id="path-1" points="0 0 99 0 99 65 0 65"></polygon>
        <polygon id="path-3" points="0 0 74 0 74 65 0 65"></polygon>
    </defs>
    <g id="Page-1" stroke="none" stroke-width="1" fill="none" fill-rule="evenodd">
        <g id="Home" transform="translate(-569.000000, -6058.000000)">
            <g id="Group-11" transform="translate(569.000000, 6058.000000)">
                <g id="Group-3" transform="translate(43.000000, 0.000000)">
                    <mask id="mask-2" fill="white">
                        <use xlink:href="#path-1"></use>
                    </mask>
                    <g id="Clip-2"></g>
                    <path d="M91.9654827,15.0118435 C88.4136751,20.9400686 81.0727411,24.2136943 73,25 C77.0774893,14.4472061 81.7770766,4.81398059 87.0422237,2.52776932 C93.0957161,-0.127577601 96.3802519,7.73342303 91.9654827,15.0118435 M65.487911,55.2432926 C64.3657293,60.1197292 63.185828,63.0618773 61.5575752,62.9990124 C60.5292345,62.9594921 61.0891151,59.3795049 61.9040793,55.853008 C62.2161378,54.3712727 63.6185391,50.032312 65.2609425,45 C66.1425636,47.8888416 66.2568857,51.803005 65.487911,55.2432926 M18.8110632,52.6649856 C17.2551214,60.4250319 12.1025859,62.4211658 8.20609151,60.0764393 C4.71960885,57.9696236 3.19188649,50.4570487 8.24980396,47.4335227 C10.7288715,45.9244256 14.057104,45.5616761 18.0436054,46.5611219 C18.872482,48.3802016 19.2594386,50.3739454 18.8110632,52.6649856 M88.0131275,0.987460967 C79.2779184,4.64103532 71.3077677,15.1710943 67.2079335,24.798136 C52.0623409,27.2970897 33.7115566,13.0816846 28.321922,8.13244489 C27.7497755,7.62740169 25.5270797,14.9148996 30.4867808,17.7403868 C35.032838,20.3315339 40.3382796,25.761942 65.9496139,28.1281154 C64.3056536,32.8040808 63.0262858,36.7041162 61.838066,40.431886 C59.5979825,40.7501551 58.6671005,42.8439724 59.7220757,44.0542395 C59.6713768,44.1497386 59.6190307,44.2500126 59.5630241,44.3598366 C58.0958692,47.1471241 56.4176826,49.9766516 55.4388472,50.7533162 C54.1192131,51.8319049 54.2502614,51.4390731 54.8791466,48.2459145 C55.6451201,44.1771028 56.0858523,42.6033882 57.2669339,39.0668002 C58.5786978,35.180355 57.1025745,35.2488572 53.1597787,33.6615523 L51.7339882,33.0731311 C52.2581812,31.5442276 52.6985473,29.9714312 52.5903776,28.4792581 C52.5920249,28.3473959 46.1391788,28.657217 46.5757013,30.8997925 C46.8119909,32.2624908 47.9387131,33.1983818 49.6141543,34.0532822 C49.2497449,36.7704146 48.3316749,39.9823058 46.6961339,43.3065919 C46.5764334,43.5143024 46.4345865,43.7796797 46.2645532,44.1159466 C46.2167828,44.2153024 46.1679142,44.3144745 46.1195948,44.4138303 C46.0590124,44.526409 46.0057512,44.6382531 45.9437046,44.7510155 C45.6605598,45.2626702 45.4771654,45.625934 45.3836379,45.8683547 C44.2468491,48.0350819 43.0547857,49.9454308 42.2955843,50.6144753 C41.0023063,51.7270395 41.2083961,51.3298001 41.6754844,48.0780565 C42.5337041,42.2779567 45.7991122,33.3328151 45.9217412,32.9805705 C46.2852354,31.660112 41.8914578,30.796029 40.7136706,30.9859253 C40.7136706,30.9859253 40.6737705,31.2059405 40.5116074,31.7346748 L39.8640532,33.9796377 C36.7068149,44.9410954 33.5737363,50.8579979 31.5509074,50.8840765 C30.0758823,50.9029927 31.5620721,48.2523423 33.8898262,41.9949488 C37.198795,33.1368584 35.9369978,29.8634438 31.2274964,30.8017223 C31.2274964,30.8017223 31.7705414,33.9083807 28.7062814,42.0614309 C27.5367305,45.1216254 27.0324875,47.6448212 27.0831864,49.5474567 C26.0629866,48.9311203 25.0543176,48.3698796 24.0507733,47.8907314 C22.9637682,40.0054459 14.195248,36.5544398 15.8269454,27.4069137 C16.6291584,23.0914572 19.9071955,21.0292281 22.7893422,22.3877025 C23.751156,22.8576682 19.3764134,30.4338671 19.2482935,30.9040165 C18.8685098,32.4163913 23.8582276,33.2630273 25.2333193,32.9923242 L25.2803575,32.9383305 C27.6059152,26.0767217 25.4247669,22.6246137 23.1511892,20.4641307 C20.1050491,17.6184418 11.6912377,20.0261205 9.97882481,28.4557507 C8.47762662,36.0512331 13.8174775,40.3856057 16.7109721,45.4026131 C12.314266,44.5276946 8.32205256,44.9743364 5.0709207,46.5192177 C-1.47581889,49.7145801 -1.47179227,57.7539496 3.86348294,61.9856607 C8.4309544,65.6350111 21.6818379,62.8446014 23.8459647,52.2803832 C24.0527867,51.3426557 24.1113557,50.4130089 24.1225204,49.5360703 C25.1520547,50.114758 26.2518718,50.7612133 27.391223,51.4699266 C27.8584943,52.853745 28.8318388,53.5947811 30.2342017,53.5764159 C32.5097927,53.5472152 34.7478629,50.3604844 36.7185287,45.9495289 C35.9300427,50.5208127 36.7637367,53.2732063 38.0343192,53.7832081 C38.9234707,54.1225972 40.2304759,54.1499613 42.7249687,51.2666238 C44.097315,49.7138455 45.4184133,47.3726489 46.6551356,45.0321868 C46.7413419,44.8702057 46.8125399,44.7216312 46.8771489,44.5789335 C48.2588296,41.8355388 50.0268831,38.3534955 51.2074157,34.7763204 L51.8782145,35.0484928 C52.9686971,35.5017461 52.9236722,35.7197411 50.7273325,43.0597636 C48.7949196,49.4374491 49.5092791,53.0871668 51.1021744,53.810205 C52.1084641,54.2618054 53.8874992,53.5391345 55.8521251,51.4163002 C57.2193466,49.8989668 58.5959025,47.6363732 59.930911,45.2861776 C60.0943553,44.9969256 60.2158861,44.7420166 60.3106947,44.5161245 C60.3881157,44.5581808 60.4616931,44.602441 60.5482655,44.6384368 C59.5941389,47.7175474 58.6773501,50.9296222 57.577899,54.5295702 C55.9959854,59.821872 57.4827243,64.2247468 58.8131571,64.758807 C62.0119429,66.1121391 66.6028419,61.5952164 68.0414445,55.5947522 C68.8897807,51.9409942 68.8010119,47.3739344 67.4401965,44.1609414 C71.3793317,42.5146842 75.2944903,38.4754405 76.5837417,36.6381851 C77.1626602,35.7831011 77.3531927,35.1764983 77.3610629,34.9572177 C77.4750896,34.127845 77.2175687,34.2494226 76.2797317,35.7052326 C74.717402,38.1022595 70.1801303,41.8537204 66.8089318,42.9512252 L66.5669684,42.63516 C68.4596641,36.9151325 70.5738241,30.8975886 71.8306795,27.6111348 C81.8364712,26.156794 91.688885,21.9320617 96.6379705,14.4890105 C101.942863,6.53210072 97.9887195,-3.14507799 88.0131275,0.987460967" id="Fill-1" fill="#000000" mask="url(#mask-2)"></path>
                </g>
                <g id="Group-6" transform="translate(0.000000, 13.000000)">
                    <mask id="mask-4" fill="white">
                        <use xlink:href="#path-3"></use>
                    </mask>
                    <g id="Clip-5"></g>
                    <path d="M29.2139256,56.9801817 C16.1041268,61.8948559 6.32212454,52.2853673 7.49682271,38.9946309 C8.2160368,31.2313851 10.9314926,26.2782852 16.4869079,25.5264479 L16.6065043,25.5103164 C17.0921601,25.5077788 17.5180177,25.5128539 17.935878,25.4559405 C20.5644538,25.1008659 19.8572357,22.8718169 19.6184064,22.90408 C18.3043003,23.0817079 17.1535941,23.1116146 15.8393063,23.2892425 C12.7328903,23.7093869 11.4660411,17.5350045 12.2848583,11.5177685 C13.0106156,6.20433775 16.7306446,1.99491882 20.3625213,3.32585936 C21.575752,3.78986696 17.0178213,13.3906554 16.9087669,13.9713899 C16.59778,15.8355767 22.7351826,16.3249597 24.3769973,15.8511645 L24.369,15.789901 C26.5711728,7.26068004 23.5832627,3.32966567 20.5510037,0.975189617 C16.6332226,-2.13891763 6.38337679,2.32588674 4.89314775,12.6433494 C3.90057051,19.6890148 8.70460072,23.563297 13.1958264,24.9663762 C7.80162989,26.5128265 1.33052067,30.5924684 0.188175325,40.297296 C-1.74154314,56.2658638 11.388976,65.9257407 29.5367268,60.0150814 C42.6052666,55.7342488 57.6291527,57.8694088 66.0128952,64.589 C69.3826776,67.2117305 74.4349885,56.4364228 73.970053,56.1224927 C62.8641297,49.0162888 41.9287655,52.3071177 29.2139256,56.9801817" id="Fill-4" fill="#000000" mask="url(#mask-4)"></path>
                </g>
                <path d="M27.655476,40.9256502 C29.8832132,29.5501424 32.0198847,22.7081291 36.2355152,22.0737947 C39.3705367,21.5878783 37.9741957,23.5731305 36.6089595,25.9282262 C35.8270311,27.1678767 38.47843,28.3748124 40.8688112,28.3262023 C41.3934697,30.2510153 40.2825054,35.0329205 38.6393877,43.4297184 C36.4071534,54.7523651 33.8571261,61.6309746 29.7743466,61.9867711 C25.1747786,62.3872963 25.1760902,53.655218 27.655476,40.9256502 M27.7443518,62.986937 C33.6642578,62.484018 42.0802512,57.1983439 45.2703484,42.6575841 C46.9759286,34.5909598 45.4501342,30.4549661 43.177128,28.3114345 C44.7667647,23.6571856 42.7920562,20.8282879 38.8828158,21.0080907 C33.1991997,21.2874902 25.0029852,26.757374 21.8167406,41.3481965 C19.4463199,52.3665838 22.4821315,63.4332711 27.7443518,62.986937" id="Fill-7" fill="#000000"></path>
                <path d="M123,31 L123.321429,31 C123.696429,31 124,30.8572149 124,30.5103431 C124,30.2043391 123.803571,30 123.375,30 C123.196429,30 123.071429,30.0204339 123,30.0411201 L123,31 Z M123.263978,32 L123,32 L123,30.0592538 C123.104256,30.0238478 123.250089,30 123.437589,30 C123.652867,30 123.750089,30.0592538 123.833333,30.1420629 C123.895922,30.224872 123.944444,30.3786394 123.944444,30.567959 C123.944444,30.7811266 123.847311,30.9467447 123.708422,31.0178493 L123.708422,31.0415508 C123.819533,31.1125091 123.882033,31.2545721 123.916756,31.51485 C123.951478,31.8106803 123.972311,31.9290417 124,32 L123.715367,32 C123.680734,31.9290417 123.659811,31.7515728 123.625089,31.5267008 C123.604256,31.3136796 123.534811,31.2190198 123.388889,31.2190198 L123.263978,31.2190198 L123.263978,32 Z M121,31.0000944 C121,32.1146133 121.640316,33 122.517787,33 C123.371542,33 124,32.1146133 124,31.0153824 C124,29.9008635 123.371542,29 122.505777,29 C121.640316,29 121,29.9008635 121,31.0000944 L121,31.0000944 Z M125,30.9878615 C125,32.1150907 124.133498,33 123.005707,33 C121.890089,33 121,32.1150907 121,30.9878615 C121,29.8849093 121.890089,29 123.005707,29 C124.133498,29 125,29.8849093 125,30.9878615 L125,30.9878615 Z" id="Fill-9" fill="#000000"></path>
            </g>
        </g>
    </g>
</svg>