<svg xmlns="http://www.w3.org/2000/svg" viewBox="0 0 212.41 180" fill="#5484b3" xmlns:v="https://vecta.io/nano"><path d="M212.41 212.41H0V0h212.41v212.41zM61.43 164.83c32.56-.08 58.55-26.31 58.59-58.52.04-32.25-25.93-58.62-58.55-58.65-32.54-.03-58.64 26.28-58.61 58.63.03 32.25 26.05 58.46 58.57 58.54zm63.11-58.61c0 3.88.21 7.74.65 11.6a93.86 93.86 0 0 0 1.84 10.66c1.21 5.18 2.86 10.21 5.19 15.01 1.96 4.03 4.31 7.8 7.38 11.09 2.16 2.31 4.59 4.27 7.45 5.64 4.05 1.94 8.24 2.32 12.54.98 3.03-.94 5.63-2.62 7.98-4.71 2.66-2.38 4.83-5.17 6.7-8.19 2.38-3.84 4.2-7.94 5.65-12.2 1.95-5.75 3.21-11.65 3.94-17.67.38-3.11.61-6.23.69-9.36.13-5.03-.09-10.05-.7-15.04-.41-3.32-.97-6.61-1.73-9.87-1.32-5.69-3.17-11.19-5.85-16.4-1.71-3.33-3.72-6.47-6.23-9.27-2.45-2.73-5.23-5.03-8.62-6.51-3.55-1.55-7.21-1.95-10.99-.96-2.75.72-5.19 2.03-7.43 3.76-2.51 1.94-4.62 4.27-6.46 6.85-2.78 3.88-4.88 8.12-6.56 12.57-2.83 7.5-4.38 15.28-5.08 23.25-.25 2.9-.36 5.83-.36 8.77zm85.2-.81c-.05-5.59-.22-11.18-.71-16.75l-.68-6.86c-.41-3.51-.96-7.01-1.69-10.47-.62-2.92-1.35-5.82-2.42-8.62-.5-1.31-1.06-2.58-1.81-3.78-.48-.77-1.02-1.49-1.73-2.07-1.17-.96-2.52-.96-3.68 0-.31.26-.6.55-.86.86-.73.85-1.28 1.82-1.76 2.83-.96 2.02-1.66 4.13-2.25 6.28-1.33 4.86-2.17 9.8-2.75 14.8-.38 3.32-.7 6.65-.93 9.98-.23 3.37-.36 6.75-.44 10.13a216.78 216.78 0 0 0 .47 19.74 176.8 176.8 0 0 0 1.07 10.77c.44 3.33.98 6.65 1.72 9.93.61 2.71 1.32 5.39 2.35 7.98.55 1.4 1.16 2.78 2.07 3.99.39.52.83 1.02 1.33 1.44 1.23 1.02 2.43 1.02 3.65 0 .48-.4.91-.89 1.3-1.39.67-.87 1.16-1.86 1.61-2.86 1.14-2.56 1.92-5.24 2.57-7.97 1.1-4.63 1.82-9.33 2.35-14.06.41-3.62.71-7.25.9-10.89a245.57 245.57 0 0 0 .32-13.01z"/></svg>