<svg xmlns="http://www.w3.org/2000/svg" width="143" height="106" viewBox="0 0 143 104">
  <g id="Group_284" data-name="Group 284" transform="translate(-112.857 -127.654)">
    <g id="Fx9NuE.tif" transform="translate(121.136 130.949)">
      <g id="Group_283" data-name="Group 283">
        <path id="Path_404" data-name="Path 404" d="M226.513,176.761c-.738.268-1.173.413-1.6.583q-18.4,7.411-36.787,14.849a7.739,7.739,0,0,1-6.2.027c-12.246-4.988-24.521-9.907-36.787-14.848-.464-.187-.936-.354-1.555-.587-.043.564-.1.964-.1,1.364q-.006,18.867-.022,37.735a1.632,1.632,0,0,0,1.02,1.739c4.769,2.209,9.422,4.7,14.3,6.621a69.456,69.456,0,0,0,31.066,4.874c12.658-.99,24.358-5.076,35.359-11.322a2.245,2.245,0,0,0,1.329-2.265c-.043-12.345-.028-24.691-.028-37.037Zm22.337-20.3c-.486-.236-.689-.35-.9-.437q-30.929-12.472-61.874-24.9a3.477,3.477,0,0,0-2.351.073q-22.605,9.044-45.174,18.182L121.136,156.4c.619.28,1.025.482,1.443.651q30.669,12.366,61.355,24.692a3.231,3.231,0,0,0,2.194-.027q25.91-10.366,51.783-20.821C241.482,159.457,245.046,158,248.849,156.458Z" transform="translate(-121.136 -130.949)" fill="none" stroke="#000" stroke-miterlimit="10" stroke-width="6.519"/>
      </g>
    </g>
    <line id="Line_40" data-name="Line 40" y2="75.205" transform="translate(247.946 156.021)" fill="none" stroke="#000" stroke-miterlimit="10" stroke-width="6.519"/>
    <line id="Line_41" data-name="Line 41" x2="126.81" transform="translate(121.136 156.401)" fill="none" stroke="#000" stroke-miterlimit="10" stroke-width="6.519"/>
  </g>
</svg>
