<svg xmlns="http://www.w3.org/2000/svg" width="189.063" height="231.845" viewBox="0 0 189.063 231.845">
  <g id="Group_54" data-name="Group 54" transform="translate(-844.06 -431.408)">
    <path id="Path_51" data-name="Path 51" d="M945.842,517.847l-41.779,14.986v49.875L945.841,597.7l41.778-14.988V532.832Zm0,3.269,35.683,12.8h0l-35.684,12.8-35.684-12.8ZM944.3,593.875,907.14,580.543V536.1L944.3,549.433ZM984.542,536.1v44.44l-37.161,13.331V549.433l37.161-13.33Z" transform="translate(-7.248 -10.441)"/>
    <path id="Path_52" data-name="Path 52" d="M885.839,604.285,844.06,619.271v49.875l41.779,14.988,41.778-14.988V619.27Zm0,3.269,35.684,12.8h0l-35.684,12.8-35.684-12.8ZM884.3,680.313l-37.163-13.332V622.54L884.3,635.871Zm40.24-57.772v44.44l-37.162,13.332V635.871l37.162-13.33Z" transform="translate(0 -20.881)"/>
    <path id="Path_53" data-name="Path 53" d="M977.611,595.7l-4.557,1.635,8.471,3.039h0l-35.684,12.8-35.684-12.8,8.47-3.039-4.557-1.635-10.009,3.591v11.161l3.077,1.1v-9l37.163,13.33v44.442l-12.516-4.49v3.27l14.054,5.041,41.778-14.988V599.293Zm6.931,6.861V647l-37.161,13.332V615.893l37.161-13.331Z" transform="translate(-7.248 -19.844)"/>
    <path id="Path_54" data-name="Path 54" d="M1005.84,431.411,964.061,446.4v49.874l41.779,14.988,41.778-14.988V446.4Zm0,3.27,35.683,12.8h0l-35.684,12.8-35.684-12.8Zm-1.54,72.758-37.163-13.332v-44.44L1004.3,463Zm40.239-57.771v44.439l-37.161,13.332V463l37.161-13.331Z" transform="translate(-14.494 0)"/>
    <path id="Path_55" data-name="Path 55" d="M1037.609,509.267l-4.556,1.634,8.47,3.039h0l-35.684,12.8-35.684-12.8,8.471-3.039-4.557-1.635-10.01,3.591v11.162l3.077,1.1v-9l37.163,13.331V573.9l-12.516-4.49v3.269l14.054,5.042,41.778-14.988V512.857Zm6.931,6.861v44.44L1007.379,573.9V529.457l37.161-13.33Z" transform="translate(-14.494 -9.404)"/>
    <path id="Path_56" data-name="Path 56" d="M1040.936,574.161l-4.556,1.635,8.47,3.039h0l-35.684,12.8-14.055-5.041v.753l-3.506,1.258,16.022,5.747v44.443l-9.438-3.386v3.269l10.977,3.938,41.778-14.988V577.752Zm6.931,6.861v44.439l-37.161,13.332V594.352l37.161-13.331Z" transform="translate(-17.822 -17.243)"/>
    <g id="Group_53" data-name="Group 53" transform="translate(948.767 431.408)">
      <g id="Group_52" data-name="Group 52">
        <g id="Group_51" data-name="Group 51">
          <path id="Path_57" data-name="Path 57" d="M1046.7,446.4v49.878l-41.78,14.982-41.771-14.982V446.4l41.771-14.991Zm-3.077,47.706V449.669L1006.462,463v44.444Zm-38.7-33.823,35.687-12.8-35.687-12.8-35.678,12.8Zm-1.539,47.161V463l-37.156-13.329V494.1Z" transform="translate(-963.152 -431.408)"/>
          <path id="Path_58" data-name="Path 58" d="M1049.576,452.178v44.435l-37.164,13.338V465.507Z" transform="translate(-969.102 -433.917)" fill="#5383b3"/>
          <path id="Path_59" data-name="Path 59" d="M1041.448,447.929l-35.687,12.8-35.679-12.8,35.679-12.8Z" transform="translate(-963.989 -431.857)" fill="#5383b3"/>
          <path id="Path_60" data-name="Path 60" d="M1003.807,465.507v44.444l-37.156-13.338V452.178Z" transform="translate(-963.575 -433.917)" fill="#5383b3"/>
        </g>
      </g>
    </g>
  </g>
</svg>
