<svg xmlns="http://www.w3.org/2000/svg" width="47.926" height="32.775" viewBox="0 0 47.926 32.775">
  <g id="_5OfldY.tif" data-name="5OfldY.tif" transform="translate(1.499 1.5)">
    <g id="Group_14" data-name="Group 14">
      <path id="Path_42" data-name="Path 42" d="M2660.218,2377.423h.443c1.248,0,2.5,0,3.743,0,.792,0,1.11.411.9,1.164q-2.534,8.856-5.077,17.709a1.143,1.143,0,0,1-.769.954,1.222,1.222,0,0,1-.485.034h-37.394a3.051,3.051,0,0,1-.489-.027.719.719,0,0,1-.629-.657,2.579,2.579,0,0,1-.01-.415q0-13.608,0-27.216c0-.878.219-1.1,1.09-1.1,3.466,0,6.932,0,10.4,0a1.373,1.373,0,0,1,1.072.434c1.062,1.093,2.158,2.155,3.227,3.242a.843.843,0,0,0,.664.266q11.1,0,22.194.021c.924,0,1.128.206,1.128,1.138v4.458Zm0,0h-32.654s-4.386,14.262-5.99,19.859" transform="translate(-2620.442 -2367.866)" fill="none" stroke="#5485b3" stroke-linecap="round" stroke-miterlimit="10" stroke-width="3"/>
    </g>
  </g>
</svg>
