<svg xmlns="http://www.w3.org/2000/svg" width="48.726" height="50.173" viewBox="0 0 48.726 50.173">
  <g id="Group_13" data-name="Group 13" transform="translate(2.026 1.677)">
    <g id="Group_10" data-name="Group 10" transform="translate(0 0)">
      <path id="Path_32" data-name="Path 32" d="M2673.522,1468.762" transform="translate(-2647.727 -1462.38)" fill="none" stroke="#5485b3" stroke-linecap="round" stroke-miterlimit="10" stroke-width="3"/>
      <path id="Path_33" data-name="Path 33" d="M2673.643,1494.666" transform="translate(-2647.787 -1475.191)" fill="none" stroke="#5485b3" stroke-linecap="round" stroke-miterlimit="10" stroke-width="3"/>
      <path id="Path_34" data-name="Path 34" d="M2622.484,1462.636l12.929,6.8,12.865-6.918-12.927-6.382-12.867,6.5.061,13.093,12.931,7.006" transform="translate(-2622.484 -1456.134)" fill="none" stroke="#5485b3" stroke-linecap="round" stroke-miterlimit="10" stroke-width="3"/>
      <path id="Path_35" data-name="Path 35" d="M2648.129,1495.751l-.062-13.3" transform="translate(-2635.137 -1469.15)" fill="none" stroke="#5485b3" stroke-linecap="round" stroke-miterlimit="10" stroke-width="3"/>
    </g>
    <g id="Group_11" data-name="Group 11" transform="translate(12.76 20.185)">
      <path id="Path_36" data-name="Path 36" d="M2647.731,1508.819l.061,13.092,12.931,7.006,12.865-7.127-.061-13.093" transform="translate(-2647.731 -1502.316)" fill="none" stroke="#5485b3" stroke-linecap="round" stroke-miterlimit="10" stroke-width="3"/>
      <path id="Path_37" data-name="Path 37" d="M2673.191,1496.071" transform="translate(-2660.323 -1496.071)" fill="none" stroke="#5485b3" stroke-linecap="round" stroke-miterlimit="10" stroke-width="3"/>
      <path id="Path_38" data-name="Path 38" d="M2673.526,1505.964l-12.866,6.918-12.93-6.8,4.916-2.915" transform="translate(-2647.731 -1499.582)" fill="none" stroke="#5485b3" stroke-linecap="round" stroke-miterlimit="10" stroke-width="3"/>
      <path id="Path_39" data-name="Path 39" d="M2673.376,1535.687l-.062-13.3" transform="translate(-2660.384 -1509.086)" fill="none" stroke="#5485b3" stroke-linecap="round" stroke-miterlimit="10" stroke-width="3"/>
    </g>
    <g id="Group_12" data-name="Group 12" transform="translate(17.632 4.176)">
      <path id="Path_40" data-name="Path 40" d="M2657.371,1470.9l12.929,6.8,12.866-6.918-12.927-6.382-12.868,6.5.061,13.092,12.931,7.006,12.865-7.127-.061-13.092" transform="translate(-2657.371 -1464.397)" fill="none" stroke="#5485b3" stroke-linecap="round" stroke-linejoin="bevel" stroke-miterlimit="10" stroke-width="3"/>
      <path id="Path_41" data-name="Path 41" d="M2683.016,1504.013l-.062-13.3" transform="translate(-2670.024 -1477.412)" fill="none" stroke="#5485b3" stroke-linecap="round" stroke-miterlimit="10" stroke-width="3"/>
    </g>
  </g>
</svg>
