<svg xmlns="http://www.w3.org/2000/svg" width="50.495" height="45.519" viewBox="0 0 50.495 45.519">
  <g id="Group_9" data-name="Group 9" transform="translate(2.121 2.118)">
    <line id="Line_14" data-name="Line 14" x2="4.565" y2="4.575" transform="translate(0.51 17.048)" fill="none" stroke="#5485b3" stroke-linecap="round" stroke-miterlimit="10" stroke-width="3"/>
    <rect id="Rectangle_1" data-name="Rectangle 1" width="14.243" height="5.069" rx="2.535" transform="translate(0 26.637) rotate(-45)" fill="none" stroke="#5485b3" stroke-linecap="round" stroke-miterlimit="10" stroke-width="3"/>
    <rect id="Rectangle_2" data-name="Rectangle 2" width="14.243" height="5.069" rx="2.535" transform="translate(3.705 30.39) rotate(-45)" fill="none" stroke="#5485b3" stroke-linecap="round" stroke-miterlimit="10" stroke-width="3"/>
    <rect id="Rectangle_3" data-name="Rectangle 3" width="14.243" height="5.069" rx="2.535" transform="translate(7.371 34.056) rotate(-45)" fill="none" stroke="#5485b3" stroke-linecap="round" stroke-miterlimit="10" stroke-width="3"/>
    <rect id="Rectangle_4" data-name="Rectangle 4" width="10.153" height="5.069" rx="2.535" transform="translate(11.057 37.695) rotate(-45)" fill="none" stroke="#5485b3" stroke-linecap="round" stroke-miterlimit="10" stroke-width="3"/>
    <path id="Path_27" data-name="Path 27" d="M2675.524,2234.849l4.874,4.868a2.321,2.321,0,0,0,3.273,0l.311-.312a2.322,2.322,0,0,0,0-3.273l-13.88-13.475" transform="translate(-2644.067 -2209.124)" fill="none" stroke="#5485b3" stroke-linecap="round" stroke-miterlimit="10" stroke-width="3"/>
    <path id="Path_28" data-name="Path 28" d="M2673.5,2250.7l4.874,4.867a2.321,2.321,0,0,0,3.273,0l.311-.311a2.322,2.322,0,0,0,0-3.274l-4.874-4.867" transform="translate(-2645.747 -2221.219)" fill="none" stroke="#5485b3" stroke-linecap="round" stroke-miterlimit="10" stroke-width="3"/>
    <path id="Path_29" data-name="Path 29" d="M2666.245,2257.951l4.874,4.868a2.321,2.321,0,0,0,3.273,0l.311-.311a2.322,2.322,0,0,0,0-3.274l-4.874-4.867" transform="translate(-2642.16 -2224.807)" fill="none" stroke="#5485b3" stroke-linecap="round" stroke-miterlimit="10" stroke-width="3"/>
    <path id="Path_30" data-name="Path 30" d="M2657.815,2266.342l4.152,3.833a2.321,2.321,0,0,0,3.273,0l.311-.311a2.321,2.321,0,0,0,0-3.273l-1.982-1.975" transform="translate(-2637.99 -2229.876)" fill="none" stroke="#5485b3" stroke-linecap="round" stroke-miterlimit="10" stroke-width="3"/>
    <path id="Path_31" data-name="Path 31" d="M2672.055,2222.454l7.6-7.6-15.362-16.344s-3.295-4.005-7.581.625l-7.7,7.815a5.4,5.4,0,0,0,2.544,7.236c4.824,2.7,8.944-3.17,8.944-3.17" transform="translate(-2633.372 -2196.385)" fill="none" stroke="#5485b3" stroke-linecap="round" stroke-miterlimit="10" stroke-width="3"/>
    <line id="Line_15" data-name="Line 15" x1="3.711" y1="4.116" transform="translate(18.284)" fill="none" stroke="#5485b3" stroke-linecap="round" stroke-miterlimit="10" stroke-width="3"/>
  </g>
</svg>
