<svg xmlns="http://www.w3.org/2000/svg" width="40.358" height="40.355" viewBox="0 0 40.358 40.355">
  <g id="_8jVX55.tif" data-name="8jVX55.tif" transform="translate(1.5 1.5)">
    <g id="Group_4" data-name="Group 4" transform="translate(0)">
      <path id="Path_17" data-name="Path 17" d="M2636.953,1632.21c.181-.084.3-.138.423-.2l13.893-6.949a2.256,2.256,0,0,1,.41-.185.344.344,0,0,1,.476.306,2.458,2.458,0,0,1,.014.409c0,2.175,0,4.35,0,6.6.163-.08.291-.136.412-.2l12.474-6.926c.1-.053.19-.109.29-.152.281-.121.455.014.529.27a1.781,1.781,0,0,1,.031.488q0,11.759,0,23.518c0,.761-.061.823-.814.823H2629.38c-.776,0-.832-.057-.832-.846v-35.668c0-.784.056-.84.838-.84q3.406,0,6.814,0c.67,0,.753.086.753.763q0,9.132,0,18.265Z" transform="translate(-2628.548 -1612.653)" fill="none" stroke="#5485b3" stroke-linecap="round" stroke-miterlimit="10" stroke-width="3"/>
      <path id="Path_18" data-name="Path 18" d="M2685.84,1666.6c0-.7,0-1.4,0-2.093,0-.286.062-.552.4-.548.316,0,.376.264.376.532q0,2.134,0,4.267c0,.271-.075.516-.4.505s-.375-.267-.376-.53c0-.711,0-1.422,0-2.133Z" transform="translate(-2656.883 -1638.026)" fill="none" stroke="#5485b3" stroke-linecap="round" stroke-miterlimit="10" stroke-width="3"/>
      <path id="Path_19" data-name="Path 19" d="M2661.746,1666.589c0-.711,0-1.422,0-2.132,0-.285.087-.512.4-.5.282.01.364.23.363.5q-.008,2.152,0,4.305c0,.279-.077.51-.4.5-.3-.009-.361-.239-.359-.5C2661.748,1668.038,2661.746,1667.314,2661.746,1666.589Z" transform="translate(-2644.966 -1638.027)" fill="none" stroke="#5485b3" stroke-linecap="round" stroke-miterlimit="10" stroke-width="3"/>
      <path id="Path_20" data-name="Path 20" d="M2674.55,1666.614c0,.711,0,1.421,0,2.132,0,.266-.038.526-.366.529-.349,0-.4-.264-.395-.547,0-1.407-.006-2.815.01-4.222a.809.809,0,0,1,.221-.48.365.365,0,0,1,.36.026.7.7,0,0,1,.163.431C2674.559,1665.193,2674.55,1665.9,2674.55,1666.614Z" transform="translate(-2650.924 -1638.043)" fill="none" stroke="#5485b3" stroke-linecap="round" stroke-miterlimit="10" stroke-width="3"/>
      <path id="Path_21" data-name="Path 21" d="M2649.681,1666.577q0-1.046,0-2.091c0-.269.055-.529.374-.529.338,0,.4.268.4.553q0,2.112,0,4.224c0,.267-.058.519-.379.527s-.392-.238-.389-.509c0-.082,0-.164,0-.246Q2649.68,1667.54,2649.681,1666.577Z" transform="translate(-2639 -1638.027)" fill="none" stroke="#5485b3" stroke-linecap="round" stroke-miterlimit="10" stroke-width="3"/>
    </g>
  </g>
</svg>
