<svg xmlns="http://www.w3.org/2000/svg" width="39.813" height="40.286" viewBox="0 0 39.813 40.286">
  <g id="Group_7" data-name="Group 7" transform="translate(1.5 1.502)">
    <g id="Group_5" data-name="Group 5" transform="translate(0 0)">
      <path id="Path_22" data-name="Path 22" d="M2647.495,1797.19a39.049,39.049,0,0,0-8.848-1.354,31.106,31.106,0,0,0-9.559,1.354v-35.354a42.271,42.271,0,0,1,8.848-1.354,37.215,37.215,0,0,1,9.559,1.354Z" transform="translate(-2629.088 -1760.474)" fill="none" stroke="#5485b3" stroke-linecap="round" stroke-miterlimit="10" stroke-width="3"/>
      <line id="Line_4" data-name="Line 4" x2="12.807" transform="translate(2.674 7.521)" fill="none" stroke="#5485b3" stroke-linecap="round" stroke-miterlimit="10" stroke-width="3"/>
      <line id="Line_5" data-name="Line 5" x2="12.804" transform="translate(2.677 18.727)" fill="none" stroke="#5485b3" stroke-linecap="round" stroke-miterlimit="10" stroke-width="3"/>
      <line id="Line_6" data-name="Line 6" x2="12.804" transform="translate(2.677 13.124)" fill="none" stroke="#5485b3" stroke-linecap="round" stroke-miterlimit="10" stroke-width="3"/>
      <line id="Line_7" data-name="Line 7" x2="12.804" transform="translate(2.677 24.33)" fill="none" stroke="#5485b3" stroke-linecap="round" stroke-miterlimit="10" stroke-width="3"/>
      <line id="Line_8" data-name="Line 8" x2="12.34" transform="translate(2.677 30.047)" fill="none" stroke="#5485b3" stroke-linecap="round" stroke-miterlimit="10" stroke-width="3"/>
    </g>
    <g id="Group_6" data-name="Group 6" transform="translate(18.407 0)">
      <path id="Path_23" data-name="Path 23" d="M2683.914,1797.19a39.045,39.045,0,0,0-8.848-1.354,31.1,31.1,0,0,0-9.559,1.354v-35.354a42.267,42.267,0,0,1,8.847-1.354,37.215,37.215,0,0,1,9.559,1.354Z" transform="translate(-2665.507 -1760.474)" fill="none" stroke="#5485b3" stroke-linecap="round" stroke-miterlimit="10" stroke-width="3"/>
      <line id="Line_9" data-name="Line 9" x2="12.807" transform="translate(2.674 7.521)" fill="none" stroke="#5485b3" stroke-linecap="round" stroke-miterlimit="10" stroke-width="3"/>
      <line id="Line_10" data-name="Line 10" x2="12.804" transform="translate(2.677 18.727)" fill="none" stroke="#5485b3" stroke-linecap="round" stroke-miterlimit="10" stroke-width="3"/>
      <line id="Line_11" data-name="Line 11" x2="12.804" transform="translate(2.677 13.124)" fill="none" stroke="#5485b3" stroke-linecap="round" stroke-miterlimit="10" stroke-width="3"/>
      <line id="Line_12" data-name="Line 12" x2="12.804" transform="translate(2.677 24.33)" fill="none" stroke="#5485b3" stroke-linecap="round" stroke-miterlimit="10" stroke-width="3"/>
      <line id="Line_13" data-name="Line 13" x2="12.34" transform="translate(2.677 30.047)" fill="none" stroke="#5485b3" stroke-linecap="round" stroke-miterlimit="10" stroke-width="3"/>
    </g>
  </g>
</svg>
