<svg xmlns="http://www.w3.org/2000/svg" width="68.911" height="46.011" viewBox="0 0 68.911 46.011">
  <g id="Group_3" data-name="Group 3" transform="translate(1.5 1.5)">
    <path id="Path_14" data-name="Path 14" d="M2619.046,1370.066a9.369,9.369,0,1,1-4.326-7.9A9.372,9.372,0,0,1,2619.046,1370.066Z" transform="translate(-2600.301 -1336.427)" fill="none" stroke="#5485b3" stroke-linecap="round" stroke-miterlimit="10" stroke-width="3"/>
    <path id="Path_15" data-name="Path 15" d="M2658.1,1319.453a6.773,6.773,0,1,1-3.127-5.71A6.774,6.774,0,0,1,2658.1,1319.453Z" transform="translate(-2622.187 -1312.679)" fill="none" stroke="#5485b3" stroke-linecap="round" stroke-miterlimit="10" stroke-width="3"/>
    <path id="Path_16" data-name="Path 16" d="M2710.191,1350.73a10.48,10.48,0,1,1-4.839-8.837A10.485,10.485,0,0,1,2710.191,1350.73Z" transform="translate(-2644.281 -1326.313)" fill="none" stroke="#5485b3" stroke-linecap="round" stroke-miterlimit="10" stroke-width="3"/>
    <line id="Line_2" data-name="Line 2" x1="10.809" y2="13.768" transform="translate(14.418 11.973)" fill="none" stroke="#5485b3" stroke-linecap="round" stroke-miterlimit="10" stroke-width="3"/>
    <line id="Line_3" data-name="Line 3" x1="11.29" y1="9.311" transform="translate(34.561 10.836)" fill="none" stroke="#5485b3" stroke-linecap="round" stroke-miterlimit="10" stroke-width="3"/>
  </g>
</svg>
