<svg xmlns="http://www.w3.org/2000/svg" width="45.674" height="42.012" viewBox="0 0 45.674 42.012">
  <g id="Group_2" data-name="Group 2" transform="translate(1.5 1.804)">
    <path id="Path_3" data-name="Path 3" d="M2658.476,1204.714v1.986h7.107v-1.986a5.772,5.772,0,0,1-7.107,0Z" transform="translate(-2640.692 -1186.453)" fill="none" stroke="#5485b3" stroke-linecap="round" stroke-miterlimit="10" stroke-width="3"/>
    <path id="Path_4" data-name="Path 4" d="M2647.914,1231.89v1.32h3.218v5.392h11.347v-5.392h3.218v-1.32" transform="translate(-2635.468 -1199.894)" fill="none" stroke="#5485b3" stroke-linecap="round" stroke-miterlimit="10" stroke-width="3"/>
    <line id="Line_1" data-name="Line 1" x1="7.107" transform="translate(17.784 20.246)" fill="none" stroke="#5485b3" stroke-linecap="round" stroke-miterlimit="10" stroke-width="3"/>
    <path id="Path_5" data-name="Path 5" d="M2665.631,1189.838a5.792,5.792,0,0,0-11.58,0" transform="translate(-2638.504 -1176.303)" fill="none" stroke="#5485b3" stroke-linecap="round" stroke-miterlimit="10" stroke-width="3"/>
    <path id="Path_6" data-name="Path 6" d="M2658.476,1204.714a5.772,5.772,0,0,0,7.107,0" transform="translate(-2640.692 -1186.453)" fill="none" stroke="#5485b3" stroke-linecap="round" stroke-miterlimit="10" stroke-width="3"/>
    <path id="Path_7" data-name="Path 7" d="M2641.073,1200.089a5.782,5.782,0,0,1-2.244-4.574c0-.052.006-.1.008-.152h-15.547v13.069h3.219v5.392h9.227v-11.749h5.338" transform="translate(-2623.289 -1181.828)" fill="none" stroke="#5485b3" stroke-linecap="round" stroke-miterlimit="10" stroke-width="3"/>
    <path id="Path_8" data-name="Path 8" d="M2653.252,1208.643h-5.338v11.749" transform="translate(-2635.468 -1188.396)" fill="none" stroke="#5485b3" stroke-linecap="round" stroke-miterlimit="10" stroke-width="3"/>
    <path id="Path_9" data-name="Path 9" d="M2654.044,1195.363c0,.051-.008.1-.008.152" transform="translate(-2638.496 -1181.828)" fill="none" stroke="#5485b3" stroke-linecap="round" stroke-miterlimit="10" stroke-width="3"/>
    <path id="Path_10" data-name="Path 10" d="M2658.476,1204.714" transform="translate(-2640.692 -1186.453)" fill="none" stroke="#5485b3" stroke-linecap="round" stroke-miterlimit="10" stroke-width="3"/>
    <circle id="Ellipse_1" data-name="Ellipse 1" cx="5.798" cy="5.798" r="5.798" transform="translate(1.917 2.664) rotate(-13.282)" fill="none" stroke="#5485b3" stroke-linecap="round" stroke-miterlimit="10" stroke-width="3"/>
    <path id="Path_11" data-name="Path 11" d="M2672.538,1202.075h5.338v11.749h9.227v-5.392h3.218v-13.069h-15.547c0,.051.008.1.008.152a5.782,5.782,0,0,1-2.244,4.574" transform="translate(-2647.647 -1181.828)" fill="none" stroke="#5485b3" stroke-linecap="round" stroke-miterlimit="10" stroke-width="3"/>
    <path id="Path_12" data-name="Path 12" d="M2677.876,1220.392v-11.749h-5.338" transform="translate(-2647.647 -1188.396)" fill="none" stroke="#5485b3" stroke-linecap="round" stroke-miterlimit="10" stroke-width="3"/>
    <path id="Path_13" data-name="Path 13" d="M2672.538,1200.089a5.782,5.782,0,0,0,2.244-4.574c0-.052-.007-.1-.008-.152" transform="translate(-2647.647 -1181.828)" fill="none" stroke="#5485b3" stroke-linecap="round" stroke-miterlimit="10" stroke-width="3"/>
    <circle id="Ellipse_2" data-name="Ellipse 2" cx="5.798" cy="5.798" r="5.798" transform="translate(26.808 2.664) rotate(-13.282)" fill="none" stroke="#5485b3" stroke-linecap="round" stroke-miterlimit="10" stroke-width="3"/>
  </g>
</svg>
