<svg xmlns="http://www.w3.org/2000/svg" viewBox="-180 0 1040 161.45"  xmlns:v="https://vecta.io/nano"><path d="M94.61 95.39H17.73c1.67 7.29 5.45 13.25 11.35 17.89s12.66 6.96 20.29 6.96h11.44c4.53.24 6.79 2.5 6.79 6.79 0 4.05-2.15 6.26-6.44 6.62-2.39.12-6.32.18-11.8.18-12.64 0-23.42-4.47-32.36-13.41S3.6 100.7 3.6 88.07c0-12.52 4.47-23.24 13.41-32.18s19.73-13.41 32.36-13.41c9.18 0 17.61 2.56 25.3 7.69s13.32 11.98 16.9 20.56c1.91 4.65 2.92 8.34 3.04 11.09v13.57zM79.23 81.81c-1.55-7.63-4.89-13.89-10.01-18.77-5.49-5.01-12.04-7.51-19.67-7.51-7.75 0-14.63 2.48-20.65 7.42-6.02 4.95-9.8 11.23-11.35 18.86h61.68zm110.14-31.83c0 .96-.12 1.67-.36 2.15l-35.22 74.38c-2.03 4.17-4.3 6.26-6.8 6.26-1.79 0-3.13-.74-4.02-2.24-.89-1.49-1.7-3.01-2.41-4.56l-38.09-73.84c-.24-.48-.36-1.19-.36-2.15 0-1.79.65-3.34 1.96-4.65s2.86-1.97 4.64-1.97c2.86 0 5 1.49 6.43 4.48l31.34 62.33 29.9-62.3c1.42-3 3.56-4.5 6.4-4.5 1.78 0 3.32.66 4.62 1.97 1.31 1.31 1.97 2.85 1.97 4.64zm99.41 38.09c0 12.64-4.47 23.42-13.41 32.36s-19.67 13.41-32.18 13.41c-12.64 0-23.42-4.47-32.36-13.41s-13.41-19.73-13.41-32.36c0-12.52 4.47-23.24 13.41-32.18s19.73-13.41 32.36-13.41c12.52 0 23.24 4.47 32.18 13.41 8.94 8.93 13.41 19.66 13.41 32.18zm-13.23 0c0-8.94-3.16-16.6-9.48-22.98s-13.95-9.57-22.89-9.57c-9.06 0-16.75 3.19-23.06 9.57-6.32 6.38-9.48 14.03-9.48 22.98 0 8.94 3.16 16.57 9.48 22.89s14.01 9.48 23.06 9.48c8.94 0 16.57-3.16 22.89-9.48 6.32-6.33 9.48-13.96 9.48-22.89z"/><g fill="#919191"><path d="M388.72 87.89c0 12.64-4.47 23.42-13.41 32.36s-19.67 13.41-32.18 13.41c-12.64 0-23.42-4.47-32.36-13.41s-13.41-19.73-13.41-32.36 4.47-23.42 13.41-32.36 19.73-13.41 32.36-13.41c12.16 0 22.89 4.89 32.18 14.66l.18-43.09c0-1.79.65-3.37 1.97-4.74 1.31-1.37 2.86-2.06 4.65-2.06s3.34.6 4.65 1.79 1.97 2.68 1.97 4.47v74.74zm-13.23.09c0-8.96-3.16-16.61-9.48-22.95s-13.95-9.5-22.89-9.5c-9.06 0-16.75 3.17-23.06 9.5-6.32 6.34-9.48 13.99-9.48 22.95 0 9.08 3.16 16.79 9.48 23.13s14.01 9.5 23.06 9.5c8.94 0 16.57-3.16 22.89-9.5s9.48-14.05 9.48-23.13zm78.85 32.27h-5.73l-2.25.02h8.25c-.08 0-.19-.02-.27-.02zm-7.98.02l-4.39.02 4.39-.02z"/><path d="M666.06 44.36l-21.35-21.51c-1.29-1.31-2.98-2.04-4.73-2.04-1.79 0-3.48.73-4.77 2.04-1.35 1.31-2.04 3-2.04 4.77s.69 3.46 2.04 4.77l9.93 9.93h-47.23c-1.75 0-3.56.81-5 2.27l-29.55 33.15-29.99-33.2c-1.42-1.42-3.23-2.23-4.98-2.23h-25.78c-3.56 0-7.21 2.06-7.21 6 0 3.29 3.23 7.23 7.21 7.23h22.83l28.93 32.28-28.93 32.45h-79.1c-.96 0-2.54.06-4.39.02-.33 0-.69 0-1.06-.02a20.21 20.21 0 0 1-1.1-.04c-.37-.02-.77-.04-1.12-.08-.77-.08-1.54-.17-2.29-.29-.67-.1-1.31-.25-1.92-.42-4.27-1.06-8.02-3.12-11.85-6.16-5.89-4.62-9.7-10.6-11.37-17.89h76.89V81.8c-.12-2.75-1.12-6.44-3.04-11.08-3.58-8.6-9.18-15.45-16.91-20.58-7.68-5.12-16.1-7.68-25.3-7.68-12.62 0-23.39 4.48-32.32 13.41-8.98 8.93-13.43 19.66-13.43 32.18 0 12.64 4.46 23.43 13.43 32.36 8.56 8.6 18.83 13.04 30.8 13.37 1.75.17 3.48.17 5.21.04l82.05.06c1.73 0 3.56-.81 4.98-2.29l67.48-75.68h43.88l3.77-3.75v3.56l-1.04.19h-2.73l-9.73 9.75c-1.31 1.31-2.04 3-2.04 4.75-.04 1.77.69 3.48 2.04 4.79 1.33 1.35 2.94 2.04 4.77 2.04 1.81 0 3.37-.69 4.73-2.04l21.35-21.33c2.67-2.68 2.67-6.79-.02-9.51zM422.4 62.93c6.02-4.94 12.93-7.41 20.66-7.41 7.62 0 14.18 2.5 19.66 7.5 5.12 4.89 8.5 11.16 10.02 18.78h-61.67c1.56-7.62 5.31-13.91 11.33-18.87z"/></g><path d="M693.99 154.82c-1.81 0-3.42-.68-4.77-2.03-1.31-1.31-2.03-3-2.03-4.77s.72-3.46 2.03-4.77l9.93-9.93H598.11c-1.74 0-3.55-.81-4.96-2.22l-25.43-28.38 8.88-10.02 24.28 27.41h98.08l-9.93-9.93c-1.31-1.31-2.03-3-2.03-4.77s.72-3.46 2.03-4.77 3-2.03 4.77-2.03 3.46.72 4.77 2.03l21.5 21.31c2.72 2.72 2.72 6.82 0 9.54l-21.31 21.31c-1.35 1.33-2.95 2.02-4.77 2.02z"/><g fill="#73a9db"><path d="M648.71 52.17v3.57l-1.05.18h-2.7z"/><path d="M648.71 52.17v3.57l-1.05.18h-2.7z"/></g></svg>