<?xml version="1.0" encoding="utf-8"?>
<!-- Generator: Adobe Illustrator 19.0.0, SVG Export Plug-In . SVG Version: 6.00 Build 0)  -->
<svg version="1.1" id="Layer_1" xmlns="http://www.w3.org/2000/svg" xmlns:xlink="http://www.w3.org/1999/xlink" x="0px" y="0px"
	 viewBox="0 0 276.2 259.1" style="enable-background:new 0 0 276.2 259.1;" xml:space="preserve">
<style type="text/css">
	.st0{fill:#118A9E;}
	.st1{fill:#2E2118;}
	.st2{fill:#6A503B;}
	.st3{fill:#457CBF;}
	.st4{fill:#4E4264;}
	.st5{fill:#76BDCD;}
	.st6{fill:#5585B4;}
	.st7{fill:#58BEE1;}
	.st8{fill:#406696;}
	.st9{fill:#434A71;}
	.st10{fill:#6EC5E1;}
	.st11{fill:#77D0ED;}
	.st12{fill:#44BBD2;}
	.st13{fill:#010101;}
</style>
<g id="XMLID_1393_">
	<g id="XMLID_289_">
		<path id="XMLID_295_" d="M103.2,160.9v3.4h-30v23.1h25v3.3h-25v23.8h30v3.4H69v-57.1H103.2z"/>
		<path id="XMLID_292_" d="M167.5,189.4c0,4.4-0.7,8.4-2,12c-1.3,3.6-3.2,6.7-5.6,9.2c-2.4,2.5-5.3,4.5-8.6,5.9
			c-3.3,1.4-7,2.1-11.1,2.1c-4,0-7.7-0.7-11-2.1c-3.3-1.4-6.2-3.3-8.6-5.9c-2.4-2.5-4.3-5.6-5.6-9.2s-2-7.6-2-12c0-4.4,0.7-8.4,2-12
			s3.2-6.7,5.6-9.2c2.4-2.5,5.3-4.5,8.6-5.9c3.3-1.4,7-2.1,11-2.1c4.1,0,7.8,0.7,11.1,2.1c3.3,1.4,6.2,3.4,8.6,5.9
			c2.4,2.6,4.2,5.6,5.6,9.2C166.9,181,167.5,185,167.5,189.4z M163.3,189.4c0-4-0.6-7.6-1.7-10.7c-1.1-3.2-2.7-5.9-4.7-8.1
			c-2-2.2-4.4-3.9-7.2-5.1c-2.8-1.2-6-1.8-9.4-1.8c-3.4,0-6.5,0.6-9.3,1.8c-2.8,1.2-5.2,2.9-7.3,5.1c-2,2.2-3.6,4.9-4.7,8.1
			c-1.1,3.2-1.7,6.7-1.7,10.7c0,4,0.6,7.6,1.7,10.7c1.1,3.2,2.7,5.8,4.7,8c2,2.2,4.4,3.9,7.3,5c2.8,1.2,5.9,1.7,9.3,1.7
			c3.4,0,6.6-0.6,9.4-1.7c2.8-1.2,5.2-2.8,7.2-5c2-2.2,3.6-4.9,4.7-8C162.7,197,163.3,193.4,163.3,189.4z"/>
		<path id="XMLID_290_" d="M208.6,167.8c-0.2,0.5-0.6,0.7-1,0.7c-0.4,0-0.8-0.2-1.4-0.7c-0.6-0.5-1.3-1-2.2-1.7
			c-0.9-0.6-2.1-1.2-3.5-1.7c-1.4-0.5-3.2-0.8-5.2-0.8c-2.1,0-3.9,0.3-5.5,0.9c-1.6,0.6-2.9,1.4-4,2.4c-1.1,1-1.9,2.2-2.4,3.5
			c-0.6,1.3-0.8,2.8-0.8,4.2c0,1.9,0.4,3.5,1.2,4.8c0.8,1.3,1.9,2.3,3.3,3.2c1.3,0.9,2.9,1.6,4.6,2.2c1.7,0.6,3.5,1.2,5.3,1.8
			c1.8,0.6,3.6,1.2,5.3,2c1.7,0.7,3.2,1.6,4.6,2.7c1.3,1.1,2.4,2.4,3.3,4c0.8,1.6,1.2,3.5,1.2,5.9c0,2.4-0.4,4.6-1.2,6.8
			c-0.8,2.1-2,3.9-3.6,5.5c-1.6,1.6-3.5,2.8-5.7,3.7c-2.3,0.9-4.8,1.4-7.7,1.4c-3.8,0-7-0.7-9.7-2s-5.1-3.2-7.1-5.5l1.1-1.8
			c0.3-0.4,0.7-0.6,1.1-0.6c0.2,0,0.6,0.2,0.9,0.5c0.4,0.3,0.8,0.7,1.4,1.2c0.5,0.5,1.2,1,1.9,1.5c0.8,0.6,1.6,1.1,2.6,1.5
			c1,0.5,2.1,0.9,3.4,1.2c1.3,0.3,2.8,0.5,4.4,0.5c2.3,0,4.3-0.3,6.1-1c1.8-0.7,3.3-1.6,4.5-2.8c1.2-1.2,2.2-2.6,2.8-4.2
			c0.6-1.6,1-3.4,1-5.2c0-2-0.4-3.7-1.2-5c-0.8-1.3-1.9-2.4-3.3-3.3c-1.3-0.9-2.9-1.6-4.6-2.2c-1.7-0.6-3.5-1.2-5.3-1.7
			c-1.8-0.6-3.6-1.2-5.3-1.9c-1.7-0.7-3.2-1.6-4.6-2.7c-1.3-1.1-2.4-2.4-3.3-4.1c-0.8-1.6-1.2-3.7-1.2-6.1c0-1.9,0.4-3.8,1.1-5.5
			c0.7-1.8,1.8-3.3,3.2-4.7c1.4-1.4,3.1-2.4,5.2-3.3c2.1-0.8,4.4-1.2,7-1.2c3,0,5.6,0.5,8,1.4c2.4,0.9,4.5,2.4,6.4,4.3L208.6,167.8z
			"/>
	</g>
	<g id="XMLID_266_">
		<path id="XMLID_287_" class="st0" d="M81.8,242.7c0.1,0,0.3,0.1,0.4,0.2l1.1,1.2c-0.8,0.9-1.7,1.6-2.8,2.1
			c-1.1,0.5-2.4,0.7-3.9,0.7c-1.3,0-2.5-0.2-3.6-0.7c-1.1-0.5-2-1.1-2.8-1.9c-0.8-0.8-1.4-1.8-1.8-3c-0.4-1.2-0.6-2.4-0.6-3.8
			c0-1.4,0.2-2.7,0.7-3.8c0.4-1.2,1.1-2.1,1.8-3c0.8-0.8,1.7-1.5,2.9-1.9c1.1-0.5,2.3-0.7,3.7-0.7c1.3,0,2.5,0.2,3.5,0.6
			c1,0.4,1.9,1,2.6,1.7l-0.9,1.2c-0.1,0.1-0.1,0.2-0.2,0.2c-0.1,0.1-0.2,0.1-0.3,0.1c-0.2,0-0.4-0.1-0.6-0.2
			c-0.2-0.2-0.5-0.3-0.9-0.5c-0.4-0.2-0.8-0.4-1.3-0.5s-1.2-0.2-2-0.2c-0.9,0-1.8,0.2-2.5,0.5c-0.8,0.3-1.4,0.8-2,1.4
			c-0.6,0.6-1,1.4-1.3,2.2c-0.3,0.9-0.5,1.9-0.5,3c0,1.1,0.2,2.1,0.5,3c0.3,0.9,0.8,1.6,1.3,2.2c0.6,0.6,1.2,1.1,2,1.4
			c0.8,0.3,1.6,0.5,2.5,0.5c0.5,0,1,0,1.4-0.1c0.4-0.1,0.8-0.2,1.2-0.3s0.7-0.3,1-0.5c0.3-0.2,0.6-0.4,0.9-0.7
			c0.1-0.1,0.1-0.1,0.2-0.1C81.6,242.7,81.7,242.7,81.8,242.7z"/>
		<path id="XMLID_284_" class="st0" d="M102.8,237.3c0,1.4-0.2,2.6-0.7,3.8c-0.4,1.2-1.1,2.1-1.9,3c-0.8,0.8-1.8,1.5-2.9,1.9
			c-1.1,0.5-2.4,0.7-3.7,0.7s-2.6-0.2-3.7-0.7s-2.1-1.1-2.9-1.9c-0.8-0.8-1.4-1.8-1.9-3c-0.4-1.2-0.7-2.4-0.7-3.8
			c0-1.4,0.2-2.6,0.7-3.8c0.4-1.2,1.1-2.1,1.9-3c0.8-0.8,1.8-1.5,2.9-1.9c1.1-0.5,2.4-0.7,3.7-0.7s2.6,0.2,3.7,0.7
			c1.1,0.5,2.1,1.1,2.9,1.9c0.8,0.8,1.4,1.8,1.9,3C102.6,234.7,102.8,236,102.8,237.3z M100.1,237.3c0-1.1-0.1-2.1-0.4-3
			c-0.3-0.9-0.7-1.6-1.3-2.2c-0.6-0.6-1.2-1.1-2-1.4c-0.8-0.3-1.7-0.5-2.6-0.5c-1,0-1.9,0.2-2.6,0.5c-0.8,0.3-1.5,0.8-2,1.4
			c-0.6,0.6-1,1.4-1.3,2.2c-0.3,0.9-0.5,1.9-0.5,3c0,1.1,0.2,2.1,0.5,3c0.3,0.9,0.7,1.6,1.3,2.2c0.6,0.6,1.2,1.1,2,1.4
			c0.8,0.3,1.7,0.5,2.6,0.5c1,0,1.9-0.2,2.6-0.5c0.8-0.3,1.5-0.8,2-1.4c0.6-0.6,1-1.4,1.3-2.2C99.9,239.5,100.1,238.5,100.1,237.3z"
			/>
		<path id="XMLID_282_" class="st0" d="M115.7,231.1c-0.1,0.1-0.2,0.2-0.3,0.3c-0.1,0.1-0.2,0.1-0.4,0.1c-0.2,0-0.3-0.1-0.5-0.2
			c-0.2-0.1-0.4-0.3-0.7-0.5c-0.3-0.2-0.6-0.3-1.1-0.5c-0.4-0.1-0.9-0.2-1.5-0.2c-0.5,0-1,0.1-1.4,0.2c-0.4,0.1-0.8,0.3-1,0.6
			c-0.3,0.2-0.5,0.5-0.6,0.9c-0.1,0.3-0.2,0.7-0.2,1.1c0,0.5,0.1,0.9,0.4,1.2c0.3,0.3,0.6,0.6,1,0.8c0.4,0.2,0.9,0.4,1.4,0.6
			c0.5,0.2,1.1,0.4,1.6,0.5c0.5,0.2,1.1,0.4,1.6,0.6c0.5,0.2,1,0.5,1.4,0.9c0.4,0.4,0.7,0.8,1,1.3c0.3,0.5,0.4,1.2,0.4,1.9
			c0,0.8-0.1,1.6-0.4,2.3c-0.3,0.7-0.7,1.3-1.2,1.8c-0.5,0.5-1.2,0.9-2,1.2s-1.6,0.5-2.6,0.5c-0.6,0-1.2-0.1-1.7-0.2
			c-0.6-0.1-1.1-0.3-1.6-0.5c-0.5-0.2-1-0.5-1.4-0.8c-0.4-0.3-0.8-0.6-1.2-1l0.8-1.3c0.1-0.1,0.2-0.2,0.3-0.3
			c0.1-0.1,0.2-0.1,0.4-0.1c0.2,0,0.4,0.1,0.6,0.3c0.2,0.2,0.5,0.4,0.9,0.6c0.3,0.2,0.8,0.4,1.3,0.6c0.5,0.2,1.1,0.3,1.8,0.3
			c0.6,0,1.1-0.1,1.5-0.2s0.8-0.4,1.1-0.7c0.3-0.3,0.5-0.6,0.7-1c0.2-0.4,0.2-0.8,0.2-1.3c0-0.5-0.1-1-0.4-1.3
			c-0.3-0.3-0.6-0.6-1-0.9c-0.4-0.2-0.9-0.4-1.4-0.6s-1.1-0.3-1.6-0.5c-0.6-0.2-1.1-0.4-1.6-0.6c-0.5-0.2-1-0.5-1.4-0.9
			c-0.4-0.4-0.7-0.8-1-1.4c-0.3-0.6-0.4-1.2-0.4-2.1c0-0.7,0.1-1.3,0.4-1.9c0.3-0.6,0.6-1.2,1.1-1.6c0.5-0.5,1.1-0.8,1.8-1.1
			c0.7-0.3,1.5-0.4,2.5-0.4c1,0,2,0.2,2.8,0.5c0.9,0.3,1.6,0.8,2.3,1.4L115.7,231.1z"/>
		<path id="XMLID_280_" class="st0" d="M132.7,228.1v2.2h-5.9v16.2h-2.6v-16.2h-5.9v-2.2H132.7z"/>
		<path id="XMLID_277_" class="st0" d="M148.7,246.6h-2.1c-0.2,0-0.4-0.1-0.6-0.2c-0.1-0.1-0.3-0.3-0.3-0.5l-1.7-4.3h-8.2l-1.7,4.3
			c-0.1,0.2-0.2,0.3-0.3,0.4c-0.2,0.1-0.3,0.2-0.6,0.2h-2.1l7.3-18.4h2.7L148.7,246.6z M136.6,239.7h6.7l-2.8-7.2
			c-0.1-0.2-0.2-0.5-0.3-0.8c-0.1-0.3-0.2-0.6-0.3-1c-0.1,0.4-0.2,0.7-0.3,1c-0.1,0.3-0.2,0.6-0.3,0.8L136.6,239.7z"/>
		<path id="XMLID_274_" class="st0" d="M159.3,239v7.6h-2.6v-18.4h5.3c1.2,0,2.2,0.1,3.1,0.4c0.9,0.2,1.6,0.6,2.1,1
			c0.6,0.4,1,1,1.2,1.6c0.3,0.6,0.4,1.3,0.4,2.1c0,0.7-0.1,1.3-0.3,1.8c-0.2,0.6-0.5,1.1-0.9,1.5c-0.4,0.4-0.8,0.8-1.4,1.2
			c-0.6,0.3-1.2,0.6-1.9,0.7c0.3,0.2,0.6,0.5,0.9,0.8l5.2,7.2h-2.4c-0.5,0-0.8-0.2-1.1-0.6l-4.6-6.5c-0.1-0.2-0.3-0.4-0.5-0.4
			c-0.2-0.1-0.4-0.1-0.8-0.1H159.3z M159.3,237h2.5c0.7,0,1.3-0.1,1.9-0.3c0.5-0.2,1-0.4,1.3-0.7c0.4-0.3,0.6-0.7,0.8-1.1
			c0.2-0.4,0.3-0.9,0.3-1.4c0-1.1-0.4-1.9-1.1-2.4c-0.7-0.5-1.8-0.8-3.2-0.8h-2.6V237z"/>
		<path id="XMLID_272_" class="st0" d="M175.5,246.6h-2.7v-18.4h2.7V246.6z"/>
		<path id="XMLID_270_" class="st0" d="M193,242.7c0.1,0,0.3,0.1,0.4,0.2l1.1,1.2c-0.8,0.9-1.7,1.6-2.8,2.1
			c-1.1,0.5-2.4,0.7-3.9,0.7c-1.3,0-2.5-0.2-3.6-0.7c-1.1-0.5-2-1.1-2.8-1.9c-0.8-0.8-1.4-1.8-1.8-3c-0.4-1.2-0.6-2.4-0.6-3.8
			c0-1.4,0.2-2.7,0.7-3.8c0.4-1.2,1.1-2.1,1.8-3c0.8-0.8,1.7-1.5,2.9-1.9c1.1-0.5,2.3-0.7,3.7-0.7c1.3,0,2.5,0.2,3.5,0.6
			c1,0.4,1.9,1,2.6,1.7l-0.9,1.2c-0.1,0.1-0.1,0.2-0.2,0.2c-0.1,0.1-0.2,0.1-0.3,0.1c-0.2,0-0.4-0.1-0.6-0.2
			c-0.2-0.2-0.5-0.3-0.9-0.5c-0.4-0.2-0.8-0.4-1.3-0.5c-0.5-0.2-1.2-0.2-2-0.2c-0.9,0-1.8,0.2-2.5,0.5c-0.8,0.3-1.4,0.8-2,1.4
			c-0.6,0.6-1,1.4-1.3,2.2c-0.3,0.9-0.5,1.9-0.5,3c0,1.1,0.2,2.1,0.5,3c0.3,0.9,0.8,1.6,1.3,2.2c0.6,0.6,1.2,1.1,2,1.4
			c0.8,0.3,1.6,0.5,2.5,0.5c0.5,0,1,0,1.4-0.1c0.4-0.1,0.8-0.2,1.2-0.3s0.7-0.3,1-0.5c0.3-0.2,0.6-0.4,0.9-0.7
			c0.1-0.1,0.1-0.1,0.2-0.1C192.8,242.7,192.9,242.7,193,242.7z"/>
		<path id="XMLID_267_" class="st0" d="M212.3,246.6h-2.1c-0.2,0-0.4-0.1-0.6-0.2c-0.1-0.1-0.3-0.3-0.3-0.5l-1.7-4.3h-8.2l-1.7,4.3
			c-0.1,0.2-0.2,0.3-0.3,0.4c-0.2,0.1-0.3,0.2-0.6,0.2h-2.1l7.3-18.4h2.7L212.3,246.6z M200.3,239.7h6.7l-2.8-7.2
			c-0.1-0.2-0.2-0.5-0.3-0.8c-0.1-0.3-0.2-0.6-0.3-1c-0.1,0.4-0.2,0.7-0.3,1c-0.1,0.3-0.2,0.6-0.3,0.8L200.3,239.7z"/>
	</g>
	<g id="XMLID_27_">
		<g id="XMLID_159_">
			<g id="XMLID_264_">
				<polygon id="XMLID_265_" class="st1" points="230.7,16.4 225.4,43.9 199.5,21.1 199.4,20.9 				"/>
			</g>
			<g id="XMLID_262_">
				<polygon id="XMLID_263_" class="st2" points="230.7,16.4 199.4,20.9 198.2,16.4 198.1,15.9 198.1,15.9 205.1,14.1 217.8,11.9 
									"/>
			</g>
			<g id="XMLID_260_">
				<polygon id="XMLID_261_" class="st3" points="225.4,43.9 217.9,78 217.9,78 210.3,54.8 				"/>
			</g>
			<g id="XMLID_258_">
				<polygon id="XMLID_259_" class="st3" points="225.4,43.9 210.3,54.8 206.8,44 				"/>
			</g>
			<g id="XMLID_256_">
				<polygon id="XMLID_257_" class="st4" points="225.4,43.9 206.8,44 199.9,22.9 199.9,22.9 199.5,21.1 				"/>
			</g>
			<g id="XMLID_254_">
				<polygon id="XMLID_255_" class="st3" points="210.3,54.8 217.9,78 187.4,71.4 				"/>
			</g>
			<g id="XMLID_252_">
				<polygon id="XMLID_253_" class="st5" points="217.9,78 172.8,82.1 187.4,71.4 				"/>
			</g>
			<g id="XMLID_250_">
				<polygon id="XMLID_251_" class="st6" points="206.8,44 210.3,54.8 187.4,71.4 159.7,65.4 178.6,44.2 192.6,44 				"/>
			</g>
			<g id="XMLID_248_">
				<polygon id="XMLID_249_" class="st7" points="199.9,22.9 206.8,44 192.6,44 178.6,44.2 199.3,21 199.9,22.9 				"/>
			</g>
			<g id="XMLID_246_">
				<polygon id="XMLID_247_" class="st3" points="206.6,111.4 192.9,143.4 187.1,125.7 				"/>
			</g>
			<g id="XMLID_244_">
				<polygon id="XMLID_245_" class="st8" points="206.6,111.4 187.1,125.7 182.7,112.2 178.1,99 				"/>
			</g>
			<g id="XMLID_242_">
				<polygon id="XMLID_243_" class="st5" points="206.6,111.4 178.1,99 172.2,81.9 172.2,81.9 				"/>
			</g>
			<g id="XMLID_240_">
				<polygon id="XMLID_241_" class="st3" points="198.2,16.4 199.4,20.9 199.3,21 161.5,43.9 182.5,20 198.1,15.9 				"/>
			</g>
			<g id="XMLID_238_">
				<polygon id="XMLID_239_" class="st9" points="199.3,21 178.6,44.2 160.5,44.5 161.5,43.9 161.5,43.9 				"/>
			</g>
			<g id="XMLID_236_">
				<polygon id="XMLID_237_" class="st3" points="187.1,125.7 192.9,143.4 177.9,132.5 				"/>
			</g>
			<g id="XMLID_234_">
				<polygon id="XMLID_235_" class="st3" points="192.9,143.4 158.1,146.9 158.1,146.9 177.9,132.5 				"/>
			</g>
			<g id="XMLID_232_">
				<polygon id="XMLID_233_" class="st10" points="187.4,71.4 172.8,82.1 172.2,81.9 172.2,81.9 140.6,71.6 159.7,65.5 159.7,65.4 
									"/>
			</g>
			<g id="XMLID_230_">
				<polygon id="XMLID_231_" class="st11" points="182.7,112.2 187.1,125.7 177.9,132.5 155,115.8 152.1,87.6 178.1,99 				"/>
			</g>
			<g id="XMLID_228_">
				<polygon id="XMLID_229_" class="st12" points="159.7,65.4 159.7,65.5 140.6,71.6 140.4,71.5 141.2,70.4 141.7,70.4 143.2,67.8 
					143.2,67.8 160.5,44.5 178.6,44.2 				"/>
			</g>
			<g id="XMLID_226_">
				<polygon id="XMLID_227_" class="st8" points="152.1,87.6 152,87.6 146.2,79.6 140.3,71.7 140.6,71.6 172.2,81.9 178.1,99 				
					"/>
			</g>
			<g id="XMLID_224_">
				<polygon id="XMLID_225_" class="st7" points="177.9,132.5 158.1,146.9 155,115.8 				"/>
			</g>
			<g id="XMLID_222_">
				<polygon id="XMLID_223_" class="st2" points="155,115.8 158.1,146.9 140.3,105.2 				"/>
			</g>
			<g id="XMLID_220_">
				<polygon id="XMLID_221_" class="st1" points="152.1,87.6 155,115.8 140.3,105.2 140.3,103.3 140.7,103.3 146.1,79.7 146.2,79.6 
					152,87.6 				"/>
			</g>
			<g id="XMLID_218_">
				<polygon id="XMLID_219_" class="st13" points="146.2,79.6 146.1,79.7 140.7,103.3 140.3,103.3 140.1,71.4 140.1,71.4 
					140.3,71.7 140.3,71.7 140.3,71.7 				"/>
			</g>
			<g id="XMLID_216_">
				<polygon id="XMLID_217_" class="st13" points="141.7,65.2 143.2,67.8 141,71.5 139,71.2 137.1,67.8 138.6,65.2 				"/>
			</g>
			<g id="XMLID_214_">
				<polygon id="XMLID_215_" class="st13" points="140.1,71.4 139.8,103.3 133.9,79.4 139.6,71.6 139.9,71.5 139.1,70.4 141.2,70.4 
					140.4,71.5 140.4,71.5 140.1,71.4 				"/>
			</g>
			<g id="XMLID_212_">
				<polygon id="XMLID_213_" class="st12" points="140.6,71.6 140.3,71.7 140.3,71.7 140.4,71.5 140.4,71.5 				"/>
			</g>
			<g id="XMLID_210_">
				<polygon id="XMLID_211_" class="st1" points="140.4,71.5 140.3,71.7 140.1,71.4 				"/>
			</g>
			<g id="XMLID_208_">
				<polygon id="XMLID_209_" class="st12" points="140.3,71.7 140.3,71.7 140.3,71.7 				"/>
			</g>
			<g id="XMLID_206_">
				<polygon id="XMLID_207_" class="st12" points="120.4,65.2 101.5,44 119.6,44.3 137.1,67.8 137.1,67.8 138.6,70.4 139,71.5 
					139.9,71.5 139.7,71.4 120.4,65.2 				"/>
			</g>
			<g id="XMLID_204_">
				<polygon id="XMLID_205_" class="st10" points="139.9,71.5 139.6,71.6 139.7,71.4 				"/>
			</g>
			<g id="XMLID_202_">
				<polygon id="XMLID_203_" class="st1" points="133.9,79.4 139.8,103.3 139.8,104.9 125.1,115.6 128,87.4 128.1,87.3 				"/>
			</g>
			<g id="XMLID_200_">
				<polygon id="XMLID_201_" class="st2" points="139.8,104.9 122,146.6 125.1,115.6 				"/>
			</g>
			<g id="XMLID_198_">
				<polygon id="XMLID_199_" class="st10" points="139.7,71.4 107.9,81.6 107.9,81.7 107.3,81.8 92.7,71.2 120.4,65.2 120.4,65.2 
									"/>
			</g>
			<g id="XMLID_196_">
				<polygon id="XMLID_197_" class="st8" points="128,87.4 102,98.7 107.9,81.7 139.6,71.6 133.9,79.4 128.1,87.3 				"/>
			</g>
			<g id="XMLID_194_">
				<polygon id="XMLID_195_" class="st11" points="128,87.4 125.1,115.6 102.3,132.2 93,125.5 97.4,112 102,98.7 				"/>
			</g>
			<g id="XMLID_192_">
				<polygon id="XMLID_193_" class="st7" points="125.1,115.6 122,146.6 102.3,132.2 				"/>
			</g>
			<g id="XMLID_190_">
				<polygon id="XMLID_191_" class="st3" points="122,146.6 122,146.6 122,146.6 87.2,143.1 102.3,132.2 				"/>
			</g>
			<g id="XMLID_188_">
				<polygon id="XMLID_189_" class="st6" points="101.5,44 120.4,65.2 92.7,71.2 69.8,54.6 73.3,43.7 87.5,43.8 				"/>
			</g>
			<g id="XMLID_186_">
				<polygon id="XMLID_187_" class="st9" points="119.6,44.3 101.5,44 80.8,20.7 118.7,43.7 118.7,43.7 				"/>
			</g>
			<g id="XMLID_184_">
				<polygon id="XMLID_185_" class="st3" points="118.7,43.7 80.8,20.7 80.7,20.7 81.9,16.1 82,15.7 97.7,19.7 				"/>
			</g>
			<g id="XMLID_182_">
				<polygon id="XMLID_183_" class="st5" points="107.9,81.7 102,98.7 73.5,111.2 107.9,81.7 				"/>
			</g>
			<g id="XMLID_180_">
				<polygon id="XMLID_181_" class="st5" points="107.3,81.8 62.2,77.8 92.7,71.2 				"/>
			</g>
			<g id="XMLID_178_">
				<polygon id="XMLID_179_" class="st3" points="102.3,132.2 87.2,143.1 93,125.5 				"/>
			</g>
			<g id="XMLID_176_">
				<polygon id="XMLID_177_" class="st8" points="102,98.7 97.4,112 93,125.5 73.5,111.2 				"/>
			</g>
			<g id="XMLID_174_">
				<polygon id="XMLID_175_" class="st7" points="80.8,20.7 101.5,44 87.5,43.8 73.3,43.7 				"/>
			</g>
			<g id="XMLID_172_">
				<polygon id="XMLID_173_" class="st3" points="93,125.5 87.2,143.1 73.5,111.2 				"/>
			</g>
			<g id="XMLID_170_">
				<polygon id="XMLID_171_" class="st3" points="92.7,71.2 62.2,77.8 69.8,54.6 				"/>
			</g>
			<g id="XMLID_168_">
				<polygon id="XMLID_169_" class="st2" points="82,15.7 82,15.7 81.9,16.1 80.7,20.7 49.4,16.1 62.3,11.6 75,13.9 				"/>
			</g>
			<g id="XMLID_166_">
				<polygon id="XMLID_167_" class="st4" points="80.6,20.9 80.8,20.7 73.3,43.7 54.7,43.7 				"/>
			</g>
			<g id="XMLID_164_">
				<polygon id="XMLID_165_" class="st1" points="80.7,20.7 80.6,20.9 54.7,43.7 49.4,16.1 				"/>
			</g>
			<g id="XMLID_162_">
				<polygon id="XMLID_163_" class="st3" points="73.3,43.7 69.8,54.6 54.7,43.7 				"/>
			</g>
			<g id="XMLID_160_">
				<polygon id="XMLID_161_" class="st3" points="69.8,54.6 62.2,77.8 62.2,77.8 54.7,43.7 				"/>
			</g>
		</g>
		<g id="XMLID_30_">
			<g id="XMLID_155_">
				<path id="XMLID_156_" class="st13" d="M122,146.8c-0.1,0-0.1,0-0.2-0.1c-0.1-0.1-0.1-0.1-0.1-0.2l3.2-31c0-0.1,0-0.1,0.1-0.2
					l14.7-10.7c0.1-0.1,0.2-0.1,0.3,0c0.1,0.1,0.1,0.2,0.1,0.3l-17.8,41.6c0,0,0,0.1-0.1,0.1C122.1,146.8,122,146.8,122,146.8z
					 M125.4,115.7l-3,29.5l16.9-39.6L125.4,115.7z"/>
			</g>
			<g id="XMLID_153_">
				<path id="XMLID_154_" class="st13" d="M122,146.8c0,0-0.1,0-0.1,0l-19.7-14.4c-0.1-0.1-0.1-0.2,0-0.3c0.1-0.1,0.2-0.1,0.3,0
					l19.7,14.4c0.1,0.1,0.1,0.2,0,0.3C122.1,146.8,122,146.8,122,146.8z"/>
			</g>
			<g id="XMLID_149_">
				<path id="XMLID_150_" class="st13" d="M102.3,132.4c0,0-0.1,0-0.1,0l-9.2-6.7c-0.1-0.1-0.1-0.2-0.1-0.3l4.4-13.5l4.6-13.3
					c0-0.1,0.1-0.1,0.1-0.1l26-11.4c0.1,0,0.2,0,0.2,0c0.1,0,0.1,0.1,0.1,0.2l-2.9,28.2c0,0.1,0,0.1-0.1,0.2l-22.9,16.6
					C102.3,132.4,102.3,132.4,102.3,132.4z M93.3,125.4l9,6.5l22.7-16.5l2.8-27.7l-25.6,11.2l-4.5,13.2L93.3,125.4z"/>
			</g>
			<g id="XMLID_147_">
				<path id="XMLID_148_" class="st13" d="M128.1,87.6c-0.1,0-0.1,0-0.1,0c-0.1-0.1-0.1-0.1-0.1-0.2c0-0.1,0.1-0.2,0.1-0.2
					l11.2-15.3l-31.1,10c-0.1,0-0.2,0-0.3-0.1c0-0.1,0-0.2,0.1-0.3l31.8-10.2c0.1,0,0.2,0,0.2,0.1c0.1,0.1,0.1,0.2,0,0.3l-0.1,0.1
					l-11.6,15.8c0,0-0.1,0.1-0.1,0.1C128.1,87.6,128.1,87.6,128.1,87.6z"/>
			</g>
			<g id="XMLID_145_">
				<path id="XMLID_146_" class="st13" d="M139.8,105.2C139.8,105.2,139.8,105.2,139.8,105.2c-0.1,0-0.2-0.1-0.2-0.2l0.2-33.5
					c0-0.1,0.1-0.2,0.2-0.2c0,0,0,0,0,0c0.1,0,0.2,0.1,0.2,0.2l-0.2,33.5C140,105.1,139.9,105.2,139.8,105.2z"/>
			</g>
			<g id="XMLID_143_">
				<path id="XMLID_144_" class="st13" d="M122,146.8C122,146.8,121.9,146.8,122,146.8l-34.7-3.5c-0.1,0-0.2-0.1-0.2-0.2
					c0-0.1,0-0.2,0.1-0.2l15-10.9c0.1-0.1,0.2-0.1,0.3,0c0.1,0.1,0.1,0.2,0,0.3l-14.5,10.6l34.1,3.4c0.1,0,0.2,0.1,0.2,0.2
					C122.2,146.8,122.1,146.8,122,146.8z"/>
			</g>
			<g id="XMLID_139_">
				<path id="XMLID_140_" class="st13" d="M87.2,143.3c-0.1,0-0.2-0.1-0.2-0.1l-13.8-31.9c0-0.1,0-0.2,0.1-0.3
					c0.1-0.1,0.2-0.1,0.3,0l19.5,14.3c0.1,0.1,0.1,0.2,0.1,0.3l-5.8,17.6C87.4,143.3,87.3,143.3,87.2,143.3
					C87.2,143.3,87.2,143.3,87.2,143.3z M74,111.9l13.2,30.6l5.6-16.9L74,111.9z"/>
			</g>
			<g id="XMLID_135_">
				<path id="XMLID_136_" class="st13" d="M73.5,111.4c-0.1,0-0.1,0-0.2-0.1c-0.1-0.1,0-0.2,0-0.3l34.4-29.6c0.1-0.1,0.2-0.1,0.3,0
					c0.1,0.1,0.1,0.2,0.1,0.3l0,0l-5.9,17.1c0,0.1-0.1,0.1-0.1,0.1L73.5,111.4C73.5,111.4,73.5,111.4,73.5,111.4z M107.4,82.3
					l-32.7,28.1l27.1-11.8L107.4,82.3z"/>
			</g>
			<g id="XMLID_133_">
				<path id="XMLID_134_" class="st13" d="M62.2,78L62.2,78c-0.1,0-0.2-0.1-0.2-0.2c0-0.1,0.1-0.2,0.2-0.2s0.2,0.1,0.2,0.2
					C62.4,77.9,62.3,78,62.2,78z"/>
			</g>
			<g id="XMLID_129_">
				<path id="XMLID_130_" class="st13" d="M107.3,82.1C107.3,82.1,107.3,82.1,107.3,82.1l-45.2-4c-0.1,0-0.2-0.1-0.2-0.2
					c0-0.1,0.1-0.2,0.2-0.2L92.6,71c0.1,0,0.1,0,0.2,0l14.7,10.6c0.1,0.1,0.1,0.2,0.1,0.3C107.5,82,107.4,82.1,107.3,82.1z
					 M63.7,77.7l42.9,3.8L92.6,71.4L63.7,77.7z"/>
			</g>
			<g id="XMLID_127_">
				<path id="XMLID_128_" class="st13" d="M62.2,78C62.2,78,62.2,78,62.2,78c-0.2,0-0.3-0.2-0.2-0.3l7.6-23.2c0-0.1,0.2-0.2,0.3-0.1
					c0.1,0,0.2,0.2,0.1,0.3l-7.6,23.2C62.4,78,62.3,78,62.2,78z"/>
			</g>
			<g id="XMLID_123_">
				<path id="XMLID_124_" class="st13" d="M92.7,71.4c0,0-0.1,0-0.1,0L69.6,54.8c-0.1-0.1-0.1-0.2-0.1-0.3l3.5-10.9
					c0-0.1,0.1-0.2,0.2-0.2h0l14.2,0l14,0.2c0.1,0,0.1,0,0.2,0.1L120.6,65c0.1,0.1,0.1,0.1,0,0.2c0,0.1-0.1,0.1-0.2,0.1L92.7,71.4
					C92.7,71.4,92.7,71.4,92.7,71.4z M70,54.5L92.7,71l27.3-5.9l-18.6-20.9L87.5,44l-14,0L70,54.5z"/>
			</g>
			<g id="XMLID_121_">
				<path id="XMLID_122_" class="st13" d="M139.9,71.7C139.8,71.7,139.8,71.7,139.9,71.7l-0.2-0.1l-19.3-6.2c0,0-0.1,0-0.1-0.1
					c0-0.1-0.1-0.2-0.1-0.2c0-0.1,0.1-0.1,0.1-0.2c0.1,0,0.2,0,0.3,0.1l17.9,5.8l-1.6-2.9l-17.5-23.5c-0.1-0.1-0.1-0.2,0-0.3
					c0.1-0.1,0.2-0.1,0.3,0l17.5,23.5l1.8,3.3l0.8,0.3c0.1,0,0.2,0.2,0.1,0.3C140,71.6,140,71.7,139.9,71.7z"/>
			</g>
			<g id="XMLID_119_">
				<path id="XMLID_120_" class="st13" d="M107.3,82.1c-0.1,0-0.2-0.1-0.2-0.2c0-0.1,0-0.2,0.1-0.3l0.5-0.2l32-10.2
					c0.1,0,0.2,0,0.3,0.1s0,0.2-0.1,0.3l-0.2,0.1L107.3,82.1C107.4,82.1,107.4,82.1,107.3,82.1z"/>
			</g>
			<g id="XMLID_117_">
				<path id="XMLID_118_" class="st13" d="M62.2,78C62.1,78,62,78,62,77.8l-7.4-34.1c0-0.1,0-0.2,0.1-0.2c0.1-0.1,0.2,0,0.3,0
					l15,10.9c0.1,0.1,0.1,0.2,0.1,0.3c-0.1,0.1-0.2,0.1-0.3,0L55.1,44.2l7.3,33.5C62.4,77.9,62.4,78,62.2,78
					C62.2,78,62.2,78,62.2,78z"/>
			</g>
			<g id="XMLID_115_">
				<path id="XMLID_116_" class="st13" d="M73.3,43.9L73.3,43.9l-18.6,0c-0.1,0-0.2-0.1-0.2-0.2c0-0.1,0.1-0.2,0.2-0.2l0,0l18.4,0
					l7.5-22.9c0-0.1,0.2-0.2,0.3-0.1c0.1,0,0.2,0.2,0.1,0.3l-7.5,23C73.5,43.9,73.4,43.9,73.3,43.9z"/>
			</g>
			<g id="XMLID_111_">
				<path id="XMLID_112_" class="st13" d="M119.6,44.5C119.6,44.5,119.6,44.5,119.6,44.5l-18.1-0.3c-0.1,0-0.1,0-0.2-0.1L80.7,20.9
					c-0.1-0.1-0.1-0.2,0-0.3c0.1-0.1,0.2-0.1,0.3,0l37.8,23c0,0,0,0,0,0l0.9,0.6c0.1,0.1,0.1,0.2,0.1,0.3
					C119.8,44.4,119.7,44.5,119.6,44.5z M101.6,43.8l17.2,0.3l-0.3-0.2c0,0,0,0,0,0L82,21.7L101.6,43.8z"/>
			</g>
			<g id="XMLID_107_">
				<path id="XMLID_108_" class="st13" d="M54.7,43.9C54.7,43.9,54.7,43.9,54.7,43.9c-0.1,0-0.2-0.1-0.2-0.2l-5.3-27.6
					c0-0.1,0-0.1,0.1-0.2c0.1-0.1,0.1-0.1,0.2-0.1l31.4,4.6c0.1,0,0.2,0.1,0.2,0.2c0,0.1,0,0.2-0.1,0.2l-0.2,0.2L54.9,43.9
					C54.9,43.9,54.8,43.9,54.7,43.9z M49.7,16.4l5.2,26.9l25.4-22.4L49.7,16.4z"/>
			</g>
			<g id="XMLID_105_">
				<path id="XMLID_106_" class="st13" d="M118.7,43.9c-0.1,0-0.2,0-0.2-0.1L97.5,19.9l-15.6-4c0,0,0,0,0,0L75,14.1l-12.7-2.2
					l-12.8,4.5c-0.1,0-0.2,0-0.3-0.1c0-0.1,0-0.2,0.1-0.3l12.8-4.5c0,0,0.1,0,0.1,0l12.8,2.2l7,1.8c0,0,0,0,0.1,0l15.6,4.1
					c0,0,0.1,0,0.1,0.1l21,23.9c0,0,0,0,0,0c0.1,0.1,0,0.3-0.1,0.3C118.7,43.9,118.7,43.9,118.7,43.9z"/>
			</g>
			<g id="XMLID_103_">
				<path id="XMLID_104_" class="st13" d="M80.2,22.9C80.2,22.9,80.2,22.9,80.2,22.9c-0.2,0-0.2-0.2-0.2-0.3l1.7-6.6
					c0-0.1,0.2-0.2,0.3-0.2c0.1,0,0.2,0.2,0.2,0.3l-1.7,6.6C80.4,22.8,80.3,22.9,80.2,22.9z"/>
			</g>
			<g id="XMLID_101_">
				<path id="XMLID_102_" class="st13" d="M158.1,147.1c-0.1,0-0.2,0-0.2-0.1c-0.1-0.1,0-0.3,0.1-0.3c0.1-0.1,0.2,0,0.3,0.1l0,0
					C158.4,146.9,158.4,147,158.1,147.1C158.2,147.1,158.2,147.1,158.1,147.1z"/>
			</g>
			<g id="XMLID_97_">
				<path id="XMLID_98_" class="st13" d="M158.1,147.1c-0.1,0-0.2-0.1-0.2-0.1l-17.8-41.7c0-0.1,0-0.2,0.1-0.3
					c0.1-0.1,0.2-0.1,0.3,0l14.7,10.6c0.1,0,0.1,0.1,0.1,0.2l3.2,31C158.4,146.9,158.3,147,158.1,147.1
					C158.2,147.1,158.2,147.1,158.1,147.1z M140.8,105.8l16.9,39.6l-3-29.5L140.8,105.8z"/>
			</g>
			<g id="XMLID_95_">
				<path id="XMLID_96_" class="st13" d="M158.1,147.1c-0.1,0-0.1,0-0.2-0.1c-0.1-0.1-0.1-0.2,0-0.3l19.7-14.4
					c0.1-0.1,0.2-0.1,0.3,0c0.1,0.1,0.1,0.2,0,0.3L158.3,147C158.2,147.1,158.2,147.1,158.1,147.1z"/>
			</g>
			<g id="XMLID_91_">
				<path id="XMLID_92_" class="st13" d="M177.9,132.7c0,0-0.1,0-0.1,0L154.8,116c-0.1,0-0.1-0.1-0.1-0.2l-2.9-28.2
					c0-0.1,0-0.2,0.1-0.2c0.1,0,0.1-0.1,0.2,0l26,11.4c0.1,0,0.1,0.1,0.1,0.1l4.6,13.3l4.4,13.5c0,0.1,0,0.2-0.1,0.3l-9.2,6.7
					C177.9,132.7,177.9,132.7,177.9,132.7z M155.2,115.7l22.7,16.5l9-6.5l-4.4-13.3l-4.5-13.2L152.3,88L155.2,115.7z"/>
			</g>
			<g id="XMLID_89_">
				<path id="XMLID_90_" class="st13" d="M172.2,82.1C172.2,82.1,172.1,82.1,172.2,82.1l-31.6-10.3c-0.1,0-0.2-0.2-0.1-0.3
					c0-0.1,0.2-0.2,0.3-0.1l31.6,10.3c0.1,0,0.2,0.2,0.1,0.3C172.4,82,172.3,82.1,172.2,82.1z"/>
			</g>
			<g id="XMLID_87_">
				<path id="XMLID_88_" class="st13" d="M152.1,87.8C152,87.8,152,87.8,152.1,87.8l-0.1,0c0,0-0.1,0-0.1-0.1l-11.7-15.9
					c0,0,0,0,0,0l-0.2-0.2c-0.1-0.1-0.1-0.2,0-0.3c0.1-0.1,0.2-0.1,0.3,0l0.2,0.2c0,0,0,0,0,0l11.7,15.9c0.1,0.1,0.1,0.2,0.1,0.3
					C152.2,87.8,152.1,87.8,152.1,87.8z"/>
			</g>
			<g id="XMLID_85_">
				<path id="XMLID_86_" class="st13" d="M152.1,87.8c-0.1,0-0.2-0.1-0.2-0.2l0-0.1c0-0.1,0.1-0.2,0.2-0.3c0.1,0,0.2,0.1,0.3,0.2
					C152.3,87.7,152.2,87.8,152.1,87.8C152.1,87.8,152.1,87.8,152.1,87.8z"/>
			</g>
			<g id="XMLID_83_">
				<path id="XMLID_84_" class="st13" d="M140.3,105.4c-0.1,0-0.2-0.1-0.2-0.2l-6.4-25.9c0-0.1,0.1-0.2,0.2-0.3
					c0.1,0,0.2,0.1,0.3,0.2l0,0.1l5.9,24v0l-0.2-32.2c0-0.1,0.1-0.2,0.2-0.2c0.1,0,0.2,0.1,0.2,0.2v0.4l0.2,33.7
					C140.5,105.3,140.4,105.4,140.3,105.4C140.3,105.4,140.3,105.4,140.3,105.4z"/>
			</g>
			<g id="XMLID_81_">
				<path id="XMLID_82_" class="st13" d="M158.1,147.1c-0.1,0-0.2-0.1-0.2-0.2c0-0.1,0.1-0.2,0.2-0.2l34.1-3.4l-14.5-10.6
					c-0.1-0.1-0.1-0.2,0-0.3c0.1-0.1,0.2-0.1,0.3,0l15,10.9c0.1,0.1,0.1,0.2,0.1,0.2c0,0.1-0.1,0.2-0.2,0.2L158.1,147.1
					C158.2,147.1,158.2,147.1,158.1,147.1z"/>
			</g>
			<g id="XMLID_77_">
				<path id="XMLID_78_" class="st13" d="M192.9,143.6C192.9,143.6,192.9,143.6,192.9,143.6c-0.1,0-0.2-0.1-0.2-0.2l-5.8-17.6
					c0-0.1,0-0.2,0.1-0.3l19.5-14.3c0.1-0.1,0.2-0.1,0.3,0c0.1,0.1,0.1,0.2,0.1,0.3l-13.8,31.9C193,143.5,193,143.6,192.9,143.6z
					 M187.3,125.8l5.6,16.9l13.2-30.6L187.3,125.8z"/>
			</g>
			<g id="XMLID_73_">
				<path id="XMLID_74_" class="st13" d="M206.6,111.7C206.6,111.7,206.6,111.7,206.6,111.7L178,99.2c-0.1,0-0.1-0.1-0.1-0.1L172,82
					c0-0.1,0-0.2,0.1-0.3c0.1-0.1,0.2-0.1,0.3,0l0.1,0.1l34.4,29.5c0.1,0.1,0.1,0.2,0,0.3C206.8,111.6,206.7,111.7,206.6,111.7z
					 M178.3,98.8l27.1,11.8l-32.7-28.1L178.3,98.8z"/>
			</g>
			<g id="XMLID_71_">
				<path id="XMLID_72_" class="st13" d="M217.9,78.3c-0.1,0-0.2-0.1-0.2-0.2c0-0.1,0.1-0.2,0.2-0.2h0c0.1,0,0.2,0.1,0.2,0.2
					C218.2,78.2,218.1,78.3,217.9,78.3z"/>
			</g>
			<g id="XMLID_67_">
				<path id="XMLID_68_" class="st13" d="M172.8,82.3c-0.1,0-0.2-0.1-0.2-0.1c0-0.1,0-0.2,0.1-0.3l14.7-10.6c0.1,0,0.1-0.1,0.2,0
					l30.5,6.6c0.1,0,0.2,0.1,0.2,0.2c0,0.1-0.1,0.2-0.2,0.2L172.8,82.3C172.8,82.3,172.8,82.3,172.8,82.3z M187.5,71.7l-13.9,10.1
					l42.9-3.8L187.5,71.7z"/>
			</g>
			<g id="XMLID_65_">
				<path id="XMLID_66_" class="st13" d="M217.9,78.3c-0.1,0-0.2-0.1-0.2-0.2l-7.6-23.2c0-0.1,0-0.2,0.1-0.3c0.1,0,0.2,0,0.3,0.1
					l7.6,23.2C218.2,78.1,218.1,78.2,217.9,78.3C218,78.3,217.9,78.3,217.9,78.3z"/>
			</g>
			<g id="XMLID_61_">
				<path id="XMLID_62_" class="st13" d="M187.4,71.7C187.4,71.7,187.4,71.7,187.4,71.7l-27.8-6c-0.1,0-0.1-0.1-0.2-0.1
					c0-0.1,0-0.2,0-0.2l18.9-21.2c0,0,0.1-0.1,0.2-0.1l14-0.2l14.2,0h0c0.1,0,0.2,0.1,0.2,0.2l3.5,10.9c0,0.1,0,0.2-0.1,0.3
					l-22.9,16.6C187.5,71.7,187.5,71.7,187.4,71.7z M160.1,65.3l27.3,5.9l22.7-16.4l-3.4-10.6l-14,0l-13.9,0.2L160.1,65.3z"/>
			</g>
			<g id="XMLID_59_">
				<path id="XMLID_60_" class="st13" d="M140.4,71.7c0,0-0.1,0-0.1,0c-0.1-0.1-0.1-0.2,0-0.3l2.8-3.7l17.3-23.3
					c0.1-0.1,0.2-0.1,0.3,0c0.1,0.1,0.1,0.2,0,0.3l-20.1,27C140.5,71.7,140.5,71.7,140.4,71.7z"/>
			</g>
			<g id="XMLID_57_">
				<path id="XMLID_58_" class="st13" d="M140.3,72c-0.1,0-0.1,0-0.2-0.1c-0.1-0.1-0.1-0.2,0-0.3l0.1-0.2c0.1-0.1,0.2-0.1,0.3-0.1
					c0,0,0,0,0,0l18.9-6.1c0-0.1,0.1-0.1,0.2-0.1l0,0c0.1,0,0.1,0.1,0.2,0.2s0,0.2-0.1,0.2c0,0-0.1,0.1-0.1,0.1L140.3,72
					C140.3,72,140.3,72,140.3,72z"/>
			</g>
			<g id="XMLID_55_">
				<path id="XMLID_56_" class="st13" d="M172.8,82.3C172.7,82.3,172.7,82.3,172.8,82.3l-0.6-0.2c0,0-0.1,0-0.1,0l-31.8-10.4
					c0,0,0,0,0,0l-0.3-0.1c-0.1,0-0.2-0.2-0.1-0.3c0-0.1,0.2-0.2,0.3-0.1l0.2,0.1c0,0,0,0,0,0l0.2,0.1l31.6,10.3c0,0,0.1,0,0.1,0
					l0.5,0.2c0.1,0,0.2,0.2,0.1,0.3C173,82.2,172.9,82.3,172.8,82.3z"/>
			</g>
			<g id="XMLID_53_">
				<path id="XMLID_54_" class="st13" d="M217.9,78.3C217.9,78.3,217.9,78.3,217.9,78.3c-0.2,0-0.2-0.2-0.2-0.3l7.3-33.5L210.5,55
					c-0.1,0.1-0.2,0.1-0.3,0c-0.1-0.1-0.1-0.2,0.1-0.3l15-10.9c0.1-0.1,0.2-0.1,0.3,0c0.1,0.1,0.1,0.1,0.1,0.2l-7.4,34.1
					C218.1,78.2,218,78.3,217.9,78.3z"/>
			</g>
			<g id="XMLID_51_">
				<path id="XMLID_52_" class="st13" d="M199.9,23.1c-0.1,0-0.2-0.1-0.2-0.2l-0.6-1.9c0-0.1,0-0.2,0.1-0.3c0.1,0,0.2,0,0.3,0.1
					l0.6,1.9C200.2,22.9,200.1,23.1,199.9,23.1C200,23.1,199.9,23.1,199.9,23.1z"/>
			</g>
			<g id="XMLID_49_">
				<path id="XMLID_50_" class="st13" d="M206.8,44.2c-0.1,0-0.2-0.1-0.2-0.2L199.7,23c0-0.1,0-0.2,0.1-0.3c0.1,0,0.2,0,0.3,0.1
					l6.8,20.9l18.4,0l0,0c0.1,0,0.2,0.1,0.2,0.2c0,0.1-0.1,0.2-0.2,0.2L206.8,44.2L206.8,44.2z"/>
			</g>
			<g id="XMLID_45_">
				<path id="XMLID_46_" class="st13" d="M160.5,44.7c-0.1,0-0.2-0.1-0.2-0.2c0-0.1,0-0.2,0.1-0.3l0.9-0.6c0,0,0,0,0,0l37.8-23
					c0.1-0.1,0.2,0,0.3,0c0.1,0.1,0.1,0.2,0,0.3l-20.7,23.3c0,0-0.1,0.1-0.2,0.1L160.5,44.7C160.5,44.7,160.5,44.7,160.5,44.7z
					 M161.6,44.1C161.6,44.1,161.6,44.1,161.6,44.1l-0.3,0.2l17.2-0.3l19.6-22.1L161.6,44.1z"/>
			</g>
			<g id="XMLID_41_">
				<path id="XMLID_42_" class="st13" d="M225.4,44.2c-0.1,0-0.1,0-0.1-0.1l-26.1-23c-0.1-0.1-0.1-0.1-0.1-0.2
					c0-0.1,0.1-0.1,0.2-0.2l0.1,0l31.3-4.6c0.1,0,0.1,0,0.2,0.1c0.1,0.1,0.1,0.1,0.1,0.2L225.6,44C225.6,44.1,225.5,44.1,225.4,44.2
					C225.4,44.2,225.4,44.2,225.4,44.2z M199.8,21.1l25.4,22.4l5.2-26.9L199.8,21.1z"/>
			</g>
			<g id="XMLID_39_">
				<path id="XMLID_40_" class="st13" d="M161.6,44.1l-0.3-0.3l21-24c0,0,0.1-0.1,0.1-0.1l15.6-4.1c0,0,0,0,0,0l6.9-1.8l12.8-2.2
					c0,0,0.1,0,0.1,0l12.8,4.5c0.1,0,0.2,0.2,0.1,0.3c0,0.1-0.2,0.2-0.3,0.1l-12.8-4.5l-12.7,2.2l-6.9,1.8c0,0,0,0,0,0l-15.6,4
					L161.6,44.1z"/>
			</g>
			<g id="XMLID_37_">
				<path id="XMLID_38_" class="st13" d="M199.9,23.1c-0.1,0-0.2-0.1-0.2-0.1l-1.7-6.6c0-0.1,0-0.2,0.2-0.3c0.1,0,0.2,0,0.3,0.2
					l1.7,6.5C200.2,23,200.1,23.1,199.9,23.1C200,23.1,199.9,23.1,199.9,23.1z"/>
			</g>
			<g id="XMLID_33_">
				<path id="XMLID_34_" class="st13" d="M141,72C141,72,141,72,141,72l-0.7-0.2l-1.3,0.1c-0.1,0-0.2,0-0.2-0.1l-1.9-3.8
					c0-0.1,0-0.1,0-0.2l1.5-2.6c0-0.1,0.1-0.1,0.2-0.1h3c0.1,0,0.2,0,0.2,0.1l1.5,2.6c0,0.1,0.1,0.2,0,0.2l-2.1,3.9
					C141.2,71.9,141.1,72,141,72z M140.4,71.3C140.4,71.3,140.5,71.3,140.4,71.3l0.5,0.2l2-3.6l-1.4-2.4h-2.8l-1.4,2.4l1.8,3.6
					L140.4,71.3C140.4,71.3,140.4,71.3,140.4,71.3z"/>
			</g>
			<g id="XMLID_31_">
				<path id="XMLID_32_" class="st13" d="M140.7,103.5C140.7,103.5,140.7,103.5,140.7,103.5c-0.2,0-0.2-0.2-0.2-0.3l5.4-23.6
					c0-0.1,0.2-0.2,0.3-0.2c0.1,0,0.2,0.1,0.2,0.3l-5.4,23.6C140.9,103.4,140.8,103.5,140.7,103.5z"/>
			</g>
		</g>
	</g>
</g>
</svg>
