<svg xmlns="http://www.w3.org/2000/svg" xmlns:xlink="http://www.w3.org/1999/xlink" width="273.03" height="218.82" viewBox="0 0 173.03 118.82">
  <defs>
    <clipPath id="clip-path">
      <path id="Path_100" data-name="Path 100" d="M1367.816,747.455l2.254-31.031,23.962,8.251-2.254,31.031Z" fill="none"/>
    </clipPath>
    <clipPath id="clip-path-2">
      <path id="Path_102" data-name="Path 102" d="M1415.713,753.5l.156-27.724,22.965-6.906-.156,27.724Z" fill="none"/>
    </clipPath>
    <clipPath id="clip-path-3">
      <path id="Path_104" data-name="Path 104" d="M1406.5,708.574l-25.517-10.056,18.875-8.735,25.517,10.056Z" fill="none"/>
    </clipPath>
    <clipPath id="clip-path-4">
      <path id="Path_110" data-name="Path 110" d="M1341.616,782.547l.056-31.891,17.142-4.841-.056,31.891Z" fill="none"/>
    </clipPath>
    <clipPath id="clip-path-5">
      <path id="Path_112" data-name="Path 112" d="M1326.757,735.946l-24.124-9.59,23.215-9.946,24.124,9.59Z" fill="none"/>
    </clipPath>
    <clipPath id="clip-path-6">
      <path id="Path_114" data-name="Path 114" d="M1294.017,776l.428-29.951,17.379,6.321-.428,29.951Z" fill="none"/>
    </clipPath>
  </defs>
  <g id="Group_160" data-name="Group 160" transform="translate(-1278.66 -681.019)">
    <g id="Group_133" data-name="Group 133">
      <g id="Group_108" data-name="Group 108">
        <g id="Group_107" data-name="Group 107">
          <path id="Path_95" data-name="Path 95" d="M1451.69,698.069V754.8l-47.52,17.04-47.51-17.04v-56.73l47.51-17.05Zm-3.5,54.26v-50.54l-42.27,15.16V767.5Zm-44.02-38.47,40.59-14.56-40.59-14.56-40.58,14.56Zm-1.75,53.64v-50.55l-42.26-15.16v50.54Z"/>
          <path id="Path_96" data-name="Path 96" d="M1448.19,701.789v50.54l-42.27,15.17v-50.55Z" fill="#5383b3"/>
          <path id="Path_97" data-name="Path 97" d="M1444.76,699.3l-40.59,14.56-40.58-14.56,40.58-14.56Z" fill="#5383b3"/>
          <path id="Path_98" data-name="Path 98" d="M1402.42,716.949V767.5l-42.26-15.17v-50.54Z" fill="#5383b3"/>
        </g>
      </g>
      <g id="Group_116" data-name="Group 116">
        <g id="Group_115" data-name="Group 115">
          <g id="Group_114" data-name="Group 114" style="isolation: isolate">
            <g id="Group_113" data-name="Group 113" clip-path="url(#clip-path)">
              <g id="Group_112" data-name="Group 112">
                <g id="Group_111" data-name="Group 111">
                  <g id="Group_110" data-name="Group 110">
                    <g id="Group_109" data-name="Group 109">
                      <path id="Path_99" data-name="Path 99" d="M1376.681,737.967,1381.513,727l3.074,13.688-7.906-2.722m7.235-16.775-3.738-1.287-12.362,27.55,4.136,1.424,2.9-6.625,10.86,3.739,1.791,8.242,4.271,1.471-7.861-34.514"/>
                    </g>
                  </g>
                </g>
              </g>
            </g>
          </g>
        </g>
      </g>
      <g id="Group_124" data-name="Group 124">
        <g id="Group_123" data-name="Group 123">
          <g id="Group_122" data-name="Group 122" style="isolation: isolate">
            <g id="Group_121" data-name="Group 121" clip-path="url(#clip-path-2)">
              <g id="Group_120" data-name="Group 120">
                <g id="Group_119" data-name="Group 119">
                  <g id="Group_118" data-name="Group 118">
                    <g id="Group_117" data-name="Group 117">
                      <path id="Path_101" data-name="Path 101" d="M1420.554,747.733l.043-7.609,7.673-2.308c1.914-.576,3.333-.67,4.263-.292a2.269,2.269,0,0,1,1.382,2.354,4.511,4.511,0,0,1-1.437,3.294,9.193,9.193,0,0,1-3.9,2.146l-8.028,2.415m.066-11.685.041-7.408,6.963-2.094a5.28,5.28,0,0,1,3.592-.144,2.224,2.224,0,0,1,1.22,2.279,4.447,4.447,0,0,1-1.428,3.307,9.138,9.138,0,0,1-3.781,2.073l-6.607,1.987m7.615-13.994-12.366,3.719-.156,27.724,12.768-3.839a20.879,20.879,0,0,0,4.171-1.75,14.279,14.279,0,0,0,3.243-2.437,10.347,10.347,0,0,0,2.082-3.017,8.535,8.535,0,0,0,.744-3.495,6.366,6.366,0,0,0-.38-2.393,3.59,3.59,0,0,0-1.108-1.538,4.653,4.653,0,0,0-1.714-.846,10.772,10.772,0,0,0-2.21-.349,17.737,17.737,0,0,0,1.472-1.386,9.718,9.718,0,0,0,1.258-1.67,8.981,8.981,0,0,0,.874-1.988,8.248,8.248,0,0,0,.345-2.363c.012-2.193-.8-3.674-2.41-4.458s-3.826-.752-6.613.086"/>
                    </g>
                  </g>
                </g>
              </g>
            </g>
          </g>
        </g>
      </g>
      <g id="Group_132" data-name="Group 132">
        <g id="Group_131" data-name="Group 131">
          <g id="Group_130" data-name="Group 130" style="isolation: isolate">
            <g id="Group_129" data-name="Group 129" clip-path="url(#clip-path-3)">
              <g id="Group_128" data-name="Group 128">
                <g id="Group_127" data-name="Group 127">
                  <g id="Group_126" data-name="Group 126">
                    <g id="Group_125" data-name="Group 125">
                      <path id="Path_103" data-name="Path 103" d="M1391.631,693.591a8.328,8.328,0,0,0-3.3,2.389,3.066,3.066,0,0,0-.607,2.638,5.074,5.074,0,0,0,1.87,2.621,15.351,15.351,0,0,0,4.186,2.322,29.976,29.976,0,0,0,5.8,1.6,37.859,37.859,0,0,0,6.232.572,33.926,33.926,0,0,0,6.013-.473,20.727,20.727,0,0,0,5.176-1.55,13.073,13.073,0,0,0,2.333-1.34,4.991,4.991,0,0,0,1.323-1.362,3.482,3.482,0,0,0,.5-1.412,3.743,3.743,0,0,0-.152-1.483l-5.145-.036a3.686,3.686,0,0,1-.339,2.166,4.863,4.863,0,0,1-2.387,1.843,12.968,12.968,0,0,1-3.406.991,22.426,22.426,0,0,1-4.059.26,25.263,25.263,0,0,1-4.213-.449,21.793,21.793,0,0,1-3.936-1.121,11.466,11.466,0,0,1-2.917-1.58,3.6,3.6,0,0,1-1.351-1.744,1.943,1.943,0,0,1,.3-1.74,4.731,4.731,0,0,1,2.034-1.532,14.032,14.032,0,0,1,4-1.127,38.6,38.6,0,0,1,4.846-.34l-.875-2.342c-1.056,0-2.1.044-3.115.112s-2.024.187-3.021.353a25.779,25.779,0,0,0-2.928.675,21.2,21.2,0,0,0-2.867,1.085"/>
                    </g>
                  </g>
                </g>
              </g>
            </g>
          </g>
        </g>
      </g>
    </g>
    <g id="Group_135" data-name="Group 135">
      <g id="Group_134" data-name="Group 134">
        <path id="Path_105" data-name="Path 105" d="M1373.69,726.069V782.8l-47.52,17.04-47.51-17.04v-56.73l47.51-17.05Zm-3.5,54.26v-50.54l-42.27,15.16V795.5Zm-44.02-38.47,40.59-14.56-40.59-14.56-40.58,14.56Zm-1.75,53.64v-50.55l-42.26-15.16v50.54Z"/>
        <path id="Path_106" data-name="Path 106" d="M1370.19,729.789v50.54l-42.27,15.17v-50.55Z" fill="#fff"/>
        <path id="Path_107" data-name="Path 107" d="M1366.76,727.3l-40.59,14.56-40.58-14.56,40.58-14.56Z" fill="#fff"/>
        <path id="Path_108" data-name="Path 108" d="M1324.42,744.949V795.5l-42.26-15.17v-50.54Z" fill="#fff"/>
      </g>
    </g>
    <g id="Group_143" data-name="Group 143">
      <g id="Group_142" data-name="Group 142">
        <g id="Group_141" data-name="Group 141" style="isolation: isolate">
          <g id="Group_140" data-name="Group 140" clip-path="url(#clip-path-4)">
            <g id="Group_139" data-name="Group 139">
              <g id="Group_138" data-name="Group 138">
                <g id="Group_137" data-name="Group 137">
                  <g id="Group_136" data-name="Group 136">
                    <path id="Path_109" data-name="Path 109" d="M1350.073,748.284a9.352,9.352,0,0,0-3.045,1.5,10.2,10.2,0,0,0-2.384,2.509,12.679,12.679,0,0,0-1.561,3.3,12.916,12.916,0,0,0-.571,3.86,10.594,10.594,0,0,0,.49,3.534,4.889,4.889,0,0,0,1.421,2.163,5.42,5.42,0,0,0,2.316,1.121,17.589,17.589,0,0,0,3.159.39,16.252,16.252,0,0,1,2.522.31,3.931,3.931,0,0,1,1.523.609,1.958,1.958,0,0,1,.76,1,4.351,4.351,0,0,1,.208,1.449,5.007,5.007,0,0,1-1.071,3.178,5.365,5.365,0,0,1-2.866,1.875,6.117,6.117,0,0,1-3.737.015,9.481,9.481,0,0,1-3.262-2.067l-2.35,4.553a9.091,9.091,0,0,0,4.333,2.518,9.616,9.616,0,0,0,4.914-.166,10.278,10.278,0,0,0,3.194-1.526,10.046,10.046,0,0,0,2.5-2.515,11.957,11.957,0,0,0,1.623-3.386,13.767,13.767,0,0,0,.59-4.1,9.99,9.99,0,0,0-.453-3.258,4.969,4.969,0,0,0-3.582-3.354,15.548,15.548,0,0,0-3.1-.494,19.26,19.26,0,0,1-2.615-.284,4.05,4.05,0,0,1-1.622-.607,2.07,2.07,0,0,1-.8-1.012,4.414,4.414,0,0,1-.22-1.531,4.979,4.979,0,0,1,.953-2.9A4.71,4.71,0,0,1,1350,753.13a5.585,5.585,0,0,1,3.012-.028,9.031,9.031,0,0,1,3,1.517l2.1-4.708a8.154,8.154,0,0,0-8.04-1.627"/>
                  </g>
                </g>
              </g>
            </g>
          </g>
        </g>
      </g>
    </g>
    <g id="Group_151" data-name="Group 151">
      <g id="Group_150" data-name="Group 150">
        <g id="Group_149" data-name="Group 149" style="isolation: isolate">
          <g id="Group_148" data-name="Group 148" clip-path="url(#clip-path-5)">
            <g id="Group_147" data-name="Group 147">
              <g id="Group_146" data-name="Group 146">
                <g id="Group_145" data-name="Group 145">
                  <g id="Group_144" data-name="Group 144">
                    <path id="Path_111" data-name="Path 111" d="M1334.625,729.464a15.8,15.8,0,0,1-3.706,1.038,24.435,24.435,0,0,1-4.194.311,25.652,25.652,0,0,1-4.2-.384,19.449,19.449,0,0,1-3.766-1.041,9.365,9.365,0,0,1-2.668-1.517,2.97,2.97,0,0,1-1.088-1.7,2.088,2.088,0,0,1,.6-1.715,6.4,6.4,0,0,1,2.377-1.556,15.807,15.807,0,0,1,3.711-1.041,24.613,24.613,0,0,1,4.195-.311,26.039,26.039,0,0,1,4.2.39,19.091,19.091,0,0,1,3.772,1.038,9.11,9.11,0,0,1,2.655,1.517,2.953,2.953,0,0,1,1.095,1.706,2.1,2.1,0,0,1-.6,1.715,6.505,6.505,0,0,1-2.383,1.554m-20.357-8.093a10.509,10.509,0,0,0-3.72,2.4,3.535,3.535,0,0,0-1.066,2.616,3.935,3.935,0,0,0,1.438,2.56,12.29,12.29,0,0,0,3.811,2.223,26.7,26.7,0,0,0,5.517,1.485,37.4,37.4,0,0,0,6.209.506,36.4,36.4,0,0,0,6.23-.537,25.236,25.236,0,0,0,5.644-1.632,10.57,10.57,0,0,0,3.732-2.4,3.56,3.56,0,0,0,1.066-2.615,3.983,3.983,0,0,0-1.444-2.563,12.259,12.259,0,0,0-3.8-2.22,26.783,26.783,0,0,0-5.524-1.488,37.781,37.781,0,0,0-6.209-.506,36.715,36.715,0,0,0-6.231.537,25.416,25.416,0,0,0-5.649,1.634"/>
                  </g>
                </g>
              </g>
            </g>
          </g>
        </g>
      </g>
    </g>
    <g id="Group_159" data-name="Group 159">
      <g id="Group_158" data-name="Group 158">
        <g id="Group_157" data-name="Group 157" style="isolation: isolate">
          <g id="Group_156" data-name="Group 156" clip-path="url(#clip-path-6)">
            <g id="Group_155" data-name="Group 155">
              <g id="Group_154" data-name="Group 154">
                <g id="Group_153" data-name="Group 153">
                  <g id="Group_152" data-name="Group 152">
                    <path id="Path_113" data-name="Path 113" d="M1311.655,752.3l-17.21-6.26L1294.017,776l17.379,6.321.068-4.755-13.329-4.848.114-7.994,11.664,4.243.068-4.755-11.664-4.243.11-7.7,13.16,4.786.068-4.746"/>
                  </g>
                </g>
              </g>
            </g>
          </g>
        </g>
      </g>
    </g>
  </g>
</svg>
