<?xml version="1.0" encoding="utf-8"?>
<!-- Generator: Adobe Illustrator 23.0.2, SVG Export Plug-In . SVG Version: 6.00 Build 0)  -->
<svg version="1.1" id="Layer_1" xmlns="http://www.w3.org/2000/svg" xmlns:xlink="http://www.w3.org/1999/xlink" x="0px" y="0px"
	 viewBox="0 0 314 419" style="enable-background:new 0 0 314 419;" xml:space="preserve">
<style type="text/css">
	.st0{fill:#231F20;}
	.st1{fill:#40BCD4;}
	.st2{fill:#6FC5E1;}
	.st3{fill:#504463;}
	.st4{fill:#5585B4;}
	.st5{fill:#434C72;}
</style>
<g>
	<g>
		<path class="st0" d="M23.2,256.7h67.3v4.2H27.8V302h56.7v4.2H27.8V348h63.4v4.2h-68V256.7z"/>
		<path class="st0" d="M107.7,306.2V306c0-26.1,18.8-49.3,47.8-49.3c28.9,0,47.7,23.2,47.7,49.3v0.3c0,26.1-18.8,49.3-47.8,49.3
			C126.4,355.5,107.7,332.3,107.7,306.2z M198.4,306.4v-0.3c0-24.2-17.6-45.2-43-45.2c-25.5,0-42.9,20.8-42.9,44.9v0.3
			c0,24.2,17.6,45.2,43.1,45.2C181,351.3,198.4,330.5,198.4,306.4z"/>
		<path class="st0" d="M220.5,339.7l3.1-3.4c10.1,9.6,21.3,14.5,35.2,14.5c16.5,0,27.3-9,27.3-21v-0.3c0-11.2-6.4-17.2-29.5-22
			c-23.3-4.6-32.5-12-32.5-25.8v-0.3c0-13.7,13-24.7,31-24.7c13.1,0,23.5,4.1,32.5,11.2l-2.9,3.7c-8.7-7-18.7-10.7-29.9-10.7
			c-15.7,0-26.1,9.4-26.1,20.1v0.3c0,11.1,6.4,17.2,29.6,22c23.8,4.8,32.4,12.4,32.4,25.8v0.3c0,14.7-12.7,25.7-32.2,25.7
			C243.7,355,231.3,349.6,220.5,339.7z"/>
	</g>
	<g>
		<path class="st0" d="M23.1,384.9v-0.1c0-10.3,7.7-18.9,18.5-18.9c6.6,0,10.6,2.3,14.2,5.8l-2.8,3c-3.1-2.9-6.5-5-11.5-5
			c-8.1,0-14.1,6.6-14.1,15v0.1c0,8.4,6.1,15.1,14.1,15.1c5,0,8.3-1.9,11.8-5.3l2.7,2.7c-3.8,3.9-8,6.4-14.6,6.4
			C30.9,403.6,23.1,395.4,23.1,384.9z"/>
		<path class="st0" d="M60.4,389.7v-0.1c0-7.6,5.9-14.1,14.1-14.1c8.1,0,14,6.4,14,14v0.1c0,7.6-6,14.1-14.1,14.1
			C66.2,403.6,60.4,397.3,60.4,389.7z M84.3,389.7v-0.1c0-5.8-4.3-10.5-10-10.5c-5.8,0-9.9,4.7-9.9,10.4v0.1c0,5.8,4.3,10.5,10,10.5
			C80.3,400,84.3,395.4,84.3,389.7z"/>
		<path class="st0" d="M93.5,399.6l2-2.9c2.9,2.2,6.2,3.4,9.3,3.4c3.2,0,5.6-1.7,5.6-4.3v-0.1c0-2.7-3.2-3.8-6.7-4.7
			c-4.2-1.2-8.9-2.7-8.9-7.6v-0.1c0-4.6,3.9-7.7,9.2-7.7c3.3,0,6.9,1.1,9.7,3l-1.8,3c-2.5-1.6-5.4-2.6-8-2.6c-3.2,0-5.2,1.7-5.2,3.9
			v0.1c0,2.6,3.3,3.5,6.9,4.6c4.2,1.3,8.7,2.9,8.7,7.7v0.1c0,5.1-4.2,8.1-9.6,8.1C100.8,403.5,96.5,402,93.5,399.6z"/>
		<path class="st0" d="M122.6,395.9v-16.3h-3.8v-3.5h3.8v-8.1h4v8.1h8.6v3.5h-8.6v15.7c0,3.3,1.8,4.5,4.5,4.5c1.4,0,2.5-0.3,3.9-0.9
			v3.4c-1.4,0.7-2.9,1.1-4.8,1.1C125.8,403.5,122.6,401.4,122.6,395.9z"/>
		<path class="st0" d="M140.2,395.2v-0.1c0-5.7,4.7-8.7,11.5-8.7c3.4,0,5.9,0.5,8.3,1.1v-0.9c0-4.8-3-7.4-8-7.4
			c-3.2,0-5.7,0.8-8.2,2l-1.2-3.3c3-1.4,5.9-2.2,9.8-2.2c3.8,0,6.7,1,8.7,3c1.8,1.8,2.8,4.4,2.8,7.9V403H160V399
			c-1.9,2.5-5,4.6-9.8,4.6C145.2,403.6,140.2,400.7,140.2,395.2z M160,393.1v-2.6c-2-0.6-4.6-1.1-7.9-1.1c-5.1,0-7.9,2.2-7.9,5.6
			v0.1c0,3.4,3.1,5.4,6.8,5.4C156,400.4,160,397.4,160,393.1z"/>
		<path class="st0" d="M188.7,366.5h15.7c4.5,0,8.1,1.4,10.4,3.6c1.8,1.8,2.8,4.3,2.8,7.2v0.1c0,6-4.2,9.6-9.9,10.6l11.2,14.9h-5.1
			l-10.6-14.2h-10.4V403h-4.1V366.5z M204.1,385.1c5.5,0,9.4-2.8,9.4-7.5v-0.1c0-4.5-3.4-7.2-9.3-7.2h-11.3v14.8H204.1z"/>
		<path class="st0" d="M225.9,365.7h4.6v4.4h-4.6V365.7z M226.1,376.1h4v27h-4V376.1z"/>
		<path class="st0" d="M237.8,389.7v-0.1c0-7.6,5.9-14.1,13.8-14.1c5.1,0,8.3,2.1,10.8,4.8l-2.7,2.8c-2.1-2.2-4.5-4.1-8.2-4.1
			c-5.5,0-9.6,4.6-9.6,10.4v0.1c0,5.8,4.3,10.5,9.9,10.5c3.4,0,6.1-1.7,8.2-4l2.6,2.4c-2.7,3-5.9,5.2-11,5.2
			C243.7,403.6,237.8,397.2,237.8,389.7z"/>
		<path class="st0" d="M267.2,395.2v-0.1c0-5.7,4.7-8.7,11.5-8.7c3.4,0,5.9,0.5,8.3,1.1v-0.9c0-4.8-3-7.4-8-7.4
			c-3.2,0-5.7,0.8-8.2,2l-1.2-3.3c3-1.4,5.9-2.2,9.8-2.2c3.8,0,6.7,1,8.7,3c1.8,1.8,2.8,4.4,2.8,7.9V403H287V399
			c-1.9,2.5-5,4.6-9.8,4.6C272.3,403.6,267.2,400.7,267.2,395.2z M287.1,393.1v-2.6c-2-0.6-4.6-1.1-7.9-1.1c-5.1,0-7.9,2.2-7.9,5.6
			v0.1c0,3.4,3.1,5.4,6.8,5.4C283,400.4,287.1,397.4,287.1,393.1z"/>
	</g>
	<g>
		<g>
			<g>
				<g id="XMLID_11_">
					<g>
						<line x1="158.5" y1="107" x2="157" y2="104.8"/>
						<polyline points="157,110.1 158.9,107.6 158.5,107 						"/>
						<polyline points="158.9,107.6 158.8,164.2 157.3,166.9 155.4,163.5 155.3,160.5 154.9,160.8 155,111.1 157.1,110.4 157,110.1 
													"/>
						<polygon points="158.5,107 158.9,108.2 157,110.1 155.9,106.7 155.6,106.8 156,106.2 						"/>
						<polygon points="157,104.8 158.5,107 156,106.2 						"/>
						<polygon points="158.4,164.6 158.1,165.3 156.7,164.3 157.1,164 						"/>
						<polygon points="158.1,165.3 156.7,168.3 155.4,165.3 156.7,164.3 						"/>
						<polygon points="157.1,164 156.7,164.3 155.9,163.7 156,163.5 						"/>
						<polygon points="157,110.1 157.1,110.4 155,111.1 155,110.7 						"/>
						<polygon points="155.9,106.7 157,110.1 155,109.5 155,107.7 155.6,106.8 						"/>
						<polygon points="125.1,58.9 157,104.8 156,106.2 155,105.9 155,107 103.7,123.4 104,123.1 103.3,122.6 153.7,107 123.7,63.8 
							124.3,63.8 124.3,59.9 118.9,59.8 61.9,25.9 61.9,25.9 59.3,23 56.7,25.2 12.8,19.9 20,57 18.7,58.1 18.6,59.9 18.7,60.8 
							17.6,62.3 17.1,62.4 16.8,61.2 8,15.4 63.2,22.1 						"/>
						<polygon points="157,110.1 155,110.7 155,109.5 						"/>
						<polygon points="156.7,162.5 156,163.5 154.9,163 154.9,160.8 155.3,160.5 						"/>
						<polygon points="156.7,164.3 155.4,165.3 154.9,164.2 154.9,163 156,163.5 155.9,163.7 						"/>
						<polygon points="156.7,168.3 130.4,227.1 74,222.2 73,220 73.4,219.8 75.3,220.4 76.5,222 80.7,218.9 128,223 153,166.9 
							155.4,165.3 						"/>
						<polygon points="156,106.2 155.6,106.8 155,107 155,105.9 						"/>
						<polygon points="155.6,106.8 155,107.7 155,107 						"/>
						<polygon points="154.9,164.2 155.4,165.3 153,166.9 154.8,163 154.9,163 						"/>
						<polygon points="155,107 155,107.7 154,109.2 155,109.5 155,110.7 106.9,125.6 103.8,124.6 103.1,126.8 101.3,127.3 
							100.9,127.3 99.3,127.1 100.9,125.7 101.6,126.2 103.7,123.4 						"/>
						<polygon points="155,107.7 155,109.5 154,109.2 						"/>
						<polygon points="155,110.7 155,111.1 107.3,126.4 107.5,125.8 106.9,125.6 						"/>
						<polygon class="st1" points="107.3,126.4 155,111.1 154.9,160.8 79,215.3 						"/>
						<polygon points="154.9,160.8 154.9,163 154.8,163 153,166.9 80.7,218.9 77.9,218.6 79,215.3 						"/>
						<polygon class="st2" points="123.7,63.8 153.7,107 103.3,122.6 24.6,62.7 						"/>
						<polygon class="st3" points="80.7,218.9 153,166.9 128,223 						"/>
						<polygon points="124.3,59.9 124.3,63.8 123.7,63.8 122.3,61.9 118.9,59.8 						"/>
						<polygon points="122.3,61.9 123.7,63.8 24.6,62.7 20.5,59.6 20,57 56.7,25.2 61.9,25.9 61.9,25.9 23.9,58.8 118.9,59.8 						
							"/>
						<polygon class="st4" points="118.9,59.8 23.9,58.8 61.9,25.9 61.9,25.9 61.9,25.9 						"/>
						<polygon points="107.5,125.8 107.3,126.4 105.1,127.1 102.1,129.8 103.1,126.8 106.9,125.6 						"/>
						<polygon points="107.3,126.4 79,215.3 76.2,217.4 75,214.7 102.1,129.8 105.1,127.1 						"/>
						<polygon points="106.9,125.6 103.1,126.8 103.8,124.6 						"/>
						<polygon points="104,123.1 103.7,123.4 103.1,123.6 100.9,125.7 97.2,122.9 100.9,123.3 103.3,122.6 						"/>
						<polygon points="103.7,123.4 101.6,126.2 100.9,125.7 103.1,123.6 						"/>
						<polygon points="103.3,122.6 100.9,123.3 97.2,122.9 21.7,65.5 21.1,62.7 24.6,62.7 						"/>
						<polygon points="101.3,127.3 103.1,126.8 102.1,129.8 56.6,171.1 75,214.7 73.4,219.8 73,220 51.9,170 99.3,127.1 
							100.9,127.3 						"/>
						<polygon class="st5" points="56.6,171.1 102.1,129.8 75,214.7 						"/>
						<polygon points="97.2,122.9 100.9,125.7 99.3,127.1 29.1,118.4 17.1,62.4 17.6,62.3 21.7,65.5 32.4,114.9 						"/>
						<polygon class="st3" points="97.2,122.9 32.4,114.9 21.7,65.5 						"/>
						<polygon points="80.7,218.9 76.5,222 75.3,220.4 77.2,221 77.9,218.6 						"/>
						<polygon points="76.2,217.4 79,215.3 77.9,218.6 76.7,218.5 						"/>
						<polygon points="77.9,218.6 77.2,221 75.3,220.4 74.2,218.8 76.2,217.4 76.7,218.5 						"/>
						<polygon points="75,214.7 76.2,217.4 74.2,218.8 75.3,220.4 73.4,219.8 						"/>
						<polygon points="59.3,23 61.9,25.9 56.7,25.2 						"/>
						<polygon class="st5" points="56.7,25.2 20,57 12.8,19.9 						"/>
						<polygon points="24.6,62.7 21.1,62.7 20.7,60.4 20.5,59.6 						"/>
						<polygon points="21.7,65.5 17.6,62.3 18.7,60.8 18.7,62.7 21.1,62.7 						"/>
						<polygon points="20.7,60.4 21.1,62.7 18.7,62.7 18.7,60.8 19.9,59.2 20.5,59.6 						"/>
						<polygon points="20,57 20.5,59.6 19.9,59.2 18.7,60.8 18.6,59.9 18.7,58.1 						"/>
					</g>
				</g>
			</g>
		</g>
		<g>
			<g>
				<g id="XMLID_10_">
					<g>
						<line x1="155.5" y1="107" x2="157" y2="104.8"/>
						<polyline points="157,110.1 155.1,107.6 155.5,107 						"/>
						<polyline points="155.1,107.6 155.2,164.2 156.7,166.9 158.6,163.5 158.7,160.5 159.1,160.8 159,111.1 156.9,110.4 157,110.1 
													"/>
						<polygon points="155.5,107 155.1,108.2 157,110.1 158.1,106.7 158.4,106.8 158,106.2 						"/>
						<polygon points="157,104.8 155.5,107 158,106.2 						"/>
						<polygon points="155.6,164.6 155.9,165.3 157.3,164.3 156.9,164 						"/>
						<polygon points="155.9,165.3 157.3,168.3 158.6,165.3 157.3,164.3 						"/>
						<polygon points="156.9,164 157.3,164.3 158.1,163.7 158,163.5 						"/>
						<polygon points="157,110.1 156.9,110.4 159,111.1 159,110.7 						"/>
						<polygon points="158.1,106.7 157,110.1 159,109.5 159,107.7 158.4,106.8 						"/>
						<polygon points="188.9,58.9 157,104.8 158,106.2 159,105.9 159,107 210.3,123.4 210,123.1 210.7,122.6 160.3,107 190.3,63.8 
							189.7,63.8 189.7,59.9 195.1,59.8 252.1,25.9 252.1,25.9 254.7,23 257.3,25.2 301.2,19.9 294,57 295.3,58.1 295.4,59.9 
							295.3,60.8 296.4,62.3 296.9,62.4 297.2,61.2 306,15.4 250.8,22.1 						"/>
						<polygon points="157,110.1 159,110.7 159,109.5 						"/>
						<polygon points="157.3,162.5 158,163.5 159.1,163 159.1,160.8 158.7,160.5 						"/>
						<polygon points="157.3,164.3 158.6,165.3 159.1,164.2 159.1,163 158,163.5 158.1,163.7 						"/>
						<polygon points="157.3,168.3 183.6,227.1 240,222.2 241,220 240.6,219.8 238.7,220.4 237.5,222 233.3,218.9 186,223 
							161,166.9 158.6,165.3 						"/>
						<polygon points="158,106.2 158.4,106.8 159,107 159,105.9 						"/>
						<polygon points="158.4,106.8 159,107.7 159,107 						"/>
						<polygon points="159.1,164.2 158.6,165.3 161,166.9 159.2,163 159.1,163 						"/>
						<polygon points="159,107 159,107.7 160,109.2 159,109.5 159,110.7 207.1,125.6 210.2,124.6 210.9,126.8 212.7,127.3 
							213.1,127.3 214.7,127.1 213.1,125.7 212.4,126.2 210.3,123.4 						"/>
						<polygon points="159,107.7 159,109.5 160,109.2 						"/>
						<polygon points="159,110.7 159,111.1 206.7,126.4 206.5,125.8 207.1,125.6 						"/>
						<polygon class="st1" points="206.7,126.4 159,111.1 159.1,160.8 235,215.3 						"/>
						<polygon points="159.1,160.8 159.1,163 159.2,163 161,166.9 233.3,218.9 236.1,218.6 235,215.3 						"/>
						<polygon class="st2" points="190.3,63.8 160.3,107 210.7,122.6 289.4,62.7 						"/>
						<polygon class="st3" points="233.3,218.9 161,166.9 186,223 						"/>
						<polygon points="189.7,59.9 189.7,63.8 190.3,63.8 191.7,61.9 195.1,59.8 						"/>
						<polygon points="191.7,61.9 190.3,63.8 289.4,62.7 293.5,59.6 294,57 257.3,25.2 252.1,25.9 252.1,25.9 290.1,58.8 
							195.1,59.8 						"/>
						<polygon class="st4" points="195.1,59.8 290.1,58.8 252.1,25.9 252.1,25.9 252.1,25.9 						"/>
						<polygon points="206.5,125.8 206.7,126.4 208.9,127.1 211.9,129.8 210.9,126.8 207.1,125.6 						"/>
						<polygon points="206.7,126.4 235,215.3 237.8,217.4 239,214.7 211.9,129.8 208.9,127.1 						"/>
						<polygon points="207.1,125.6 210.9,126.8 210.2,124.6 						"/>
						<polygon points="210,123.1 210.3,123.4 210.9,123.6 213.1,125.7 216.8,122.9 213.1,123.3 210.7,122.6 						"/>
						<polygon points="210.3,123.4 212.4,126.2 213.1,125.7 210.9,123.6 						"/>
						<polygon points="210.7,122.6 213.1,123.3 216.8,122.9 292.3,65.5 292.9,62.7 289.4,62.7 						"/>
						<polygon points="212.7,127.3 210.9,126.8 211.9,129.8 257.4,171.1 239,214.7 240.6,219.8 241,220 262.1,170 214.7,127.1 
							213.1,127.3 						"/>
						<polygon class="st5" points="257.4,171.1 211.9,129.8 239,214.7 						"/>
						<polygon points="216.8,122.9 213.1,125.7 214.7,127.1 284.9,118.4 296.9,62.4 296.4,62.3 292.3,65.5 281.6,114.9 						"/>
						<polygon class="st3" points="216.8,122.9 281.6,114.9 292.3,65.5 						"/>
						<polygon points="233.3,218.9 237.5,222 238.7,220.4 236.8,221 236.1,218.6 						"/>
						<polygon points="237.8,217.4 235,215.3 236.1,218.6 237.3,218.5 						"/>
						<polygon points="236.1,218.6 236.8,221 238.7,220.4 239.8,218.8 237.8,217.4 237.3,218.5 						"/>
						<polygon points="239,214.7 237.8,217.4 239.8,218.8 238.7,220.4 240.6,219.8 						"/>
						<polygon points="254.7,23 252.1,25.9 257.3,25.2 						"/>
						<polygon class="st5" points="257.3,25.2 294,57 301.2,19.9 						"/>
						<polygon points="289.4,62.7 292.9,62.7 293.3,60.4 293.5,59.6 						"/>
						<polygon points="292.3,65.5 296.4,62.3 295.3,60.8 295.3,62.7 292.9,62.7 						"/>
						<polygon points="293.3,60.4 292.9,62.7 295.3,62.7 295.3,60.8 294.1,59.2 293.5,59.6 						"/>
						<polygon points="294,57 293.5,59.6 294.1,59.2 295.3,60.8 295.4,59.9 295.3,58.1 						"/>
					</g>
				</g>
			</g>
		</g>
	</g>
</g>
</svg>
