<?xml version="1.0" encoding="utf-8"?>
<!-- Generator: Adobe Illustrator 24.2.3, SVG Export Plug-In . SVG Version: 6.00 Build 0)  -->
<svg version="1.1" id="Layer_1" xmlns:v="https://vecta.io/nano"
	 xmlns="http://www.w3.org/2000/svg" xmlns:xlink="http://www.w3.org/1999/xlink" x="0px" y="0px" viewBox="-170 0 770 170.79"
	 style="enable-background:new 0 0 445.95 170.79;" xml:space="preserve">
<style type="text/css">
	.st0{fill:#969696;}
	.st1{fill:#4B4B4B;}
</style>
<g>
	<path class="st0" d="M322.42,143.16v4.57h-6.31v19.38h-5.58v-19.38h-3.06v-4.62h3.06v-1.74c0-2.68,0.64-4.67,1.94-5.97
		c1.29-1.29,3.13-1.94,5.52-1.94c0.97,0,1.81,0.06,2.51,0.18s1.36,0.27,1.97,0.46v4.66c-0.55-0.18-1.07-0.33-1.58-0.43
		c-0.5-0.11-1.06-0.16-1.67-0.16c-2.13,0-3.2,1.22-3.2,3.66v1.33L322.42,143.16L322.42,143.16z M349.46,159.94
		c-0.66,1.52-1.55,2.86-2.7,4c-1.14,1.14-2.51,2.05-4.09,2.72c-1.59,0.67-3.31,1.01-5.17,1.01c-1.83,0-3.53-0.33-5.1-0.98
		c-1.57-0.66-2.93-1.55-4.07-2.7c-1.14-1.14-2.03-2.47-2.67-3.98s-0.96-3.13-0.96-4.87c-0.01-1.69,0.32-3.36,0.98-4.91
		c0.66-1.54,1.55-2.88,2.7-4.02s2.5-2.05,4.07-2.72s3.28-1.01,5.14-1.01s3.57,0.33,5.14,0.98c1.57,0.66,2.93,1.55,4.07,2.7
		c1.14,1.14,2.04,2.48,2.67,4c0.64,1.52,0.96,3.15,0.96,4.89S350.11,158.42,349.46,159.94L349.46,159.94z M344.32,152.12
		c-0.35-0.92-0.86-1.76-1.52-2.49c-0.65-0.72-1.42-1.28-2.32-1.69s-1.88-0.62-2.98-0.62s-2.08,0.21-2.98,0.62
		c-0.87,0.39-1.65,0.96-2.29,1.67c-0.63,0.7-1.12,1.52-1.45,2.45s-0.5,1.93-0.5,3s0.18,2.08,0.54,3.04s0.87,1.79,1.52,2.49
		c0.65,0.71,1.44,1.27,2.32,1.67c0.89,0.41,1.87,0.62,2.93,0.62c1.12,0,2.13-0.21,3.02-0.62s1.66-0.97,2.29-1.67
		c0.64-0.7,1.12-1.52,1.45-2.45s0.5-1.93,0.5-3C344.86,154.07,344.68,153.07,344.32,152.12L344.32,152.12z M361.64,167.12h-5.58
		v-24.14h5.58v5.44c0.76-1.83,1.84-3.29,3.25-4.39c1.4-1.1,3.17-1.6,5.3-1.51v5.85h-0.32c-1.22,0-2.33,0.2-3.34,0.59
		c-0.99,0.39-1.89,1-2.61,1.78c-0.73,0.79-1.3,1.79-1.69,3c-0.4,1.2-0.59,2.6-0.59,4.18V167.12z M390.76,142.98h5.58v24.14h-5.58
		v-3.79c-0.79,1.17-1.78,2.18-2.96,3.02c-1.19,0.85-2.71,1.27-4.56,1.27c-2.74,0-4.85-0.84-6.34-2.51
		c-1.49-1.68-2.23-3.93-2.23-6.77v-15.36h5.58v13.68c0,1.89,0.44,3.34,1.34,4.36s2.15,1.53,3.79,1.53c1.6,0,2.9-0.52,3.9-1.57
		s1.5-2.52,1.5-4.4v-13.6H390.76z M426.85,143.65c1.33-0.78,2.9-1.18,4.73-1.18c2.65,0,4.73,0.8,6.22,2.4s2.24,3.88,2.24,6.83v15.41
		h-5.58v-13.68c0-1.92-0.42-3.38-1.27-4.38s-2.05-1.5-3.6-1.5c-1.52,0-2.75,0.51-3.71,1.53s-1.43,2.5-1.43,4.45v13.59h-5.58v-13.73
		c0-1.89-0.42-3.33-1.27-4.33s-2.05-1.5-3.6-1.5s-2.79,0.53-3.73,1.6s-1.41,2.54-1.41,4.42v13.55h-5.58v-24.14h5.58v3.7
		c0.4-0.55,0.82-1.08,1.28-1.57s0.98-0.94,1.58-1.34c0.59-0.4,1.26-0.71,2.01-0.95c0.75-0.23,1.58-0.35,2.49-0.35
		c1.74,0,3.21,0.39,4.41,1.18s2.12,1.82,2.76,3.11C424.37,145.48,425.52,144.44,426.85,143.65L426.85,143.65z M440.02,83.37v8.3
		c-0.01,0.07-0.02,0.13-0.02,0.2v3.59l-0.03,3.56c-0.05,6.56-2.05,12.29-5.96,17.02c-4.67,5.67-11.02,8.57-18.87,8.64l-5.52,0.02
		c-8.77,0-21-0.11-29.94-0.19l-6.02-0.05c-0.04,0-0.07-0.01-0.17-0.03l-0.06-0.01c-0.03-0.01-0.07-0.02-0.1-0.02l-0.25-0.04h-0.06
		c-0.01-0.01-0.02-0.01-0.03-0.01c-12.17-1.83-20.4-11.47-20.98-24.57c-0.03-0.71-0.05-1.41-0.05-2.09V61.58
		c0-6.38,1.4-11.68,4.28-16.2c4.11-6.46,10-10.15,17.5-10.98l9.88-0.26l11.84-0.05l19.94,0.09c12.71,0.11,22.9,9.39,24.23,22.07
		c0.24,2.24,0.36,4.55,0.37,6.87L440.02,83.37L440.02,83.37z M419.69,91.11l-0.01-23.64c0-5.83-3.21-9.06-9.04-9.07l-13.98-0.02
		l-13.05,0.01l-1.05,0.01h-1.23c-5.81,0.02-9.01,3.25-9.02,9.09v13.33l0.01,10.5l-0.01,17.84c0,0.75,0.6,1.35,1.35,1.35l0,0
		l18.52-9.99l18.19-0.01C416.55,100.5,419.68,97.34,419.69,91.11z"/>
	<path class="st0" d="M392.18,100.52l-18.52,9.99c-0.75,0-1.35-0.6-1.35-1.35c0,0,0,0,0,0l0.01-17.84l-0.01-13.63v-10.2
		c0.01-5.84,3.21-9.07,9.02-9.09h1.23l1.05-0.01l13.05-0.01l13.98,0.02c5.83,0.01,9.04,3.24,9.04,9.07l0.01,23.64
		c-0.01,6.23-3.14,9.39-9.32,9.4C410.37,100.51,392.18,100.52,392.18,100.52z M381.34,59.74c-5.06,0.02-7.68,2.69-7.68,7.75
		l-0.01,12.11l0.01,29.56c0,0,17.38-9.9,18.52-9.99l18.19-0.01c5.39,0,7.97-2.61,7.97-8.05V67.47c-0.01-5.05-2.63-7.71-7.7-7.73
		l-13.98-0.02L381.34,59.74L381.34,59.74z"/>
	<path class="st0" d="M355.1,44.66c4.44-6.96,10.78-10.76,18.55-11.6l9.96-0.27l11.85-0.05l19.95,0.1
		c13.38,0.11,24.17,10.01,25.56,23.27c0.24,2.32,0.37,4.67,0.37,7l0.01,32.37l-0.03,3.55c-0.05,6.62-2.01,12.7-6.27,17.87
		c-5.14,6.23-11.96,9.06-19.9,9.12l-5.53,0.02c-10.89,0-26.86-0.16-35.97-0.24c-0.2,0-0.35-0.04-0.5-0.07
		c-0.09-0.01-0.18-0.02-0.26-0.04h-0.1v-0.01c-12.76-1.92-21.51-11.99-22.12-25.84c-0.03-0.71-0.05-1.43-0.05-2.15V61.58
		C350.61,55.54,351.83,49.8,355.1,44.66L355.1,44.66z M373.74,34.4c-7.5,0.83-13.39,4.52-17.5,10.98c-2.88,4.52-4.28,9.82-4.28,16.2
		v36.11c0,0.68,0.02,1.38,0.05,2.09c0.58,13.1,8.81,22.74,20.98,24.57c0.01,0,0.02,0,0.03,0.01h0.06l0.25,0.04
		c0.03,0,0.07,0.01,0.1,0.02l0.06,0.01c0.1,0.02,0.13,0.03,0.17,0.03l6.02,0.05l29.94,0.19l5.52-0.02
		c7.85-0.07,14.2-2.97,18.87-8.64c3.91-4.73,5.91-10.46,5.96-17.02l0.03-3.56v-3.59c0-0.07,0.01-0.13,0.02-0.2L440,63.12
		c-0.01-2.32-0.13-4.63-0.37-6.87c-1.33-12.68-11.52-21.96-24.23-22.07l-19.94-0.09l-11.84,0.05
		C383.62,34.14,373.74,34.4,373.74,34.4z M340.25,66.42v58.36l-14.88,0.02c-8.21,0-14.88-6.67-14.88-14.88v-43.5H340.25z"/>
	<path class="st0" d="M340.25,48.79v9.63h-29.76V33.86l14.88,0.05C333.58,33.91,340.25,40.58,340.25,48.79z M325.83,124.8h0.04
		l14.38-0.02V66.42h-29.76v43.5c0,8.21,6.67,14.88,14.88,14.88C325.37,124.8,325.83,124.8,325.83,124.8z M341.6,126.12l-15.73,0.02
		c-0.17,0.01-0.33,0.01-0.5,0.01c-8.96,0-16.23-7.27-16.23-16.23V65.08h32.46L341.6,126.12L341.6,126.12z"/>
	<path class="st0" d="M325.37,32.56c8.96,0,16.23,7.27,16.23,16.23v10.98h-32.46V32.51l0.01,0.01h0.29L325.37,32.56L325.37,32.56z
		 M340.25,48.79c0-8.21-6.67-14.88-14.88-14.88c-0.13,0-11.03-0.04-14.88-0.05v24.56h29.76C340.25,58.42,340.25,48.79,340.25,48.79z
		"/>
</g>
<g>
	<path class="st1" d="M231.68,63.15c-0.01,0.06-0.01,0.13-0.01,0.19l0.02,0.58c0.07,2.42,1.55,3.9,3.96,3.97l1.11,0.02h0.43
		l0.43-0.01h0.2l18.2-0.02l17.36,0.1c3.98,0.03,6.55,0.54,10.83,1.67c4.5,1.19,8.05,3.87,10.54,7.96c2.26,3.71,3.59,8.52,3.84,13.91
		c0.24,5.32,0.38,10.1-0.33,14.8c-1.35,8.99-7.78,15.12-17.64,16.82c-0.86,0.14-1.48,0.27-2.04,0.38c-1.29,0.31-2.62,0.45-3.95,0.42
		l-34.92,0.04h-9.5c-4.56,0-9.82-0.01-16.44-0.01h-1.97V101.2h64.26c0.74,0,1.34-0.59,1.34-1.33l0.05-4.24v-0.59
		c0.01-0.11,0.01-0.18,0-0.33l-0.02-0.56c-0.08-2.59-1.5-4.05-4.11-4.23c-0.25-0.02-0.52-0.02-0.85-0.02h-20.35l-17.24,0.01
		c-5.63,0-9.86-0.65-13.7-2.12c-7.9-3.03-12.31-8.58-13.11-16.51c-0.53-5.31-0.56-10.42-0.08-15.17
		c1.13-11.04,8.2-19.54,17.59-21.16c3.15-0.54,6.24-0.82,9.19-0.83l56.66-0.03l0.07,24.09h-58.52c-0.36,0-0.7,0.14-0.95,0.4
		c-0.26,0.25-0.39,0.6-0.39,0.96l0.04,3.09c0,0.37,0,0.51-0.01,0.56C231.67,63.18,231.67,63.16,231.68,63.15L231.68,63.15z"/>
	<path class="st1" d="M232.87,61.94c-0.08,0-0.16,0.01-0.23,0.04c-0.09,0.01-0.17,0.04-0.24,0.09c-0.07,0.03-0.14,0.07-0.2,0.13
		c-0.07,0.05-0.14,0.11-0.18,0.17c-0.07,0.06-0.12,0.13-0.15,0.2c-0.05,0.07-0.09,0.15-0.11,0.22c-0.04,0.08-0.06,0.15-0.07,0.23
		c0.02-0.08,0.04-0.16,0.07-0.23c0.03-0.08,0.07-0.15,0.11-0.22c0.04-0.07,0.09-0.14,0.15-0.2c0.05-0.06,0.11-0.12,0.18-0.17
		c0.06-0.05,0.13-0.09,0.2-0.13c0.08-0.04,0.16-0.07,0.24-0.09C232.71,61.96,232.79,61.94,232.87,61.94z M220.7,89.04
		c-8.15-3.12-13.09-8.94-13.96-17.62c-0.52-5.11-0.6-10.35-0.08-15.44c1.1-10.81,7.99-20.51,18.7-22.35
		c3.09-0.54,6.27-0.84,9.41-0.85l58-0.04l0.07,26.78h-59.86l0.04,3.11c0,0.57,0,0.63-0.01,0.63c0.01,0.01,0.01,0.11,0.02,0.62
		c0.05,1.7,0.94,2.62,2.66,2.67c0.35,0.01,0.71,0.01,1.07,0.01h1.06l18.2-0.02l17.37,0.09c4.28,0.03,7.04,0.63,11.16,1.72
		c10.25,2.72,14.89,12.41,15.38,23.11c0.23,5.01,0.4,10.13-0.34,15.06c-1.46,9.74-8.46,16.17-18.75,17.94
		c-2.91,0.5-3.26,0.81-6.21,0.82l-34.92,0.04h-29.26V99.86h65.61l0.04-4.23c0-1.35,0.03-0.08-0.01-1.44
		c-0.06-1.91-0.95-2.8-2.86-2.93c-0.25-0.02-0.51-0.02-0.76-0.02l-0.98,0.01c-11.43,0-15.04-0.01-19.37-0.01l-17.24,0.01
		C230.03,91.25,225.27,90.79,220.7,89.04L220.7,89.04z M225.58,34.95c-9.39,1.62-16.46,10.12-17.59,21.16
		c-0.48,4.75-0.45,9.86,0.08,15.17c0.8,7.93,5.21,13.48,13.11,16.51c3.84,1.47,8.07,2.12,13.7,2.12h0.06l17.18-0.01h20.35
		c0.33,0,0.6,0,0.85,0.02c2.61,0.18,4.03,1.64,4.11,4.23l0.02,0.56c0.01,0.1,0.01,0.21,0,0.31v0.61l-0.05,4.24
		c0,0.74-0.6,1.33-1.34,1.33H211.8v22.77h1.97l16.44,0.01h9.5l34.92-0.04c1.33,0.03,2.66-0.11,3.95-0.42
		c0.56-0.11,1.18-0.24,2.04-0.38c9.86-1.7,16.29-7.83,17.64-16.82c0.71-4.7,0.57-9.48,0.33-14.8c-0.25-5.39-1.58-10.2-3.84-13.91
		c-2.49-4.09-6.04-6.77-10.54-7.96c-4.28-1.13-6.85-1.64-10.83-1.67l-17.36-0.1l-4.73,0.01l-13.67,0.01l-0.43,0.01h-0.43
		c-0.37,0-0.74-0.01-1.11-0.02c-2.41-0.07-3.89-1.55-3.96-3.97l-0.02-0.58c0-0.06,0-0.13,0.01-0.19c-0.01,0.01-0.01,0.03-0.01,0.04
		c0.01-0.05,0.01-0.19,0.01-0.56l-0.04-3.09c0-0.36,0.13-0.71,0.39-0.96c0.25-0.26,0.59-0.4,0.95-0.4h58.52l-0.07-24.09
		c-6.72,0-11.89-0.01-16.29-0.01h-9.09l-31.28,0.04C231.82,34.13,228.73,34.41,225.58,34.95L225.58,34.95z M197.73,77.23v20.04
		c0,6.38-1.4,11.68-4.28,16.2c-4.12,6.48-10.03,10.17-17.56,10.99c-0.92,0.11-1.85,0.17-2.78,0.18l-6.5,0.07l-0.54,0.01h-0.13
		l-11.74,0.05c-5.76,0-12.09-0.03-19.91-0.1c-12.71-0.11-22.9-9.39-24.23-22.06c-0.24-2.28-0.36-4.58-0.37-6.87l-0.02-20.26v-8.3
		c0.01-0.07,0.02-0.13,0.02-0.2v-3.59l0.03-3.55c0.05-6.57,2.05-12.3,5.96-17.03c4.67-5.66,11.02-8.57,18.87-8.63l5.49-0.02
		l27.37,0.17l8.54,0.07c12.61,1.54,21.14,11.22,21.73,24.67c0.03,0.71,0.05,1.41,0.05,2.09L197.73,77.23L197.73,77.23z
		 M177.38,91.36V59.69c0-0.74-0.6-1.34-1.35-1.34l-18.52-0.01l-18.19,0.01c-6.18,0.01-9.31,3.17-9.32,9.4v7.54l0.01,16.09
		c0,5.84,3.21,9.06,9.04,9.08l13.98,0.02l13.05-0.02h2.28C174.17,100.44,177.37,97.21,177.38,91.36L177.38,91.36z M196.89,15.97
		c-0.18-0.53-0.46-1.01-0.82-1.44c-0.35-0.41-0.78-0.74-1.28-0.99s-1.08-0.37-1.75-0.37c-0.56-0.01-1.1,0.11-1.61,0.34
		c-0.49,0.23-0.92,0.55-1.3,0.95c-0.38,0.42-0.69,0.91-0.92,1.43c-0.24,0.55-0.39,1.15-0.46,1.8h8.51
		C197.2,17.09,197.08,16.52,196.89,15.97L196.89,15.97z M188.7,23.45c-0.61-0.6-1.09-1.34-1.44-2.19c-0.36-0.86-0.54-1.8-0.54-2.83
		c0-0.96,0.16-1.86,0.48-2.71s0.76-1.58,1.32-2.21c0.57-0.62,1.24-1.11,2.02-1.47c0.8-0.36,1.67-0.55,2.55-0.54
		c0.98,0,1.85,0.18,2.62,0.55c0.75,0.35,1.42,0.86,1.96,1.5c0.53,0.64,0.93,1.38,1.2,2.24c0.28,0.85,0.42,1.77,0.42,2.75v0.28
		c0,0.11-0.01,0.22-0.03,0.33h-10.51c0.07,0.72,0.24,1.36,0.52,1.92c0.27,0.55,0.62,1.02,1.05,1.41c0.43,0.38,0.91,0.68,1.44,0.87
		c0.53,0.2,1.09,0.3,1.67,0.3c0.92,0,1.71-0.17,2.37-0.52c0.66-0.34,1.27-0.79,1.82-1.36l1.23,1.11c-0.67,0.75-1.43,1.35-2.29,1.81
		c-0.85,0.45-1.92,0.68-3.18,0.68c-0.91,0-1.77-0.17-2.57-0.5C190,24.53,189.3,24.06,188.7,23.45L188.7,23.45z M167.24,16.94
		c-0.27-0.41-0.4-0.92-0.4-1.54v-0.05c0-0.56,0.11-1.08,0.34-1.55c0.22-0.47,0.53-0.88,0.93-1.21c0.41-0.34,0.89-0.59,1.44-0.77
		c0.56-0.18,1.16-0.27,1.81-0.27c0.82,0,1.66,0.13,2.49,0.4c0.84,0.26,1.61,0.62,2.29,1.06l-0.9,1.49c-0.61-0.39-1.26-0.7-1.94-0.94
		c-0.67-0.23-1.34-0.34-1.99-0.34c-0.79,0-1.41,0.18-1.87,0.55c-0.47,0.37-0.7,0.83-0.7,1.37v0.06c0,0.3,0.1,0.57,0.29,0.81
		c0.18,0.23,0.44,0.43,0.75,0.6c0.32,0.17,0.68,0.32,1.09,0.46l1.29,0.41l1.53,0.52c0.49,0.17,0.95,0.42,1.37,0.72
		c0.4,0.28,0.74,0.64,0.99,1.05c0.25,0.41,0.37,0.92,0.37,1.51v0.06c0,0.63-0.12,1.19-0.37,1.68s-0.58,0.9-1,1.24
		c-0.42,0.35-0.92,0.61-1.49,0.79s-1.2,0.27-1.86,0.27c-0.96,0-1.93-0.18-2.91-0.53c-0.94-0.33-1.81-0.81-2.59-1.43l1-1.41
		c0.72,0.55,1.47,0.97,2.25,1.26s1.56,0.44,2.35,0.44c0.8,0,1.46-0.19,1.98-0.57c0.51-0.37,0.77-0.89,0.77-1.54v-0.05
		c0.01-0.31-0.09-0.6-0.27-0.85c-0.18-0.24-0.43-0.45-0.73-0.63c-0.34-0.19-0.7-0.35-1.07-0.47l-1.25-0.39l-1.55-0.5
		c-0.5-0.17-0.97-0.4-1.41-0.68C167.85,17.7,167.51,17.35,167.24,16.94L167.24,16.94z"/>
	<path class="st1" d="M153.15,6.69h2.26v2.19h-2.26V6.69z M153.28,11.78h1.98v13.28h-1.98V11.78z M142.49,13.68
		c-0.72,0-1.4,0.13-2.04,0.39c-0.64,0.25-1.21,0.64-1.69,1.15c-0.47,0.52-0.85,1.15-1.13,1.92c-0.27,0.76-0.41,1.64-0.41,2.63v5.29
		h-1.97V11.78h1.97v3.47c0.24-0.55,0.54-1.06,0.9-1.52s0.77-0.86,1.24-1.19c0.46-0.34,0.97-0.59,1.51-0.76
		c0.55-0.17,1.14-0.25,1.77-0.23v2.13C142.64,13.68,142.49,13.68,142.49,13.68z M130,67.75c0.01-6.23,3.14-9.39,9.32-9.4l18.19-0.01
		l18.52,0.01c0.75,0,1.35,0.6,1.35,1.34l-0.01,7.84l0.01,23.83c-0.01,5.85-3.21,9.08-9.02,9.1h-2.28l-13.05,0.02
		c-4.66,0-9.32-0.01-13.98-0.02c-5.83-0.02-9.04-3.24-9.04-9.08L130,67.75z M139.32,59.69c-5.39,0.01-7.97,2.62-7.97,8.06v23.63
		c0.01,5.06,2.63,7.72,7.7,7.73l13.98,0.02l15.32-0.02c5.06-0.01,7.68-2.69,7.68-7.75l0.01-12.11l-0.01-11.72v-7.84
		c-4.62,0-11.6-0.01-18.52-0.01L139.32,59.69L139.32,59.69z M112.72,14.45c0.27-0.39,0.58-0.77,0.91-1.13s0.71-0.67,1.12-0.94
		c0.41-0.26,0.87-0.48,1.37-0.64c0.54-0.17,1.11-0.25,1.68-0.24c0.79,0,1.57,0.15,2.33,0.46c0.76,0.31,1.46,0.77,2.04,1.35
		c0.6,0.59,1.08,1.31,1.44,2.17s0.54,1.83,0.54,2.93c0,1.09-0.18,2.07-0.54,2.93c-0.36,0.85-0.84,1.58-1.43,2.17
		s-1.26,1.04-2.03,1.36c-0.75,0.31-1.54,0.47-2.35,0.47c-0.61,0-1.18-0.07-1.69-0.23c-0.52-0.15-0.98-0.36-1.39-0.61
		c-0.41-0.26-0.78-0.56-1.12-0.9c-0.32-0.34-0.61-0.7-0.88-1.08v6.65h-1.98V11.78h1.98L112.72,14.45L112.72,14.45z M113.04,16.31
		c-0.27,0.63-0.4,1.33-0.4,2.1c0,0.76,0.13,1.47,0.4,2.11c0.26,0.63,0.62,1.18,1.08,1.62c0.45,0.44,0.97,0.79,1.54,1.03
		c0.57,0.25,1.17,0.37,1.78,0.37c0.64,0,1.24-0.11,1.82-0.34c0.56-0.22,1.07-0.56,1.49-1c0.41-0.43,0.75-0.97,1-1.61
		s0.37-1.36,0.37-2.16c0-0.78-0.12-1.49-0.37-2.12s-0.59-1.17-1.02-1.62c-0.42-0.45-0.93-0.8-1.49-1.04
		c-0.56-0.24-1.16-0.35-1.8-0.35c-0.61,0-1.21,0.12-1.78,0.37c-0.57,0.24-1.09,0.59-1.54,1.03
		C113.66,15.14,113.3,15.68,113.04,16.31z M108.37,59.83c0.05-6.63,2.01-12.71,6.27-17.87c5.14-6.23,11.96-9.06,19.9-9.13l5.5-0.02
		l36,0.24c13.22,1.59,22.36,11.81,22.98,25.96c0.03,0.72,0.05,1.43,0.05,2.15v36.11c0.01,6.04-1.21,11.79-4.48,16.92
		c-4.44,6.97-10.78,10.76-18.55,11.61c-0.97,0.1-1.94,0.17-2.91,0.19l-7.18,0.07l-11.75,0.05c-6.64,0-13.28-0.04-19.92-0.1
		c-13.38-0.11-24.17-10-25.56-23.26c-0.24-2.33-0.37-4.67-0.37-7.01l-0.01-32.36C108.34,63.38,108.37,59.83,108.37,59.83z
		 M115.68,42.81c-3.91,4.73-5.91,10.46-5.96,17.03l-0.03,3.55v3.59c0,0.07-0.01,0.13-0.02,0.2v8.3l0.02,20.26
		c0.01,2.29,0.13,4.59,0.37,6.87c1.33,12.67,11.52,21.95,24.23,22.06l19.91,0.1l11.87-0.05l0.54-0.01l6.5-0.07
		c0.93-0.01,1.86-0.07,2.78-0.18c7.53-0.82,13.44-4.51,17.56-10.99c2.88-4.52,4.28-9.82,4.28-16.2V61.16c0-0.68-0.02-1.38-0.05-2.09
		c-0.59-13.45-9.12-23.13-21.73-24.67l-8.54-0.07l-27.37-0.17l-5.49,0.02C126.7,34.24,120.35,37.15,115.68,42.81z M97.94,60.28
		L98,90.48H52.37c-5.94,0-10.77-4.83-10.77-10.76v-8.08h30.83c0.74,0,1.34-0.6,1.34-1.34c0,0,0-0.01,0-0.01v-1.37l-0.01-1.18
		c0-6.18-3.17-9.31-9.4-9.32H40.73c-5.84,0.01-9.06,3.22-9.08,9.05v23.39l0.01,1.21c0.01,5.81,3.24,9.02,9.09,9.02H97.5
		c-0.99,5.7-3.67,10.96-7.66,14.94c-4.54,4.54-10.36,7.1-16.8,7.38c-0.71,0.03-1.41,0.05-2.09,0.05H34.83
		c-6.38,0-11.67-1.4-16.19-4.28c-6.47-4.12-10.17-10.03-10.99-17.56c-0.03-0.26-0.13-0.5-0.29-0.69l-0.02-8.74
		c0.04-0.13,0.05-0.26,0.05-0.39l0.05-31.78c0.11-12.71,9.39-22.9,22.06-24.23c2.28-0.24,4.58-0.36,6.87-0.37l28.56-0.02
		c0.07,0.01,0.13,0.02,0.2,0.02l3.59-0.01l3.55,0.03c6.57,0.05,12.3,2.06,17.03,5.97C94.97,46.08,97.87,52.43,97.94,60.28z
		 M92.89,25.06V11.78h1.97v3.47c0.24-0.55,0.54-1.06,0.9-1.52s0.77-0.86,1.24-1.19c0.46-0.34,0.97-0.59,1.51-0.76
		c0.55-0.17,1.14-0.25,1.77-0.23v2.13h-0.15c-0.72,0-1.4,0.13-2.04,0.39c-0.64,0.25-1.2,0.64-1.68,1.15
		c-0.48,0.52-0.86,1.15-1.13,1.92c-0.28,0.76-0.42,1.64-0.42,2.63v5.29C94.86,25.06,92.89,25.06,92.89,25.06z M71.9,15.89
		c-0.24,0.55-0.39,1.15-0.46,1.8h8.5c-0.05-0.6-0.17-1.17-0.37-1.72c-0.18-0.53-0.46-1.01-0.82-1.44c-0.35-0.41-0.78-0.75-1.27-0.99
		c-0.51-0.25-1.09-0.37-1.75-0.37c-0.58,0-1.12,0.11-1.61,0.34c-0.49,0.23-0.93,0.55-1.3,0.95C72.44,14.87,72.14,15.34,71.9,15.89z
		 M71.38,23.45c-0.6-0.6-1.08-1.34-1.44-2.19c-0.35-0.86-0.53-1.8-0.53-2.83c0-0.96,0.16-1.86,0.47-2.71
		c0.32-0.85,0.76-1.58,1.33-2.21c0.56-0.62,1.23-1.11,2.01-1.47s1.63-0.54,2.56-0.54c0.97,0,1.85,0.18,2.62,0.55
		c0.75,0.35,1.41,0.87,1.95,1.5c0.53,0.64,0.93,1.38,1.21,2.24c0.27,0.85,0.41,1.77,0.41,2.75v0.28c0,0.11-0.01,0.22-0.03,0.33
		h-10.5c0.07,0.72,0.24,1.36,0.51,1.92c0.28,0.55,0.63,1.02,1.05,1.41c0.43,0.38,0.91,0.68,1.44,0.87c0.53,0.2,1.09,0.3,1.67,0.3
		c0.93,0,1.72-0.17,2.38-0.52c0.67-0.35,1.29-0.81,1.81-1.36l1.23,1.11c-0.66,0.75-1.43,1.35-2.28,1.81
		c-0.86,0.45-1.92,0.68-3.19,0.68c-0.91,0-1.76-0.17-2.57-0.5C72.69,24.53,71.98,24.06,71.38,23.45z M68.07,34.05l0.67,0.02
		L68.07,34.05z M53.48,13.53h-1.85v-1.75h1.85V7.77h1.98v4.01h4.21v1.75h-4.21v7.75c0,0.83,0.21,1.4,0.62,1.73
		c0.41,0.32,0.95,0.48,1.61,0.48c0.33,0,0.65-0.03,0.97-0.1c0.3-0.07,0.62-0.19,0.96-0.36v1.7c-0.34,0.18-0.71,0.33-1.09,0.42
		c-0.39,0.09-0.82,0.14-1.3,0.14c-0.53,0-1.03-0.07-1.49-0.2c-0.46-0.14-0.86-0.36-1.19-0.66c-0.34-0.3-0.6-0.69-0.79-1.17
		c-0.18-0.48-0.28-1.05-0.28-1.72C53.48,21.54,53.48,13.53,53.48,13.53z M31.79,15.76c-0.2,0.51-0.3,1.08-0.3,1.7v7.6h-1.98V11.78
		h1.98v2.31c0.45-0.72,1.03-1.33,1.75-1.84c0.72-0.5,1.65-0.75,2.8-0.75c0.8,0,1.52,0.13,2.14,0.38c0.63,0.26,1.16,0.62,1.6,1.09
		c0.43,0.48,0.77,1.04,1,1.69c0.24,0.69,0.36,1.42,0.35,2.15v8.25h-1.98V17.3c0-1.23-0.32-2.21-0.95-2.93
		c-0.64-0.72-1.54-1.07-2.73-1.07c-0.56,0-1.09,0.09-1.58,0.29c-0.48,0.19-0.91,0.48-1.27,0.85C32.25,14.82,31.97,15.27,31.79,15.76
		z"/>
	<path class="st1" d="M16.57,17.69c-0.05-0.6-0.18-1.17-0.37-1.72c-0.18-0.53-0.46-1.01-0.82-1.44c-0.35-0.42-0.79-0.75-1.28-0.99
		c-0.5-0.25-1.08-0.37-1.74-0.37c-0.58,0-1.12,0.11-1.61,0.34c-0.5,0.23-0.93,0.55-1.31,0.95c-0.38,0.42-0.69,0.9-0.91,1.43
		c-0.25,0.57-0.4,1.18-0.46,1.8H16.57z M10.12,24.87c-0.8-0.34-1.51-0.81-2.11-1.42c-0.61-0.6-1.08-1.34-1.44-2.19
		c-0.36-0.86-0.53-1.8-0.53-2.83c0-0.96,0.15-1.86,0.47-2.71s0.76-1.58,1.32-2.21c0.57-0.62,1.24-1.11,2.02-1.47
		s1.63-0.54,2.56-0.54c0.97,0,1.85,0.18,2.62,0.55c0.75,0.35,1.41,0.87,1.95,1.5c0.53,0.64,0.93,1.38,1.21,2.24
		c0.27,0.85,0.41,1.77,0.41,2.75v0.28c0,0.11-0.01,0.22-0.03,0.33H8.07c0.06,0.72,0.24,1.36,0.51,1.92
		c0.27,0.55,0.62,1.02,1.05,1.41c0.43,0.38,0.91,0.68,1.44,0.87c0.53,0.2,1.09,0.3,1.67,0.3c0.93,0,1.72-0.17,2.38-0.52
		c0.67-0.35,1.29-0.81,1.81-1.36l1.23,1.11c-0.67,0.75-1.43,1.35-2.29,1.81c-0.85,0.45-1.91,0.68-3.18,0.68
		C11.78,25.37,10.93,25.2,10.12,24.87z M17.92,120.31c-6.97-4.43-10.76-10.77-11.61-18.54H6.02l-0.03-9.96h0.06l0.05-31.8
		c0.11-13.38,10-24.17,23.26-25.56c2.33-0.24,4.67-0.37,7.01-0.37l13.79-0.03l18.56,0.02l3.56,0.03c6.63,0.05,12.71,2.01,17.88,6.27
		c6.22,5.14,9.06,11.96,9.12,19.9l0.06,31.56H52.37c-6.68-0.02-12.09-5.43-12.11-12.11v-9.43h32.17l-0.01-2.55
		c-0.01-5.4-2.61-7.97-8.06-7.97l-2.42-0.01H50.97l-10.24,0.01c-5.06,0-7.72,2.63-7.73,7.7v24.6c0.02,5.05,2.69,7.67,7.75,7.68
		h58.31c-1.58,13.23-11.8,24.38-25.96,25c-0.72,0.03-1.43,0.05-2.15,0.05H34.84C28.79,124.8,23.05,123.59,17.92,120.31z
		 M7.36,100.93c0.16,0.19,0.26,0.43,0.29,0.69c0.82,7.53,4.52,13.44,10.99,17.56c4.52,2.88,9.81,4.28,16.19,4.28h36.12
		c0.68,0,1.38-0.02,2.09-0.05c6.44-0.28,12.26-2.84,16.8-7.38c3.99-3.98,6.67-9.24,7.66-14.94H40.75c-5.85,0-9.08-3.21-9.09-9.02
		l-0.01-1.21V67.47c0.02-5.83,3.24-9.04,9.08-9.05h23.63c6.23,0.01,9.4,3.14,9.4,9.32l0.01,1.18v1.37c0.01,0.74-0.59,1.34-1.33,1.35
		c0,0-0.01,0-0.01,0H41.6v8.08c0,5.93,4.83,10.76,10.77,10.76H98l-0.06-30.2c-0.07-7.85-2.97-14.2-8.64-18.87
		c-4.73-3.91-10.46-5.92-17.03-5.97l-3.55-0.03l-3.59,0.01c-0.07,0-0.13-0.01-0.2-0.02H50.16l-13.79,0.02
		c-2.29,0.01-4.59,0.13-6.87,0.37C16.83,37.12,7.55,47.31,7.44,60.02L7.39,91.8c0,0.13-0.01,0.26-0.05,0.39
		C7.34,92.19,7.36,100.93,7.36,100.93z"/>
</g>
</svg>
