<svg xmlns="http://www.w3.org/2000/svg" width="254.224" height="141.371" viewBox="0 0 294.224 141.371">
  <g id="Group_274" data-name="Group 274" transform="translate(-81 -33.77)">
    <g id="Group_268" data-name="Group 268" transform="translate(199.768 76.986)">
      <path id="Path_366" data-name="Path 366" d="M418.6,154.533h-18v8.184h15.956v5.044H400.6v8.5h18.227v5.044H395.051V149.489H418.6Z" transform="translate(-395.051 -148.943)" fill="#adadad"/>
      <path id="Path_367" data-name="Path 367" d="M523.734,170.818a15.976,15.976,0,0,1-3.456,5.248,16.534,16.534,0,0,1-5.272,3.568,16.738,16.738,0,0,1-6.726,1.322,17,17,0,0,1-6.728-1.3,15.789,15.789,0,0,1-8.637-8.751,17.105,17.105,0,0,1,0-12.726,15.97,15.97,0,0,1,3.456-5.248,16.523,16.523,0,0,1,5.272-3.568,16.735,16.735,0,0,1,6.726-1.322,17,17,0,0,1,6.729,1.3,15.789,15.789,0,0,1,8.637,8.751,17.11,17.11,0,0,1,0,12.726ZM518.3,160.159a11.187,11.187,0,0,0-2.229-3.612,10.64,10.64,0,0,0-3.431-2.455,11.005,11.005,0,0,0-8.7-.025,10.3,10.3,0,0,0-3.386,2.41,11.071,11.071,0,0,0-2.206,3.593,12.488,12.488,0,0,0,0,8.771,11.127,11.127,0,0,0,2.229,3.612,10.538,10.538,0,0,0,3.431,2.455,11,11,0,0,0,8.7.025,10.306,10.306,0,0,0,3.387-2.41,11.078,11.078,0,0,0,2.206-3.593,12.494,12.494,0,0,0,0-8.771Z" transform="translate(-455.141 -148.044)" fill="#adadad"/>
      <path id="Path_368" data-name="Path 368" d="M618.37,158.7a3.31,3.31,0,0,0,1.163,1.272,9.133,9.133,0,0,0,2.323,1.093q1.479.5,3.759,1.043a36.1,36.1,0,0,1,4.445,1.411,11.157,11.157,0,0,1,3.21,1.883A7.473,7.473,0,0,1,635.208,168a8.46,8.46,0,0,1,.661,3.478,9.384,9.384,0,0,1-.835,4.045,8.566,8.566,0,0,1-2.32,3,10.174,10.174,0,0,1-3.575,1.864,15.576,15.576,0,0,1-4.587.636,20.037,20.037,0,0,1-7.046-1.247,19.228,19.228,0,0,1-6.226-3.842l3.364-4a19.551,19.551,0,0,0,4.681,3.066,12.837,12.837,0,0,0,5.364,1.068,6.939,6.939,0,0,0,4.112-1.088,3.448,3.448,0,0,0,1.523-2.957,3.887,3.887,0,0,0-.3-1.546,3.082,3.082,0,0,0-1.093-1.247,9.192,9.192,0,0,0-2.189-1.068q-1.39-.5-3.623-1.049a37.688,37.688,0,0,1-4.534-1.317,11.354,11.354,0,0,1-3.324-1.819,7.219,7.219,0,0,1-2.052-2.634,9.03,9.03,0,0,1-.706-3.772,8.728,8.728,0,0,1,.81-3.8,8.833,8.833,0,0,1,2.231-2.932,9.934,9.934,0,0,1,3.416-1.888,13.91,13.91,0,0,1,4.36-.656,18.262,18.262,0,0,1,6.3,1.019,18.76,18.76,0,0,1,5.25,2.982l-3,4.224a19.606,19.606,0,0,0-4.318-2.43,11.684,11.684,0,0,0-4.318-.84,5.856,5.856,0,0,0-3.816,1.113,3.376,3.376,0,0,0-1.364,2.7A3.808,3.808,0,0,0,618.37,158.7Z" transform="translate(-529.506 -148.199)" fill="#adadad"/>
      <path id="Path_369" data-name="Path 369" d="M719.942,149.489v31.818H714.4V149.489Z" transform="translate(-593.628 -148.943)" fill="#adadad"/>
      <path id="Path_370" data-name="Path 370" d="M799.806,170.818a15.971,15.971,0,0,1-3.456,5.248,16.531,16.531,0,0,1-5.272,3.568,16.735,16.735,0,0,1-6.726,1.322,17.005,17.005,0,0,1-6.729-1.3,15.789,15.789,0,0,1-8.636-8.751,17.11,17.11,0,0,1,0-12.726,15.977,15.977,0,0,1,3.456-5.248,16.528,16.528,0,0,1,5.272-3.568,16.738,16.738,0,0,1,6.726-1.322,17,17,0,0,1,6.728,1.3,15.789,15.789,0,0,1,8.637,8.751,17.106,17.106,0,0,1,0,12.726Zm-5.431-10.659a11.181,11.181,0,0,0-2.229-3.612,10.636,10.636,0,0,0-3.431-2.455,11,11,0,0,0-8.7-.025,10.306,10.306,0,0,0-3.387,2.41,11.077,11.077,0,0,0-2.206,3.593,12.493,12.493,0,0,0,0,8.771,11.134,11.134,0,0,0,2.229,3.612,10.539,10.539,0,0,0,3.431,2.455,11.005,11.005,0,0,0,8.7.025,10.3,10.3,0,0,0,3.386-2.41,11.071,11.071,0,0,0,2.206-3.593,12.488,12.488,0,0,0,0-8.771Z" transform="translate(-626.809 -148.044)" fill="#adadad"/>
    </g>
    <g id="Group_269" data-name="Group 269" transform="translate(89.92 33.77)">
      <path id="Path_371" data-name="Path 371" d="M177.309,80.177l-3.448-4.726.079,3.48-.079-3.48L143.452,33.77l-33.83,46.138-5.036,21.362h8.564l3.713-18.116,26.573-36.241L170.06,83.406l4.02,17.864h7.93Z" transform="translate(-104.587 -33.77)"/>
    </g>
    <g id="Group_270" data-name="Group 270" transform="translate(87.759 91.847)">
      <path id="Path_372" data-name="Path 372" d="M139,223.431l-5.84-23.363-6.875,19.48-6.2-14.459-2.3,2.686-18.909-.02.888-3.67,16.335.018,5.04-5.878,4.814,11.233,7.807-22.118,6.395,25.576,5.1-10.2,5.932,6.576,7.748-21.478,3.721,16.273H180.56l.577,3.917-21.41-.247-1.584-6.935-5.581,15.473-6.432-7.128Z" transform="translate(-98.873 -187.339)" fill="#adadad"/>
    </g>
    <g id="Group_271" data-name="Group 271" transform="translate(81 119.384)">
      <path id="Path_373" data-name="Path 373" d="M163.327,260.391l4.558,22.316L128,306.755,89.7,281.838l4.685-21.685H86.452L81,285.434l46.843,30.476L176.615,286.5l-5.365-26.113Z" transform="translate(-81 -260.153)"/>
    </g>
    <g id="Group_272" data-name="Group 272" transform="translate(199.383 113.597)">
      <path id="Path_374" data-name="Path 374" d="M410.249,258.49a8.558,8.558,0,0,1-2.007,2.912,9.5,9.5,0,0,1-3.1,1.941,10.679,10.679,0,0,1-3.949.708h-7.163V245.686H401.2a10.857,10.857,0,0,1,3.949.7,9.328,9.328,0,0,1,3.1,1.928,8.59,8.59,0,0,1,2.007,2.9,9.13,9.13,0,0,1,.708,3.607v.053A9.223,9.223,0,0,1,410.249,258.49Zm-3.516-3.621a5.989,5.989,0,0,0-.407-2.23,5.247,5.247,0,0,0-1.128-1.757,5.013,5.013,0,0,0-1.745-1.142,6.065,6.065,0,0,0-2.256-.406h-3.122v11.072H401.2a6.236,6.236,0,0,0,2.256-.394,4.849,4.849,0,0,0,1.745-1.128,5.3,5.3,0,0,0,1.128-1.732,5.852,5.852,0,0,0,.407-2.23Z" transform="translate(-394.034 -245.371)"/>
      <path id="Path_375" data-name="Path 375" d="M459.369,263.836l-1.679-4.119h-7.766l-1.68,4.119h-4.119l7.871-18.5h3.726l7.871,18.5Zm-5.563-13.643-2.44,5.956h4.88Z" transform="translate(-425.182 -245.155)"/>
      <path id="Path_376" data-name="Path 376" d="M513.849,260.616a4.981,4.981,0,0,1-1.382,1.784,6.228,6.228,0,0,1-2.116,1.1,9.191,9.191,0,0,1-2.724.38,12.169,12.169,0,0,1-4.119-.722,10.9,10.9,0,0,1-3.673-2.217l2.387-2.86a11.985,11.985,0,0,0,2.584,1.627,6.909,6.909,0,0,0,2.9.6,3.53,3.53,0,0,0,1.955-.459,1.445,1.445,0,0,0,.7-1.273v-.052a1.586,1.586,0,0,0-.145-.7,1.466,1.466,0,0,0-.553-.564,5.831,5.831,0,0,0-1.131-.524q-.724-.262-1.881-.551a22.87,22.87,0,0,1-2.526-.76,7.114,7.114,0,0,1-1.92-1.037,4.184,4.184,0,0,1-1.223-1.535,5.328,5.328,0,0,1-.434-2.283v-.052a5.325,5.325,0,0,1,.469-2.269,5.169,5.169,0,0,1,1.316-1.745,5.915,5.915,0,0,1,2.023-1.128,8.123,8.123,0,0,1,2.593-.394,10.991,10.991,0,0,1,3.713.6,10.783,10.783,0,0,1,3.109,1.732l-2.1,3.044a13.322,13.322,0,0,0-2.414-1.325,6.175,6.175,0,0,0-2.361-.486,2.859,2.859,0,0,0-1.771.459,1.4,1.4,0,0,0-.59,1.141v.053a1.647,1.647,0,0,0,.171.774,1.545,1.545,0,0,0,.618.591,5.829,5.829,0,0,0,1.223.5q.776.237,1.96.551a18.949,18.949,0,0,1,2.486.827,6.96,6.96,0,0,1,1.841,1.1,4.206,4.206,0,0,1,1.131,1.509,5.13,5.13,0,0,1,.382,2.073v.053A5.682,5.682,0,0,1,513.849,260.616Z" transform="translate(-459.823 -244.939)"/>
      <path id="Path_377" data-name="Path 377" d="M558.99,264.052v-7.373h-7.451v7.373H547.5V245.686h4.04v7.268h7.451v-7.268h4.04v18.366Z" transform="translate(-489.461 -245.371)"/>
      <path id="Path_378" data-name="Path 378" d="M615.324,261.218a4.273,4.273,0,0,1-1.388,1.574,6.5,6.5,0,0,1-2.174.945,11.727,11.727,0,0,1-2.816.315h-8.722V245.686h8.512a6.937,6.937,0,0,1,4.439,1.285,4.2,4.2,0,0,1,1.611,3.463v.053a4.513,4.513,0,0,1-.2,1.391,4.282,4.282,0,0,1-.522,1.088,4.12,4.12,0,0,1-.756.853,5.048,5.048,0,0,1-.925.63,6.2,6.2,0,0,1,2.508,1.64,4.2,4.2,0,0,1,.914,2.873v.052A4.765,4.765,0,0,1,615.324,261.218Zm-4.527-10.1a1.616,1.616,0,0,0-.682-1.4,3.371,3.371,0,0,0-1.968-.486H604.16v3.883h3.725a4.209,4.209,0,0,0,2.125-.459,1.586,1.586,0,0,0,.787-1.482Zm1.023,7.347a1.733,1.733,0,0,0-.708-1.456,3.814,3.814,0,0,0-2.283-.537h-4.67v4.04h4.8a3.879,3.879,0,0,0,2.1-.486,1.662,1.662,0,0,0,.761-1.509Z" transform="translate(-522.247 -245.371)"/>
      <path id="Path_379" data-name="Path 379" d="M666.949,258.037a9.394,9.394,0,0,1-5.129,5.064,10.629,10.629,0,0,1-7.832,0,9.7,9.7,0,0,1-3.083-2.02,9.018,9.018,0,0,1-2.02-2.991,9.415,9.415,0,0,1-.722-3.686v-.053a9.274,9.274,0,0,1,.735-3.687,9.395,9.395,0,0,1,5.129-5.064,10.628,10.628,0,0,1,7.832,0,9.735,9.735,0,0,1,3.083,2.02,9.056,9.056,0,0,1,2.02,2.991,9.425,9.425,0,0,1,.722,3.686v.053A9.276,9.276,0,0,1,666.949,258.037Zm-3.489-3.686a6.13,6.13,0,0,0-.407-2.23,5.51,5.51,0,0,0-2.926-3.083,5.388,5.388,0,0,0-2.23-.459,5.5,5.5,0,0,0-2.243.446,5.131,5.131,0,0,0-1.731,1.233,5.8,5.8,0,0,0-1.129,1.824,6.007,6.007,0,0,0-.407,2.217v.053a6.108,6.108,0,0,0,.407,2.23,5.538,5.538,0,0,0,2.912,3.083,5.368,5.368,0,0,0,2.244.459,5.515,5.515,0,0,0,2.23-.447,5.093,5.093,0,0,0,1.745-1.232,5.827,5.827,0,0,0,1.129-1.824,6.022,6.022,0,0,0,.407-2.217Z" transform="translate(-552.056 -244.853)"/>
      <path id="Path_380" data-name="Path 380" d="M720.365,263.836l-1.679-4.119h-7.766l-1.679,4.119h-4.12l7.871-18.5h3.725l7.871,18.5ZM714.8,250.192l-2.44,5.956h4.88Z" transform="translate(-587.474 -245.155)"/>
      <path id="Path_381" data-name="Path 381" d="M775.243,264.052l-3.935-5.877h-3.175v5.877h-4.04V245.686h8.4a7.482,7.482,0,0,1,5.1,1.6,5.623,5.623,0,0,1,1.823,4.46v.053a5.76,5.76,0,0,1-1.089,3.634,6.3,6.3,0,0,1-2.847,2.06l4.486,6.559Zm.079-12.1a2.344,2.344,0,0,0-.84-1.968,3.71,3.71,0,0,0-2.335-.656h-4.014v5.273h4.093a3.36,3.36,0,0,0,2.3-.708,2.4,2.4,0,0,0,.8-1.889Z" transform="translate(-624.143 -245.371)"/>
      <path id="Path_382" data-name="Path 382" d="M830.466,258.49a8.558,8.558,0,0,1-2.007,2.912,9.505,9.505,0,0,1-3.1,1.941,10.679,10.679,0,0,1-3.949.708h-7.163V245.686h7.163a10.858,10.858,0,0,1,3.949.7,9.333,9.333,0,0,1,3.1,1.928,8.59,8.59,0,0,1,2.007,2.9,9.123,9.123,0,0,1,.708,3.607v.053A9.217,9.217,0,0,1,830.466,258.49Zm-3.516-3.621a5.99,5.99,0,0,0-.407-2.23,5.246,5.246,0,0,0-1.128-1.757,5.009,5.009,0,0,0-1.745-1.142,6.065,6.065,0,0,0-2.257-.406h-3.122v11.072h3.122a6.235,6.235,0,0,0,2.257-.394,4.845,4.845,0,0,0,1.745-1.128,5.3,5.3,0,0,0,1.128-1.732,5.853,5.853,0,0,0,.407-2.23Z" transform="translate(-655.333 -245.371)"/>
    </g>
    <g id="Group_273" data-name="Group 273" transform="translate(256.668 137.867)">
      <path id="Path_383" data-name="Path 383" d="M549.935,312.588a1.823,1.823,0,0,1-.512.639,2.281,2.281,0,0,1-.76.387,3.2,3.2,0,0,1-.93.132h-1.186v1.916h-1.039V309.7h2.35a2.961,2.961,0,0,1,.941.14,2.009,2.009,0,0,1,.715.4,1.784,1.784,0,0,1,.451.63,2.076,2.076,0,0,1,.157.826A1.988,1.988,0,0,1,549.935,312.588Zm-1.227-1.672a1.5,1.5,0,0,0-.94-.269h-1.221V312.8h1.221a1.4,1.4,0,0,0,.944-.295.976.976,0,0,0,.346-.782A.956.956,0,0,0,548.708,310.916Z" transform="translate(-545.508 -309.447)"/>
      <path id="Path_384" data-name="Path 384" d="M564.075,316.578a2.336,2.336,0,0,1-1.264,1.251,2.556,2.556,0,0,1-1.911,0,2.339,2.339,0,0,1-1.252-3.064,2.341,2.341,0,0,1,.5-.749,2.376,2.376,0,0,1,.758-.507,2.414,2.414,0,0,1,.958-.187,2.452,2.452,0,0,1,.958.183,2.309,2.309,0,0,1,1.434,2.158A2.289,2.289,0,0,1,564.075,316.578Zm-.957-1.456a1.466,1.466,0,0,0-.283-.464,1.334,1.334,0,0,0-.432-.315,1.332,1.332,0,0,0-1.536.311,1.34,1.34,0,0,0-.27.455,1.634,1.634,0,0,0-.093.557,1.583,1.583,0,0,0,.1.566,1.4,1.4,0,0,0,.283.464,1.362,1.362,0,0,0,.432.311,1.294,1.294,0,0,0,.546.115,1.334,1.334,0,0,0,.562-.115,1.312,1.312,0,0,0,.427-.311,1.348,1.348,0,0,0,.271-.455,1.651,1.651,0,0,0,.093-.558A1.554,1.554,0,0,0,563.118,315.122Z" transform="translate(-554.187 -311.7)"/>
      <path id="Path_385" data-name="Path 385" d="M578.19,316.628l.919-3.082h1.03l-1.473,4.529h-.919l-1-3.073-1.013,3.073h-.919l-1.456-4.529h1.056l.9,3.082,1-3.1h.877Z" transform="translate(-562.824 -311.826)"/>
      <path id="Path_386" data-name="Path 386" d="M593.985,316.88a1.277,1.277,0,0,0,.851.294,1.508,1.508,0,0,0,.664-.136,2.159,2.159,0,0,0,.553-.4l.6.536a2.489,2.489,0,0,1-.77.613,2.311,2.311,0,0,1-1.068.23,2.4,2.4,0,0,1-.907-.171,2.172,2.172,0,0,1-1.221-1.213,2.471,2.471,0,0,1-.179-.957,2.539,2.539,0,0,1,.162-.911,2.288,2.288,0,0,1,.455-.745,2.2,2.2,0,0,1,.694-.507,2.063,2.063,0,0,1,.885-.187,2.137,2.137,0,0,1,.941.2,1.942,1.942,0,0,1,.672.528,2.281,2.281,0,0,1,.4.775,3.137,3.137,0,0,1,.136.928c0,.045,0,.091,0,.136s-.007.094-.013.145h-3.3A1.356,1.356,0,0,0,593.985,316.88Zm1.856-1.528a1.762,1.762,0,0,0-.111-.464,1.188,1.188,0,0,0-.23-.374,1.1,1.1,0,0,0-.345-.251,1.063,1.063,0,0,0-.455-.094,1.04,1.04,0,0,0-.788.328,1.478,1.478,0,0,0-.379.856Z" transform="translate(-574.736 -311.7)"/>
      <path id="Path_387" data-name="Path 387" d="M607.8,317.925h-1.039v-4.5H607.8v1.014a1.972,1.972,0,0,1,.6-.818,1.448,1.448,0,0,1,.987-.281v1.09h-.059a1.682,1.682,0,0,0-.622.11,1.3,1.3,0,0,0-.485.332,1.506,1.506,0,0,0-.315.558,2.5,2.5,0,0,0-.11.779Z" transform="translate(-583.596 -311.711)"/>
      <path id="Path_388" data-name="Path 388" d="M616.474,316.88a1.277,1.277,0,0,0,.851.294,1.507,1.507,0,0,0,.664-.136,2.151,2.151,0,0,0,.553-.4l.6.536a2.49,2.49,0,0,1-.77.613,2.312,2.312,0,0,1-1.069.23,2.4,2.4,0,0,1-.906-.171,2.174,2.174,0,0,1-1.222-1.213,2.47,2.47,0,0,1-.179-.957,2.547,2.547,0,0,1,.161-.911,2.283,2.283,0,0,1,.456-.745,2.2,2.2,0,0,1,.694-.507,2.06,2.06,0,0,1,.885-.187,2.136,2.136,0,0,1,.941.2,1.939,1.939,0,0,1,.672.528,2.288,2.288,0,0,1,.4.775,3.149,3.149,0,0,1,.136.928c0,.045,0,.091,0,.136s-.007.094-.013.145h-3.3A1.355,1.355,0,0,0,616.474,316.88Zm1.856-1.528a1.762,1.762,0,0,0-.111-.464,1.189,1.189,0,0,0-.23-.374,1.087,1.087,0,0,0-.345-.251,1.061,1.061,0,0,0-.455-.094,1.04,1.04,0,0,0-.787.328,1.481,1.481,0,0,0-.379.856Z" transform="translate(-588.72 -311.7)"/>
      <path id="Path_389" data-name="Path 389" d="M632.252,315.242v-.749a2.346,2.346,0,0,1-.617.6,1.606,1.606,0,0,1-.912.247,2.013,2.013,0,0,1-.773-.153,1.913,1.913,0,0,1-.663-.456,2.324,2.324,0,0,1-.467-.737,2.6,2.6,0,0,1-.179-1,2.662,2.662,0,0,1,.174-1,2.274,2.274,0,0,1,.462-.736,1.906,1.906,0,0,1,.667-.456,2.054,2.054,0,0,1,.778-.153,1.651,1.651,0,0,1,.917.238,2.543,2.543,0,0,1,.612.553v-2.417h1.038v6.215Zm-.09-2.844a1.455,1.455,0,0,0-.285-.455,1.214,1.214,0,0,0-.415-.293,1.227,1.227,0,0,0-.492-.1,1.27,1.27,0,0,0-.5.1,1.208,1.208,0,0,0-.411.285,1.332,1.332,0,0,0-.28.455,1.7,1.7,0,0,0-.1.608,1.676,1.676,0,0,0,.1.6,1.332,1.332,0,0,0,.28.455,1.258,1.258,0,0,0,.411.289,1.243,1.243,0,0,0,1.4-.293,1.454,1.454,0,0,0,.285-.456,1.724,1.724,0,0,0,0-1.192Z" transform="translate(-597.202 -309.027)"/>
      <path id="Path_390" data-name="Path 390" d="M655.559,313.99a2.238,2.238,0,0,1-.469.737,1.946,1.946,0,0,1-.672.456,2.058,2.058,0,0,1-.779.153,1.653,1.653,0,0,1-.92-.239,2.361,2.361,0,0,1-.6-.553l.008.7h-1.038v-6.215h1.038V311.5a2.247,2.247,0,0,1,.612-.6,1.6,1.6,0,0,1,.909-.243,2.018,2.018,0,0,1,.773.153,1.959,1.959,0,0,1,.667.456,2.292,2.292,0,0,1,.471.736,2.6,2.6,0,0,1,.179,1A2.652,2.652,0,0,1,655.559,313.99Zm-.966-1.6a1.382,1.382,0,0,0-.277-.456,1.233,1.233,0,0,0-.906-.392,1.254,1.254,0,0,0-.5.1,1.217,1.217,0,0,0-.417.293,1.45,1.45,0,0,0-.286.455,1.724,1.724,0,0,0,0,1.192,1.449,1.449,0,0,0,.286.456,1.223,1.223,0,0,0,.417.293,1.253,1.253,0,0,0,.5.1,1.229,1.229,0,0,0,.906-.392,1.38,1.38,0,0,0,.277-.455,1.815,1.815,0,0,0,0-1.2Z" transform="translate(-611.158 -309.027)"/>
      <path id="Path_391" data-name="Path 391" d="M667.307,318.2a3.829,3.829,0,0,1-.281.588,1.561,1.561,0,0,1-.324.387,1.158,1.158,0,0,1-.392.217,1.591,1.591,0,0,1-.485.068,2.06,2.06,0,0,1-.575-.073,2.513,2.513,0,0,1-.489-.2l.349-.771a1.761,1.761,0,0,0,.293.123,1.038,1.038,0,0,0,.311.047.591.591,0,0,0,.366-.11,1.028,1.028,0,0,0,.272-.408l-1.873-4.488h1.1l1.277,3.337,1.166-3.337h1.073Z" transform="translate(-619.488 -311.854)"/>
      <path id="Path_392" data-name="Path 392" d="M690.5,310.647H687.13v1.532h2.988v.945H687.13v1.592h3.413v.945h-4.452V309.7h4.41Z" transform="translate(-632.925 -309.447)" fill="#adadad"/>
      <path id="Path_393" data-name="Path 393" d="M706.477,313.7a2.994,2.994,0,0,1-.647.984,3.107,3.107,0,0,1-2.247.915,3.192,3.192,0,0,1-1.26-.243,2.958,2.958,0,0,1-1.617-1.639,3.2,3.2,0,0,1,0-2.384,2.989,2.989,0,0,1,.647-.983,3.107,3.107,0,0,1,2.247-.915,3.19,3.19,0,0,1,1.26.242,2.959,2.959,0,0,1,1.618,1.639,3.207,3.207,0,0,1,0,2.383Zm-1.017-2a2.1,2.1,0,0,0-.418-.677,2,2,0,0,0-.642-.46,2.061,2.061,0,0,0-1.63,0,1.93,1.93,0,0,0-.635.451,2.086,2.086,0,0,0-.413.672,2.341,2.341,0,0,0,0,1.644,2.084,2.084,0,0,0,.417.677,1.982,1.982,0,0,0,.643.46,1.984,1.984,0,0,0,2.265-.447,2.091,2.091,0,0,0,.413-.673,2.345,2.345,0,0,0,0-1.643Z" transform="translate(-641.87 -309.279)" fill="#adadad"/>
      <path id="Path_394" data-name="Path 394" d="M720.487,311.426a.622.622,0,0,0,.218.239,1.731,1.731,0,0,0,.435.2q.278.094.7.2a6.774,6.774,0,0,1,.832.264,2.093,2.093,0,0,1,.6.354,1.4,1.4,0,0,1,.363.485,1.586,1.586,0,0,1,.124.651,1.763,1.763,0,0,1-.156.758,1.616,1.616,0,0,1-.435.562,1.919,1.919,0,0,1-.67.349,2.95,2.95,0,0,1-.859.119,3.76,3.76,0,0,1-1.319-.234,3.6,3.6,0,0,1-1.167-.72l.63-.749a3.665,3.665,0,0,0,.877.575,2.414,2.414,0,0,0,1,.2,1.3,1.3,0,0,0,.771-.2.646.646,0,0,0,.285-.554.709.709,0,0,0-.056-.289.571.571,0,0,0-.2-.234,1.721,1.721,0,0,0-.41-.2,6.974,6.974,0,0,0-.678-.2,7.072,7.072,0,0,1-.849-.247,2.158,2.158,0,0,1-.623-.34,1.359,1.359,0,0,1-.384-.494,1.7,1.7,0,0,1-.132-.706,1.627,1.627,0,0,1,.152-.711,1.662,1.662,0,0,1,.418-.549,1.844,1.844,0,0,1,.64-.354,2.6,2.6,0,0,1,.816-.123,3.421,3.421,0,0,1,1.18.191,3.509,3.509,0,0,1,.983.558l-.562.792a3.694,3.694,0,0,0-.809-.456,2.208,2.208,0,0,0-.809-.157,1.1,1.1,0,0,0-.715.208.634.634,0,0,0-.255.507A.717.717,0,0,0,720.487,311.426Z" transform="translate(-653.488 -309.307)" fill="#adadad"/>
      <path id="Path_395" data-name="Path 395" d="M745.624,314.978a3.2,3.2,0,0,1-.54.332,2.722,2.722,0,0,1-.635.213,3.732,3.732,0,0,1-.762.072,3.03,3.03,0,0,1-1.209-.238,2.967,2.967,0,0,1-.958-.652,3,3,0,0,1-.634-.975,3.3,3.3,0,0,1,0-2.409,2.968,2.968,0,0,1,1.6-1.647,3.108,3.108,0,0,1,1.243-.242,3.736,3.736,0,0,1,.745.068,2.985,2.985,0,0,1,.617.192,2.842,2.842,0,0,1,.519.293,4.123,4.123,0,0,1,.451.374l-.672.775a3.362,3.362,0,0,0-.758-.537,1.976,1.976,0,0,0-.911-.2,1.866,1.866,0,0,0-.787.166,1.944,1.944,0,0,0-.626.451,2.026,2.026,0,0,0-.408.669,2.31,2.31,0,0,0-.145.826,2.344,2.344,0,0,0,.145.83,2.064,2.064,0,0,0,.408.677,1.923,1.923,0,0,0,.626.456,1.866,1.866,0,0,0,.787.166,1.971,1.971,0,0,0,.937-.208,3.724,3.724,0,0,0,.775-.566l.672.681A3.851,3.851,0,0,1,745.624,314.978Z" transform="translate(-666.855 -309.279)" fill="#adadad"/>
      <path id="Path_396" data-name="Path 396" d="M761.385,316.578a2.339,2.339,0,0,1-1.264,1.251,2.557,2.557,0,0,1-1.911,0,2.339,2.339,0,0,1-1.252-3.064,2.334,2.334,0,0,1,.5-.749,2.375,2.375,0,0,1,.757-.507,2.413,2.413,0,0,1,.958-.187,2.453,2.453,0,0,1,.958.183,2.31,2.31,0,0,1,1.434,2.158A2.293,2.293,0,0,1,761.385,316.578Zm-.958-1.456a1.466,1.466,0,0,0-.283-.464,1.334,1.334,0,0,0-.431-.315,1.331,1.331,0,0,0-1.536.311,1.341,1.341,0,0,0-.27.455,1.641,1.641,0,0,0-.093.557,1.583,1.583,0,0,0,.1.566,1.4,1.4,0,0,0,.283.464,1.358,1.358,0,0,0,.432.311,1.294,1.294,0,0,0,.546.115,1.333,1.333,0,0,0,.562-.115,1.312,1.312,0,0,0,.427-.311,1.34,1.34,0,0,0,.27-.455,1.634,1.634,0,0,0,.093-.558A1.554,1.554,0,0,0,760.428,315.122Z" transform="translate(-676.878 -311.7)" fill="#adadad"/>
      <path id="Path_397" data-name="Path 397" d="M774.7,317.236a1.22,1.22,0,0,1-.354.439,1.582,1.582,0,0,1-.532.264,2.332,2.332,0,0,1-.656.089,3.025,3.025,0,0,1-.983-.17,3.164,3.164,0,0,1-.924-.5l.46-.7a2.98,2.98,0,0,0,.745.413,2.1,2.1,0,0,0,.728.14.871.871,0,0,0,.515-.132.414.414,0,0,0,.183-.354v-.017a.329.329,0,0,0-.081-.222.741.741,0,0,0-.221-.166,1.912,1.912,0,0,0-.324-.128l-.379-.115q-.247-.077-.5-.17a1.8,1.8,0,0,1-.451-.243,1.232,1.232,0,0,1-.328-.366,1.056,1.056,0,0,1-.127-.54v-.017a1.3,1.3,0,0,1,.123-.57,1.284,1.284,0,0,1,.341-.434,1.519,1.519,0,0,1,.511-.272,2.05,2.05,0,0,1,.626-.094,2.86,2.86,0,0,1,.86.136,3.084,3.084,0,0,1,.792.375l-.408.732a3.41,3.41,0,0,0-.656-.311,1.877,1.877,0,0,0-.613-.115.747.747,0,0,0-.464.128.393.393,0,0,0-.166.323v.017a.294.294,0,0,0,.085.208.85.85,0,0,0,.226.161,2.453,2.453,0,0,0,.324.136q.183.064.379.124.247.077.494.179a2.045,2.045,0,0,1,.447.251,1.249,1.249,0,0,1,.328.362,1,1,0,0,1,.127.519v.017A1.417,1.417,0,0,1,774.7,317.236Z" transform="translate(-685.878 -311.728)" fill="#adadad"/>
      <path id="Path_398" data-name="Path 398" d="M783.912,314.632a.559.559,0,0,0,.145.432.581.581,0,0,0,.408.132,1.41,1.41,0,0,0,.638-.153v.843a1.812,1.812,0,0,1-.417.17,1.991,1.991,0,0,1-.511.059,1.911,1.911,0,0,1-.522-.068,1.073,1.073,0,0,1-.416-.222.979.979,0,0,1-.27-.405,1.8,1.8,0,0,1-.095-.627V312.42h-.57v-.877h.57v-1.234h1.039v1.234h1.209v.877h-1.209Z" transform="translate(-692.752 -309.824)" fill="#adadad"/>
      <path id="Path_399" data-name="Path 399" d="M794.724,317.957V317.4a1.924,1.924,0,0,1-.588.459,1.856,1.856,0,0,1-.868.188,2.077,2.077,0,0,1-.613-.09,1.513,1.513,0,0,1-.506-.264,1.281,1.281,0,0,1-.481-1.034v-.017a1.413,1.413,0,0,1,.136-.639,1.244,1.244,0,0,1,.379-.451,1.707,1.707,0,0,1,.579-.268,2.836,2.836,0,0,1,.728-.089,4.059,4.059,0,0,1,.694.051,4.258,4.258,0,0,1,.549.136v-.11a.9.9,0,0,0-.285-.716,1.22,1.22,0,0,0-.821-.247,2.727,2.727,0,0,0-.681.077,4.417,4.417,0,0,0-.6.2l-.281-.826a4.783,4.783,0,0,1,.767-.272,3.786,3.786,0,0,1,.945-.1,2,2,0,0,1,1.49.5,1.924,1.924,0,0,1,.485,1.4v2.665Zm.026-1.907a2.62,2.62,0,0,0-.464-.127,3,3,0,0,0-.566-.051,1.329,1.329,0,0,0-.758.187.613.613,0,0,0-.272.537v.017a.56.56,0,0,0,.252.494,1.076,1.076,0,0,0,.617.17,1.566,1.566,0,0,0,.472-.068,1.221,1.221,0,0,0,.379-.192.873.873,0,0,0,.251-.3.838.838,0,0,0,.09-.387Z" transform="translate(-698.575 -311.742)" fill="#adadad"/>
      <path id="Path_400" data-name="Path 400" d="M816.582,315.661l-1.468-2.077H813.8v2.077H812.76V309.7h2.656a3.032,3.032,0,0,1,.923.132,1.99,1.99,0,0,1,.7.375,1.607,1.607,0,0,1,.439.6,2.122,2.122,0,0,1,.047,1.456,1.728,1.728,0,0,1-.293.519,1.764,1.764,0,0,1-.447.383,2.209,2.209,0,0,1-.575.242l1.609,2.256Zm-.341-4.762a1.46,1.46,0,0,0-.914-.252H813.8v2.009h1.537a1.371,1.371,0,0,0,.9-.273.9.9,0,0,0,.333-.736A.891.891,0,0,0,816.241,310.9Z" transform="translate(-711.691 -309.447)" fill="#adadad"/>
      <path id="Path_401" data-name="Path 401" d="M828.766,310.141v-.979h1.115v.979Zm.042,5.185v-4.5h1.039v4.5Z" transform="translate(-721.643 -309.111)" fill="#adadad"/>
      <path id="Path_402" data-name="Path 402" d="M837.919,317.782a2.226,2.226,0,0,1-1.081.234,2.318,2.318,0,0,1-.928-.183,2.279,2.279,0,0,1-.739-.5,2.321,2.321,0,0,1-.665-1.647,2.366,2.366,0,0,1,.665-1.66,2.31,2.31,0,0,1,1.676-.7,2.338,2.338,0,0,1,1.06.213,2.5,2.5,0,0,1,.736.562l-.638.689a2.406,2.406,0,0,0-.507-.4,1.282,1.282,0,0,0-.66-.157,1.185,1.185,0,0,0-.52.115,1.268,1.268,0,0,0-.408.311,1.491,1.491,0,0,0-.268.455,1.574,1.574,0,0,0-.1.557,1.634,1.634,0,0,0,.1.571,1.394,1.394,0,0,0,.276.459,1.337,1.337,0,0,0,.426.311,1.372,1.372,0,0,0,1.188-.042,2.5,2.5,0,0,0,.524-.4l.621.613A2.828,2.828,0,0,1,837.919,317.782Z" transform="translate(-725.212 -311.7)" fill="#adadad"/>
      <path id="Path_403" data-name="Path 403" d="M850.258,317.957V317.4a1.922,1.922,0,0,1-.588.459,1.855,1.855,0,0,1-.868.188,2.077,2.077,0,0,1-.613-.09,1.511,1.511,0,0,1-.506-.264,1.281,1.281,0,0,1-.481-1.034v-.017a1.414,1.414,0,0,1,.136-.639,1.246,1.246,0,0,1,.379-.451,1.7,1.7,0,0,1,.579-.268,2.835,2.835,0,0,1,.728-.089,4.058,4.058,0,0,1,.694.051,4.256,4.256,0,0,1,.549.136v-.11a.9.9,0,0,0-.285-.716,1.22,1.22,0,0,0-.821-.247,2.727,2.727,0,0,0-.681.077,4.435,4.435,0,0,0-.6.2l-.281-.826a4.784,4.784,0,0,1,.767-.272,3.787,3.787,0,0,1,.945-.1,2,2,0,0,1,1.49.5,1.924,1.924,0,0,1,.485,1.4v2.665Zm.026-1.907a2.621,2.621,0,0,0-.464-.127,3,3,0,0,0-.566-.051,1.327,1.327,0,0,0-.758.187.612.612,0,0,0-.273.537v.017a.56.56,0,0,0,.252.494,1.076,1.076,0,0,0,.617.17,1.565,1.565,0,0,0,.472-.068,1.222,1.222,0,0,0,.379-.192.875.875,0,0,0,.251-.3.84.84,0,0,0,.09-.387Z" transform="translate(-733.107 -311.742)" fill="#adadad"/>
    </g>
  </g>
</svg>
