<?xml version="1.0" encoding="utf-8"?>
<!-- Generator: Adobe Illustrator 25.0.1, SVG Export Plug-In . SVG Version: 6.00 Build 0)  -->
<svg version="1.1" id="Capa_1" xmlns="http://www.w3.org/2000/svg" xmlns:xlink="http://www.w3.org/1999/xlink" x="0px" y="0px"
	 width="430" height="196.81"
	 viewBox="0 60 460 460" style="enable-background:new 0 0 460 460;" xml:space="preserve">
<style type="text/css">
	.st0{fill:#606060;}
	.st1{fill-rule:evenodd;clip-rule:evenodd;fill:#606060;}
	.st2{fill-rule:evenodd;clip-rule:evenodd;fill:#848484;}
	.st3{fill-rule:evenodd;clip-rule:evenodd;fill:#434444;}
	.st4{fill:#434444;}
	.st5{fill:#848484;}
	.st6{fill:#888988;}
</style>
<g transform="matrix(1,0,0,1,269.526,92.6574)">
	<path class="st0" d="M8.8,211.8c-11.4,5.8-24.5,8.8-39.4,8.8c-23.3,0-43-8.1-59.1-24.2c-15.9-16.3-23.9-36.7-23.9-61.2
		s8-44.9,23.9-61.2c16.1-16.1,35.8-24.2,59.1-24.2c9.3,0,18.2,1.4,26.6,4.1c0,0,5.5,0.4,19.4,7.4c10,5,19.6,12.9,19.6,12.9l9.9-9.4
		L57.4,56c-0.6,0.3-3.2-1.9-8.1-5.6C45.9,47.9,38,43.1,32,39.8c-10.4-5.6-17.9-7.9-18.1-8C0,26.2-14.9,23.4-30.6,23.4
		c-31.1,0-57.3,10.8-78.9,32.3s-32.3,48-32.3,79.5s10.8,58,32.3,79.5S-61.7,247-30.6,247c23.5,0,43.6-5.5,60.5-16.6
		c-6.5-4.2-12.5-9.2-18-15.1C10.8,214.1,9.8,212.9,8.8,211.8"/>
</g>
<g transform="matrix(-1,0,0,1,504.288,-70.368)">
	<polygon class="st1" points="263.7,281.4 289.4,281.4 289.4,281.4 	"/>
</g>
<g transform="matrix(-1,0,0,1,504.288,-22.502)">
	<polygon class="st2" points="263.7,303.1 289.4,303.1 289.4,303.1 	"/>
</g>
<g transform="matrix(-1,0,0,1,481.808,-47.704)">
	<polygon class="st3" points="273.9,291.7 299.6,291.7 299.6,291.7 	"/>
</g>
<g transform="matrix(1,0,0,1,300.269,104.398)">
	<path class="st4" d="M67.4,109.5c3.9,0,7.2-1.5,10-4.2c2.9-2.9,4.3-6.2,4.3-10.1s-1.4-7.2-4.3-10.1c-2.8-2.8-6.1-4.2-10-4.2
		c-3.9-0.1-7.3,1.4-10.1,4.2c-2.8,2.8-4.1,6.1-4.1,10.1s1.4,7.3,4.1,10.1C60.1,108.2,63.5,109.6,67.4,109.5"/>
</g>
<g transform="matrix(1,0,0,1,315.956,125.028)">
	<path class="st5" d="M97.3,100.1c-2.8-2.8-6.1-4.2-10-4.2s-7.3,1.4-10.2,4.2c-2.8,2.8-4.1,6.1-4.1,10.1s1.4,7.3,4.1,10.1
		c2.9,2.9,6.2,4.3,10.2,4.2c3.9,0,7.2-1.5,10-4.2c2.9-2.9,4.3-6.2,4.3-10.1C101.6,106.4,100.2,103,97.3,100.1"/>
</g>
<g transform="matrix(1,0,0,1,300.426,138.57)">
	<path class="st0" d="M67.7,117.5c-3.9,0-7.3,1.4-10.1,4.2c-2.8,2.8-4.1,6.1-4.1,10.1s1.4,7.3,4.1,10.1c2.9,2.9,6.2,4.3,10.1,4.2
		c3.9,0,7.2-1.5,10-4.2c2.9-2.9,4.3-6.2,4.3-10.1c0-3.9-1.4-7.2-4.3-10.1C74.9,119,71.6,117.6,67.7,117.5"/>
</g>
<g transform="matrix(1,0,0,1,290.697,124.519)">
	<path class="st6" d="M49.2,102.2c-2.4-2.4-5.2-3.5-8.5-3.6c-0.6,0-1.3,0.1-1.9,0.2c-2.5,0.4-4.8,1.5-6.7,3.4
		c-2.3,2.4-3.5,5.2-3.5,8.6s1.2,6.2,3.5,8.6c2.4,2.4,5.3,3.6,8.6,3.6l0,0c3.3,0,6.1-1.2,8.5-3.6s3.6-5.3,3.7-8.6
		C52.8,107.4,51.6,104.6,49.2,102.2"/>
</g>
<g transform="matrix(1,0,0,1,288.229,134.497)">
	<path class="st0" d="M44.5,117.4L44.5,117.4c-4.8,0.1-9-1.7-12.5-5.2c-3.4-3.4-5.1-7.5-5.1-12.4c0-4.9,1.7-9,5.1-12.4
		c0.6-0.6,1.2-1.1,1.8-1.6H0.2c-1.6,9.1-1.8,17.6-0.7,25.7h28.9c-1.8,16.9-7.5,30.9-17.1,41.9c2.3,2.6,4.7,5.1,7.4,7.4
		c4.3,3.6,8.9,6.6,13.8,9.1c13.4-14.9,21-33.7,22.9-56.4C52.2,116,48.6,117.4,44.5,117.4"/>
</g>
<g transform="matrix(1,0,0,1,274.268,95.789)">
	<path class="st0" d="M17.8,199.5c2-1.7,3.8-3.5,5.5-5.4C21.6,196,19.8,197.8,17.8,199.5 M164.6,52.6
		c-21.5-21.5-47.8-32.3-78.9-32.3c-14.5,0-28.3,2.4-41.3,7.2l-4.1,2.4l28.4,18.3c5.5-1.1,11.2-1.6,17-1.6c23.3,0,43,8.1,59.1,24.2
		c15.9,16.3,23.9,36.7,23.9,61.2s-8,44.9-23.9,61.2c-16.1,16.1-35.8,24.2-59.1,24.2c-14.9,0-28-3-39.4-8.8
		c-4.9-2.5-9.5-5.5-13.8-9.1c-2.7-2.3-5.1-4.8-7.4-7.4C15.5,181,9.7,167.1,8,150.2l0,0c-1.3-8-1.3-16.6,0.2-25.7H-41v25.7h21.9
		c1.6,23.6,9.4,43.1,23.1,58.4c1,1.1,2,2.3,3.1,3.4c5.5,5.9,11.5,10.9,18,15.1c16.9,11,37.1,16.6,60.5,16.6
		c31.1,0,57.4-10.8,78.9-32.3s32.3-48,32.3-79.5C196.8,100.6,186.1,74.1,164.6,52.6"/>
</g>
<g transform="matrix(1,0,0,1,261.186,183.055)">
	<path class="st0" d="M-7.1,230.9c0,7.8,2.3,14.1,6.8,18.9c4.5,4.8,10.1,7.2,16.8,7.2s12.3-2.4,16.8-7.2s6.8-11.1,6.8-18.9
		c0-7.7-2.3-13.9-6.8-18.8c-4.6-4.9-10.2-7.4-16.8-7.4s-12.2,2.5-16.8,7.4C-4.9,217-7.1,223.3-7.1,230.9 M-20.7,230.9
		c0-11.1,3.5-20.3,10.5-27.6c7.1-7.3,16-10.9,26.7-10.9s19.6,3.6,26.6,10.9c7.1,7.3,10.6,16.5,10.6,27.6c0,11.2-3.5,20.4-10.6,27.6
		c-7,7.3-15.9,10.9-26.6,10.9c-10.7,0-19.6-3.6-26.7-10.9C-17.2,251.3-20.7,242.1-20.7,230.9"/>
</g>
<g transform="matrix(1,0,0,1,288.141,183.055)">
	<path class="st0" d="M44.3,230.9c0,7.8,2.3,14.1,6.8,18.9c4.5,4.8,10.1,7.2,16.8,7.2s12.3-2.4,16.8-7.2s6.8-11.1,6.8-18.9
		c0-7.7-2.3-13.9-6.8-18.8c-4.6-4.9-10.2-7.4-16.8-7.4s-12.2,2.5-16.8,7.4C46.5,217,44.3,223.3,44.3,230.9 M30.7,230.9
		c0-11.1,3.5-20.3,10.5-27.6c7.1-7.3,16-10.9,26.7-10.9s19.6,3.6,26.6,10.9c7.1,7.3,10.6,16.5,10.6,27.6c0,11.2-3.5,20.4-10.6,27.6
		c-7,7.3-15.9,10.9-26.6,10.9c-10.7,0-19.6-3.6-26.7-10.9C34.2,251.3,30.7,242.1,30.7,230.9"/>
</g>
<g transform="matrix(1,0,0,1,324.291,163.39)">
	<path class="st0" d="M113.2,276.7c6.7,0,12.2-2.4,16.4-7.2c4.4-4.8,6.6-11.1,6.6-18.9c0-7.6-2.2-13.8-6.6-18.8
		c-4.3-4.9-9.8-7.4-16.4-7.4c-6.5,0-12,2.5-16.4,7.4s-6.6,11.2-6.6,18.8c0,7.7,2.2,13.9,6.6,18.8
		C101.3,274.3,106.7,276.7,113.2,276.7 M111,289.2c-9.5,0-17.6-3.7-24.4-11.2c-6.7-7.6-10-16.7-10-27.3c0-10.6,3.3-19.7,10-27.3
		c6.8-7.5,14.9-11.2,24.4-11.2c5.3,0,10.2,1.1,14.5,3.4c4.4,2.3,7.8,5.3,10.1,9h0.6l-0.6-10V181h13.6v105.8h-13v-10h-0.6
		c-2.4,3.7-5.7,6.7-10.1,9C121.2,288,116.3,289.2,111,289.2"/>
</g>
<g transform="matrix(1,0,0,1,359.679,177.516)">
	<path class="st0" d="M180.7,252.6c0,6.3-2.8,11.6-8.3,16c-5.5,4.3-12.5,6.5-20.8,6.5c-7.3,0-13.7-1.9-19.2-5.7
		c-5.5-3.8-9.5-8.8-11.8-15l12.1-5.2c1.8,4.3,4.4,7.7,7.8,10.1c3.4,2.4,7.1,3.6,11.2,3.6c4.3,0,8-0.9,10.9-2.8s4.4-4.1,4.4-6.6
		c0-4.6-3.5-8-10.6-10.2l-12.4-3.1c-14.1-3.5-21.1-10.3-21.1-20.4c0-6.6,2.7-11.9,8.1-15.9c5.4-4,12.2-6,20.6-6
		c6.4,0,12.2,1.5,17.4,4.6s8.8,7.1,10.9,12.3l-12.1,5c-1.4-3.1-3.6-5.4-6.7-7.2c-3.1-1.7-6.6-2.6-10.4-2.6c-3.5,0-6.7,0.9-9.5,2.7
		s-4.2,3.9-4.2,6.5c0,4.1,3.9,7.1,11.7,8.9l10.9,2.8C173.5,234.4,180.7,241.6,180.7,252.6"/>
</g>
<g transform="matrix(1,0,0,1,198.711,183.183)">
	<path class="st4" d="M-126.3,231.2c0,7.8,2.3,14.1,6.8,18.9c4.5,4.8,10.1,7.2,16.8,7.2s12.3-2.4,16.8-7.2s6.8-11.1,6.8-18.9
		c0-7.7-2.3-13.9-6.8-18.8c-4.6-4.9-10.2-7.4-16.8-7.4s-12.2,2.5-16.8,7.4C-124,217.2-126.3,223.5-126.3,231.2 M-139.8,231.2
		c0-11.1,3.5-20.3,10.5-27.6c7.1-7.3,16-10.9,26.7-10.9s19.6,3.6,26.6,10.9c7.1,7.3,10.6,16.5,10.6,27.6c0,11.2-3.5,20.4-10.6,27.6
		c-7,7.3-15.9,10.9-26.6,10.9c-10.7,0-19.6-3.6-26.7-10.9C-136.4,251.5-139.8,242.3-139.8,231.2"/>
</g>
<g transform="matrix(1,0,0,1,215.638,207.42)">
	<path class="st4" d="M-94,167.6v19.2h-0.6c4.2,5,8.1,12.4,8.1,22.2c0,17.1-5.7,24.3-7.5,26.8v6.5c0,7.3-1.9,13-5.8,17.2
		c-3.9,4.2-9.3,6.2-16.2,6.2c-4.5,0-8.5-1.2-11.9-3.6s-5.8-5.6-7.2-9.6l-12,5c1,3,2.5,5.6,4.4,8s4.3,4.5,7,6.2
		c2.7,1.8,5.7,3.1,9.1,4.1c3.3,1,6.9,1.5,10.7,1.5c10.3,0,18.6-3.1,24.9-9.4c6.2-6.2,9.3-14.7,9.3-25.6v-74.7
		C-81.7,167.6-94,167.6-94,167.6z"/>
</g>
<g transform="matrix(1,0,0,1,232.716,183.183)">
	<path class="st0" d="M-61.4,231.2c0,7.8,2.3,14.1,6.8,18.9c4.5,4.8,10.1,7.2,16.8,7.2s12.3-2.4,16.8-7.2s6.8-11.1,6.8-18.9
		c0-7.7-2.3-13.9-6.8-18.8c-4.6-4.9-10.2-7.4-16.8-7.4s-12.2,2.5-16.8,7.4C-59.1,217.2-61.4,223.5-61.4,231.2 M-75,231.2
		c0-11.1,3.5-20.3,10.5-27.6c7.1-7.3,16-10.9,26.7-10.9s19.6,3.6,26.6,10.9c7.1,7.3,10.6,16.5,10.6,27.6c0,11.2-3.5,20.4-10.6,27.6
		c-7,7.3-15.9,10.9-26.6,10.9c-10.7,0-19.6-3.6-26.7-10.9C-71.5,251.5-75,242.3-75,231.2"/>
</g>
<g transform="matrix(1,0,0,1,249.643,207.42)">
	<path class="st0" d="M-29.1,167.6v19.2h-0.6c4.2,5,8.1,12.4,8.1,22.2c0,17.1-5.7,24.3-7.5,26.8v6.5c0,7.3-1.9,13-5.8,17.2
		c-3.9,4.2-9.3,6.2-16.2,6.2c-4.5,0-8.5-1.2-11.9-3.6s-5.8-5.6-7.2-9.6l-12,5c1,3,2.5,5.6,4.4,8s4.3,4.5,7,6.2
		c2.7,1.8,5.7,3.1,9.1,4.1c3.3,1,6.9,1.5,10.7,1.5c10.3,0,18.6-3.1,24.9-9.4c6.2-6.2,9.3-14.7,9.3-25.6v-74.7
		C-16.8,167.6-29.1,167.6-29.1,167.6z"/>
</g>
</svg>
