<?xml version="1.0" encoding="UTF-8"?>
<svg width="250px" height="80px" viewBox="0 0 179 77" version="1.1" xmlns="http://www.w3.org/2000/svg" xmlns:xlink="http://www.w3.org/1999/xlink">
    <title>Group 47</title>
    <defs>
        <polygon id="path-1" points="0 0 27 0 27 77 0 77"></polygon>
        <polygon id="path-3" points="0 0 26 0 26 77 0 77"></polygon>
    </defs>
    <g id="Page-1" stroke="none" stroke-width="1" fill="none" fill-rule="evenodd">
        <g id="Home" transform="translate(-66.000000, -6059.000000)">
            <g id="Group-47" transform="translate(66.000000, 6059.000000)">
                <path d="M96.0115137,21.0959525 C96.5228786,19.2912758 97.7059772,18.9815254 99.1371937,19.0008214 C101.784793,19.0343353 104.432392,19.0079304 107.081,19.0130083 C107.468306,19.0130083 107.858638,19.0251952 108.244935,19.0648026 C109.733642,19.2140921 110.74326,20.2113867 110.914724,21.7052974 C110.962128,22.1176208 110.995412,22.5340066 110.995412,22.9483611 C111.001464,27.6210215 111.000455,32.2926662 110.998438,36.9643109 C110.998438,37.9605899 110.96112,37.9991818 109.980752,37.996135 C108.150126,37.9900416 108.2994,38.1951877 108.298391,36.302156 C108.298391,31.8508911 108.301417,27.3986105 108.297383,22.94633 C108.295365,21.2553977 107.855612,20.8176849 106.179303,20.8156538 C103.920019,20.812607 101.661743,20.8115915 99.4014493,20.8156538 C97.8391136,20.8187005 97.3438865,21.3112543 97.3428779,22.872193 C97.3388435,27.5925854 97.3418693,32.3139933 97.3408607,37.0343856 C97.3398521,37.9565276 97.3045508,38.0012129 96.4068885,37.9951195 C94.4723761,37.981917 94.6519085,38.2429198 94.6498913,36.2351281 C94.6458568,31.9301059 94.6498913,27.6250838 94.6468655,23.3200616 C94.6468655,22.953439 94.642831,22.5847853 94.6024866,22.2212095 C94.5096946,21.3721888 94.0306052,20.8491677 93.1833735,20.839012 C90.5115676,20.8065136 87.8387532,20.8075292 85.1669473,20.8379964 C84.32375,20.8471366 83.8557553,21.3488306 83.7367395,22.2120693 C83.6893348,22.5492402 83.6822746,22.8945357 83.6822746,23.2347533 C83.6792487,27.8099184 83.6802573,32.3840679 83.6792487,36.9582175 C83.6792487,37.9809014 83.6641196,37.9991818 82.6726567,37.996135 C80.7209979,37.989026 81.0185376,38.1667516 81.0134945,36.3133274 C81.0003826,31.8376886 81.0054257,27.3610343 81.0145032,22.8843799 C81.0155118,22.3989351 81.0377012,21.9033345 81.1385621,21.4310922 C81.4411449,19.9991315 82.3741084,19.1013633 83.8133938,19.0749583 C87.139787,19.0150394 90.4681974,19.0312886 93.7955993,19.0576935 C94.9413793,19.0668337 95.5778118,19.8224215 96.0115137,21.0959525" id="Fill-1" fill="#22273F"></path>
                <path d="M88.6667109,19.8235447 C90.0142566,19.8235447 91.3527449,19.830634 92.6711055,19.8468382 C93.7368642,19.8600041 94.4463637,20.5395679 94.5691423,21.6647473 C94.6124167,22.0465588 94.6164423,22.4314086 94.6164423,22.8152457 L94.6204678,35.6935361 L94.6194614,36.1644708 C94.6164423,36.5310909 94.6134231,36.9078386 94.6516656,37 C94.665755,36.9655661 94.9807526,36.961515 95.2876992,36.9584767 L95.8854902,36.9564512 C95.9971986,36.9534129 96.1934431,36.957464 96.3111898,36.9463236 C96.3242728,36.8237793 96.3242728,36.6161629 96.3242728,36.4915931 L96.3272919,22.3676046 C96.3272919,20.5415934 97.0398105,19.8275957 98.8704197,19.8235447 C101.123709,19.8194936 103.379012,19.8205064 105.633308,19.8235447 C107.578645,19.826583 108.234806,20.487917 108.235812,22.4415362 L108.238831,31.955429 L108.235812,36.1563687 C108.232793,36.5229888 108.231787,36.9007493 108.270029,36.9949362 C108.291163,36.9655661 108.62025,36.961515 108.939273,36.9584767 L109.427369,36.957464 C109.602479,36.9554384 109.922509,36.9584767 110,36.9291066 C109.9527,36.9270811 109.9527,36.5979332 109.9527,36.4227253 C109.953706,31.7630041 109.954713,27.1032829 109.949681,22.4455873 C109.949681,22.0506098 109.917477,21.6536069 109.872189,21.2616677 C109.728277,20.0088803 108.895999,19.1875297 107.645066,19.0619471 C107.275723,19.0244749 106.904368,19.0133345 106.531001,19.0123218 L103.871133,19.01536 C102.113989,19.0194111 100.356846,19.0234621 98.5986965,19.0011814 C97.2773167,18.9789006 96.377611,19.2614614 95.9609688,20.7319928 L95.5312436,22.2450603 L95.0250334,20.7562991 C94.6164423,19.5561753 94.1082193,19.0639727 93.2729221,19.0578961 C90.1058374,19.0315642 86.7284189,19.0143473 83.3248344,19.075113 C82.1715204,19.0963811 81.3905679,19.792149 81.1279021,21.0327833 C81.0292767,21.4935904 81.0151873,21.9959207 81.0141809,22.3817832 C81.0051235,26.8450284 81,31.3082736 81.0131746,35.7715188 C81.0141809,36.022684 81.009149,36.2384025 81.0061299,36.4206997 C81,36.6121119 80.9960661,36.8237793 81.0061299,36.9422725 C81.1510489,36.961515 81.4388742,36.9645533 81.7146229,36.957464 L82.1815842,36.957464 C82.3466309,36.9564512 82.5589776,36.9584767 82.6797434,36.9453108 C82.6928264,36.8187155 82.6928264,36.5918566 82.6928264,36.4156359 L82.6958455,22.7301736 C82.6978583,22.365579 82.7059094,21.9999717 82.7552221,21.6414537 C82.9112113,20.5112105 83.6076278,19.8579786 84.6623163,19.8458255 C86.0008046,19.830634 87.3392928,19.8235447 88.6667109,19.8235447 M108.742913,38 C108.211073,38 107.866942,37.9674728 107.6096,37.7073722 C107.304827,37.4025667 107.307854,36.9748229 107.311891,36.1975689 L107.314918,31.988205 L107.313909,22.4457609 C107.311891,21.0233353 107.097944,20.8089554 105.683069,20.8069234 C103.426535,20.8038753 101.165965,20.8018433 98.9064033,20.8079394 C97.6146487,20.8109874 97.3351049,21.0883604 97.3351049,22.3705756 L97.3320774,36.5389511 C97.3320774,37.0439122 97.3320774,37.4432074 97.054552,37.7215964 C96.7750082,38 96.3572063,38.0030335 95.9050922,37.9938893 L95.3217843,37.9969374 C94.6557233,38.0070976 94.2470041,38.0091296 93.949295,37.7124522 C93.6475492,37.4076467 93.6505768,37.0053035 93.6566319,36.203665 L93.6586503,35.7383286 L93.6546135,22.8186396 C93.6546135,22.4691293 93.651586,22.118603 93.6142462,21.7731568 C93.5224105,20.9379897 93.0339658,20.8343559 92.6767149,20.8313078 C90.0588935,20.7977792 87.3653833,20.7987952 84.6678364,20.8302918 C84.2843468,20.8343559 83.8322327,20.9451019 83.7171858,21.7782369 C83.6737909,22.0932026 83.6677358,22.4162964 83.6667266,22.7353261 L83.6636991,36.4627497 C83.6636991,37.0500083 83.6636991,37.4401593 83.3851645,37.7205804 C83.1076391,37.9979534 82.7180944,37.9928733 82.1650619,37.9949053 L81.7058835,37.9969374 C80.93184,37.9969374 80.5513779,38.0020175 80.2617423,37.7063561 C79.9842169,37.421871 79.9912811,37.0550884 80.0054097,36.4454774 C80.0094464,36.2686902 80.0144924,36.0624385 80.0144924,35.8196101 C80.001373,31.3399853 80.0054097,26.8613765 80.0155015,22.3807357 C80.0155015,21.9468959 80.0316485,21.3758936 80.1487137,20.8252117 C80.5120197,19.1081407 81.6604703,18.1063467 83.2993839,18.0768821 C86.7215244,18.016937 90.1174261,18.0352254 93.2983718,18.0596098 C94.4215928,18.067738 95.0856354,18.6722689 95.5054557,19.3733215 C96.2653707,18.1642597 97.4461151,17.9793444 98.6450248,18.0016968 C100.402013,18.0250652 102.162029,18.0199851 103.91498,18.016937 L106.587297,18.013889 C106.99198,18.014905 107.398681,18.0270972 107.800336,18.067738 C109.520993,18.2404611 110.714857,19.4200583 110.911648,21.1462735 C110.963116,21.5760492 110.99541,22.0129371 110.99541,22.4467769 C111.001465,27.1204612 111.000456,31.7951615 110.998437,36.4698618 C110.998437,37.0022554 110.998437,37.423903 110.711829,37.7104202 C110.42724,38 109.990263,37.9898252 109.48769,37.9949053 L109.009337,37.9979534 C108.915483,38 108.827684,38 108.742913,38" id="Fill-3" fill="#22273F"></path>
                <path d="M36.9972371,28.0073375 C36.7981841,28.0073375 36.6791524,27.9895079 36.5651221,28.0094351 C33.2702453,28.5894217 29.9723678,29.1473834 26.6834926,29.7682732 C25.5872009,29.9748868 25.0560596,30.7384134 25.0130482,31.9183137 C24.990042,32.5486427 25.0040458,33.1810693 25.0060463,33.8113983 C25.0130482,35.4464779 25.5111807,35.976122 27.0916012,35.9908052 C28.6080047,36.0044396 30.1254085,36.0012932 31.641812,35.991854 C32.9651641,35.9845124 34.2905168,36.0044396 35.6108682,35.923682 C36.4921026,35.8701932 36.9412221,35.3101339 36.9812328,34.3840432 C37.012241,33.6530294 36.9952365,32.9209668 36.9962368,32.1878554 C36.9982373,30.8055366 36.9972371,29.4232179 36.9972371,28.0073375 M37.1805497,26.5608054 C37.1805497,25.0703811 37.2241794,23.6317006 37.1649677,22.1970784 C37.1286095,21.2951129 36.4637755,20.8243458 35.3782263,20.8192729 C32.5526817,20.8081125 29.728176,20.8152146 26.9026314,20.8142 C26.2024781,20.8142 25.5002472,20.7827479 24.8021715,20.8223167 C24.1124062,20.8618855 23.8090757,20.6559248 23.8080369,19.9223804 C23.8069981,19.2121714 24.0563108,18.9940358 24.7668522,19 C28.1928249,19.0254879 31.6187977,19.0092546 35.0437316,19.0133129 C35.6940224,19.0143275 36.345352,19.0143275 36.9925263,19.0579546 C38.5798175,19.1665151 39.5781074,20.0339847 39.8762439,21.5568757 C39.9510377,21.9383594 39.9936286,22.3320181 39.9946674,22.7206039 C40.0029778,26.5790679 40,30.437532 39.996745,34.295996 C39.996745,34.5151462 39.9790854,34.735311 39.9499989,34.9534466 C39.6986085,36.9004339 38.7273276,37.9069015 36.7286703,37.9444411 C32.9037972,38.0164766 29.0768464,38.0205349 25.253012,37.9444411 C23.1359312,37.9028431 22.0462267,36.6751961 22.0109074,34.5952984 C21.9963642,33.7653684 21.9963642,32.9344239 22.0109074,32.1044939 C22.0420715,30.2133088 23.0008868,28.9826181 24.9008578,28.6285282 C27.8676795,28.0755797 30.8531998,27.6200314 33.8304096,27.1218705 C34.9336185,26.9372162 36.0378662,26.7525618 37.1805497,26.5608054" id="Fill-5" fill="#22273F"></path>
                <path d="M35.9966319,29 L33.6516377,29.4139544 C31.1938842,29.8458608 28.7351329,30.2788233 26.280373,30.745578 C25.4511432,30.9029229 25.0480037,31.4372619 25.0130783,32.4235716 C24.9961145,32.9061663 24.9991081,33.3877051 25.0030996,33.8702998 L25.0060932,34.3074863 C25.0130783,35.6781822 25.2964733,35.9770319 26.6056786,35.9897039 C28.11346,36.004488 29.6262307,36.00132 31.1380035,35.992872 L32.0191226,35.9897039 C33.0239776,35.9875919 34.0617622,35.9854799 35.0706087,35.9242316 C35.474746,35.8999434 35.9437448,35.7563266 35.9816639,34.8629455 C36.003617,34.3423345 36.0006234,33.8196115 35.9986276,33.2979446 L35.9966319,29 Z M28.862539,37 C28.101887,37 27.3402327,36.9968609 26.5795807,36.9895365 C24.7355757,36.9748875 24.0150107,36.221513 24.0079954,34.3108716 L24.0029845,33.8797739 C23.9989758,33.3858951 23.9959693,32.8930626 24.0150107,32.4002301 C24.0651195,30.9468452 24.8027215,30.0134979 26.0895163,29.7717902 C28.5578773,29.3082556 31.0302471,28.8792507 33.5056234,28.4502458 L35.9960323,28.0170554 C36.0962499,27.9982211 36.1974698,27.9971747 36.3397789,28.0034528 L36.9962046,28.0065919 L36.9982089,33.2980014 C37.0012154,33.832688 37.0032198,34.3673747 36.9801697,34.9010149 C36.9280566,36.117924 36.2596047,36.8566496 35.1471887,36.9246625 C34.1059272,36.9874438 33.049633,36.9884901 32.028415,36.9895365 L31.1454974,36.9926755 C30.3838431,36.9968609 29.6241933,37 28.862539,37 L28.862539,37 Z M30.6359189,20.8243288 C32.0528022,20.8243288 33.4676063,20.8263566 34.88345,20.8314263 C36.2691473,20.8375099 37.1278014,21.5279993 37.1745804,22.6808429 C37.2172012,23.6927495 37.2078454,24.7056701 37.1995292,25.7378555 L37.1901734,27.479795 L30.7720977,28.5444262 C28.67536,28.8851082 26.5786223,29.2268041 24.4902009,29.6141271 C22.8737273,29.9152657 22.0379429,30.9231166 22.0109151,32.6113176 C21.9963616,33.4356463 21.9963616,34.2589612 22.0109151,35.0832899 C22.0431406,36.9479155 22.9662458,37.9101394 24.7573608,37.9456271 C28.4570581,38.0176164 32.3126854,38.0186304 36.2202892,37.9456271 C37.9084905,37.9141951 38.7255633,37.1496885 38.953221,35.3884842 C38.9781698,35.1927949 38.9968814,34.9930498 38.9968814,34.7922907 C39,30.9373117 39.0031186,27.0813187 38.9937628,23.2263396 C38.9937628,22.8856576 38.9563396,22.524697 38.8846119,22.1546109 C38.6299263,20.8547468 37.8149326,20.1490484 36.4614608,20.0567803 C35.833583,20.0141951 35.2036261,20.0141951 34.5747088,20.0141951 L31.2700339,20.0141951 C28.9331642,20.0172369 26.5952548,20.0192648 24.2583851,20 C23.9330113,20.0020279 23.8685602,20.0537385 23.8664812,20.0547525 C23.8664812,20.0547525 23.8082673,20.1145746 23.8082673,20.4268664 C23.8103464,20.7330747 23.8737579,20.7959386 23.875837,20.7959386 C23.875837,20.7969525 23.9423671,20.8537329 24.2667013,20.835482 C24.7646375,20.8070919 25.2677714,20.8111476 25.7657076,20.820273 L26.3977436,20.8253427 L28.7543645,20.8243288 L30.6359189,20.8243288 Z M30.4108438,39 C28.4901575,39 26.598541,38.9817275 24.7463765,38.9441672 C22.4124831,38.8984859 21.0503531,37.4996217 21.0109012,35.1079497 C20.9963663,34.2714736 20.9963663,33.4360126 21.0109012,32.5995365 C21.0462003,30.4383014 22.2172998,29.0333464 24.3103288,28.6435323 C26.4023196,28.2537182 28.5046924,27.9116157 30.6060271,27.5684981 L36.1729027,26.6437047 L36.179132,25.7250021 C36.1884759,24.7088461 36.1978198,23.7099474 36.1562914,22.7140942 C36.1469475,22.4917783 36.1189159,21.8156944 34.8730653,21.8106187 C32.8350614,21.8014825 30.7991339,21.8024976 28.7569772,21.8045279 L26.4033578,21.805543 L25.7575919,21.798437 C25.2789776,21.7913311 24.8065926,21.7842251 24.3352458,21.8136642 C24.0040572,21.826861 23.5316722,21.819755 23.1901015,21.5070916 C22.8474926,21.1923979 22.8070024,20.7345694 22.8070024,20.4188605 C22.804926,20.1061971 22.8423015,19.6544594 23.1620699,19.3428111 C23.4787235,19.0352234 23.9241151,18.9936027 24.2739915,19.0007087 C26.6058085,19.0189812 28.9386637,19.0169509 31.2673661,19.0149206 L34.5408385,19.0139055 C35.2219035,19.0149206 35.8749368,19.0159358 36.5248555,19.0595868 C38.3386063,19.1844492 39.5263172,20.2148172 39.8678879,21.9598444 C39.9519828,22.3933096 39.9945494,22.8166234 39.9945494,23.2186192 C40.0028551,27.078185 39.9997404,30.9397811 39.997664,34.7993469 C39.997664,35.0389201 39.9768999,35.2795085 39.94783,35.5170515 C39.6540169,37.7838612 38.4393126,38.9045768 36.2341571,38.9441672 C34.275057,38.9817275 32.3294537,39 30.4108438,39 L30.4108438,39 Z" id="Fill-7" fill="#22273F"></path>
                <path d="M72.9981197,28.0073363 C72.7890587,28.0073363 72.6690236,27.9895096 72.55399,28.0094336 C69.2810339,28.5819869 66.0070775,29.1367134 62.7401231,29.7449202 C61.6127938,29.953598 61.0536304,30.72644 61.0136187,31.93027 C60.990612,32.5856652 61.0026155,33.2431577 61.007617,33.8996016 C61.0176199,35.4001945 61.5217672,35.9559697 62.9611877,35.9842827 C64.2125532,36.0104985 65.4649191,35.9926718 66.7172849,35.9916232 C68.2097209,35.9905745 69.7031572,36.0188876 71.1945929,35.9769423 C72.5029751,35.9402402 72.9781139,35.404389 72.9941186,34.0663341 C73.0051218,33.0565012 72.9971194,32.0466682 72.9981197,31.0368352 L72.9981197,28.0073363 Z M73.1793953,26.5616117 C73.1793953,25.0710283 73.2230228,23.6321943 73.1638141,22.197419 C73.1274578,21.2953573 72.4636962,20.82454 71.3771631,20.8194665 C68.5517616,20.8083049 65.7273988,20.8154077 62.9019973,20.814393 C62.2018794,20.814393 61.4996841,20.7829376 60.8016437,20.8225106 C60.1119133,20.8620836 59.8085982,20.656101 59.8075594,19.9224783 C59.8065207,19.2132082 60.054782,18.9940346 60.7663262,19 C64.1921255,19.0254901 67.6168861,19.009255 71.0426854,19.0133138 C71.6929433,19.0143285 72.3442399,19.0143285 72.9913815,19.0579602 C74.5785923,19.1665323 75.5830641,20.0330798 75.8728755,21.557148 C75.9632468,22.0340535 75.9923318,22.5282088 75.9933706,23.0142465 C76.0037581,26.6772866 75.9996031,30.3403267 75.9964868,34.0043815 C75.9954481,34.3209656 75.9871381,34.6405937 75.9476656,34.9541337 C75.6973267,36.923652 74.6876611,37.9231241 72.6527488,37.9545796 C68.8779293,38.0134318 65.1010322,38.0164759 61.3272515,37.9555943 C59.1718441,37.9200801 58.0468772,36.7014343 58.010521,34.596962 C57.9959784,33.7669435 57.9970172,32.9359103 58.010521,32.1058918 C58.0416835,30.2145048 59.0004502,28.9836828 60.900325,28.6295551 C63.8669966,28.0765476 66.8523657,27.6209507 69.828386,27.1227366 C70.9325779,26.9380626 72.0367697,26.7533885 73.1793953,26.5616117 L73.1793953,26.5616117 Z" id="Fill-9" fill="#22273F"></path>
                <path d="M66.216639,35.9909779 L67.5408656,35.9930884 C68.5866754,36.0025855 69.6294914,36.0068065 70.6713095,35.9751492 C71.6961631,35.9466577 71.9805674,35.6416928 71.9945382,34.5600698 C72.0015236,33.8509472 72.0005256,33.1428799 71.9985298,32.4337573 L71.9975319,29 L69.7203012,29.3999367 C67.2574592,29.8315307 64.7926214,30.2620694 62.3347689,30.7242653 C61.4675851,30.8867726 61.046467,31.4302222 61.013536,32.4358678 C60.9945757,32.9803726 60.9995653,33.5269879 61.0045548,34.0736033 L61.0075485,34.3933416 C61.0155318,35.6321956 61.3188965,35.9593206 62.4804638,35.9835912 C63.3566288,36.0025855 64.2347896,35.9962541 65.1079609,35.9930884 L66.216639,35.9909779 Z M68.7592019,37 C68.3533033,37 67.9474046,36.9989539 67.541506,36.9958154 L66.2155704,36.9916309 L65.1061141,36.9958154 C64.2191504,37 63.3311845,37.0041846 62.4442208,36.9843079 C60.7484665,36.9508313 60.0198533,36.1756393 60.0088289,34.3971961 L60.0048201,34.0823071 C59.999809,33.5268051 59.9937957,32.9681647 60.0148423,32.4116166 C60.0649532,30.9396934 60.8216284,29.9939801 62.1455596,29.7481365 C64.6190357,29.2899258 67.097523,28.8620533 69.5750081,28.4331347 L71.9843422,28.0167697 C72.0865686,27.9979392 72.1897971,27.996893 72.3321122,28.004216 L72.9965833,28.0073544 L72.9985877,32.4440471 C73.0005922,33.153332 73.0015944,33.8594786 72.9935766,34.5677174 C72.9745345,36.1913314 72.271979,36.934093 70.7145309,36.9759387 C70.0640909,36.9947693 69.4106442,37 68.7592019,37 L68.7592019,37 Z M66.6442175,20.8243694 C68.0578093,20.8243694 69.4693222,20.8253834 70.8839534,20.8314673 C72.2705206,20.8365372 73.1269909,21.5280747 73.1727248,22.6819891 C73.2153404,23.6929317 73.2059858,24.7069162 73.1976705,25.7381385 L73.1893553,27.4791499 L66.7668674,28.5448477 C64.6724649,28.8865605 62.5759836,29.2262453 60.4909358,29.6146014 C58.8736205,29.9157548 58.0389777,30.9236554 58.0109138,32.6109257 C57.9963621,33.4352951 57.9963621,34.2596645 58.0109138,35.084034 C58.0441747,36.9599054 58.9941916,37.9242047 60.8329002,37.9536102 C64.4999236,38.0154633 68.3083061,38.0154633 72.1478707,37.9536102 C73.8888753,37.9272466 74.7266363,37.1586463 74.9501085,35.3882293 C74.9896059,35.0951878 74.9958424,34.7940344 74.9968818,34.4969369 L74.9968818,33.5012041 C75,30.1743208 75.0031182,26.8454096 74.9937636,23.5185263 C74.9927242,22.9912544 74.9542661,22.5440872 74.8815077,22.1516752 C74.6341292,20.854789 73.8192351,20.1490557 72.4607319,20.0567831 C71.8329308,20.0141958 71.2040904,20.0141958 70.5742105,20.0131818 L67.2689004,20.0141958 C64.9323163,20.0172377 62.5978111,20.0182517 60.2581089,20 C59.9296567,20.001014 59.8683318,20.0537412 59.8672923,20.0537412 C59.8672923,20.0547552 59.8090856,20.1145803 59.8090856,20.4268875 C59.810125,20.7320968 59.8745682,20.7949639 59.8756076,20.7949639 C59.8756076,20.7959779 59.9400507,20.851747 60.268503,20.8345093 C60.7663783,20.8071317 61.265293,20.8122016 61.767326,20.8192995 L62.3992846,20.8243694 L64.754578,20.8243694 L66.6442175,20.8243694 Z M66.4240232,39 C64.5316407,39 62.6589814,38.9847713 60.8226541,38.954314 C58.4413456,38.91675 57.0513839,37.5146989 57.0108996,35.1085721 C56.9963668,34.2720115 56.9963668,33.4364662 57.0108996,32.5999057 C57.0451556,30.440483 58.2171248,29.0353862 60.3088147,28.6445174 C62.3994665,28.254664 64.4994609,27.912527 66.5994553,27.5693747 L72.1707207,26.6434727 L72.175911,25.7256927 C72.1862915,24.7094341 72.194596,23.7104346 72.1541117,22.7144808 C72.1437311,22.4911273 72.1177796,21.8159904 70.8721082,21.8109142 C68.8343974,21.801777 66.7946105,21.8027923 64.7568997,21.8038075 L62.4036188,21.8048227 L61.7558696,21.7987313 C61.2866667,21.7926398 60.8091594,21.7855331 60.3358042,21.8129447 C60.0077774,21.8261429 59.53027,21.8200514 59.1908246,21.5063412 C58.8472269,21.1906005 58.8057045,20.7347562 58.8057045,20.4190155 C58.8046665,20.1063206 58.8420366,19.653522 59.1617589,19.3428575 C59.4783671,19.0342235 59.9257707,18.9936138 60.2735207,19.0007205 C62.6060404,19.0179796 64.9395981,19.0139187 67.2658895,19.0139187 L70.5388911,19.0129034 C71.2208962,19.0139187 71.8727976,19.0149339 72.5215848,19.0596046 C74.3444173,19.1834643 75.5319573,20.2149516 75.8630983,21.9632007 C75.9492573,22.4159993 75.9907796,22.9215905 75.9928558,23.5094164 C76.0032364,26.8424604 76,30.1765197 75.997008,33.5075333 L75.9959699,34.507548 C75.9938938,34.8466393 75.9835132,35.1857306 75.9430289,35.5187304 C75.6586006,37.7634336 74.3838635,38.9197958 72.1572259,38.954314 C70.2337016,38.9847713 68.3174438,39 66.4240232,39 L66.4240232,39 Z" id="Fill-11" fill="#22273F"></path>
                <path d="M3.79541075,37.209013 L4.78956518,37.209013 C9.48533636,37.209013 14.183183,37.209013 18.8789542,37.2100187 C19.8232971,37.2100187 20.25811,37.8315663 19.8419765,38.669348 C19.7516931,38.8503812 19.3625408,38.9801217 19.1093324,38.983139 C17.1345141,39.0092882 15.1617714,38.9972193 13.1879909,38.9972193 C9.46561931,38.9982251 5.74324777,38.9982251 2.02087622,38.9972193 C1.0557785,38.9962136 1.0007783,38.9449208 1.0007783,38.0095823 C0.999740565,29.9958433 0.999740565,21.9810985 1.0007783,13.9673595 C1.0007783,13.0662161 1.06408041,13.000843 1.96795151,13.0038602 C4.02682665,13.0119061 3.79229753,12.7936605 3.79333527,14.7216647 C3.79852397,21.8885704 3.79541075,29.0554761 3.79541075,36.2223817 L3.79541075,37.209013 Z" id="Fill-13" fill="#A4A4A4"></path>
                <path d="M1.43035568,13.0430758 C1.30613938,13.0430758 1.06357527,13.0450793 1,13.0711252 C1.04303557,13.0741305 1.04303557,13.3936929 1.04303557,13.5139045 C1.04010133,21.4969546 1.04010133,29.4800048 1.04205749,37.4620532 C1.04303557,37.5992948 1.04303557,37.9218625 1.07335608,38 C1.07726841,37.9579259 1.3931886,37.9579259 1.52816379,37.9579259 L13.3287123,37.9589277 C14.7664915,37.9629348 16.195468,37.9629348 17.6273787,37.9439013 C17.7359457,37.9428995 17.8934168,37.8837955 17.9354743,37.847732 C18.004918,37.6714217 18.028392,37.467062 17.9550359,37.348854 C17.8787456,37.2266389 17.6782389,37.1525084 17.4180694,37.1525084 L2.7233789,37.1515067 L2.72631314,13.7302853 C2.73022547,13.4127264 2.73511587,13.0841481 2.7028392,13 C2.68425566,13.0350617 2.34290535,13.038067 2.01231394,13.0410723 L1.47730358,13.0430758 L1.43035568,13.0430758 Z M14.6219492,39 C14.1933581,39 13.764767,39 13.3361759,38.9989935 L1.44991679,38.9959741 C0.272522912,38.9959741 0.00255979834,38.7212063 0.000589264659,37.5194744 C-0.000396002181,29.4988706 -0.000396002181,21.4782668 0.00255979834,13.4576631 C0.00255979834,13.0027361 0.00255979834,12.572971 0.283360848,12.2861255 C0.56317663,12.0002864 0.968121301,12.0002864 1.40163871,12.0033059 L1.92875647,12.0012929 C2.65194233,11.9962605 3.0509754,11.9912282 3.34162912,12.2911579 C3.6303123,12.5870617 3.62538597,12.9785807 3.61651857,13.688146 L3.6125775,14.2125197 L3.61454803,29.5824081 L3.61356277,36.2271598 L17.4565619,36.2291728 C18.0703831,36.2291728 18.5502081,36.4616686 18.8103185,36.8843884 C19.0655026,37.3010692 19.0635321,37.8355078 18.8024364,38.3910823 C18.6024272,38.815815 18.0063408,38.9798705 17.6782469,38.9818834 C16.6614515,38.9969806 15.6407151,39 14.6219492,39 L14.6219492,39 Z" id="Fill-15" fill="#A4A4A4"></path>
                <path d="M47.5807265,21.5398193 L47.5807265,22.3859232 C47.5807265,26.5349281 47.5797571,30.6849649 47.5826654,34.8339698 C47.5826654,35.131138 47.5933292,35.4314018 47.6330761,35.7254745 C47.7503781,36.5942788 48.1207032,37.0493176 48.9447251,37.0936865 C50.342654,37.1679786 51.7434913,37.1452782 53.1433591,37.1617875 C53.4235265,37.1659149 53.703694,37.1607557 53.982892,37.1628194 C54.8263026,37.1690104 55.2538246,37.9160583 54.8408442,38.701284 C54.7671669,38.8426453 54.5500129,38.9809111 54.3987807,38.9809111 C52.15938,38.9788474 49.9122238,39.0613941 47.681548,38.8983643 C45.9404382,38.7714487 45.0495251,37.5662665 45.0252892,35.6842011 C44.9962061,33.3739246 45.0136559,31.0626162 45.0136559,28.7523396 C45.0126865,24.8014469 45.0262586,20.8515859 45,16.9006932 C44.9952366,16.2103961 45.1997879,15.9833926 45.8415556,16.0009338 C47.8075749,16.0566529 47.5671544,15.7471026 47.5778182,17.809739 C47.588482,19.7062501 47.5807265,19.7062501 49.3751554,19.7062501 C50.6819572,19.7072819 51.9906978,19.7372051 53.2965302,19.6948999 C53.9867697,19.6721995 54.0323333,20.0622328 54.0342722,20.6256143 C54.036211,21.2044732 53.9528394,21.5645833 53.2790803,21.5522013 C51.4138825,21.5171189 49.5477153,21.5398193 47.5807265,21.5398193" id="Fill-17" fill="#22273F"></path>
                <path d="M45.0395271,16.0721324 C45.0414545,16.0721324 44.9990525,16.1401429 45,16.4276421 C45.0192898,19.2737803 45.0173625,22.1199186 45.0154351,24.9650264 L45.0115804,30.1441324 C45.0086893,31.8237868 45.0048346,33.5044716 45.0250719,35.1841259 C45.0414545,36.3506098 45.4336729,37.7674962 47.2290118,37.8993954 C48.8547426,38.02099 50.5267302,38.0045026 52.143788,37.9900761 C52.7210333,37.9859543 53.2915328,37.980802 53.8745601,37.9818324 C54.014294,37.7479174 54.0316403,37.5459467 53.9545457,37.4047733 C53.8735965,37.2563866 53.6924243,37.1708582 53.4582497,37.1687973 L53.091087,37.1698278 L51.4190994,37.1615841 C50.4216889,37.1564317 49.4242785,37.1533404 48.429759,37.0997563 C47.4246391,37.0451418 46.837757,36.4402601 46.683568,35.3026292 C46.641166,34.9862771 46.6296018,34.6627118 46.6296018,34.3422378 L46.6267107,20.5628893 L48.7593382,20.5587674 C50.1210203,20.5536151 51.4441551,20.5505237 52.7682537,20.5752548 C52.9686994,20.5989555 53.0101377,20.5433105 53.0101377,20.54228 C53.0111014,20.5340363 53.0438666,20.4608735 53.0438666,20.1537955 C53.0419392,19.9260633 53.0284477,19.7859203 53.0072467,19.738519 L53.0053193,19.738519 C52.9937552,19.738519 52.9407527,19.7240926 52.7933094,19.7240926 C51.8729934,19.7560369 50.9507501,19.7488237 50.0294705,19.7416104 L48.880762,19.7364581 C46.8473938,19.7364581 46.6363476,19.5138781 46.6257471,17.3674241 L46.6267107,16.7378114 C46.6305655,16.416307 46.6334565,16.0844979 46.6035824,16 C46.6006913,16.0484318 46.3038774,16.0453404 46.0234461,16.0453404 C45.8345645,16.0443099 45.6138814,16.0432794 45.3556147,16.0360662 C45.0934933,16.028853 45.0414545,16.0721324 45.0395271,16.0721324 M50.5534318,39 C49.4193237,39 48.2725495,38.9793678 47.1374671,38.8978705 C45.1868792,38.7555082 44.0537454,37.4030661 44.0254901,35.1892288 C44.0040551,33.5025447 44.0069781,31.8158606 44.0108753,30.1281449 L44.0147726,24.9442994 C44.0167213,22.0980845 44.0186699,19.2518696 44.0001578,16.4056547 C43.9972349,16.0631598 44.0323104,15.6288515 44.3255806,15.3245263 C44.6217738,15.0171062 45.0387826,14.9954423 45.3330271,15.0006004 C45.5853759,15.0088533 45.8016749,15.0098849 45.9858213,15.0098849 C46.6405641,15.0129797 47.000088,15.0150429 47.2767948,15.3111153 C47.5535016,15.6082193 47.5496043,16.0022947 47.5427841,16.7192644 L47.5398611,17.3093459 C47.5476557,18.7051157 47.5476557,18.7051157 48.8717561,18.7061473 L50.038991,18.7113054 C50.9606974,18.7185266 51.8785065,18.7247163 52.7982642,18.6947996 C53.2065042,18.6659145 53.4958771,18.7793917 53.7063302,18.9949984 C54.0249327,19.3199559 54.0268813,19.8037815 54.0278556,20.1246125 C54.0298043,20.529004 53.9908315,20.9426801 53.7092531,21.2377208 C53.4958771,21.4584856 53.1801976,21.5626783 52.7865724,21.555457 C51.4546775,21.5296668 50.1208339,21.5348248 48.7528891,21.5389513 L47.5408354,21.5420461 L47.5437584,34.3329916 C47.5437584,34.6063685 47.5535016,34.8828403 47.5905257,35.1510592 C47.6928293,35.9061984 47.9763563,36.0630033 48.4625418,36.0898252 C49.4534249,36.1414058 50.4482053,36.1455322 51.4420113,36.1496587 L53.5065946,36.1589432 C54.0892378,36.162038 54.5686031,36.4302569 54.8229005,36.8944818 C55.0733006,37.3514855 55.0577115,37.9147452 54.7790561,38.4439616 C54.6027042,38.7792352 54.169132,38.9762729 53.8076594,38.9803994 C53.263989,38.9803994 52.721293,38.9865891 52.178597,38.9907155 C51.6417468,38.9948419 51.0990508,39 50.5534318,39" id="Fill-19" fill="#22273F"></path>
                <path d="M94.718402,59.6379964 C96.3312491,59.6379964 97.8099482,59.6580583 99.2865993,59.6179345 C99.5262223,59.612919 99.8170468,59.3942442 99.9849877,59.1946283 C102.003351,56.7861962 104.014545,54.3717456 106.000139,51.9382362 C106.438424,51.4005771 106.91767,51.1197104 107.634491,51.1648497 C108.384081,51.2109921 109.138791,51.1738775 109.890429,51.1738775 C109.925246,51.242088 109.960063,51.3082923 109.99488,51.3754997 C107.472694,54.4168849 104.950509,57.457267 102.392482,60.5427885 C104.935148,63.608248 107.459382,66.6516394 110,69.7140896 C108.649305,70.3259778 106.645278,69.9086901 105.818886,68.9096071 C103.89371,66.5834289 101.976726,64.2492259 100.019805,61.9491282 C99.7924701,61.6813017 99.3398489,61.4746641 98.9814384,61.4596176 C97.5846617,61.4044474 96.1848128,61.4375495 94.718402,61.4375495 L94.718402,65.8762466 C94.718402,66.9876763 94.6979214,68.1001091 94.7255702,69.2095326 C94.7399066,69.7471917 94.5238363,69.9407892 93.9882687,69.9337675 C91.667817,69.8986592 92.0211073,70.1865475 92.0170112,68.1011122 C92.0057468,60.4174015 92.011891,52.734694 92.012915,45.0519864 C92.012915,44.0037517 92.0149631,43.9987362 93.0820023,44.0027486 C94.9447126,44.0077641 94.7122578,43.8342286 94.7153299,45.573596 C94.7235222,49.9701631 94.718402,54.3677332 94.718402,58.7653034 L94.718402,59.6379964 Z" id="Fill-21" fill="#22273F"></path>
                <path d="M97.6366634,61.4364379 C98.3100956,61.4364379 98.9751622,61.4434528 99.6402288,61.469508 C100.162034,61.4915548 100.750764,61.7631312 101.070749,62.1319138 C102.676948,63.9808377 104.258049,65.8508063 105.83706,67.7197727 L106.995698,69.0916842 C107.583382,69.785156 108.918744,70.1369025 110,69.9505069 L102.459442,61.0566318 L102.707273,60.7329449 L109.958172,52.1787908 C109.447869,52.1858057 108.935475,52.1878099 108.42099,52.1587482 C107.915916,52.117661 107.56456,52.291029 107.183924,52.7490009 C105.154216,55.1831668 103.099411,57.5962881 101.037287,60.0023945 C100.793638,60.2880006 100.376403,60.5946514 99.941391,60.6046726 C98.8057584,60.6327322 97.6659431,60.6317301 96.4727969,60.6277216 L94.7567997,60.6247152 L94.7567997,55.6702004 C94.7588911,52.4764224 94.7588911,49.2826444 94.7536626,46.0878643 L94.7588911,45.5657562 C94.7609825,45.3533054 94.7651653,45.1348417 94.7526169,45.0155886 C94.6104014,44.9995546 94.3364274,44.9965482 94.0697734,45.0035631 L93.5929332,45.0035631 C93.3817014,45.0035631 93.1537383,45.002561 93.0261626,45.0155886 C93.0115228,45.1398524 93.0115228,45.3623245 93.0115228,45.5647541 L93.0104771,52.1447185 C93.0083857,57.6253498 93.00734,63.1079853 93.0157056,68.5896187 C93.017797,68.876227 93.0115228,69.1167374 93.0062943,69.3211713 C92.9989744,69.6057753 92.9927002,69.8983963 93.0198884,69.9775643 C93.0366197,69.9234495 93.5186884,69.927458 94.0049399,69.9304644 C94.1628409,69.9304644 94.3364274,69.9314665 94.5267452,69.9334707 C94.6595494,69.9344729 94.73484,69.9174367 94.7536626,69.9104218 C94.7494798,69.9034069 94.7672567,69.8462857 94.7641196,69.7120007 C94.7421599,68.9042865 94.7463427,68.0965724 94.7526169,67.2878561 L94.7567997,61.4464591 L96.4717512,61.4404464 C96.8638895,61.4384421 97.251845,61.4364379 97.6366634,61.4364379 M108.815318,71 C107.615055,71 106.373437,70.5351286 105.71884,69.730891 L104.601283,68.3573616 C103.080277,66.4878356 101.558262,64.6183095 100.013048,62.7688643 C99.881927,62.6152458 99.5662274,62.4666476 99.3463472,62.4566072 C98.3518429,62.4154415 97.3553215,62.4224698 96.3366103,62.4294981 L95.6598229,62.4315062 L95.656797,67.3151661 C95.6507453,68.1143835 95.6467108,68.9136009 95.6668833,69.7128182 C95.6769695,70.1204593 95.5801415,70.4206678 95.3693389,70.6315166 C95.156519,70.8443735 94.8599833,70.9367454 94.4403953,70.9367454 C94.1690752,70.9327292 93.9320483,70.9347373 93.7283061,70.9347373 C92.9597339,70.928713 92.5603184,70.9367454 92.2657999,70.6385449 C91.9813677,70.3493808 91.9904453,69.9628247 92.0065833,69.32325 C92.0116264,69.1244497 92.0166695,68.8915119 92.0166695,68.6164045 C92.0075919,63.122287 92.0096092,57.6281696 92.0116264,52.1370642 L92.012635,45.5445249 C92.012635,44.9260351 92.012635,44.5535355 92.2900069,44.277424 C92.5673788,44.0023165 92.9385527,44.0073367 93.5578485,44.0043246 L94.0087038,44.0033206 C94.7157499,43.9912721 95.1101223,43.9972963 95.3955632,44.2844523 C95.6769695,44.565584 95.6699092,44.9410957 95.6618402,45.5605896 L95.656797,46.0656227 C95.6618402,49.2675124 95.6608315,52.4694021 95.6608315,55.6692838 L95.6598229,59.6563343 L96.3366103,59.6583423 C97.4763565,59.6633626 98.5686973,59.6653706 99.6539778,59.6362534 C99.6993659,59.627217 99.8557028,59.5368533 99.9757291,59.3892591 C101.96272,56.9825706 103.941642,54.5658417 105.896358,52.13104 C106.462196,51.4262026 107.10469,51.1340264 107.920668,51.1751921 C108.41792,51.2073214 108.921224,51.196277 109.421502,51.1902527 L110.414998,51.1832244 L110.797266,51.9352518 L103.359666,61.0489404 L111,70.4076153 L110.426092,70.6716783 C109.94397,70.8945756 109.383174,71 108.815318,71" id="Fill-23" fill="#22273F"></path>
                <path d="M71.0073261,61.7041227 C71.0073261,59.3341971 70.9989016,56.9632565 71.0101343,54.593331 C71.020431,52.2051361 72.0098501,51.064324 74.2142797,51.0328603 C77.4137447,50.9892171 80.6150819,50.9882022 83.814547,51.0348902 C85.9749815,51.0673689 86.9756334,52.2051361 86.9831219,54.5618673 C87.0018432,59.4245283 86.9821859,64.2871893 87,69.1498503 C87.0027793,69.7892735 86.8015256,70.0135791 86.2136777,69.9993697 C84.212374,69.9516667 84.5315716,70.2348398 84.5240831,68.179551 C84.5091061,63.8548175 84.5212749,59.5290689 84.5175307,55.2043353 C84.5175307,54.8643246 84.5119143,54.5172092 84.4576226,54.1843031 C84.3144049,53.2901256 83.8697747,52.8394845 83.0319979,52.8333948 C80.3492399,52.8110657 77.668354,52.8110657 74.9865321,52.8313649 C74.086039,52.8384696 73.6357925,53.3236192 73.5234648,54.3000083 C73.4878944,54.6146451 73.4869584,54.9343567 73.4869584,55.2520383 C73.4841502,59.8213767 73.4860223,64.3897 73.4841502,68.9590383 C73.4841502,69.9739958 73.4710453,69.992265 72.5452785,69.9882052 C70.7368038,69.9821154 71.0213671,70.1577031 71.0101343,68.3023609 C70.9960934,66.1029482 71.0063901,63.9035354 71.0073261,61.7041227" id="Fill-25" fill="#22273F"></path>
                <path d="M85.3313979,69.9726114 C85.4673875,69.9908705 85.7304331,69.9928993 85.9865302,69.9928993 L86.661515,70 C86.8977597,69.9989856 86.9573171,69.9655107 86.9612876,69.9644963 C86.960295,69.9634819 87,69.8985609 87,69.6490207 C86.9910664,67.2570864 86.9910664,64.8651521 86.9910664,62.4742322 C86.992059,60.0052042 86.992059,57.5361762 86.9821328,55.069177 C86.9741918,52.968373 86.1125935,52.0635361 84.0985581,52.0341187 C80.7951032,51.9894855 77.3725334,51.9884711 73.9320963,52.03209 C71.8664443,52.0604929 71.0207281,52.9480851 71.0098093,55.1006231 C71.0028609,56.7581382 71.0038535,58.4136245 71.0058388,60.0711396 L71.0068314,62.2044042 L71.0058388,64.2514455 C71.0028609,65.7659314 71,67.2804174 71.0098093,68.7959177 C71.0127871,69.0545875 71.0068314,69.2757247 71.0038535,69.4623727 C71,69.6520638 70.9969051,69.8589996 71.0058388,69.9776834 C71.1477841,69.994928 71.4306821,69.9969568 71.700676,69.9908705 L72.1572834,69.9908705 C72.3210664,69.9908705 72.5354734,69.9928993 72.6545883,69.9786978 C72.6674924,69.8529133 72.6674924,69.6297472 72.6684851,69.455272 L72.6704703,55.7549054 C72.6714629,55.4160988 72.6744408,55.0762777 72.7131532,54.7445718 C72.9027445,53.1813951 73.9201848,52.8476604 74.7410854,52.8436029 C77.584955,52.8212863 80.4327952,52.8202719 83.2796428,52.8446172 C84.3814561,52.851718 85.0673598,53.4603527 85.2638995,54.6025571 C85.3274274,54.9636803 85.3323906,55.315674 85.3343758,55.707229 L85.3343758,60.165478 C85.3323906,63.00273 85.3313979,65.8389676 85.3413242,68.6741908 C85.3423168,68.9663354 85.3363611,69.2118181 85.3313979,69.4187539 C85.3274274,69.6327904 85.3214717,69.8518989 85.3313979,69.9726114 M86.7366399,71 C86.7137244,71 86.690809,71 86.6688899,70.9989844 L86.01032,70.9918755 C85.304923,70.9888289 84.9173531,70.9867978 84.6363899,70.6933018 C84.3633972,70.4069147 84.3713678,70.0301431 84.3853163,69.4045599 C84.390298,69.2055108 84.3952796,68.9678704 84.3952796,68.6855456 C84.38432,65.8450326 84.3853163,63.0045196 84.387309,60.1640067 L84.3883053,55.7016492 C84.387309,55.3594065 84.3813311,55.0516927 84.3325112,54.7673367 C84.2159413,54.0930069 83.9240186,53.8279465 83.2893605,53.8228687 C80.4368862,53.8005265 77.5844119,53.8025576 74.732934,53.8218531 C74.0375002,53.8259154 73.7465737,54.1072247 73.6549119,54.8577213 C73.6190443,55.1522328 73.6190443,55.4528377 73.6170516,55.7493804 L73.6160553,69.4644778 C73.6160553,70.0484231 73.615059,70.4353503 73.3400737,70.7146285 C73.0660847,70.9918755 72.6825002,70.9888289 72.1295406,70.9888289 L71.6792024,70.9898444 C70.9239891,70.9928911 70.5453862,70.9959378 70.2594413,70.7014262 C69.9854524,70.4191014 69.9924266,70.0545164 70.0043825,69.4533067 C70.0083678,69.2725375 70.0133494,69.0592706 70.0113568,68.8094435 C70.0003972,67.2922014 70.0033862,65.7719125 70.0063752,64.2526392 L70.0083678,62.2052763 L70.0073715,60.071591 C70.0043825,58.4091242 70.0033862,56.749704 70.0113568,55.0872372 C70.0233127,52.39398 71.2956178,51.066647 73.9000075,51.0341492 C77.3652208,50.9884491 80.8075186,50.9884491 84.1312538,51.0351647 C86.6788531,51.0696936 87.9740737,52.4234311 87.9830406,55.057786 C87.9930038,57.5286362 87.9930038,60.0025331 87.9920075,62.4754144 C87.9920075,64.8690823 87.9920075,67.2607191 88,69.654387 C88.0009744,69.9509296 87.9690921,70.3825413 87.6691987,70.6811151 C87.3952097,70.9573466 87.0185994,71 86.7366399,71" id="Fill-27" fill="#22273F"></path>
                <path d="M38.0125362,58.0635665 C38.0125362,54.0221059 38.0114968,49.9816506 38.0135756,45.9401901 C38.0135756,45.0213107 38.0322843,44.9991933 38.9781179,45.00422 C40.9726834,45.0142733 40.7544141,44.7820402 40.7554535,46.6911779 C40.7606504,53.9024706 40.7658473,61.1137634 40.7409022,68.3240508 C40.7388235,69.016729 40.9217539,69.2198074 41.6493182,69.215786 C46.4023917,69.1846205 51.1554652,69.1986952 55.9085387,69.2007059 C56.8211122,69.2007059 57.2742808,69.8893628 56.8242303,70.6795588 C56.7150957,70.8695678 56.2868721,70.9731176 56.0052008,70.9751283 C51.9776128,70.9932244 47.9500249,70.9871924 43.9224369,70.9871924 C42.2448815,70.9871924 40.5683656,70.9610536 38.8939283,70.9992564 C38.1944272,71.0153418 37.9959061,70.7720499 38,70.1135532 C38.0260481,66.0972261 38.0125362,62.0798936 38.0125362,58.0635665" id="Fill-29" fill="#22273F"></path>
                <path d="M39.0452462,69.9649116 C39.0462284,69.9649116 39.1110557,69.9959899 39.3546489,70 C40.4871612,69.9739343 41.6186912,69.9799495 42.7502212,69.9829571 L46.1929406,69.9879697 C49.3066127,69.9879697 52.4193025,69.9889722 55.5329745,69.9749368 C55.6930782,69.9739343 55.8826487,69.9157878 55.9317603,69.8796968 C56.0054276,69.7202951 56.0290011,69.5238 55.9543516,69.3944741 C55.8757731,69.259133 55.6901315,69.1819385 55.4445737,69.1819385 L52.3819777,69.180936 C48.9127381,69.1759233 45.4425162,69.1739183 41.9722943,69.1959739 C41.6324424,69.1979789 41.23071,69.161888 40.949792,68.8761679 C40.6678917,68.5894454 40.6325314,68.1804146 40.6335136,67.8185026 C40.6551227,61.2048362 40.6511938,54.5891647 40.6472648,47.9734932 L40.6502115,45.7318442 C40.6541404,45.4140434 40.6580694,45.0842122 40.6256557,45 C40.6197624,45.0451137 40.3025018,45.0481213 39.997028,45.0511288 L39.4430497,45.0531339 C39.3212531,45.0541364 39.1356114,45.0511288 39.0216726,45.0611541 C39.0118503,45.1764446 39.0118503,45.3639171 39.0118503,45.4982556 L39.0108681,57.5877211 L39.0128326,60.2163452 C39.0157793,63.347235 39.018726,66.4771223 39,69.6090147 C38.9980991,69.8957373 39.0422995,69.9609015 39.0452462,69.9649116 M39.2681293,71 C38.9829399,71 38.6040031,70.9567393 38.3296686,70.681078 C38.0346111,70.3842895 37.9980989,69.9587249 38,69.6206877 C38.0178352,66.4817713 38.0148748,63.3408428 38.0129011,60.2019265 L38.0109275,57.5630234 L38.0129011,45.4309104 C38.0129011,44.9117819 38.0129011,44.5355144 38.2773675,44.2679016 C38.5398601,43.9992828 38.9109024,43.9952586 39.4112174,44.0053192 L39.9519918,44.002301 C40.6388148,43.9942525 41.0197252,43.9912343 41.3068882,44.2839986 C41.5930645,44.5767629 41.5881304,44.9681214 41.5802359,45.6773958 L41.5762886,46.1834454 L41.5772754,47.9148798 C41.5812227,54.5548952 41.5851699,61.1939045 41.5624732,67.8329139 C41.5624732,68.1266842 41.5999722,68.1971086 41.6049062,68.203145 L41.6049062,68.202139 C41.6128007,68.202139 41.6917459,68.2202481 41.9423968,68.234333 C45.4307864,68.2091814 48.9201627,68.2121996 52.4075655,68.2162238 L55.4824797,68.219242 C56.0785157,68.219242 56.5660021,68.4717638 56.8225739,68.9134255 C57.0751985,69.3480447 57.0574358,69.8993671 56.7732332,70.4235259 C56.5442922,70.8531148 55.9127309,70.9708242 55.5762271,70.9718302 C52.4470381,70.9879272 49.3168622,70.9879272 46.1876732,70.9879272 L42.7259276,70.9818909 C41.5999722,70.9788727 40.4710563,70.9718302 39.3391799,70.9989939 C39.3154964,71 39.2937865,71 39.2681293,71" id="Fill-31" fill="#22273F"></path>
                <path d="M63.9828978,60.4431767 C63.9828978,63.3264723 63.9592418,66.2097679 63.999795,69.0930635 C64.0088068,69.8182037 63.7215548,70.0162462 62.9623084,69.9989809 C60.7239957,69.950232 61.0146271,70.2061638 61.0101212,68.2369105 C61.0011094,62.8613263 61.0067418,57.4857421 61.0067418,52.1101579 C61.0067418,51.0031511 61.0089948,50.9970575 62.2030619,51.0011199 C64.2915529,51.0082291 63.9671271,50.8487795 63.9795184,52.5986627 C63.9964156,55.2138392 63.9828978,57.8290157 63.9828978,60.4431767" id="Fill-33" fill="#22273F"></path>
                <path d="M62.0022987,52.0266441 C62.0655125,52.0266441 62.0655125,52.3255415 62.0655125,52.6132935 L62.0655125,57.2102333 C62.0643632,61.0401722 62.0620645,64.8711242 62.0689606,68.7010631 L62.0620645,69.3110163 C62.0574671,69.6099136 62.0528698,69.9189431 62.0850514,70 C62.0919474,69.9533923 62.4597371,69.9523791 62.82178,69.9594715 L63.5148337,69.9675772 C63.8400977,69.9716301 63.9435386,69.9229959 63.9435386,69.9229959 C63.9435386,69.9229959 64.0033044,69.8551108 63.9998563,69.5612795 C63.9711228,67.4548131 63.9757201,65.3453071 63.9791682,63.2358011 L63.9849149,58.6074518 C63.9883629,56.7735392 63.9895123,54.9386135 63.9791682,53.1036878 C63.9780188,52.8615303 63.9826162,52.6558484 63.9849149,52.4795496 C63.9895123,52.3113565 63.9941096,52.1259389 63.9872136,52.0134724 C63.8228576,51.997261 63.5171324,52.0033403 63.2183033,52.0003007 L62.7263846,52.0003007 C62.4275555,51.9992874 62.0884994,51.9992874 62,52.0266441 L62.0022987,52.0266441 Z M63.5380307,71 C63.5050368,71 63.4698432,71 63.4379491,70.9979679 L62.7912679,70.9898394 C62.0280081,70.983743 61.6067855,70.9817109 61.2955427,70.6870536 C60.9864995,70.3944285 60.9919985,70.0174704 61.0040963,69.3336622 L61.0095953,68.7412995 C61.0018967,64.8985621 61.0040963,61.0568407 61.0051961,57.2151193 L61.0073957,52.6062729 C61.0073957,51.9346575 61.0073957,51.5648119 61.3142393,51.2803152 C61.6232825,50.9988667 62.0456049,50.9917542 62.7131822,51.0029309 L63.1761972,51.0008988 C63.9922472,50.9988667 64.4013721,50.9988667 64.7126149,51.2864115 C65.0073607,51.5648119 64.9996622,51.9336415 64.9853648,52.4924743 C64.9831652,52.6631723 64.9765664,52.8602879 64.9776662,53.0939816 C64.989764,54.9350816 64.9875644,56.7761816 64.9853648,58.6182976 L64.9798658,63.260674 C64.9754666,65.3710298 64.9710674,67.4824016 64.9996622,69.5907253 C65.0040613,69.9046877 64.9699676,70.3588664 64.6290302,70.6687646 C64.3210868,70.9512291 63.8965648,71 63.5380307,71 L63.5380307,71 Z" id="Fill-35" fill="#22273F"></path>
                <path d="M61.0053674,45.4741837 C61.0064968,44.8443119 61.0144029,44.2135041 61.004238,43.5836323 C60.9974613,43.1961629 61.1815597,42.9977486 61.6751239,43.0024281 C64.5201772,43.0333134 63.9272225,42.7057426 63.9848238,44.7787977 C64.0074125,45.6557515 63.9746588,46.5345771 63.9927298,47.4124668 C63.9995065,47.8092954 63.809761,48.0039661 63.3308794,47.9974147 C63.2766664,47.9964788 63.2224534,47.9992865 63.167111,47.9983506 C60.614582,47.9796323 61.0448977,48.229522 61.0053674,46.2846874 C60.9997202,46.0142075 61.004238,45.7446636 61.0053674,45.4741837" id="Fill-37" fill="#22273F"></path>
                <path d="M62.0771819,43 C62.0153162,43 62.0022292,43.0380005 62.0034189,43.1203348 C62.011747,43.5790545 62.0093675,44.038679 62.0069881,44.4992083 L62.0034189,45.1325492 C62.0022292,45.3315992 61.9998497,45.5306492 62.0034189,45.7287944 C62.0105572,46.0092739 62.0057983,46.2418005 62.0034189,46.4372314 C61.99866,46.6806152 61.9939011,46.9312373 62.0260237,47 C62.0403004,46.9583805 62.4733605,46.9565709 62.8945233,46.9547614 L63.8855647,46.9538566 C63.979553,46.9764759 63.9962092,46.9384755 63.99264,46.8353314 C63.9843119,46.4318028 63.9866914,46.0273694 63.9890708,45.622936 C63.99264,45.1786926 63.9962092,44.735354 63.9843119,44.2929202 C63.9724147,43.9319159 63.9843119,43.6460077 63.9914503,43.4152907 C63.9973989,43.2714318 64.0045373,43.1121918 63.9962092,43.0135716 C63.823699,43 63.5012834,43.0027143 63.1800575,43.0045239 C62.8897644,43.0063334 62.5423646,43.0108573 62.1223915,43.0045239 C62.1057353,43.0027143 62.0902689,43 62.0771819,43 L62.0771819,43 Z M62.6148088,48 C61.9470767,48 61.5801546,47.9733982 61.2969745,47.726381 C60.9873496,47.4565623 60.9939608,47.1031378 61.0027757,46.5169472 C61.0071832,46.3202836 61.0104888,46.0856173 61.0060813,45.8043978 C60.9994701,45.5887329 61.0027757,45.3711678 61.0049795,45.1545528 L61.0071832,44.4923569 C61.0093869,44.0154238 61.0126925,43.5375407 61.0049795,43.0615577 C60.9983682,42.7223842 61.1052495,42.4563658 61.3201137,42.2711029 C61.5294687,42.0896403 61.81926,42.0050845 62.2016082,42.0031843 C62.5817527,42.0041344 62.8957852,42.0031843 63.1580298,42.0012842 C63.9811252,41.9965339 64.4152613,41.9908335 64.7259881,42.2654025 C65.0201869,42.5257206 65.0102701,42.8677443 64.9926402,43.3855302 C64.9849271,43.614496 64.9739084,43.8995158 64.9827234,44.2586407 C64.9970477,44.7327235 64.993742,45.2058563 64.9904364,45.6808893 C64.9882327,46.0979682 64.9849271,46.5169472 64.9926402,46.9340261 C65.0003533,47.2769999 64.8934721,47.5458685 64.676404,47.7330315 C64.4659472,47.9125939 64.2048045,47.9895493 63.8015207,47.9971498 L63.6505648,47.5373179 L63.6461573,47.9990499 L62.9068038,48 L62.6148088,48 Z" id="Fill-39" fill="#22273F"></path>
                <g id="Group-43" transform="translate(119.000000, 0.000000)">
                    <mask id="mask-2" fill="white">
                        <use xlink:href="#path-1"></use>
                    </mask>
                    <g id="Clip-42"></g>
                    <polygon id="Fill-41" fill="#A4A4A4" mask="url(#mask-2)" points="27 12.4581506 27 0 9.61690273 22.5069324 0 61.4560427 26.5137521 77 26.5137521 68.3585316 9.18891984 57.8792894 17.1246125 25.7409303"></polygon>
                </g>
                <g id="Group-46" transform="translate(153.000000, 0.000000)">
                    <mask id="mask-4" fill="white">
                        <use xlink:href="#path-3"></use>
                    </mask>
                    <g id="Clip-45"></g>
                    <polygon id="Fill-44" fill="#000000" mask="url(#mask-4)" points="0 12.4581506 0 0 16.7392788 22.5069324 26 61.4560427 0.46823871 77 0.46823871 68.3585316 17.1514105 57.8792894 9.50963236 25.7409303"></polygon>
                </g>
            </g>
        </g>
    </g>
</svg>