<svg xmlns="http://www.w3.org/2000/svg" width="329.873" height="91.32" viewBox="0 0 329.873 91.32">
  <g id="Group_235" data-name="Group 235" transform="translate(-134.131 -415.408)">
    <g id="Group_231" data-name="Group 231" transform="translate(340.477 489.498)">
      <path id="Path_278" data-name="Path 278" d="M371.205,505.054a4.16,4.16,0,0,1-1.411.564,4.288,4.288,0,0,1-.848.081,3.748,3.748,0,0,1-1.436-.265,3.223,3.223,0,0,1-1.1-.732,3.26,3.26,0,0,1-.708-1.1,3.71,3.71,0,0,1-.251-1.377,3.6,3.6,0,0,1,.255-1.35,3.391,3.391,0,0,1,.718-1.113,3.432,3.432,0,0,1,1.1-.756,3.471,3.471,0,0,1,1.4-.279,4.805,4.805,0,0,1,.8.062,3.731,3.731,0,0,1,.67.178,3.339,3.339,0,0,1,.583.285,4.2,4.2,0,0,1,.535.39l-.752.9a4.552,4.552,0,0,0-.4-.3,2.455,2.455,0,0,0-.425-.226,2.585,2.585,0,0,0-.486-.145,3.1,3.1,0,0,0-.583-.053,2,2,0,0,0-.864.188,2.14,2.14,0,0,0-.693.517,2.454,2.454,0,0,0-.463.763,2.536,2.536,0,0,0-.169.927,2.78,2.78,0,0,0,.163.966,2.233,2.233,0,0,0,.468.767,2.166,2.166,0,0,0,.723.508,2.334,2.334,0,0,0,.939.183,2.826,2.826,0,0,0,.9-.14,2.551,2.551,0,0,0,.727-.374v-1.269h-1.725v-1.031h2.872v2.834A5.178,5.178,0,0,1,371.205,505.054Z" transform="translate(-365.447 -498.491)"/>
      <path id="Path_279" data-name="Path 279" d="M375.581,499.7v-1.109h1.262V499.7Zm.049,5.87V500.48H376.8v5.089Z" transform="translate(-366.541 -498.477)"/>
      <path id="Path_280" data-name="Path 280" d="M383.567,500.709h1.224l-2.081,5.128h-1.051l-2.091-5.128h1.252l1.368,3.74Z" transform="translate(-366.971 -498.705)"/>
      <path id="Path_281" data-name="Path 281" d="M389.024,504.614a1.452,1.452,0,0,0,.964.333,1.72,1.72,0,0,0,.751-.153,2.5,2.5,0,0,0,.627-.454l.684.607a2.817,2.817,0,0,1-.872.694,2.62,2.62,0,0,1-1.21.26,2.712,2.712,0,0,1-1.026-.192,2.465,2.465,0,0,1-1.384-1.374,2.806,2.806,0,0,1-.2-1.084,2.9,2.9,0,0,1,.183-1.032,2.6,2.6,0,0,1,.516-.843,2.5,2.5,0,0,1,.785-.574,2.327,2.327,0,0,1,1-.212,2.415,2.415,0,0,1,1.065.222,2.182,2.182,0,0,1,.761.6,2.583,2.583,0,0,1,.458.877,3.559,3.559,0,0,1,.154,1.05c0,.053,0,.1-.005.154s-.007.106-.014.164h-3.739A1.533,1.533,0,0,0,389.024,504.614Zm2.1-1.73a1.967,1.967,0,0,0-.125-.525,1.353,1.353,0,0,0-.26-.425,1.243,1.243,0,0,0-.39-.284,1.205,1.205,0,0,0-.516-.106,1.174,1.174,0,0,0-.891.371,1.68,1.68,0,0,0-.43.969Z" transform="translate(-367.812 -498.693)"/>
      <path id="Path_282" data-name="Path 282" d="M400.505,498.85h1.177v5.677h3.546v1.07h-4.723Z" transform="translate(-369.231 -498.505)"/>
      <path id="Path_283" data-name="Path 283" d="M408.522,499.7v-1.109h1.262V499.7Zm.048,5.87V500.48h1.176v5.089Z" transform="translate(-370.097 -498.477)"/>
      <path id="Path_284" data-name="Path 284" d="M415.768,500.5v.964h-1.331v4.086h-1.175v-4.086h-.647V500.5h.647v-.367a1.718,1.718,0,0,1,.408-1.258,1.571,1.571,0,0,1,1.163-.409,3.235,3.235,0,0,1,.53.037,3.671,3.671,0,0,1,.414.1v.984a2.845,2.845,0,0,0-.333-.092,1.643,1.643,0,0,0-.351-.034q-.674,0-.674.771v.279Z" transform="translate(-370.539 -498.463)"/>
      <path id="Path_285" data-name="Path 285" d="M419.816,504.614a1.448,1.448,0,0,0,.963.333,1.725,1.725,0,0,0,.752-.153,2.5,2.5,0,0,0,.626-.454l.684.607a2.808,2.808,0,0,1-.872.694,2.62,2.62,0,0,1-1.21.26,2.712,2.712,0,0,1-1.026-.192,2.46,2.46,0,0,1-1.383-1.374,2.79,2.79,0,0,1-.2-1.084,2.882,2.882,0,0,1,.184-1.032,2.578,2.578,0,0,1,.516-.843,2.5,2.5,0,0,1,.785-.574,2.33,2.33,0,0,1,1-.212,2.415,2.415,0,0,1,1.065.222,2.175,2.175,0,0,1,.761.6,2.552,2.552,0,0,1,.458.877,3.532,3.532,0,0,1,.155,1.05c0,.053,0,.1-.005.154s-.008.106-.014.164h-3.74A1.534,1.534,0,0,0,419.816,504.614Zm2.1-1.73a1.935,1.935,0,0,0-.125-.525,1.369,1.369,0,0,0-.26-.425,1.247,1.247,0,0,0-.391-.284,1.2,1.2,0,0,0-.516-.106,1.177,1.177,0,0,0-.891.371,1.673,1.673,0,0,0-.429.969Z" transform="translate(-371.136 -498.693)"/>
      <path id="Path_286" data-name="Path 286" d="M426.252,506.254v-1.321h1.282v1.321Z" transform="translate(-372.011 -499.161)"/>
      <path id="Path_287" data-name="Path 287" d="M436.56,500.951a.709.709,0,0,0,.246.269,1.951,1.951,0,0,0,.493.232c.209.07.475.144.8.222a7.734,7.734,0,0,1,.943.3,2.365,2.365,0,0,1,.681.4,1.587,1.587,0,0,1,.41.549,1.793,1.793,0,0,1,.141.738,2.006,2.006,0,0,1-.177.857,1.794,1.794,0,0,1-.493.636,2.169,2.169,0,0,1-.757.4,3.326,3.326,0,0,1-.973.134,4.253,4.253,0,0,1-1.493-.264,4.076,4.076,0,0,1-1.321-.814l.715-.848a4.1,4.1,0,0,0,.992.65,2.734,2.734,0,0,0,1.137.227,1.466,1.466,0,0,0,.872-.231.731.731,0,0,0,.324-.626.816.816,0,0,0-.063-.328.656.656,0,0,0-.232-.264,1.934,1.934,0,0,0-.464-.227,7.983,7.983,0,0,0-.768-.222,8.442,8.442,0,0,1-.962-.279,2.46,2.46,0,0,1-.7-.385,1.528,1.528,0,0,1-.435-.56,1.911,1.911,0,0,1-.15-.8,1.836,1.836,0,0,1,.172-.8,1.88,1.88,0,0,1,.474-.623,2.09,2.09,0,0,1,.723-.4,2.95,2.95,0,0,1,.925-.14,3.867,3.867,0,0,1,1.335.217,3.988,3.988,0,0,1,1.113.632l-.636.9a4.168,4.168,0,0,0-.916-.517,2.481,2.481,0,0,0-.914-.178,1.248,1.248,0,0,0-.81.236.718.718,0,0,0-.29.574A.825.825,0,0,0,436.56,500.951Z" transform="translate(-372.961 -498.493)"/>
      <path id="Path_288" data-name="Path 288" d="M446.846,505.789v-.627a2.156,2.156,0,0,1-.665.521,2.092,2.092,0,0,1-.983.212,2.329,2.329,0,0,1-.694-.1,1.713,1.713,0,0,1-.574-.3,1.455,1.455,0,0,1-.545-1.171V504.3a1.607,1.607,0,0,1,.155-.723,1.405,1.405,0,0,1,.428-.51,1.931,1.931,0,0,1,.656-.3,3.185,3.185,0,0,1,.824-.1,4.373,4.373,0,0,1,.785.059,4.6,4.6,0,0,1,.623.153v-.126a1.012,1.012,0,0,0-.324-.809,1.382,1.382,0,0,0-.93-.279,3.1,3.1,0,0,0-.772.087,4.993,4.993,0,0,0-.684.232l-.318-.936a5.434,5.434,0,0,1,.867-.309,4.307,4.307,0,0,1,1.07-.115,2.256,2.256,0,0,1,1.687.564,2.174,2.174,0,0,1,.549,1.585v3.017Zm.029-2.159a2.984,2.984,0,0,0-.525-.145,3.357,3.357,0,0,0-.641-.059,1.5,1.5,0,0,0-.858.212.693.693,0,0,0-.309.608v.02a.631.631,0,0,0,.285.558,1.208,1.208,0,0,0,.7.194,1.8,1.8,0,0,0,.535-.078,1.386,1.386,0,0,0,.429-.216.991.991,0,0,0,.284-.338.944.944,0,0,0,.1-.439Z" transform="translate(-373.86 -498.696)"/>
      <path id="Path_289" data-name="Path 289" d="M454.82,500.709h1.224l-2.082,5.128h-1.05l-2.092-5.128h1.252l1.369,3.74Z" transform="translate(-374.663 -498.705)"/>
      <path id="Path_290" data-name="Path 290" d="M460.277,504.614a1.447,1.447,0,0,0,.963.333,1.725,1.725,0,0,0,.752-.153,2.5,2.5,0,0,0,.626-.454l.684.607a2.807,2.807,0,0,1-.872.694,2.62,2.62,0,0,1-1.21.26,2.712,2.712,0,0,1-1.026-.192,2.46,2.46,0,0,1-1.383-1.374,2.789,2.789,0,0,1-.2-1.084,2.882,2.882,0,0,1,.184-1.032,2.578,2.578,0,0,1,.516-.843,2.5,2.5,0,0,1,.785-.574,2.33,2.33,0,0,1,1-.212,2.415,2.415,0,0,1,1.065.222,2.175,2.175,0,0,1,.761.6,2.552,2.552,0,0,1,.458.877,3.531,3.531,0,0,1,.155,1.05c0,.053,0,.1-.005.154s-.008.106-.014.164h-3.74A1.534,1.534,0,0,0,460.277,504.614Zm2.1-1.73a1.935,1.935,0,0,0-.125-.525,1.368,1.368,0,0,0-.26-.425,1.247,1.247,0,0,0-.391-.284,1.205,1.205,0,0,0-.516-.106,1.177,1.177,0,0,0-.891.371,1.673,1.673,0,0,0-.429.969Z" transform="translate(-375.503 -498.693)"/>
      <path id="Path_291" data-name="Path 291" d="M471.758,498.85h1.176v5.677h3.547v1.07h-4.723Z" transform="translate(-376.923 -498.505)"/>
      <path id="Path_292" data-name="Path 292" d="M479.774,499.7v-1.109h1.262V499.7Zm.049,5.87V500.48H481v5.089Z" transform="translate(-377.788 -498.477)"/>
      <path id="Path_293" data-name="Path 293" d="M487.76,500.709h1.225l-2.082,5.128h-1.051l-2.091-5.128h1.252l1.368,3.74Z" transform="translate(-378.219 -498.705)"/>
      <path id="Path_294" data-name="Path 294" d="M493.218,504.614a1.45,1.45,0,0,0,.964.333,1.72,1.72,0,0,0,.751-.153,2.5,2.5,0,0,0,.627-.454l.683.607a2.8,2.8,0,0,1-.872.694,2.62,2.62,0,0,1-1.21.26,2.711,2.711,0,0,1-1.026-.192,2.465,2.465,0,0,1-1.384-1.374,2.806,2.806,0,0,1-.2-1.084,2.9,2.9,0,0,1,.183-1.032,2.609,2.609,0,0,1,.516-.843,2.5,2.5,0,0,1,.786-.574,2.327,2.327,0,0,1,1-.212,2.418,2.418,0,0,1,1.065.222,2.183,2.183,0,0,1,.761.6,2.582,2.582,0,0,1,.458.877,3.559,3.559,0,0,1,.154,1.05c0,.053,0,.1-.005.154s-.008.106-.014.164h-3.739A1.533,1.533,0,0,0,493.218,504.614Zm2.1-1.73a1.969,1.969,0,0,0-.125-.525,1.354,1.354,0,0,0-.26-.425,1.244,1.244,0,0,0-.39-.284,1.205,1.205,0,0,0-.516-.106,1.174,1.174,0,0,0-.891.371,1.68,1.68,0,0,0-.43.969Z" transform="translate(-379.059 -498.693)"/>
      <path id="Path_295" data-name="Path 295" d="M503.287,504.988a1.372,1.372,0,0,1-.4.5,1.8,1.8,0,0,1-.6.3,2.664,2.664,0,0,1-.742.1,3.423,3.423,0,0,1-1.113-.192,3.567,3.567,0,0,1-1.046-.569l.521-.789a3.412,3.412,0,0,0,.842.467,2.389,2.389,0,0,0,.824.159.99.99,0,0,0,.583-.149.469.469,0,0,0,.207-.4v-.02a.367.367,0,0,0-.092-.25.821.821,0,0,0-.251-.189,2.25,2.25,0,0,0-.366-.144l-.429-.13c-.186-.058-.374-.122-.564-.193a2.065,2.065,0,0,1-.511-.276,1.38,1.38,0,0,1-.37-.413,1.2,1.2,0,0,1-.145-.613v-.02a1.433,1.433,0,0,1,.525-1.136,1.724,1.724,0,0,1,.579-.309,2.322,2.322,0,0,1,.708-.106,3.219,3.219,0,0,1,.973.154,3.511,3.511,0,0,1,.9.424l-.463.829a3.975,3.975,0,0,0-.742-.351,2.136,2.136,0,0,0-.694-.129.84.84,0,0,0-.525.145.443.443,0,0,0-.187.366v.02a.332.332,0,0,0,.1.236.959.959,0,0,0,.256.184,2.989,2.989,0,0,0,.365.154c.139.047.282.095.43.139.186.057.372.125.558.2a2.424,2.424,0,0,1,.507.285,1.439,1.439,0,0,1,.37.41,1.124,1.124,0,0,1,.145.588v.02A1.6,1.6,0,0,1,503.287,504.988Z" transform="translate(-379.905 -498.695)"/>
    </g>
    <path id="Path_296" data-name="Path 296" d="M229.376,461.376s2.252,14.519,1.442,14.1-2.318,5.479-2.528,5.884-8.733,9.209-9.543,10.146-17.3,7.942-18.6,8.494-24.088-7.119-24.088-7.119l3.451-15.273s11.768-21.031,10.748-21.045,3.636-8.246,4.731-8.267,6.345-1.416,5.166-2.026,3.139-3,3.139-3l7.018-.138,7,4.817Z" transform="translate(-4.526 -2.993)"/>
    <path id="Path_297" data-name="Path 297" d="M231.021,477.82a16.875,16.875,0,0,0-1.012-2.24,27.756,27.756,0,0,0-11.289-10.747l-.286-.15a25.35,25.35,0,0,0-21.174-1.4c-.351.138-.7.275-1.055.432l.169.1.028.017c-2.987,1.93-4.7,8.3-4.949,8.453l11.271,7.245,18.515,4.026,3.22-1.61C225.378,479.957,231.936,480.339,231.021,477.82Z" transform="translate(-6.188 -4.985)" fill="#fff"/>
    <g id="Group_232" data-name="Group 232" transform="translate(150.636 459.117)">
      <path id="Path_298" data-name="Path 298" d="M228.529,477.12c.007-5-11.877,5.3-26.567.909-7.87-2.351-16.377-9.115-19.048-13.623-25.433,20.189-29.873,36.687-30.149,37.689a3.651,3.651,0,0,0,2.995,4.582c22.08,3.2,39.416,1.82,51.525-4.109,10.672-5.226,17.112-17.574,19.73-22.972C227.045,479.533,230.233,474.353,228.529,477.12Z" transform="translate(-152.633 -464.406)" fill="#969696"/>
    </g>
    <path id="Path_299" data-name="Path 299" d="M200.34,443.258s12.611,8.757,12.672,8.954c9.385,4.852,13.424,18.027,8.565,28.05-4.921,10.15-16.7,27.6-65.72,20.494,0,0,6.487-23.522,31.712-43.293,10.21-8,19.062-8.55,25.444-5.251m3.352-6.485h0a25.122,25.122,0,0,0-15.856-2.326c-5.782.978-11.651,3.776-17.443,8.316-26.811,21.015-33.955,46.043-34.246,47.1-.557,2.019.583,3.236,1.728,4.99.7,1.066.291,1.691,1.4,2.263.715.369,2.051,1.794,2.863,1.912,12.039,1.746,22.812,2.171,32.02,1.265a63.3,63.3,0,0,0,21.635-5.708,41.244,41.244,0,0,0,19.681-20.09,29.512,29.512,0,0,0,1.472-21.284,27.4,27.4,0,0,0-13.252-16.437Z" transform="translate(-1.57 -2.98)"/>
    <g id="Group_233" data-name="Group 233" transform="translate(134.131 415.409)">
      <path id="Path_300" data-name="Path 300" d="M153.345,501.523a3.648,3.648,0,0,1-1.557-1.547c-10.363-19.759-14.824-36.568-13.259-49.959a37.779,37.779,0,0,1,11.371-23.1,25.829,25.829,0,0,1,29.565-4.747c4.081,2.11,16.814,10.724,9.3,32.975-10.521,31.146-30.8,45.534-31.656,46.132a3.647,3.647,0,0,1-2.952.549A3.586,3.586,0,0,1,153.345,501.523Z" transform="translate(-134.572 -415.848)" fill="#fff"/>
      <path id="Path_301" data-name="Path 301" d="M177.347,424.974c7.776,4.02,12.621,13.452,7.516,28.564-10.258,30.364-30.283,44.3-30.283,44.3-23.006-43.865-10.463-60.779-2.527-68.8a22.286,22.286,0,0,1,25.3-4.073m3.352-6.485a29.559,29.559,0,0,0-33.836,5.423,41.243,41.243,0,0,0-12.4,25.242,63.293,63.293,0,0,0,1.812,22.3c2.207,8.986,6.191,19,11.84,29.777a7.3,7.3,0,0,0,10.636,2.6c.9-.625,22.126-15.686,33.029-47.959,2.9-8.6,3.274-16.349,1.1-23.036a24.308,24.308,0,0,0-12.178-14.35Z" transform="translate(-134.131 -415.408)"/>
    </g>
    <g id="Group_234" data-name="Group 234" transform="translate(242.201 443.22)">
      <path id="Path_302" data-name="Path 302" d="M255.278,482.759v-34.15h7.513v27.369h17.027v6.781Z" transform="translate(-255.278 -446.803)"/>
      <path id="Path_303" data-name="Path 303" d="M289.842,453.554v-6.586h7.805v6.586Zm.194,29.028v-26.15h7.417v26.15Z" transform="translate(-259.009 -446.626)"/>
      <path id="Path_304" data-name="Path 304" d="M320.423,453a8.3,8.3,0,0,0-1.756-.17q-2.684,0-2.683,2.83v1.024h6v6.05h-5.9v19.807h-7.416V462.734h-3.073v-6.1h3.073v-1.658q0-4.342,2.074-6.367a8.279,8.279,0,0,1,6.024-2.025,19.821,19.821,0,0,1,3,.2,14.1,14.1,0,0,1,2.268.537v6.147A13.673,13.673,0,0,0,320.423,453Z" transform="translate(-260.709 -446.585)"/>
      <path id="Path_305" data-name="Path 305" d="M354.143,472.252c-.016.261-.041.57-.073.928h-18.2a6.244,6.244,0,0,0,2.219,3.83,6.647,6.647,0,0,0,4.172,1.293,8.269,8.269,0,0,0,3.318-.634,11.264,11.264,0,0,0,3.024-2.049l4.244,3.756a13.162,13.162,0,0,1-4.488,3.586,13.92,13.92,0,0,1-6.2,1.293,14.9,14.9,0,0,1-5.439-.976,12.565,12.565,0,0,1-4.342-2.781,12.85,12.85,0,0,1-2.855-4.268,14.176,14.176,0,0,1-1.024-5.489v-.1a14.646,14.646,0,0,1,.951-5.269,13.409,13.409,0,0,1,2.659-4.342,12.4,12.4,0,0,1,9.318-4,12.729,12.729,0,0,1,5.659,1.171,11.507,11.507,0,0,1,3.976,3.146,13.1,13.1,0,0,1,2.343,4.538,18.8,18.8,0,0,1,.756,5.342v.1Q354.168,471.863,354.143,472.252Zm-8.952-7.732a4.864,4.864,0,0,0-3.756-1.537,4.978,4.978,0,0,0-3.781,1.513,7.583,7.583,0,0,0-1.879,4.049h11.172A7.231,7.231,0,0,0,345.191,464.52Z" transform="translate(-263.183 -447.713)"/>
      <path id="Path_306" data-name="Path 306" d="M391.341,475.338a13.227,13.227,0,0,1-2.634,4.244,10.749,10.749,0,0,1-3.781,2.61,11.737,11.737,0,0,1-4.49.879,9.372,9.372,0,0,1-4.9-1.161,13.072,13.072,0,0,1-3.245-2.711v3.384h-7.415V446.968h7.415v13.189a11.736,11.736,0,0,1,3.293-3.026,9.12,9.12,0,0,1,4.854-1.186,11.607,11.607,0,0,1,4.44.879,11,11,0,0,1,3.806,2.609,13.03,13.03,0,0,1,2.658,4.245,15.555,15.555,0,0,1,1,5.78v.1A15.557,15.557,0,0,1,391.341,475.338Zm-6.415-5.88a8.31,8.31,0,0,0-.513-2.971,7.074,7.074,0,0,0-1.391-2.308A6.144,6.144,0,0,0,381,462.706a6.145,6.145,0,0,0-4.928,0,5.884,5.884,0,0,0-2,1.474,7.31,7.31,0,0,0-1.366,2.308,8.29,8.29,0,0,0-.513,2.971v.1a8.3,8.3,0,0,0,.513,2.972,7.31,7.31,0,0,0,1.366,2.308A6.048,6.048,0,0,0,381,476.31a6.156,6.156,0,0,0,2.024-1.474,7.128,7.128,0,0,0,1.391-2.284,8.262,8.262,0,0,0,.513-3Z" transform="translate(-267.109 -446.626)" fill="#969696"/>
      <path id="Path_307" data-name="Path 307" d="M418.341,483.692v-2.83a10.3,10.3,0,0,1-3.268,2.415,10.764,10.764,0,0,1-4.635.9,11.592,11.592,0,0,1-3.488-.512,8.186,8.186,0,0,1-2.854-1.537,7.349,7.349,0,0,1-1.927-2.513,7.916,7.916,0,0,1-.707-3.439v-.1a8.2,8.2,0,0,1,.781-3.707,7.108,7.108,0,0,1,2.17-2.586,9.744,9.744,0,0,1,3.318-1.536,16.6,16.6,0,0,1,4.269-.513,18.334,18.334,0,0,1,3.488.293,21.972,21.972,0,0,1,2.9.781v-.439a4.446,4.446,0,0,0-1.415-3.561,6.274,6.274,0,0,0-4.2-1.22,17.435,17.435,0,0,0-3.781.367,25.4,25.4,0,0,0-3.44,1.049l-1.854-5.659a29.12,29.12,0,0,1,4.488-1.513,23.614,23.614,0,0,1,5.659-.585q6.1,0,8.879,2.976t2.781,8.294v15.172Zm.146-10.538a11.384,11.384,0,0,0-2.17-.707,11.71,11.71,0,0,0-2.561-.269,6.615,6.615,0,0,0-3.756.927,3.041,3.041,0,0,0-1.367,2.683v.1a2.741,2.741,0,0,0,1.122,2.343,4.8,4.8,0,0,0,2.928.829,6.558,6.558,0,0,0,4.219-1.268,4.049,4.049,0,0,0,1.585-3.318Z" transform="translate(-271.058 -447.736)" fill="#969696"/>
      <path id="Path_308" data-name="Path 308" d="M453.549,483.669V469.117a5.866,5.866,0,0,0-1.171-3.966,4.174,4.174,0,0,0-3.318-1.339,4.4,4.4,0,0,0-3.39,1.339,5.631,5.631,0,0,0-1.244,3.966v14.551H437.01v-26.15h7.416v3.739a15.793,15.793,0,0,1,1.391-1.6,9.668,9.668,0,0,1,1.683-1.351,8.343,8.343,0,0,1,2.048-.934,8.645,8.645,0,0,1,2.537-.344,8.357,8.357,0,0,1,6.562,2.586,10.29,10.29,0,0,1,2.318,7.123v16.928Z" transform="translate(-274.895 -447.713)" fill="#969696"/>
      <path id="Path_309" data-name="Path 309" d="M489.334,482.582,482.5,471.9l-2.585,2.731v7.953H472.5V446.968h7.416v18.978l8.684-9.514h8.879l-9.952,10.294,10.293,15.855Z" transform="translate(-278.727 -446.626)" fill="#969696"/>
    </g>
  </g>
</svg>
