<svg xmlns="http://www.w3.org/2000/svg" width="155" height="148" viewBox="0 0 155 148">
  <g id="Group_457" data-name="Group 457" transform="translate(-851 -4129.5)">
    <g id="Group_436" data-name="Group 436" transform="translate(927.836 4197.93)">
      <g id="Group_433" data-name="Group 433">
        <g id="Group_432" data-name="Group 432">
          <g id="Group_431" data-name="Group 431">
            <g id="Shape">
              <path id="Path_518" data-name="Path 518" d="M543.374,451.325,533.615,429.5l.038-20.237,19.2,6.145,17.789,16.117-7.669,18.114Zm-8.4-22.111,9.247,20.676,17.822-1.532,6.975-16.473-16.857-15.273-17.152-5.489Z" transform="translate(-533.615 -409.266)" fill="#fff"/>
            </g>
          </g>
        </g>
      </g>
      <g id="Group_434" data-name="Group 434" transform="translate(0.335 18.948)">
        <rect id="Rectangle_75" data-name="Rectangle 75" width="1.357" height="34.676" transform="matrix(0.584, -0.812, 0.812, 0.584, 0, 1.102)" fill="#fff"/>
      </g>
      <g id="Group_435" data-name="Group 435" transform="translate(17.725 6.492)">
        <rect id="Rectangle_76" data-name="Rectangle 76" width="1.356" height="34.676" transform="matrix(0.953, -0.303, 0.303, 0.953, 0, 0.412)" fill="#fff"/>
      </g>
    </g>
    <g id="Group_443" data-name="Group 443" transform="translate(876.839 4166.5)">
      <g id="Group_439" data-name="Group 439">
        <g id="Group_438" data-name="Group 438">
          <g id="Group_437" data-name="Group 437">
            <g id="Shape-2" data-name="Shape">
              <path id="Path_519" data-name="Path 519" d="M528.033,424.731l-.145-.018-24.895-3.077-4.275-19.875-3.074-15.9,19.167,2.342,21.476,12.787,12.124,17.444Zm-23.917-4.322,23.794,2.94,18.327-5.661-10.9-15.679-20.979-12.49-17.033-2.082,2.718,14.054Z" transform="translate(-495.644 -385.864)" fill="#fff"/>
            </g>
          </g>
        </g>
      </g>
      <g id="Group_440" data-name="Group 440" transform="translate(3.327 15.215)">
        <rect id="Rectangle_77" data-name="Rectangle 77" width="1.357" height="36.649" transform="translate(0 1.08) rotate(-52.75)" fill="#fff"/>
      </g>
      <g id="Group_442" data-name="Group 442" transform="translate(3.702 2.642)">
        <g id="Group_441" data-name="Group 441">
          <path id="Path_520" data-name="Path 520" d="M535.07,402.014l-36.633-.393-.036-.962.036-.619,14.093-12.209.888,1.026-13.19,11.427,34.857.374Z" transform="translate(-498.4 -387.831)" fill="#fff"/>
        </g>
      </g>
    </g>
    <g id="Group_449" data-name="Group 449" transform="translate(892.078 4198.213)">
      <g id="Group_446" data-name="Group 446">
        <g id="Group_445" data-name="Group 445">
          <g id="Group_444" data-name="Group 444">
            <g id="Shape-3" data-name="Shape">
              <path id="Path_521" data-name="Path 521" d="M534.256,451.253l-19.6-1.685-7.669-18.113,17.789-16.117,18.315-5.862.413,1.292-18.035,5.772-16.857,15.273,6.974,16.473,17.822,1.533,9.306-20.809,1.239.554Z" transform="translate(-506.99 -409.477)" fill="#fff"/>
            </g>
          </g>
        </g>
      </g>
      <g id="Group_447" data-name="Group 447" transform="translate(7.738 18.665)">
        <rect id="Rectangle_78" data-name="Rectangle 78" width="34.676" height="1.357" transform="matrix(0.812, -0.584, 0.584, 0.812, 0, 20.235)" fill="#fff"/>
      </g>
      <g id="Group_448" data-name="Group 448" transform="translate(7.487 6.208)">
        <rect id="Rectangle_79" data-name="Rectangle 79" width="34.676" height="1.356" transform="translate(0 33.043) rotate(-72.344)" fill="#fff"/>
      </g>
    </g>
    <g id="Group_456" data-name="Group 456" transform="translate(927.514 4166.5)">
      <g id="Group_452" data-name="Group 452">
        <g id="Group_451" data-name="Group 451">
          <g id="Group_450" data-name="Group 450">
            <g id="Shape-4" data-name="Shape">
              <path id="Path_522" data-name="Path 522" d="M553.752,424.731l-20.377-6.294L545.5,400.994l21.477-12.787,19.167-2.342-3.073,15.884-4.276,19.888Zm-18.2-7.043,18.326,5.661,23.794-2.94,4.072-18.932,2.716-14.04-17.033,2.082-20.979,12.49Z" transform="translate(-533.375 -385.864)" fill="#fff"/>
            </g>
          </g>
        </g>
      </g>
      <g id="Group_453" data-name="Group 453" transform="translate(19.447 15.212)">
        <rect id="Rectangle_80" data-name="Rectangle 80" width="36.649" height="1.357" transform="matrix(0.796, -0.605, 0.605, 0.796, 0, 22.189)" fill="#fff"/>
      </g>
      <g id="Group_455" data-name="Group 455" transform="translate(12.38 2.642)">
        <g id="Group_454" data-name="Group 454">
          <path id="Path_523" data-name="Path 523" d="M542.607,402.014l-.014-1.357,34.857-.374-13.19-11.427.888-1.026L579.39,400.17l-.3,1.453h0Z" transform="translate(-542.593 -387.831)" fill="#fff"/>
        </g>
      </g>
    </g>
    <g id="Rectangle_82" data-name="Rectangle 82" transform="translate(851 4129.5)" fill="none" stroke="#fff" stroke-width="0.5">
      <rect width="155" height="148" stroke="none"/>
      <rect x="0.25" y="0.25" width="154.5" height="147.5" fill="none"/>
    </g>
  </g>
</svg>
