<svg xmlns="http://www.w3.org/2000/svg" width="316.224" height="65.477" viewBox="0 0 316.224 65.477">
  <g id="Group_255" data-name="Group 255" transform="translate(-46.665 -45.753)">
    <g id="Group_245" data-name="Group 245" transform="translate(107.875 62.61)">
      <g id="Group_236" data-name="Group 236">
        <path id="Path_310" data-name="Path 310" d="M100.905,82.4c.5,5.093,4.224,6.17,6.129,6.17a6,6,0,0,0,6.129-5.839c0-4.307-3.686-5.26-7.247-6.419-2.484-.746-7.827-2.319-7.827-8.117-.083-5.424,4.43-8.447,9.11-8.447,3.811,0,8.2,2.112,8.7,7.909h-3.4c-.373-1.987-1.366-5.01-5.425-5.01a5.27,5.27,0,0,0-5.591,5.259c-.041,3.727,2.982,4.637,7.619,6.211,2.9,1.118,7.454,2.734,7.454,8.365,0,5.011-3.768,8.987-9.483,8.987-5.135,0-9.4-3.23-9.608-9.069Z" transform="translate(-97.468 -59.744)"/>
      </g>
      <g id="Group_237" data-name="Group 237" transform="translate(26.835 0.537)">
        <path id="Path_311" data-name="Path 311" d="M119.74,90.835V60.19h4.8l11.347,25.718L147.2,60.19H152V90.835h-3.23l.082-27.249L136.968,90.835h-2.2L122.846,63.586l.083,27.249Z" transform="translate(-119.74 -60.19)"/>
      </g>
      <g id="Group_238" data-name="Group 238" transform="translate(65.638 0.537)">
        <path id="Path_312" data-name="Path 312" d="M155.632,90.835h-3.686l12.8-30.645h3.313l12.673,30.645H177l-3.562-8.614H159.151Zm10.642-26.794-6.087,15.364H172.4Z" transform="translate(-151.946 -60.19)"/>
      </g>
      <g id="Group_239" data-name="Group 239" transform="translate(100.673 0.537)">
        <path id="Path_313" data-name="Path 313" d="M181.024,60.19h7.992c4.8,0,7.04.581,8.613,1.575A9.7,9.7,0,0,1,201.813,70a9.881,9.881,0,0,1-1.822,6c-1.823,2.484-4.017,3.065-6.833,3.354l7.62,11.471H197.05L188.4,77.459h.994c2.153,0,5.135-.041,6.792-1.574a7.474,7.474,0,0,0,2.318-5.631,7.2,7.2,0,0,0-3.023-5.922c-1.533-.994-3.437-1.119-6.211-1.119h-4.8V90.835h-3.437Z" transform="translate(-181.024 -60.19)"/>
      </g>
      <g id="Group_240" data-name="Group 240" transform="translate(125.643 0.537)">
        <path id="Path_314" data-name="Path 314" d="M209.287,63.213h-7.538V60.19H220.3v3.023h-7.579V90.835h-3.437Z" transform="translate(-201.749 -60.19)"/>
      </g>
      <g id="Group_241" data-name="Group 241" transform="translate(148.087)">
        <path id="Path_315" data-name="Path 315" d="M246.922,68.233a13.069,13.069,0,0,0-3.437-3.313,12.621,12.621,0,0,0-19.67,10.642A12.5,12.5,0,0,0,236.4,88.483a13.294,13.294,0,0,0,8.2-2.775,11.288,11.288,0,0,0,4.141-6.418H233.505V76.473H252.72a15.163,15.163,0,0,1-1.367,5.923c-2.649,5.756-8.779,9.11-14.949,9.11a15.761,15.761,0,0,1-16.027-15.944c0-9.193,7.205-15.819,16.068-15.819,6.212,0,11.968,3.478,14.37,8.489Z" transform="translate(-220.377 -59.744)"/>
      </g>
      <g id="Group_242" data-name="Group 242" transform="translate(183.619 0.537)">
        <path id="Path_316" data-name="Path 316" d="M253.554,90.835h-3.687l12.8-30.645h3.313l12.671,30.645h-3.727l-3.562-8.614H257.073ZM264.2,64.042l-6.088,15.364h12.217Z" transform="translate(-249.867 -60.19)"/>
      </g>
      <g id="Group_243" data-name="Group 243" transform="translate(212.981 0.537)">
        <path id="Path_317" data-name="Path 317" d="M281.773,63.213h-7.536V60.19h18.552v3.023h-7.579V90.835h-3.437Z" transform="translate(-274.237 -60.19)"/>
      </g>
      <g id="Group_244" data-name="Group 244" transform="translate(238.035 0.537)">
        <path id="Path_318" data-name="Path 318" d="M295.031,60.19H312.01v3.023H298.426V73.857h13.5V76.88h-13.5V87.812H312.01v3.023H295.031Z" transform="translate(-295.031 -60.19)"/>
      </g>
    </g>
    <g id="Group_254" data-name="Group 254" transform="translate(46.665 45.753)">
      <g id="Group_248" data-name="Group 248" transform="translate(0 30.346)">
        <g id="Group_247" data-name="Group 247">
          <g id="Group_246" data-name="Group 246">
            <path id="Path_319" data-name="Path 319" d="M64.727,92.681v.051h-.166A.669.669,0,0,0,64.727,92.681Z" transform="translate(-42.998 -66.486)"/>
            <path id="Path_320" data-name="Path 320" d="M65.272,70.94V93.485l-13.082.009-5.525,0V70.94Z" transform="translate(-46.665 -70.94)"/>
          </g>
        </g>
      </g>
      <g id="Group_249" data-name="Group 249" transform="translate(45.767 36.853)">
        <path id="Path_321" data-name="Path 321" d="M84.65,76.34" transform="translate(-84.65 -76.34)"/>
      </g>
      <g id="Group_252" data-name="Group 252" transform="translate(0.446)">
        <g id="Group_251" data-name="Group 251">
          <path id="Path_322" data-name="Path 322" d="M63.71,73.233l.026,22.22,23.423-15.3V59.159Z" transform="translate(-43.619 -43.007)"/>
          <g id="Group_250" data-name="Group 250">
            <path id="Path_323" data-name="Path 323" d="M83.376,51.828,53.165,69.348v.035l-2.9,1.679v-.03L47.035,72.9l18.914.087L90.576,58.344V51.8Z" transform="translate(-47.035 -44.514)"/>
            <path id="Path_324" data-name="Path 324" d="M87.021,45.753h-31.4a5.926,5.926,0,0,0-5.909,5.909V72.271l2.9-1.683V51.662a3.009,3.009,0,0,1,3.006-3.006h31.4a3.009,3.009,0,0,1,3.006,3.006V105.32a3.01,3.01,0,0,1-3.006,3.007h-31.4a3.01,3.01,0,0,1-3.006-3.007V98.655h-2.9v6.665a5.927,5.927,0,0,0,5.909,5.91h31.4a5.927,5.927,0,0,0,5.909-5.91V51.662A5.926,5.926,0,0,0,87.021,45.753Z" transform="translate(-46.486 -45.753)"/>
            <path id="Path_325" data-name="Path 325" d="M52.616,66.4v-.035l-2.9,1.683v.03Z" transform="translate(-46.486 -41.531)"/>
          </g>
        </g>
      </g>
      <g id="Group_253" data-name="Group 253" transform="translate(22.05 55.421)">
        <rect id="Rectangle_24" data-name="Rectangle 24" width="6.621" height="4.512" rx="1.797"/>
      </g>
    </g>
  </g>
</svg>
