<svg id="Capa_1" data-name="Capa 1" xmlns="http://www.w3.org/2000/svg" width="779" height="229" viewBox="0 0 999 449"><defs><style>.cls-1{fill:#606060;}</style></defs><path class="cls-1" d="M392.55,250.07c.76-.92,1.52-2,2.28-2.9,1.52-2,3.2-3.2,5.33-1.37,1.07.91,12.19,11.58,25.74,11.58,12.34,0,20.41-7.77,20.41-16.76,0-10.51-9.14-16.75-26.65-24.06-16.76-7.31-26.81-14.16-26.81-31.52,0-10.36,8.23-27.12,32.44-27.12a49.82,49.82,0,0,1,26,7.77c.91.46,2.74,2.29.91,5.18-.61.91-1.22,2-1.83,2.89-1.37,2.14-2.89,2.75-5.33,1.37-1.07-.6-10.66-7-19.95-7-16.14,0-21,10.35-21,16.75,0,10.21,7.77,16.15,20.56,21.48,20.56,8.37,33.81,16.14,33.81,33.81,0,15.84-15.07,27.41-32.89,27.41a49.66,49.66,0,0,1-32.14-12.34C392.24,254.18,390.72,253,392.55,250.07Z"/><path class="cls-1" d="M500.22,160.06a2.92,2.92,0,0,1,2.74-2.14h2.44A2.93,2.93,0,0,1,508,159.6l30.15,83.92h.76l29.7-83.92a2.93,2.93,0,0,1,2.59-1.68h2.44a2.93,2.93,0,0,1,2.74,2.14L596,262.4c.45,2.13-.46,3.66-2.75,3.66h-6.09a3.14,3.14,0,0,1-2.74-2.13l-13.55-78.44h-.61l-28,80.42a3.08,3.08,0,0,1-2.58,1.67h-2.75a3.08,3.08,0,0,1-2.58-1.67L506,185.49h-.61l-13.25,78.44a3,3,0,0,1-2.74,2.13h-6.1c-2.28,0-3.19-1.53-2.74-3.66Z"/><path class="cls-1" d="M612.46,262.1l46.3-102.5a2.75,2.75,0,0,1,2.59-1.68h1.52a2.73,2.73,0,0,1,2.59,1.68l46,102.5a2.69,2.69,0,0,1-2.59,4h-6.09a2.8,2.8,0,0,1-2.59-1.68l-11.27-25.13H634.85l-11.12,25.13a2.79,2.79,0,0,1-2.59,1.68h-6.09A2.69,2.69,0,0,1,612.46,262.1Zm72.35-32.29c-7.47-16.6-14.78-33.35-22.24-49.95h-1.22l-22.23,49.95Z"/><path class="cls-1" d="M735.67,162.34a2.89,2.89,0,0,1,2.89-2.89H778c18.28,0,33.2,14.31,33.2,32.44,0,14-9.29,25.74-22.54,31.07l20.87,38.68a2.89,2.89,0,0,1-2.59,4.42h-7.77a2.62,2.62,0,0,1-2.44-1.37l-20.25-40.36H747.4v38.83a3,3,0,0,1-2.9,2.9h-5.94a2.89,2.89,0,0,1-2.89-2.9Zm41.58,51.94A22.2,22.2,0,0,0,799.18,192c0-11.57-10.2-21.47-21.93-21.47H747.7v43.71Z"/><path class="cls-1" d="M859,169.65h-26.5a2.89,2.89,0,0,1-2.89-2.89v-4.42a2.89,2.89,0,0,1,2.89-2.89h64.58a2.89,2.89,0,0,1,2.89,2.89v4.42a2.89,2.89,0,0,1-2.89,2.89h-26.5v93.51a3,3,0,0,1-2.9,2.9h-5.78a3,3,0,0,1-2.9-2.9Z"/><path class="cls-1" d="M401.24,297.14a2.85,2.85,0,0,1,2.85-2.84h60.05a2.85,2.85,0,0,1,2.86,2.84v8.38a2.85,2.85,0,0,1-2.86,2.84H416.7v30.52h40.09a3,3,0,0,1,2.85,2.85v8.37a2.85,2.85,0,0,1-2.85,2.85H416.7v32.16h47.44A2.86,2.86,0,0,1,467,388v8.22a2.86,2.86,0,0,1-2.86,2.85H404.09a2.85,2.85,0,0,1-2.85-2.85Z"/><path class="cls-1" d="M489.67,297.14a3,3,0,0,1,2.86-2.84h9.9a3,3,0,0,1,2.86,2.84v99a3,3,0,0,1-2.86,2.85h-9.9a3,3,0,0,1-2.86-2.85Z"/><path class="cls-1" d="M534.41,297.14a2.85,2.85,0,0,1,2.86-2.84H578.1c18,0,32.73,14.21,32.73,32,0,13.76-9.15,25.13-22.22,30.37l20.57,38a2.83,2.83,0,0,1-2.55,4.34H594.92a2.76,2.76,0,0,1-2.4-1.35l-20-39.65H549.88v38.15A3,3,0,0,1,547,399h-9.76a2.86,2.86,0,0,1-2.86-2.85Zm42.49,48a18.62,18.62,0,0,0,18.32-18.55c0-9.73-8.56-17.81-18.32-17.81H550.18v36.36Z"/><path class="cls-1" d="M635.06,293.13a14.6,14.6,0,0,1,3.92.53,14.77,14.77,0,0,1,3.51,1.49,14.44,14.44,0,0,1,3,2.3,15.1,15.1,0,0,1,2.3,3,14.65,14.65,0,0,1,1.48,3.52,14.65,14.65,0,0,1,0,7.81,14.41,14.41,0,0,1-1.48,3.51,14.87,14.87,0,0,1-5.29,5.28A15.17,15.17,0,0,1,639,322a14.6,14.6,0,0,1-3.92.53,14.42,14.42,0,0,1-3.91-.53,14.53,14.53,0,0,1-6.47-3.79A14.64,14.64,0,0,1,620.89,304a14.8,14.8,0,0,1,10.26-10.29A14.42,14.42,0,0,1,635.06,293.13Zm0,27.08a12,12,0,0,0,3.25-.44,12.16,12.16,0,0,0,5.35-3.15,11.64,11.64,0,0,0,1.88-2.49,13.17,13.17,0,0,0,1.21-2.95,13,13,0,0,0,0-6.64,13.1,13.1,0,0,0-1.21-3,11.52,11.52,0,0,0-1.88-2.51,12.33,12.33,0,0,0-2.45-1.93,11.88,11.88,0,0,0-2.9-1.25,12,12,0,0,0-3.25-.44,11.78,11.78,0,0,0-3.23.44,11.51,11.51,0,0,0-2.87,1.25,12.21,12.21,0,0,0-2.43,1.93,12.47,12.47,0,0,0-1.86,2.51,12.64,12.64,0,0,0-1.2,3,13,13,0,0,0-.42,3.33,12.57,12.57,0,0,0,.93,4.84,12.44,12.44,0,0,0,2.54,3.92,11.94,11.94,0,0,0,3.81,2.62A11.66,11.66,0,0,0,635.06,320.21ZM635,298.87q3.72,0,5.46,1.34a4.54,4.54,0,0,1,1.74,3.83,5.35,5.35,0,0,1-.92,3.1,5.19,5.19,0,0,1-2.85,1.92,3,3,0,0,1,.74.67,5.29,5.29,0,0,1,.59.91l3.61,6.12h-4.09a1.31,1.31,0,0,1-1.25-.66l-2.87-5.24a1.65,1.65,0,0,0-.45-.43,1.5,1.5,0,0,0-.75-.15h-1.09v6.48h-4.29V298.87Zm-.38,8.36a7,7,0,0,0,1.68-.17,2.28,2.28,0,0,0,1-.51,1.74,1.74,0,0,0,.51-.84,4.31,4.31,0,0,0,.14-1.13,4.37,4.37,0,0,0-.12-1.09,1.61,1.61,0,0,0-.45-.78,2.11,2.11,0,0,0-.91-.46,6.05,6.05,0,0,0-1.49-.15h-2.13v5.13Z"/><polygon class="cls-1" points="100.47 206.1 219.49 206.1 355.87 125.02 355.87 95.88 314.56 95.88 100.47 206.1"/><circle class="cls-1" cx="251.64" cy="360.64" r="12.67"/><path class="cls-1" d="M328.52,37H161.82a46.07,46.07,0,0,0-46,46V191.59l13.08-6.77V83.05A33,33,0,0,1,161.82,50.1h166.7a33,33,0,0,1,33,32.95V366.51a33,33,0,0,1-33,32.95H161.82a33,33,0,0,1-32.94-32.95V350H115.8v16.56a46.07,46.07,0,0,0,46,46h166.7a46.07,46.07,0,0,0,46-46V83.05A46.07,46.07,0,0,0,328.52,37Z"/><rect class="cls-1" x="99.92" y="211.7" width="115.83" height="132.64"/><polygon class="cls-1" points="221.35 211.7 355.87 132.67 355.87 262.14 221.35 344.35 221.35 211.7"/></svg>