<svg xmlns="http://www.w3.org/2000/svg" width="76.917" height="85.704" viewBox="0 0 76.917 85.704">
  <path id="Path_236" data-name="Path 236" d="M1139.419,277.917c2.652.487,3.621-1.151,3.621-2.557,0-1.259-.046-4.6-.072-9.021-14.755,3.2-17.868-7.11-17.868-7.11-2.413-6.128-5.89-7.76-5.89-7.76-4.816-3.291.365-3.224.365-3.224,5.322.375,8.124,5.466,8.124,5.466,4.732,8.105,12.416,5.764,15.438,4.407a11.333,11.333,0,0,1,3.368-7.092c-11.778-1.339-24.161-5.888-24.161-26.215a20.5,20.5,0,0,1,5.46-14.233c-.546-1.342-2.367-6.735.519-14.038,0,0,4.454-1.427,14.587,5.438a50.271,50.271,0,0,1,26.559,0c10.127-6.865,14.572-5.438,14.572-5.438,2.894,7.3,1.073,12.7.528,14.038a20.466,20.466,0,0,1,5.453,14.233c0,20.378-12.4,24.862-24.219,26.174,1.9,1.638,3.6,4.875,3.6,9.824,0,7.09-.065,12.811-.065,14.551,0,1.418.955,3.068,3.647,2.551" transform="translate(-1115.104 -194.31)" fill="none" stroke="#000" stroke-linecap="round" stroke-linejoin="round" stroke-width="4" fill-rule="evenodd"/>
</svg>
