<svg xmlns="http://www.w3.org/2000/svg" width="143" height="104" viewBox="-33 0 143 104"  xmlns:v="https://vecta.io/nano"><path d="M45.025 1.186c.3-.2.6-.5.9-.7-.3.2-.6.4-.9.7zm3-1.1c.1 0 .1 0 .2.1-.1-.1-.1-.1-.2-.1zm-10.3 130.7c-.6 0-1.2-.1-1.7-.2.5.1 1.1.1 1.7.2zm-1.8-.2l-1.6-.3 1.6.3zm10.1-130.1a.76.76 0 0 1 .4-.2.76.76 0 0 0-.4.2zm1.1-.4h.4c-.2-.1-.3-.1-.4 0z"/><path d="M46.525.186c.2-.1.3-.1.5-.2-.2.1-.4.2-.5.2zm-6.9 130.6h-1.4 1.4zm10.8-87.7l.3.6-.3-.6zm.7 1.3l.3.6-.3-.6zm-9.1 86.4zm10.2-84.6l.1.1-.1-.1zm-2.3-4.2c0 .1.1.2.1.3 0-.1 0-.2-.1-.3zm-1.1-41.7l.1.1-.1-.1zm-8.2 130.5h-.3.3zm7.8-130.6c.1 0 .1.1.2.1-.1-.1-.1-.1-.2-.1zm-44.6 43.3c.1-.1.1-.2.2-.2l-.2.2zm-.3.5c.1-.1.1-.2.2-.3-.1.1-.2.2-.2.3zm1.8 47.3c.1 0 .3-.1.4-.1-.1 0-.3.1-.4.1zm28.5 38.9l-1.2-.3 1.2.3zm-4.9-1.4c-.4-.1-.7-.3-1-.4.3.1.6.2 1 .4zm-1.3-.6c-.4-.2-.8-.4-1.2-.5.4.2.8.4 1.2.5zm-23.2-36.6c0-.1.1-.1 0 0 .1-.1 0-.1 0 0zm18.8 34.3c-.2-.1-.4-.3-.6-.4.2.2.4.3.6.4zm1.9 1.1c-.3-.2-.6-.3-.8-.5.2.2.5.4.8.5zm1.1.6c-.3-.2-.6-.3-.9-.5.3.2.6.4.9.5zm6 2.2c-.5-.1-1-.3-1.5-.4.5.1 1 .3 1.5.4zm-8.1-3.3c-.3-.2-.6-.3-.8-.5l.8.5zm-18.8-84h0zm38.7-40.4c.3-.3.7-.6 1-.9-.3.3-.7.6-1 .9zm-.3 128.5h-.3.3zm-13.2-1.3c-.4-.1-.8-.3-1.2-.4.4.2.8.3 1.2.4zm-26.3-86.3c.1-.1.2-.1.2-.2 0 .1-.1.2-.2.2zm.5-.3c.1 0 .2-.1.3-.1-.1 0-.2.1-.3.1zm42.9-42.7h0zm4.7 128.1c-.1.1-.2.1-.3.2.1-.1.2-.1.3-.2zm-51.9-72.1c-.5 4-.5 8-.1 12.1.4 4.5 1.5 8.8 3.3 12.8-1.7-4-2.8-8.3-3.3-12.8-.4-4.1-.4-8.1.1-12.1zm50 72.9c-.1 0-.2.1-.3.1.2 0 .3-.1.3-.1zm24.2-54.8c0 .2-.1.4-.1.6 0-.2.1-.4.1-.6zm.5-5.4v.1-.1zm-65.1 22.4c-.2-.2-.4-.5-.6-.7.2.3.4.5.6.7h-3.3 3.3zm46.5-68.5l.3.3-.3-.3zm.5.4l.4.4-.4-.4zm-53.6 21.1c-.3.5-.5 1.1-.7 1.6-.1.2-.1.4-.2.6.1-.2.1-.4.2-.6.2-.5.4-1.1.7-1.6zm51.4-11.6l-1-3.1 1 3.1c1.3 5.1 1.2 10.1-1.6 15.1 2.8-5.1 2.9-10 1.6-15.1zm-40.2 24.8c-1-14.1 4.1-26.2 12.2-37.3.5-.7 1-1.3 1.5-2-.5.7-1 1.3-1.5 2-8.1 11-13.2 23.2-12.2 37.3 0 .1-.2.3-.6.9h0c.4-.6.6-.8.6-.9zm39.4 70c-.1 0-.1.1-.2.1.1 0 .1 0 .2-.1zm2-1.1c-.1.1-.3.1-.4.2.1 0 .2-.1.4-.2zm-2.2-103.6c-.6.3-1 .7-1.2 1.3.2-.6.6-1 1.2-1.3zm-1.5 1.8a3.02 3.02 0 0 0 .2 2.1l.1.1c0 .1.1.1.1.2 0-.1-.1-.1-.1-.2-.3-.8-.5-1.6-.3-2.2z"/><path d="M47.025 129.986c-.1 0-.2.1-.3.1.1-.1.2-.1.3-.1zm7.2-107.7s.1 0 .1-.1c0 .1 0 .1-.1.1zm.6-.2h0zm-2.5 2.2c0-.1.1-.2.1-.3 0 .1 0 .2-.1.3zm-49 72.9c-.9-1.4-2.3-3-.8-4.5-1.4 1.5-.1 3.1.8 4.5l17.8 27.4a58.16 58.16 0 0 0 1.3 1c-.9-.6-1.3-1-1.3-1-5.8-9.3-11.8-18.3-17.8-27.4zm40.3-94.9c.1 0 .1-.1.2-.2 0 .1-.1.2-.2.2-3.8 3.1-7.4 6.4-10.7 10.1 3.3-3.6 6.9-7 10.7-10.1zm1.8 128h-.2c0 .1.1 0 .2 0zm10.4-108.1c.2.1.4.1.5.2-.1 0-.3-.1-.5-.2zm-.6-.1c.2 0 .4 0 .5.1-.1 0-.3-.1-.5-.1zm-6.4 107.4c-.1 0-.2.1-.3.1.1-.1.2-.1.3-.1zm-24.6-2.9s-.1 0-.1-.1c.1 0 .1 0 .1.1zm2.2 1.1c-.1 0-.1-.1-.2-.1.1 0 .2.1.2.1zm1.5.6c-.1 0-.2-.1-.3-.1.1.1.2.1.3.1zm1.4.6c-.1 0-.3-.1-.4-.1.1 0 .2.1.4.1zm-4-1.7c-.1 0-.2-.1-.3-.1.2 0 .2 0 .3.1zm50.5-30.3l-18.2 28.3c5.9-8.6 12.6-19.4 18.2-28.3z"/><path d="M57.625 125.186l-1.6 1 1.6-1zm-12.4 5.2c-.5.1-1 .2-1.4.2.4-.1.9-.1 1.4-.2zm3.3-.8c-.5.2-1 .3-1.5.4.5-.2 1-.3 1.5-.4zm-8.6 1.3h.3-.7c.2-.1.3 0 .4 0zm-1.7-.1h-.5.5zm5.2-.2c-.5.1-.9.1-1.4.1.5 0 .9 0 1.4-.1zm6.8-1.6l-1.4.5 1.4-.5zm-3.5 1l-1.3.3c.4 0 .8-.1 1.3-.3zm-4.7.8c-.5 0-.9.1-1.4.1.4-.1.9-.1 1.4-.1zm10-2.5l-1.5.6 1.5-.6zm1.8-.9c-.5.2-1 .5-1.5.7.5-.2 1-.4 1.5-.7zm-17.9 3.2zm-5.2-1.2c-.1 0-.1 0-.2-.1.1 0 .1.1.2.1zm1.9.5c-.1 0-.3-.1-.4-.1.1.1.2.1.4.1zm23-3.4l-1.6.9 1.6-.9zm-21.3 3.8c-.2 0-.3-.1-.5-.1.1 0 .3.1.5.1zm-29.3-87.7c.1 0 .2-.1.3-.1-.1 0-.2.1-.3.1zm47.4-18.6c0-.1.1-.1.1-.2 0 .1 0 .2-.1.2zm-.1.4c0-.1 0-.1 0 0 0-.1 0-.1 0 0zm1.5-1.9c.2-.1.3-.2.4-.2-.1.1-.2.2-.4.2zm1.9-.3h0zm-1.3.1c.2-.1.3-.1.4-.1-.1 0-.3 0-.4.1zm.8-.2h-.3.3zm-4.5 21.6c.1.2.3.5.4.7-.1-.3-.3-.5-.4-.7zm-2.1-43.5c.1 0 .1.1.2.1 0 0-.1 0-.2-.1zm1.4 42c.1.3.3.5.4.8-.1-.2-.2-.5-.4-.8zm1.5 2.8c.2.4.5.8.7 1.2-.3-.4-.5-.8-.7-1.2zm2.2-15.7l-1-2.5 1 2.5zm-4-23c-2.8 10-3.8 20.1-1.5 30.3.4 1.9 1 3.7 1.8 5.4-.8-1.8-1.4-3.6-1.8-5.4-2.3-10.3-1.3-20.4 1.5-30.3.5-1.9 2-4.1-.4-5.6-.1-.1-.2-.1-.3-.2.1.1.2.1.3.2 2.4 1.5.9 3.7.4 5.6zm6.6 16.2c.1 0 .1.1.2.1-.1-.1-.1-.1-.2-.1zm18.7 40.4c.2 2 .2 3.9.1 5.8.1-1.9 0-3.8-.1-5.8-1.2-15.1-7.8-28-17.5-39.4l-.1-.1.1.1c9.6 11.4 16.2 24.3 17.5 39.4zm-65.8-16.9c1.2 3.7 2.6 7.3 4.1 11.3l.7.8-.7-.8c-1.5-4-2.9-7.6-4.1-11.3-.5-1.6-.9-3.3-2.9-3.5h-.5.6c1.9.2 2.2 1.9 2.8 3.5z"/><path d="M53.225 47.586l-.9-1.3.9 1.3zm19.5 43.5h-5.6c2-2.5 3.6-5.2 4.9-8-1.2 2.8-2.8 5.5-4.9 8h5.6zm-15.9-68.2l.2.2c0-.1-.1-.2-.2-.2zm18.3 45.9l-.5 5.2c.3-1.6.4-3.4.5-5.2zm-.6 5.9c-.3 1.7-.7 3.4-1.2 5 .5-1.7.9-3.3 1.2-5zm-30.7-72.5c.1 0 .1-.1.2-.1-.1 0-.1 0-.2.1zm-43.4 53.8c.4-3.3 1.1-6.5 2.2-9.7-1.1 3.2-1.8 6.5-2.2 9.7zm3-11.9s0-.1.1-.1c-.1 0-.1.1-.1.1zm.3-.4c0-.1.1-.1.1-.2 0 0-.1.1-.1.2zm5.7 46.7c-2.4-2.9-4.3-6.1-5.8-9.5 1.4 3.4 3.4 6.6 5.8 9.5zm-5.4-47.2l.2-.2c0 .1-.1.2-.2.2zm18.6 82.3s-.1 0-.1-.1c0 .1 0 .1.1.1zm-16.9-34.3c.3 0 .6-.1.9-.1-.3 0-.6.1-.9.1zm-3.2 1.5c.6-.5 1.2-.9 1.9-1.1-.7.2-1.4.6-1.9 1.1zm2-1.2c.2-.1.5-.2.8-.2-.3.1-.5.1-.8.2zm42.5-91.4h0zm.8-.1h0zm-1.4.3c.1 0 .1-.1 0 0 .1-.1.1 0 0 0zm1.1-.3h0zm-43 42.9c.1-.1.2-.1.3-.2-.2.1-.3.1-.3.2zm43.7-42.8c.1 0 .1 0 .2.1-.1-.1-.1-.1-.2-.1zm-2.3.4h0zm-22.6 125.5s-.1 0-.1-.1c0 .1.1.1.1.1zm5-108.1l4.6-5.5-4.6 5.5z"/><path d="M45.025 1.186zm31.4 91.5c-.4-.9-2.4-1.5-3.8-1.6h-5.6c2-2.5 3.6-5.2 4.9-8 .5-1.1.9-2.3 1.3-3.4.5-1.6.9-3.3 1.2-5 0-.2.1-.4.1-.6.3-1.7.4-3.5.5-5.2v-.1c.1-1.9 0-3.8-.1-5.8-1.2-15.1-7.8-28-17.5-39.4l-1-1c-.1 0-.1-.1-.2-.1-.2-.1-.3-.2-.5-.2h-.1c-.2 0-.3-.1-.5-.1h-.4c-.1 0-.3.1-.4.1 0 0-.1 0-.1.1-.1.1-.3.1-.4.2-.6.4-1 .8-1.2 1.3 0 .1-.1.1-.1.2s-.1.2-.1.3c-.2.7-.1 1.4.3 2.3 0 .1.1.1.1.2.4.8.7 1.6 1 2.5.4 1 .8 2.1 1 3.1 1.3 5.1 1.2 10.1-1.6 15.1-.3-.4-.6-.9-.9-1.3l-.1-.1c-.3-.4-.5-.8-.7-1.2l-.3-.6c-.1-.2-.3-.5-.4-.7l-.3-.6c-.1-.3-.3-.5-.4-.8 0-.1-.1-.2-.1-.3-.8-1.7-1.4-3.6-1.8-5.4-2.3-10.2-1.2-20.3 1.5-30.3.5-1.9 2-4.1-.4-5.6-.1-.1-.2-.1-.3-.2l-.1-.1c-.1 0-.2-.1-.2-.1-.1 0-.1-.1-.2-.1s-.1 0-.2-.1c-.1 0-.1 0-.2-.1h-1c-.2 0-.3.1-.5.2-.1.1-.3.1-.4.2h-.1c-.3.2-.6.4-.9.7s-.7.6-1 .9c-.1 0-.1.1-.2.1l-.2.2c-3.8 3.1-7.4 6.4-10.7 10.1-1.6 1.8-3.2 3.6-4.6 5.5-.5.7-1 1.3-1.5 2-8.1 11.1-13.2 23.2-12.2 37.3 0 .1-.2.3-.6.9h0l-.7-.8-4.1-11.3c-.5-1.6-.9-3.3-2.9-3.5h-.9c-.1 0-.2.1-.3.1s-.2.1-.3.1-.2.1-.3.2-.2.1-.2.2l-.4.4c-.1.1-.1.1-.1.2-.1.1-.1.2-.2.3 0 0 0 .1-.1.1-.3.5-.5 1.1-.7 1.6-.1.2-.1.4-.2.6-1 3.2-1.8 6.4-2.2 9.7-.5 4-.5 8-.1 12.1.5 4.6 1.6 8.8 3.3 12.8 1.5 3.4 3.5 6.6 5.8 9.5.2.2.4.5.6.7h-3.3c-.3 0-.6 0-.9.1-.1 0-.3.1-.4.1-.3.1-.5.1-.8.2h-.1c-.7.3-1.3.6-1.9 1.1-1.4 1.5-.1 3.1.8 4.5l17.8 27.4a58.16 58.16 0 0 0 1.3 1s.1 0 .1.1c.2.1.4.3.6.4 0 0 .1 0 .1.1.3.2.5.3.8.5 0 0 .1 0 .1.1.3.1.5.3.8.5.1 0 .2.1.3.1.3.2.6.3.9.5.1 0 .1.1.2.1.4.2.8.4 1.2.5.1 0 .2.1.3.1.3.1.7.3 1 .4.1 0 .3.1.4.1.4.1.8.3 1.2.4.1 0 .1 0 .2.1.5.2 1 .3 1.5.4.1 0 .3.1.4.1l1.2.3c.2 0 .3.1.5.1l1.6.3c.6.1 1.2.1 1.7.2h2.9c.5 0 .9 0 1.4-.1.5 0 .9-.1 1.4-.1h.3c.5-.1 1-.1 1.4-.2h.2c.4-.1.9-.2 1.3-.3.1 0 .2 0 .3-.1.5-.1 1-.3 1.5-.4.1 0 .2-.1.3-.1.5-.1.9-.3 1.4-.5.1 0 .2-.1.3-.1l1.5-.6c.1 0 .2-.1.3-.2.5-.2 1-.4 1.5-.7.1 0 .1-.1.2-.1.5-.3 1.1-.6 1.6-.9.1-.1.3-.1.4-.2.5-.3 1.1-.7 1.6-1 5.9-8.6 12.6-19.4 18.2-28.3.7-1.2 1.2-3.2.6-4.3zm-10.1 7.1c-4.3 6.9-9 14.3-13.3 20.6-4.2 2.6-8.6 3.9-13 3.9h0c-6.8 0-12.1-3.1-13.9-4.4l-11.3-17.5-3.3-5c2-.4 3.7-1.8 4.6-3.7 1-2.3.7-5-1-7-4.6-5.4-7.4-11.9-8.1-19.4-.3-3.1-.3-6.2-.1-9.1l.5 1.3c.3.8.7 1.5 1.3 2.1l.7.8c1.2 1.4 3 2.2 4.9 2.2h.3c1.9-.1 3.8-1 4.9-2.6.7-.9 2.1-2.6 1.9-5.3-.8-11.2 2.7-21.7 11-33 2.8-3.9 6-7.5 9.4-10.8-1.6 8.9-1.5 17.2.3 25 1.1 5.1 3.2 9.5 6.2 13.6 1.2 1.6 3.2 2.6 5.2 2.6h.5c2.2-.2 4.2-1.4 5.2-3.3 1.6-3 2.7-6 3-9.3 3.8 7.1 5.9 14.4 6.5 21.9.8 9.5-1.4 17.2-6.5 23.6-1.6 2-1.9 4.6-.8 6.9s3.3 3.7 5.8 3.7h.6l-1.5 2.2z"/><path d="M39.925 124.286h0z"/><path d="M10.625 100.486h56.4" fill="none" stroke="#000" stroke-width="6.519" stroke-linecap="round" stroke-linejoin="round"/></svg>