<svg xmlns="http://www.w3.org/2000/svg" width="143" height="104" viewBox="-40 0 143 104">
  <g id="lpLGGt.tif" transform="translate(-659.037 -566.874)">
    <g id="Group_289" data-name="Group 289">
      <path id="Path_411" data-name="Path 411" d="M699.769,620.614c3.522,13.387,7.01,26.649,10.5,39.91.207.787.447,1.567.612,2.363.87,4.2-1.5,7.387-5.787,7.422q-16.053.13-32.109,0c-4.688-.033-6.865-3.278-5.629-8.228,2.264-9.072,4.6-18.127,6.894-27.191,1.2-4.72,2.372-9.444,3.612-14.384a25.764,25.764,0,0,1-14.246-15.92,25.416,25.416,0,0,1,.028-16.211,26.753,26.753,0,0,1,25.9-18.238c11.624.263,21.64,8.24,24.915,19.93C717.032,599.276,714.224,612.626,699.769,620.614Z" fill="none" stroke="#000" stroke-miterlimit="10" stroke-width="6.519"/>
    </g>
  </g>
</svg>
