<?xml version="1.0" encoding="utf-8"?>
<!-- Generator: Adobe Illustrator 24.2.3, SVG Export Plug-In . SVG Version: 6.00 Build 0)  -->
<svg version="1.1" id="Layer_1" xmlns="http://www.w3.org/2000/svg" xmlns:xlink="http://www.w3.org/1999/xlink" fill= "#ffffff" x="0px" y="0px"
	 viewBox="0 0 212.41 212.41" style="enable-background:new 0 0 212.41 212.41;" xml:space="preserve">
<g>
	<g id="XMLID_1_">
		<g>
			<path d="M209.74,105.41c0.01,4.34-0.1,8.67-0.32,13.01c-0.19,3.64-0.49,7.27-0.9,10.89c-0.53,4.73-1.25,9.43-2.35,14.06
				c-0.65,2.73-1.43,5.41-2.57,7.97c-0.45,1-0.94,1.99-1.61,2.86c-0.39,0.5-0.82,0.99-1.3,1.39c-1.22,1.02-2.42,1.02-3.65,0
				c-0.5-0.42-0.94-0.92-1.33-1.44c-0.91-1.21-1.52-2.59-2.07-3.99c-1.03-2.59-1.74-5.27-2.35-7.98c-0.74-3.28-1.28-6.6-1.72-9.93
				c-0.47-3.58-0.82-7.17-1.07-10.77c-0.46-6.58-0.61-13.16-0.47-19.74c0.08-3.38,0.21-6.76,0.44-10.13
				c0.23-3.33,0.55-6.66,0.93-9.98c0.58-5,1.42-9.94,2.75-14.8c0.59-2.15,1.29-4.26,2.25-6.28c0.48-1.01,1.03-1.98,1.76-2.83
				c0.26-0.31,0.55-0.6,0.86-0.86c1.16-0.96,2.51-0.96,3.68,0c0.71,0.58,1.25,1.3,1.73,2.07c0.75,1.2,1.31,2.47,1.81,3.78
				c1.07,2.8,1.8,5.7,2.42,8.62c0.73,3.46,1.28,6.96,1.69,10.47c0.27,2.28,0.48,4.57,0.68,6.86
				C209.52,94.23,209.69,99.82,209.74,105.41z"/>
			<path d="M183.85,94.03c0.61,4.99,0.83,10.01,0.7,15.04c-0.08,3.13-0.31,6.25-0.69,9.36c-0.73,6.02-1.99,11.92-3.94,17.67
				c-1.45,4.26-3.27,8.36-5.65,12.2c-1.87,3.02-4.04,5.81-6.7,8.19c-2.35,2.09-4.95,3.77-7.98,4.71c-4.3,1.34-8.49,0.96-12.54-0.98
				c-2.86-1.37-5.29-3.33-7.45-5.64c-3.07-3.29-5.42-7.06-7.38-11.09c-2.33-4.8-3.98-9.83-5.19-15.01
				c-0.82-3.52-1.43-7.07-1.84-10.66c-0.44-3.86-0.65-7.72-0.65-11.6c0-2.94,0.11-5.87,0.36-8.77c0.7-7.97,2.25-15.75,5.08-23.25
				c1.68-4.45,3.78-8.69,6.56-12.57c1.84-2.58,3.95-4.91,6.46-6.85c2.24-1.73,4.68-3.04,7.43-3.76c3.78-0.99,7.44-0.59,10.99,0.96
				c3.39,1.48,6.17,3.78,8.62,6.51c2.51,2.8,4.52,5.94,6.23,9.27c2.68,5.21,4.53,10.71,5.85,16.4
				C182.88,87.42,183.44,90.71,183.85,94.03z"/>
			<path d="M61.47,47.66c32.62,0.03,58.59,26.4,58.55,58.65c-0.04,32.21-26.03,58.44-58.59,58.52
				c-32.52-0.08-58.54-26.29-58.57-58.54C2.83,73.94,28.93,47.63,61.47,47.66z"/>
		</g>
		<g>
		</g>
	</g>
</g>
</svg>
