<svg xmlns="http://www.w3.org/2000/svg" width="143" height="104" viewBox="-28 -9 143 104">
  <g id="_0sE6bE.tif" data-name="0sE6bE.tif" transform="translate(-614.127 -117.088)">
    <g id="Group_285" data-name="Group 285" transform="translate(617.387 120.348)">
      <path id="Path_405" data-name="Path 405" d="M655.216,196.527c-5.252-5.57-10.417-11.043-15.58-16.519Q629.067,168.8,618.49,157.6a2.517,2.517,0,0,1-.767-1.852c-.094-7.742-.241-15.484-.336-23.227a2.065,2.065,0,0,1,.492-1.279q4.613-5.169,9.3-10.269a1.464,1.464,0,0,1,.966-.419q8.519-.037,17.037,0a1.647,1.647,0,0,1,1.03.474q4.7,4.7,9.354,9.436c.19.192.343.42.53.653,3.206-2.83,6.412-5.486,9.4-8.367a7.355,7.355,0,0,1,5.827-2.286c3.5.142,7.007-.089,10.512-.114a1.843,1.843,0,0,1,1.188.475q5.483,5.411,10.895,10.892a1.873,1.873,0,0,1,.488,1.188q.043,10.882,0,21.763a1.8,1.8,0,0,1-.423,1.14q-19.252,20.219-38.539,40.4A3.783,3.783,0,0,0,655.216,196.527Z" transform="translate(-617.387 -120.348)" fill="none" stroke="#000" stroke-miterlimit="10" stroke-width="6.519"/>
    </g>
  </g>
</svg>
