<svg xmlns="http://www.w3.org/2000/svg" width="271.254" height="135.776" viewBox="0 0 271.254 135.776">
  <g id="Group_58" data-name="Group 58" transform="translate(-536.832 -405.136)">
    <path id="Path_61" data-name="Path 61" d="M700.322,437.827l-39.2,14.063v46.8l39.2,14.064,39.2-14.064v-46.8Zm0,3.067,33.483,12.011h0l-33.484,12.011-33.484-12.011Zm-1.445,68.274-34.872-12.511v-41.7l34.872,12.509Zm37.759-54.211v41.7l-34.87,12.51v-41.7l34.87-12.508Z" transform="translate(-21.748 -5.72)"/>
    <g id="Group_57" data-name="Group 57" transform="translate(638.62 432.104)">
      <g id="Group_56" data-name="Group 56">
        <g id="Group_55" data-name="Group 55">
          <path id="Path_62" data-name="Path 62" d="M738.611,451.89v46.8l-39.2,14.058-39.2-14.058v-46.8l39.2-14.066Zm-2.888,44.766v-41.7l-34.874,12.507v41.7Zm-36.317-31.738L732.893,452.9l-33.488-12.012L665.926,452.9Zm-1.444,44.254v-41.7L663.1,454.959v41.7Z" transform="translate(-660.209 -437.824)"/>
          <path id="Path_63" data-name="Path 63" d="M744.342,458.594v41.7l-34.873,12.516V471.1Z" transform="translate(-668.828 -441.458)" fill="#5383b3"/>
          <path id="Path_64" data-name="Path 64" d="M734.105,453.556l-33.487,12.012-33.479-12.012,33.479-12.012Z" transform="translate(-661.422 -438.475)" fill="#5383b3"/>
          <path id="Path_65" data-name="Path 65" d="M698.574,471.1v41.7L663.709,500.29v-41.7Z" transform="translate(-660.821 -441.458)" fill="#5383b3"/>
        </g>
      </g>
    </g>
    <path id="Path_66" data-name="Path 66" d="M576.036,483.236l-39.2,13.39v44.561l39.2,13.391,39.2-13.391V496.625Zm0,2.921,33.483,11.436h0l-33.484,11.436-33.484-11.436Zm-1.445,65.007L539.72,539.252V499.547l34.871,11.91Zm37.76-51.617v39.7l-34.87,11.911V511.457l34.87-11.909Z" transform="translate(0 -13.666)"/>
    <path id="Path_67" data-name="Path 67" d="M809.786,405.136l-39.2,14.062V466l39.2,14.064L848.988,466V419.2Zm0,3.068,33.483,12.01h0l-33.484,12.01L776.3,420.215Zm-1.445,68.274-34.872-12.511v-41.7l34.872,12.509ZM846.1,422.267v41.7l-34.87,12.51v-41.7l34.87-12.508Z" transform="translate(-40.902)"/>
  </g>
</svg>
