<?xml version="1.0" encoding="utf-8"?>
<!-- Generator: Adobe Illustrator 16.0.0, SVG Export Plug-In . SVG Version: 6.00 Build 0)  -->
<!DOCTYPE svg PUBLIC "-//W3C//DTD SVG 1.1//EN" "http://www.w3.org/Graphics/SVG/1.1/DTD/svg11.dtd">
<svg version="1.1" id="Layer_1" xmlns="http://www.w3.org/2000/svg" xmlns:xlink="http://www.w3.org/1999/xlink" x="0px" y="0px"
	 width="2012px" height="2140px" viewBox="0 0 2012 2140" enable-background="new 0 0 2012 2140" xml:space="preserve">
<path fill="#FFFFFF" d="M242.808,241.604C149.986,319.453,54.171,415.27,15.244,532.046
	c-44.914,137.735,17.967,278.463,77.851,401.228c59.884,125.758,125.759,248.521,182.647,377.273
	c44.915,101.805,107.793,221.574,92.822,335.354c-11.977,80.847-38.926,158.697-53.896,239.541
	c-11.979,53.899,38.925,0,56.891-14.972c104.797-89.827,218.579-191.633,260.499-329.365
	c20.959-68.866,8.982-131.749-14.971-197.619c-23.953-62.879-50.902-122.764-77.85-185.643
	c-56.891-125.76-116.776-251.517-176.66-377.276c-23.956-44.912-47.909-92.821-68.868-140.728
	c-20.96-50.903-32.938-104.799-35.931-161.689c-2.995-44.914-2.995-86.834,2.993-131.747c2.996-32.937,11.979-62.88,14.972-95.816
	C278.739,232.62,263.769,226.632,242.808,241.604L242.808,241.604z M1614.171,241.604
	c-92.821,77.849-188.64,173.665-227.563,290.441c-44.912,137.735,17.963,278.463,77.853,401.228
	c59.885,125.758,125.754,248.521,182.648,377.273c44.911,101.805,107.791,221.574,92.819,335.354
	c-11.977,80.847-38.924,158.697-53.896,239.541c-11.978,53.899,38.926,0,56.889-14.972
	c104.8-89.827,218.582-191.633,260.501-329.365c20.959-68.866,8.983-131.749-14.973-197.619
	c-23.951-62.879-50.901-122.764-77.848-185.643c-56.89-125.76-116.776-251.517-176.662-377.276
	c-23.951-44.912-47.906-92.821-68.865-140.728c-20.96-50.903-32.938-104.799-35.935-161.689c-2.99-44.914-2.99-86.834,2.996-131.747
	c2.996-32.937,11.979-62.88,14.974-95.816C1650.1,232.62,1635.131,226.632,1614.171,241.604L1614.171,241.604z"/>
<path fill="#FFFFFF" d="M907.528,14.04C802.731,100.874,688.95,205.672,626.071,328.436
	c-44.913,86.833-50.902,176.661-26.948,266.487c29.944,107.792,71.86,215.584,116.776,320.385
	c86.833,200.614,200.614,389.251,284.452,592.862c29.942,71.861,62.88,152.705,68.868,233.55
	c5.989,98.809-26.947,203.607-53.897,296.429c-5.987,26.948-23.954,62.881-20.959,89.827c2.995,20.96,14.972,11.978,26.947,2.995
	c50.903-38.925,101.805-83.84,146.72-128.754c122.764-116.774,263.493-272.474,251.515-455.122
	c-5.987-74.857-41.919-146.72-71.862-215.587c-32.938-80.845-68.866-158.697-104.799-236.546
	c-65.871-146.716-134.742-290.44-206.603-434.163c-23.954-50.905-53.896-98.812-71.86-149.713
	c-26.948-68.868-38.925-140.73-41.92-212.591c-2.992-53.896,0-110.787,5.989-164.684c2.995-35.931,14.972-68.868,14.972-104.798
	C952.443-3.926,934.477-6.919,907.528,14.04L907.528,14.04z"/>
</svg>
